 0
SECTION
 2
HEADER
 0
ENDSEC
 0
SECTION
 2
TABLES
 0
ENDSEC
 0
SECTION
 2
BLOCKS
0
BLOCK
70
0
2
NS16
10
0
20
0
30
0
999
##### Poly 49 ####
0
POLYLINE
5
36
70
1
8
2
6
CONTINUOUS
66
1
10
0
20
0
30
0
39
.079
0
VERTEX
8
2
6
CONTINUOUS
 10
.1955
 20
-.1175
 30
0
0
VERTEX
8
2
6
CONTINUOUS
 10
.1955
 20
-.1325
 30
0
0
VERTEX
8
2
6
CONTINUOUS
 10
.1855
 20
-.1325
 30
0
0
VERTEX
8
2
6
CONTINUOUS
 10
.1855
 20
-.1175
 30
0
0
SEQEND
0
3DFACE
5
49
8
0
6
CONTINUOUS
 10
.1955
 20
-.1175
 30
.079
 11
.1955
 21
-.1325
 31
.079
 12
.1855
 22
-.1325
 32
.079
 13
.1855
 23
-.1175
 33
.079
0
3DFACE
5
49
8
0
6
CONTINUOUS
 10
.1955
 20
-.1175
 30
0
 11
.1955
 21
-.1325
 31
0
 12
.1855
 22
-.1325
 32
0
 13
.1855
 23
-.1175
 33
0
999
##### Poly 118 ####
0
POLYLINE
5
36
70
1
8
8
6
CONTINUOUS
66
1
10
0
20
0
30
0
39
.079
0
VERTEX
8
8
6
CONTINUOUS
 10
-.1855
 20
-.2165
 30
0
0
VERTEX
8
8
6
CONTINUOUS
 10
-.1855
 20
.2165
 30
0
0
VERTEX
8
8
6
CONTINUOUS
 10
.1855
 20
.2165
 30
0
0
VERTEX
8
8
6
CONTINUOUS
 10
.1855
 20
-.2165
 30
0
0
SEQEND
0
3DFACE
5
49
8
0
6
CONTINUOUS
 10
-.1855
 20
-.2165
 30
.079
 11
-.1855
 21
.2165
 31
.079
 12
.1855
 22
.2165
 32
.079
 13
.1855
 23
-.2165
 33
.079
0
3DFACE
5
49
8
0
6
CONTINUOUS
 10
-.1855
 20
-.2165
 30
0
 11
-.1855
 21
.2165
 31
0
 12
.1855
 22
.2165
 32
0
 13
.1855
 23
-.2165
 33
0
999
##### Poly 119 ####
0
POLYLINE
5
36
70
1
8
23
6
CONTINUOUS
66
1
10
0
20
0
30
0
39
.079
0
VERTEX
8
23
6
CONTINUOUS
 10
-.2005
 20
-.2165
 30
0
0
VERTEX
8
23
6
CONTINUOUS
 10
-.2005
 20
.2165
 30
0
0
VERTEX
8
23
6
CONTINUOUS
 10
.2005
 20
.2165
 30
0
0
VERTEX
8
23
6
CONTINUOUS
 10
.2005
 20
-.2165
 30
0
0
SEQEND
0
3DFACE
5
49
8
0
6
CONTINUOUS
 10
-.2005
 20
-.2165
 30
.079
 11
-.2005
 21
.2165
 31
.079
 12
.2005
 22
.2165
 32
.079
 13
.2005
 23
-.2165
 33
.079
0
3DFACE
5
49
8
0
6
CONTINUOUS
 10
-.2005
 20
-.2165
 30
0
 11
-.2005
 21
.2165
 31
0
 12
.2005
 22
.2165
 32
0
 13
.2005
 23
-.2165
 33
0
0
ENDBLK
0
BLOCK
70
0
2
NS16-L
10
0
20
0
30
0
999
##### Poly 49 ####
0
POLYLINE
5
36
70
1
8
2
6
CONTINUOUS
66
1
10
0
20
0
30
0
39
.079
0
VERTEX
8
2
6
CONTINUOUS
 10
.1875
 20
-.1175
 30
0
0
VERTEX
8
2
6
CONTINUOUS
 10
.1875
 20
-.1325
 30
0
0
VERTEX
8
2
6
CONTINUOUS
 10
.1775
 20
-.1325
 30
0
0
VERTEX
8
2
6
CONTINUOUS
 10
.1775
 20
-.1175
 30
0
0
SEQEND
0
3DFACE
5
49
8
0
6
CONTINUOUS
 10
.1875
 20
-.1175
 30
.079
 11
.1875
 21
-.1325
 31
.079
 12
.1775
 22
-.1325
 32
.079
 13
.1775
 23
-.1175
 33
.079
0
3DFACE
5
49
8
0
6
CONTINUOUS
 10
.1875
 20
-.1175
 30
0
 11
.1875
 21
-.1325
 31
0
 12
.1775
 22
-.1325
 32
0
 13
.1775
 23
-.1175
 33
0
999
##### Poly 126 ####
0
POLYLINE
5
36
70
1
8
8
6
CONTINUOUS
66
1
10
0
20
0
30
0
39
.079
0
VERTEX
8
8
6
CONTINUOUS
 10
-.1715
 20
-.189
 30
0
0
VERTEX
8
8
6
CONTINUOUS
 10
-.1715
 20
.189
 30
0
0
VERTEX
8
8
6
CONTINUOUS
 10
-.114
 20
.189
 30
0
0
VERTEX
8
8
6
CONTINUOUS
 10
-.114
 20
.2105
 30
0
0
VERTEX
8
8
6
CONTINUOUS
 10
.114
 20
.2105
 30
0
0
VERTEX
8
8
6
CONTINUOUS
 10
.114
 20
.189
 30
0
0
VERTEX
8
8
6
CONTINUOUS
 10
.1715
 20
.189
 30
0
0
VERTEX
8
8
6
CONTINUOUS
 10
.1715
 20
-.189
 30
0
0
VERTEX
8
8
6
CONTINUOUS
 10
.114
 20
-.189
 30
0
0
VERTEX
8
8
6
CONTINUOUS
 10
.114
 20
-.2105
 30
0
0
VERTEX
8
8
6
CONTINUOUS
 10
-.114
 20
-.2105
 30
0
0
VERTEX
8
8
6
CONTINUOUS
 10
-.114
 20
-.189
 30
0
0
SEQEND
999
##### Poly 144 ####
0
POLYLINE
5
36
70
1
8
23
6
CONTINUOUS
66
1
10
0
20
0
30
0
39
.079
0
VERTEX
8
23
6
CONTINUOUS
 10
-.1925
 20
-.2165
 30
0
0
VERTEX
8
23
6
CONTINUOUS
 10
-.1925
 20
.2165
 30
0
0
VERTEX
8
23
6
CONTINUOUS
 10
.1925
 20
.2165
 30
0
0
VERTEX
8
23
6
CONTINUOUS
 10
.1925
 20
-.2165
 30
0
0
SEQEND
0
3DFACE
5
49
8
0
6
CONTINUOUS
 10
-.1925
 20
-.2165
 30
.079
 11
-.1925
 21
.2165
 31
.079
 12
.1925
 22
.2165
 32
.079
 13
.1925
 23
-.2165
 33
.079
0
3DFACE
5
49
8
0
6
CONTINUOUS
 10
-.1925
 20
-.2165
 30
0
 11
-.1925
 21
.2165
 31
0
 12
.1925
 22
.2165
 32
0
 13
.1925
 23
-.2165
 33
0
0
ENDBLK
0
BLOCK
70
0
2
NS16-M
10
0
20
0
30
0
999
##### Poly 49 ####
0
POLYLINE
5
36
70
1
8
2
6
CONTINUOUS
66
1
10
0
20
0
30
0
39
.079
0
VERTEX
8
2
6
CONTINUOUS
 10
.2035
 20
-.1175
 30
0
0
VERTEX
8
2
6
CONTINUOUS
 10
.2035
 20
-.1325
 30
0
0
VERTEX
8
2
6
CONTINUOUS
 10
.1935
 20
-.1325
 30
0
0
VERTEX
8
2
6
CONTINUOUS
 10
.1935
 20
-.1175
 30
0
0
SEQEND
0
3DFACE
5
49
8
0
6
CONTINUOUS
 10
.2035
 20
-.1175
 30
.079
 11
.2035
 21
-.1325
 31
.079
 12
.1935
 22
-.1325
 32
.079
 13
.1935
 23
-.1175
 33
.079
0
3DFACE
5
49
8
0
6
CONTINUOUS
 10
.2035
 20
-.1175
 30
0
 11
.2035
 21
-.1325
 31
0
 12
.1935
 22
-.1325
 32
0
 13
.1935
 23
-.1175
 33
0
999
##### Poly 126 ####
0
POLYLINE
5
36
70
1
8
8
6
CONTINUOUS
66
1
10
0
20
0
30
0
39
.079
0
VERTEX
8
8
6
CONTINUOUS
 10
-.2035
 20
-.206
 30
0
0
VERTEX
8
8
6
CONTINUOUS
 10
-.2035
 20
.206
 30
0
0
VERTEX
8
8
6
CONTINUOUS
 10
-.13
 20
.206
 30
0
0
VERTEX
8
8
6
CONTINUOUS
 10
-.13
 20
.2265
 30
0
0
VERTEX
8
8
6
CONTINUOUS
 10
.13
 20
.2265
 30
0
0
VERTEX
8
8
6
CONTINUOUS
 10
.13
 20
.206
 30
0
0
VERTEX
8
8
6
CONTINUOUS
 10
.2035
 20
.206
 30
0
0
VERTEX
8
8
6
CONTINUOUS
 10
.2035
 20
-.206
 30
0
0
VERTEX
8
8
6
CONTINUOUS
 10
.13
 20
-.206
 30
0
0
VERTEX
8
8
6
CONTINUOUS
 10
.13
 20
-.2265
 30
0
0
VERTEX
8
8
6
CONTINUOUS
 10
-.13
 20
-.2265
 30
0
0
VERTEX
8
8
6
CONTINUOUS
 10
-.13
 20
-.206
 30
0
0
SEQEND
999
##### Poly 144 ####
0
POLYLINE
5
36
70
1
8
23
6
CONTINUOUS
66
1
10
0
20
0
30
0
39
.079
0
VERTEX
8
23
6
CONTINUOUS
 10
-.2085
 20
-.2165
 30
0
0
VERTEX
8
23
6
CONTINUOUS
 10
-.2085
 20
.2165
 30
0
0
VERTEX
8
23
6
CONTINUOUS
 10
.2085
 20
.2165
 30
0
0
VERTEX
8
23
6
CONTINUOUS
 10
.2085
 20
-.2165
 30
0
0
SEQEND
0
3DFACE
5
49
8
0
6
CONTINUOUS
 10
-.2085
 20
-.2165
 30
.079
 11
-.2085
 21
.2165
 31
.079
 12
.2085
 22
.2165
 32
.079
 13
.2085
 23
-.2165
 33
.079
0
3DFACE
5
49
8
0
6
CONTINUOUS
 10
-.2085
 20
-.2165
 30
0
 11
-.2085
 21
.2165
 31
0
 12
.2085
 22
.2165
 32
0
 13
.2085
 23
-.2165
 33
0
0
ENDBLK
0
ENDSEC
0
SECTION
2
ENTITIES
 0
INSERT
 8
0
 2
NS16
 10
0
 20
0
 30
0
 41
1
 42
1
 43
1
 0
INSERT
 8
0
 2
NS16-L
 10
2
 20
0
 30
0
 41
1
 42
1
 43
1
 0
INSERT
 8
0
 2
NS16-M
 10
0
 20
2
 30
0
 41
1
 42
1
 43
1
0
ENDSEC
 0
EOF

