%TF.GenerationSoftware,KiCad,Pcbnew,(6.0.6)*%
%TF.CreationDate,2022-09-06T17:14:10+09:00*%
%TF.ProjectId,mouse,6d6f7573-652e-46b6-9963-61645f706362,rev?*%
%TF.SameCoordinates,Original*%
%TF.FileFunction,Soldermask,Top*%
%TF.FilePolarity,Negative*%
%FSLAX46Y46*%
G04 Gerber Fmt 4.6, Leading zero omitted, Abs format (unit mm)*
G04 Created by KiCad (PCBNEW (6.0.6)) date 2022-09-06 17:14:10*
%MOMM*%
%LPD*%
G01*
G04 APERTURE LIST*
G04 Aperture macros list*
%AMRoundRect*
0 Rectangle with rounded corners*
0 $1 Rounding radius*
0 $2 $3 $4 $5 $6 $7 $8 $9 X,Y pos of 4 corners*
0 Add a 4 corners polygon primitive as box body*
4,1,4,$2,$3,$4,$5,$6,$7,$8,$9,$2,$3,0*
0 Add four circle primitives for the rounded corners*
1,1,$1+$1,$2,$3*
1,1,$1+$1,$4,$5*
1,1,$1+$1,$6,$7*
1,1,$1+$1,$8,$9*
0 Add four rect primitives between the rounded corners*
20,1,$1+$1,$2,$3,$4,$5,0*
20,1,$1+$1,$4,$5,$6,$7,0*
20,1,$1+$1,$6,$7,$8,$9,0*
20,1,$1+$1,$8,$9,$2,$3,0*%
G04 Aperture macros list end*
%ADD10C,1.524000*%
%ADD11C,2.400000*%
%ADD12R,1.500000X1.500000*%
%ADD13O,1.500000X1.500000*%
%ADD14RoundRect,0.150000X-0.875000X-0.150000X0.875000X-0.150000X0.875000X0.150000X-0.875000X0.150000X0*%
%ADD15C,1.600000*%
%ADD16O,1.600000X1.600000*%
%ADD17C,5.700000*%
%ADD18R,2.200000X1.600000*%
%ADD19RoundRect,0.200000X0.200000X0.275000X-0.200000X0.275000X-0.200000X-0.275000X0.200000X-0.275000X0*%
%ADD20C,1.100000*%
%ADD21R,1.100000X2.500000*%
%ADD22O,1.900000X3.500000*%
G04 APERTURE END LIST*
D10*
%TO.C,J1*%
X127250000Y-109900000D03*
X129750000Y-109900000D03*
X132250000Y-109900000D03*
X134750000Y-109900000D03*
X137250000Y-109900000D03*
X139750000Y-109900000D03*
%TD*%
D11*
%TO.C,CP1*%
X159200000Y-90100000D03*
%TD*%
D12*
%TO.C,D4*%
X150000000Y-86215000D03*
D13*
X150000000Y-78595000D03*
%TD*%
D14*
%TO.C,U4*%
X107350000Y-54305000D03*
X107350000Y-55575000D03*
X107350000Y-56845000D03*
X107350000Y-58115000D03*
X107350000Y-59385000D03*
X107350000Y-60655000D03*
X107350000Y-61925000D03*
X107350000Y-63195000D03*
X116650000Y-63195000D03*
X116650000Y-61925000D03*
X116650000Y-60655000D03*
X116650000Y-59385000D03*
X116650000Y-58115000D03*
X116650000Y-56845000D03*
X116650000Y-55575000D03*
X116650000Y-54305000D03*
%TD*%
D15*
%TO.C,R3*%
X134000000Y-87980000D03*
D16*
X134000000Y-77820000D03*
%TD*%
D11*
%TO.C,Cp3*%
X159100000Y-80000000D03*
%TD*%
D15*
%TO.C,R1*%
X107800000Y-88380000D03*
D16*
X107800000Y-78220000D03*
%TD*%
D17*
%TO.C,REF1*%
X103955242Y-111165242D03*
%TD*%
D18*
%TO.C,C3*%
X135600000Y-74600000D03*
X138600000Y-74600000D03*
%TD*%
D19*
%TO.C,R5*%
X130825000Y-67000000D03*
X129175000Y-67000000D03*
%TD*%
D14*
%TO.C,U3*%
X141850000Y-90555000D03*
X141850000Y-91825000D03*
X141850000Y-93095000D03*
X141850000Y-94365000D03*
X141850000Y-95635000D03*
X141850000Y-96905000D03*
X141850000Y-98175000D03*
X141850000Y-99445000D03*
X151150000Y-99445000D03*
X151150000Y-98175000D03*
X151150000Y-96905000D03*
X151150000Y-95635000D03*
X151150000Y-94365000D03*
X151150000Y-93095000D03*
X151150000Y-91825000D03*
X151150000Y-90555000D03*
%TD*%
D18*
%TO.C,C2*%
X121600000Y-74600000D03*
X124600000Y-74600000D03*
%TD*%
D14*
%TO.C,U2*%
X124350000Y-90555000D03*
X124350000Y-91825000D03*
X124350000Y-93095000D03*
X124350000Y-94365000D03*
X124350000Y-95635000D03*
X124350000Y-96905000D03*
X124350000Y-98175000D03*
X124350000Y-99445000D03*
X133650000Y-99445000D03*
X133650000Y-98175000D03*
X133650000Y-96905000D03*
X133650000Y-95635000D03*
X133650000Y-94365000D03*
X133650000Y-93095000D03*
X133650000Y-91825000D03*
X133650000Y-90555000D03*
%TD*%
D15*
%TO.C,R2*%
X120300000Y-88165000D03*
D16*
X120300000Y-78005000D03*
%TD*%
D12*
%TO.C,D3*%
X138200000Y-86415000D03*
D13*
X138200000Y-78795000D03*
%TD*%
D15*
%TO.C,R4*%
X145500000Y-88380000D03*
D16*
X145500000Y-78220000D03*
%TD*%
D11*
%TO.C,CP2*%
X159100000Y-84900000D03*
%TD*%
D17*
%TO.C,REF2*%
X103705242Y-45665242D03*
%TD*%
%TO.C,REF3*%
X160705242Y-111165242D03*
%TD*%
D11*
%TO.C,CP4*%
X159100000Y-74900000D03*
%TD*%
D20*
%TO.C,USB-A1*%
X150300000Y-64900000D03*
X145700000Y-64900000D03*
D21*
X144500000Y-67650000D03*
X147000000Y-67650000D03*
X149000000Y-67650000D03*
X151500000Y-67650000D03*
D22*
X153700000Y-64900000D03*
X142300000Y-64900000D03*
%TD*%
D18*
%TO.C,C1*%
X108900000Y-74600000D03*
X111900000Y-74600000D03*
%TD*%
D14*
%TO.C,U5*%
X125350000Y-53920000D03*
X125350000Y-55190000D03*
X125350000Y-56460000D03*
X125350000Y-57730000D03*
X125350000Y-59000000D03*
X125350000Y-60270000D03*
X125350000Y-61540000D03*
X125350000Y-62810000D03*
X125350000Y-64080000D03*
X134650000Y-64080000D03*
X134650000Y-62810000D03*
X134650000Y-61540000D03*
X134650000Y-60270000D03*
X134650000Y-59000000D03*
X134650000Y-57730000D03*
X134650000Y-56460000D03*
X134650000Y-55190000D03*
X134650000Y-53920000D03*
%TD*%
D12*
%TO.C,D2*%
X125200000Y-86400000D03*
D13*
X125200000Y-78780000D03*
%TD*%
D17*
%TO.C,REF4*%
X160705242Y-45665242D03*
%TD*%
D14*
%TO.C,U1*%
X107350000Y-91190000D03*
X107350000Y-92460000D03*
X107350000Y-93730000D03*
X107350000Y-95000000D03*
X107350000Y-96270000D03*
X107350000Y-97540000D03*
X107350000Y-98810000D03*
X116650000Y-98810000D03*
X116650000Y-97540000D03*
X116650000Y-96270000D03*
X116650000Y-95000000D03*
X116650000Y-93730000D03*
X116650000Y-92460000D03*
X116650000Y-91190000D03*
%TD*%
D18*
%TO.C,C4*%
X147800000Y-74800000D03*
X150800000Y-74800000D03*
%TD*%
D12*
%TO.C,D1*%
X112000000Y-86415000D03*
D13*
X112000000Y-78795000D03*
%TD*%
M02*
