%TF.GenerationSoftware,KiCad,Pcbnew,(6.0.6)*%
%TF.CreationDate,2022-09-12T12:50:46+09:00*%
%TF.ProjectId,mouse,6d6f7573-652e-46b6-9963-61645f706362,rev?*%
%TF.SameCoordinates,Original*%
%TF.FileFunction,Legend,Top*%
%TF.FilePolarity,Positive*%
%FSLAX46Y46*%
G04 Gerber Fmt 4.6, Leading zero omitted, Abs format (unit mm)*
G04 Created by KiCad (PCBNEW (6.0.6)) date 2022-09-12 12:50:46*
%MOMM*%
%LPD*%
G01*
G04 APERTURE LIST*
G04 Aperture macros list*
%AMRoundRect*
0 Rectangle with rounded corners*
0 $1 Rounding radius*
0 $2 $3 $4 $5 $6 $7 $8 $9 X,Y pos of 4 corners*
0 Add a 4 corners polygon primitive as box body*
4,1,4,$2,$3,$4,$5,$6,$7,$8,$9,$2,$3,0*
0 Add four circle primitives for the rounded corners*
1,1,$1+$1,$2,$3*
1,1,$1+$1,$4,$5*
1,1,$1+$1,$6,$7*
1,1,$1+$1,$8,$9*
0 Add four rect primitives between the rounded corners*
20,1,$1+$1,$2,$3,$4,$5,0*
20,1,$1+$1,$4,$5,$6,$7,0*
20,1,$1+$1,$6,$7,$8,$9,0*
20,1,$1+$1,$8,$9,$2,$3,0*%
G04 Aperture macros list end*
%ADD10C,0.175000*%
%ADD11C,0.150000*%
%ADD12C,0.120000*%
%ADD13C,2.400000*%
%ADD14R,1.500000X1.500000*%
%ADD15O,1.500000X1.500000*%
%ADD16RoundRect,0.150000X-0.875000X-0.150000X0.875000X-0.150000X0.875000X0.150000X-0.875000X0.150000X0*%
%ADD17C,1.600000*%
%ADD18O,1.600000X1.600000*%
%ADD19C,5.700000*%
%ADD20R,2.200000X1.600000*%
%ADD21RoundRect,0.200000X0.200000X0.275000X-0.200000X0.275000X-0.200000X-0.275000X0.200000X-0.275000X0*%
%ADD22C,1.100000*%
%ADD23R,1.100000X2.500000*%
%ADD24O,1.900000X3.500000*%
%ADD25C,1.524000*%
G04 APERTURE END LIST*
D10*
X118666666Y-46252380D02*
X118666666Y-45252380D01*
X118933333Y-45252380D01*
X119000000Y-45300000D01*
X119033333Y-45347619D01*
X119066666Y-45442857D01*
X119066666Y-45585714D01*
X119033333Y-45680952D01*
X119000000Y-45728571D01*
X118933333Y-45776190D01*
X118666666Y-45776190D01*
X119366666Y-46252380D02*
X119366666Y-45252380D01*
X119366666Y-45728571D02*
X119766666Y-45728571D01*
X119766666Y-46252380D02*
X119766666Y-45252380D01*
X120066666Y-45966666D02*
X120400000Y-45966666D01*
X120000000Y-46252380D02*
X120233333Y-45252380D01*
X120466666Y-46252380D01*
X121100000Y-46157142D02*
X121066666Y-46204761D01*
X120966666Y-46252380D01*
X120900000Y-46252380D01*
X120800000Y-46204761D01*
X120733333Y-46109523D01*
X120700000Y-46014285D01*
X120666666Y-45823809D01*
X120666666Y-45680952D01*
X120700000Y-45490476D01*
X120733333Y-45395238D01*
X120800000Y-45300000D01*
X120900000Y-45252380D01*
X120966666Y-45252380D01*
X121066666Y-45300000D01*
X121100000Y-45347619D01*
X121400000Y-45728571D02*
X121633333Y-45728571D01*
X121733333Y-46252380D02*
X121400000Y-46252380D01*
X121400000Y-45252380D01*
X121733333Y-45252380D01*
X122466666Y-45585714D02*
X122733333Y-45585714D01*
X122566666Y-45252380D02*
X122566666Y-46109523D01*
X122600000Y-46204761D01*
X122666666Y-46252380D01*
X122733333Y-46252380D01*
X123066666Y-46252380D02*
X123000000Y-46204761D01*
X122966666Y-46157142D01*
X122933333Y-46061904D01*
X122933333Y-45776190D01*
X122966666Y-45680952D01*
X123000000Y-45633333D01*
X123066666Y-45585714D01*
X123166666Y-45585714D01*
X123233333Y-45633333D01*
X123266666Y-45680952D01*
X123300000Y-45776190D01*
X123300000Y-46061904D01*
X123266666Y-46157142D01*
X123233333Y-46204761D01*
X123166666Y-46252380D01*
X123066666Y-46252380D01*
X124133333Y-45252380D02*
X124133333Y-46061904D01*
X124166666Y-46157142D01*
X124200000Y-46204761D01*
X124266666Y-46252380D01*
X124400000Y-46252380D01*
X124466666Y-46204761D01*
X124500000Y-46157142D01*
X124533333Y-46061904D01*
X124533333Y-45252380D01*
X124833333Y-46204761D02*
X124933333Y-46252380D01*
X125100000Y-46252380D01*
X125166666Y-46204761D01*
X125200000Y-46157142D01*
X125233333Y-46061904D01*
X125233333Y-45966666D01*
X125200000Y-45871428D01*
X125166666Y-45823809D01*
X125100000Y-45776190D01*
X124966666Y-45728571D01*
X124900000Y-45680952D01*
X124866666Y-45633333D01*
X124833333Y-45538095D01*
X124833333Y-45442857D01*
X124866666Y-45347619D01*
X124900000Y-45300000D01*
X124966666Y-45252380D01*
X125133333Y-45252380D01*
X125233333Y-45300000D01*
X125766666Y-45728571D02*
X125866666Y-45776190D01*
X125900000Y-45823809D01*
X125933333Y-45919047D01*
X125933333Y-46061904D01*
X125900000Y-46157142D01*
X125866666Y-46204761D01*
X125800000Y-46252380D01*
X125533333Y-46252380D01*
X125533333Y-45252380D01*
X125766666Y-45252380D01*
X125833333Y-45300000D01*
X125866666Y-45347619D01*
X125900000Y-45442857D01*
X125900000Y-45538095D01*
X125866666Y-45633333D01*
X125833333Y-45680952D01*
X125766666Y-45728571D01*
X125533333Y-45728571D01*
X127166666Y-46157142D02*
X127133333Y-46204761D01*
X127033333Y-46252380D01*
X126966666Y-46252380D01*
X126866666Y-46204761D01*
X126800000Y-46109523D01*
X126766666Y-46014285D01*
X126733333Y-45823809D01*
X126733333Y-45680952D01*
X126766666Y-45490476D01*
X126800000Y-45395238D01*
X126866666Y-45300000D01*
X126966666Y-45252380D01*
X127033333Y-45252380D01*
X127133333Y-45300000D01*
X127166666Y-45347619D01*
X127566666Y-46252380D02*
X127500000Y-46204761D01*
X127466666Y-46157142D01*
X127433333Y-46061904D01*
X127433333Y-45776190D01*
X127466666Y-45680952D01*
X127500000Y-45633333D01*
X127566666Y-45585714D01*
X127666666Y-45585714D01*
X127733333Y-45633333D01*
X127766666Y-45680952D01*
X127800000Y-45776190D01*
X127800000Y-46061904D01*
X127766666Y-46157142D01*
X127733333Y-46204761D01*
X127666666Y-46252380D01*
X127566666Y-46252380D01*
X128100000Y-45585714D02*
X128100000Y-46252380D01*
X128100000Y-45680952D02*
X128133333Y-45633333D01*
X128200000Y-45585714D01*
X128300000Y-45585714D01*
X128366666Y-45633333D01*
X128400000Y-45728571D01*
X128400000Y-46252380D01*
X128666666Y-45585714D02*
X128833333Y-46252380D01*
X129000000Y-45585714D01*
X129533333Y-46204761D02*
X129466666Y-46252380D01*
X129333333Y-46252380D01*
X129266666Y-46204761D01*
X129233333Y-46109523D01*
X129233333Y-45728571D01*
X129266666Y-45633333D01*
X129333333Y-45585714D01*
X129466666Y-45585714D01*
X129533333Y-45633333D01*
X129566666Y-45728571D01*
X129566666Y-45823809D01*
X129233333Y-45919047D01*
X129866666Y-46252380D02*
X129866666Y-45585714D01*
X129866666Y-45776190D02*
X129900000Y-45680952D01*
X129933333Y-45633333D01*
X130000000Y-45585714D01*
X130066666Y-45585714D01*
X130200000Y-45585714D02*
X130466666Y-45585714D01*
X130300000Y-45252380D02*
X130300000Y-46109523D01*
X130333333Y-46204761D01*
X130400000Y-46252380D01*
X130466666Y-46252380D01*
X130966666Y-46204761D02*
X130900000Y-46252380D01*
X130766666Y-46252380D01*
X130700000Y-46204761D01*
X130666666Y-46109523D01*
X130666666Y-45728571D01*
X130700000Y-45633333D01*
X130766666Y-45585714D01*
X130900000Y-45585714D01*
X130966666Y-45633333D01*
X131000000Y-45728571D01*
X131000000Y-45823809D01*
X130666666Y-45919047D01*
X131300000Y-46252380D02*
X131300000Y-45585714D01*
X131300000Y-45776190D02*
X131333333Y-45680952D01*
X131366666Y-45633333D01*
X131433333Y-45585714D01*
X131500000Y-45585714D01*
X132466666Y-46633333D02*
X132433333Y-46585714D01*
X132366666Y-46442857D01*
X132333333Y-46347619D01*
X132300000Y-46204761D01*
X132266666Y-45966666D01*
X132266666Y-45776190D01*
X132300000Y-45538095D01*
X132333333Y-45395238D01*
X132366666Y-45300000D01*
X132433333Y-45157142D01*
X132466666Y-45109523D01*
X132633333Y-45252380D02*
X133033333Y-45252380D01*
X132833333Y-46252380D02*
X132833333Y-45252380D01*
X133266666Y-46252380D02*
X133266666Y-45585714D01*
X133266666Y-45776190D02*
X133300000Y-45680952D01*
X133333333Y-45633333D01*
X133400000Y-45585714D01*
X133466666Y-45585714D01*
X134000000Y-46252380D02*
X134000000Y-45728571D01*
X133966666Y-45633333D01*
X133900000Y-45585714D01*
X133766666Y-45585714D01*
X133700000Y-45633333D01*
X134000000Y-46204761D02*
X133933333Y-46252380D01*
X133766666Y-46252380D01*
X133700000Y-46204761D01*
X133666666Y-46109523D01*
X133666666Y-46014285D01*
X133700000Y-45919047D01*
X133766666Y-45871428D01*
X133933333Y-45871428D01*
X134000000Y-45823809D01*
X134633333Y-46204761D02*
X134566666Y-46252380D01*
X134433333Y-46252380D01*
X134366666Y-46204761D01*
X134333333Y-46157142D01*
X134300000Y-46061904D01*
X134300000Y-45776190D01*
X134333333Y-45680952D01*
X134366666Y-45633333D01*
X134433333Y-45585714D01*
X134566666Y-45585714D01*
X134633333Y-45633333D01*
X134933333Y-46252380D02*
X134933333Y-45252380D01*
X135000000Y-45871428D02*
X135200000Y-46252380D01*
X135200000Y-45585714D02*
X134933333Y-45966666D01*
X135733333Y-45728571D02*
X135833333Y-45776190D01*
X135866666Y-45823809D01*
X135900000Y-45919047D01*
X135900000Y-46061904D01*
X135866666Y-46157142D01*
X135833333Y-46204761D01*
X135766666Y-46252380D01*
X135500000Y-46252380D01*
X135500000Y-45252380D01*
X135733333Y-45252380D01*
X135800000Y-45300000D01*
X135833333Y-45347619D01*
X135866666Y-45442857D01*
X135866666Y-45538095D01*
X135833333Y-45633333D01*
X135800000Y-45680952D01*
X135733333Y-45728571D01*
X135500000Y-45728571D01*
X136500000Y-46252380D02*
X136500000Y-45728571D01*
X136466666Y-45633333D01*
X136400000Y-45585714D01*
X136266666Y-45585714D01*
X136200000Y-45633333D01*
X136500000Y-46204761D02*
X136433333Y-46252380D01*
X136266666Y-46252380D01*
X136200000Y-46204761D01*
X136166666Y-46109523D01*
X136166666Y-46014285D01*
X136200000Y-45919047D01*
X136266666Y-45871428D01*
X136433333Y-45871428D01*
X136500000Y-45823809D01*
X136933333Y-46252380D02*
X136866666Y-46204761D01*
X136833333Y-46109523D01*
X136833333Y-45252380D01*
X137300000Y-46252380D02*
X137233333Y-46204761D01*
X137200000Y-46109523D01*
X137200000Y-45252380D01*
X137566666Y-45871428D02*
X138100000Y-45871428D01*
X138433333Y-46252380D02*
X138433333Y-45252380D01*
X138766666Y-45585714D02*
X138766666Y-46252380D01*
X138766666Y-45680952D02*
X138800000Y-45633333D01*
X138866666Y-45585714D01*
X138966666Y-45585714D01*
X139033333Y-45633333D01*
X139066666Y-45728571D01*
X139066666Y-46252380D01*
X139300000Y-45585714D02*
X139566666Y-45585714D01*
X139400000Y-45252380D02*
X139400000Y-46109523D01*
X139433333Y-46204761D01*
X139500000Y-46252380D01*
X139566666Y-46252380D01*
X140066666Y-46204761D02*
X140000000Y-46252380D01*
X139866666Y-46252380D01*
X139800000Y-46204761D01*
X139766666Y-46109523D01*
X139766666Y-45728571D01*
X139800000Y-45633333D01*
X139866666Y-45585714D01*
X140000000Y-45585714D01*
X140066666Y-45633333D01*
X140100000Y-45728571D01*
X140100000Y-45823809D01*
X139766666Y-45919047D01*
X140400000Y-46252380D02*
X140400000Y-45585714D01*
X140400000Y-45776190D02*
X140433333Y-45680952D01*
X140466666Y-45633333D01*
X140533333Y-45585714D01*
X140600000Y-45585714D01*
X141066666Y-45728571D02*
X140833333Y-45728571D01*
X140833333Y-46252380D02*
X140833333Y-45252380D01*
X141166666Y-45252380D01*
X141733333Y-46252380D02*
X141733333Y-45728571D01*
X141700000Y-45633333D01*
X141633333Y-45585714D01*
X141500000Y-45585714D01*
X141433333Y-45633333D01*
X141733333Y-46204761D02*
X141666666Y-46252380D01*
X141500000Y-46252380D01*
X141433333Y-46204761D01*
X141400000Y-46109523D01*
X141400000Y-46014285D01*
X141433333Y-45919047D01*
X141500000Y-45871428D01*
X141666666Y-45871428D01*
X141733333Y-45823809D01*
X142366666Y-46204761D02*
X142300000Y-46252380D01*
X142166666Y-46252380D01*
X142100000Y-46204761D01*
X142066666Y-46157142D01*
X142033333Y-46061904D01*
X142033333Y-45776190D01*
X142066666Y-45680952D01*
X142100000Y-45633333D01*
X142166666Y-45585714D01*
X142300000Y-45585714D01*
X142366666Y-45633333D01*
X142933333Y-46204761D02*
X142866666Y-46252380D01*
X142733333Y-46252380D01*
X142666666Y-46204761D01*
X142633333Y-46109523D01*
X142633333Y-45728571D01*
X142666666Y-45633333D01*
X142733333Y-45585714D01*
X142866666Y-45585714D01*
X142933333Y-45633333D01*
X142966666Y-45728571D01*
X142966666Y-45823809D01*
X142633333Y-45919047D01*
X143800000Y-46252380D02*
X143800000Y-45585714D01*
X143800000Y-45680952D02*
X143833333Y-45633333D01*
X143900000Y-45585714D01*
X144000000Y-45585714D01*
X144066666Y-45633333D01*
X144100000Y-45728571D01*
X144100000Y-46252380D01*
X144100000Y-45728571D02*
X144133333Y-45633333D01*
X144200000Y-45585714D01*
X144300000Y-45585714D01*
X144366666Y-45633333D01*
X144400000Y-45728571D01*
X144400000Y-46252380D01*
X145033333Y-46252380D02*
X145033333Y-45728571D01*
X145000000Y-45633333D01*
X144933333Y-45585714D01*
X144800000Y-45585714D01*
X144733333Y-45633333D01*
X145033333Y-46204761D02*
X144966666Y-46252380D01*
X144800000Y-46252380D01*
X144733333Y-46204761D01*
X144700000Y-46109523D01*
X144700000Y-46014285D01*
X144733333Y-45919047D01*
X144800000Y-45871428D01*
X144966666Y-45871428D01*
X145033333Y-45823809D01*
X145666666Y-46252380D02*
X145666666Y-45252380D01*
X145666666Y-46204761D02*
X145600000Y-46252380D01*
X145466666Y-46252380D01*
X145400000Y-46204761D01*
X145366666Y-46157142D01*
X145333333Y-46061904D01*
X145333333Y-45776190D01*
X145366666Y-45680952D01*
X145400000Y-45633333D01*
X145466666Y-45585714D01*
X145600000Y-45585714D01*
X145666666Y-45633333D01*
X146266666Y-46204761D02*
X146200000Y-46252380D01*
X146066666Y-46252380D01*
X146000000Y-46204761D01*
X145966666Y-46109523D01*
X145966666Y-45728571D01*
X146000000Y-45633333D01*
X146066666Y-45585714D01*
X146200000Y-45585714D01*
X146266666Y-45633333D01*
X146300000Y-45728571D01*
X146300000Y-45823809D01*
X145966666Y-45919047D01*
X147133333Y-46252380D02*
X147133333Y-45585714D01*
X147133333Y-45252380D02*
X147100000Y-45300000D01*
X147133333Y-45347619D01*
X147166666Y-45300000D01*
X147133333Y-45252380D01*
X147133333Y-45347619D01*
X147466666Y-45585714D02*
X147466666Y-46252380D01*
X147466666Y-45680952D02*
X147500000Y-45633333D01*
X147566666Y-45585714D01*
X147666666Y-45585714D01*
X147733333Y-45633333D01*
X147766666Y-45728571D01*
X147766666Y-46252380D01*
X148600000Y-46204761D02*
X148700000Y-46252380D01*
X148866666Y-46252380D01*
X148933333Y-46204761D01*
X148966666Y-46157142D01*
X149000000Y-46061904D01*
X149000000Y-45966666D01*
X148966666Y-45871428D01*
X148933333Y-45823809D01*
X148866666Y-45776190D01*
X148733333Y-45728571D01*
X148666666Y-45680952D01*
X148633333Y-45633333D01*
X148600000Y-45538095D01*
X148600000Y-45442857D01*
X148633333Y-45347619D01*
X148666666Y-45300000D01*
X148733333Y-45252380D01*
X148900000Y-45252380D01*
X149000000Y-45300000D01*
X149600000Y-45585714D02*
X149600000Y-46252380D01*
X149300000Y-45585714D02*
X149300000Y-46109523D01*
X149333333Y-46204761D01*
X149400000Y-46252380D01*
X149500000Y-46252380D01*
X149566666Y-46204761D01*
X149600000Y-46157142D01*
X149933333Y-46252380D02*
X149933333Y-45585714D01*
X149933333Y-45680952D02*
X149966666Y-45633333D01*
X150033333Y-45585714D01*
X150133333Y-45585714D01*
X150200000Y-45633333D01*
X150233333Y-45728571D01*
X150233333Y-46252380D01*
X150233333Y-45728571D02*
X150266666Y-45633333D01*
X150333333Y-45585714D01*
X150433333Y-45585714D01*
X150500000Y-45633333D01*
X150533333Y-45728571D01*
X150533333Y-46252380D01*
X150866666Y-46252380D02*
X150866666Y-45585714D01*
X150866666Y-45252380D02*
X150833333Y-45300000D01*
X150866666Y-45347619D01*
X150900000Y-45300000D01*
X150866666Y-45252380D01*
X150866666Y-45347619D01*
X151100000Y-45585714D02*
X151366666Y-45585714D01*
X151200000Y-45252380D02*
X151200000Y-46109523D01*
X151233333Y-46204761D01*
X151300000Y-46252380D01*
X151366666Y-46252380D01*
X151700000Y-46252380D02*
X151633333Y-46204761D01*
X151600000Y-46157142D01*
X151566666Y-46061904D01*
X151566666Y-45776190D01*
X151600000Y-45680952D01*
X151633333Y-45633333D01*
X151700000Y-45585714D01*
X151800000Y-45585714D01*
X151866666Y-45633333D01*
X151900000Y-45680952D01*
X151933333Y-45776190D01*
X151933333Y-46061904D01*
X151900000Y-46157142D01*
X151866666Y-46204761D01*
X151800000Y-46252380D01*
X151700000Y-46252380D01*
X152233333Y-46252380D02*
X152233333Y-45585714D01*
X152233333Y-45680952D02*
X152266666Y-45633333D01*
X152333333Y-45585714D01*
X152433333Y-45585714D01*
X152500000Y-45633333D01*
X152533333Y-45728571D01*
X152533333Y-46252380D01*
X152533333Y-45728571D02*
X152566666Y-45633333D01*
X152633333Y-45585714D01*
X152733333Y-45585714D01*
X152800000Y-45633333D01*
X152833333Y-45728571D01*
X152833333Y-46252380D01*
X153266666Y-46252380D02*
X153200000Y-46204761D01*
X153166666Y-46157142D01*
X153133333Y-46061904D01*
X153133333Y-45776190D01*
X153166666Y-45680952D01*
X153200000Y-45633333D01*
X153266666Y-45585714D01*
X153366666Y-45585714D01*
X153433333Y-45633333D01*
X153466666Y-45680952D01*
X153500000Y-45776190D01*
X153500000Y-46061904D01*
X153466666Y-46157142D01*
X153433333Y-46204761D01*
X153366666Y-46252380D01*
X153266666Y-46252380D01*
X153733333Y-46633333D02*
X153766666Y-46585714D01*
X153833333Y-46442857D01*
X153866666Y-46347619D01*
X153900000Y-46204761D01*
X153933333Y-45966666D01*
X153933333Y-45776190D01*
X153900000Y-45538095D01*
X153866666Y-45395238D01*
X153833333Y-45300000D01*
X153766666Y-45157142D01*
X153733333Y-45109523D01*
D11*
%TO.C,CP1*%
X158533333Y-88457142D02*
X158485714Y-88504761D01*
X158342857Y-88552380D01*
X158247619Y-88552380D01*
X158104761Y-88504761D01*
X158009523Y-88409523D01*
X157961904Y-88314285D01*
X157914285Y-88123809D01*
X157914285Y-87980952D01*
X157961904Y-87790476D01*
X158009523Y-87695238D01*
X158104761Y-87600000D01*
X158247619Y-87552380D01*
X158342857Y-87552380D01*
X158485714Y-87600000D01*
X158533333Y-87647619D01*
X158961904Y-88552380D02*
X158961904Y-87552380D01*
X159342857Y-87552380D01*
X159438095Y-87600000D01*
X159485714Y-87647619D01*
X159533333Y-87742857D01*
X159533333Y-87885714D01*
X159485714Y-87980952D01*
X159438095Y-88028571D01*
X159342857Y-88076190D01*
X158961904Y-88076190D01*
X160485714Y-88552380D02*
X159914285Y-88552380D01*
X160200000Y-88552380D02*
X160200000Y-87552380D01*
X160104761Y-87695238D01*
X160009523Y-87790476D01*
X159914285Y-87838095D01*
%TO.C,D4*%
X147772380Y-79533095D02*
X146772380Y-79533095D01*
X146772380Y-79295000D01*
X146820000Y-79152142D01*
X146915238Y-79056904D01*
X147010476Y-79009285D01*
X147200952Y-78961666D01*
X147343809Y-78961666D01*
X147534285Y-79009285D01*
X147629523Y-79056904D01*
X147724761Y-79152142D01*
X147772380Y-79295000D01*
X147772380Y-79533095D01*
X147105714Y-78104523D02*
X147772380Y-78104523D01*
X146724761Y-78342619D02*
X147439047Y-78580714D01*
X147439047Y-77961666D01*
X147602380Y-75246904D02*
X146602380Y-75246904D01*
X147602380Y-74675476D02*
X147030952Y-75104047D01*
X146602380Y-74675476D02*
X147173809Y-75246904D01*
%TO.C,U4*%
X111138095Y-51352380D02*
X111138095Y-52161904D01*
X111185714Y-52257142D01*
X111233333Y-52304761D01*
X111328571Y-52352380D01*
X111519047Y-52352380D01*
X111614285Y-52304761D01*
X111661904Y-52257142D01*
X111709523Y-52161904D01*
X111709523Y-51352380D01*
X112614285Y-51685714D02*
X112614285Y-52352380D01*
X112376190Y-51304761D02*
X112138095Y-52019047D01*
X112757142Y-52019047D01*
%TO.C,R3*%
X141022380Y-78066666D02*
X140546190Y-78400000D01*
X141022380Y-78638095D02*
X140022380Y-78638095D01*
X140022380Y-78257142D01*
X140070000Y-78161904D01*
X140117619Y-78114285D01*
X140212857Y-78066666D01*
X140355714Y-78066666D01*
X140450952Y-78114285D01*
X140498571Y-78161904D01*
X140546190Y-78257142D01*
X140546190Y-78638095D01*
X140022380Y-77733333D02*
X140022380Y-77114285D01*
X140403333Y-77447619D01*
X140403333Y-77304761D01*
X140450952Y-77209523D01*
X140498571Y-77161904D01*
X140593809Y-77114285D01*
X140831904Y-77114285D01*
X140927142Y-77161904D01*
X140974761Y-77209523D01*
X141022380Y-77304761D01*
X141022380Y-77590476D01*
X140974761Y-77685714D01*
X140927142Y-77733333D01*
%TO.C,Cp3*%
X158480952Y-78257142D02*
X158433333Y-78304761D01*
X158290476Y-78352380D01*
X158195238Y-78352380D01*
X158052380Y-78304761D01*
X157957142Y-78209523D01*
X157909523Y-78114285D01*
X157861904Y-77923809D01*
X157861904Y-77780952D01*
X157909523Y-77590476D01*
X157957142Y-77495238D01*
X158052380Y-77400000D01*
X158195238Y-77352380D01*
X158290476Y-77352380D01*
X158433333Y-77400000D01*
X158480952Y-77447619D01*
X158909523Y-77685714D02*
X158909523Y-78685714D01*
X158909523Y-77733333D02*
X159004761Y-77685714D01*
X159195238Y-77685714D01*
X159290476Y-77733333D01*
X159338095Y-77780952D01*
X159385714Y-77876190D01*
X159385714Y-78161904D01*
X159338095Y-78257142D01*
X159290476Y-78304761D01*
X159195238Y-78352380D01*
X159004761Y-78352380D01*
X158909523Y-78304761D01*
X159719047Y-77352380D02*
X160338095Y-77352380D01*
X160004761Y-77733333D01*
X160147619Y-77733333D01*
X160242857Y-77780952D01*
X160290476Y-77828571D01*
X160338095Y-77923809D01*
X160338095Y-78161904D01*
X160290476Y-78257142D01*
X160242857Y-78304761D01*
X160147619Y-78352380D01*
X159861904Y-78352380D01*
X159766666Y-78304761D01*
X159719047Y-78257142D01*
%TO.C,R1*%
X115839880Y-77664166D02*
X115363690Y-77997500D01*
X115839880Y-78235595D02*
X114839880Y-78235595D01*
X114839880Y-77854642D01*
X114887500Y-77759404D01*
X114935119Y-77711785D01*
X115030357Y-77664166D01*
X115173214Y-77664166D01*
X115268452Y-77711785D01*
X115316071Y-77759404D01*
X115363690Y-77854642D01*
X115363690Y-78235595D01*
X115839880Y-76711785D02*
X115839880Y-77283214D01*
X115839880Y-76997500D02*
X114839880Y-76997500D01*
X114982738Y-77092738D01*
X115077976Y-77187976D01*
X115125595Y-77283214D01*
%TO.C,REF1*%
X108257622Y-112212861D02*
X107781432Y-112546194D01*
X108257622Y-112784289D02*
X107257622Y-112784289D01*
X107257622Y-112403337D01*
X107305242Y-112308099D01*
X107352861Y-112260480D01*
X107448099Y-112212861D01*
X107590956Y-112212861D01*
X107686194Y-112260480D01*
X107733813Y-112308099D01*
X107781432Y-112403337D01*
X107781432Y-112784289D01*
X107733813Y-111784289D02*
X107733813Y-111450956D01*
X108257622Y-111308099D02*
X108257622Y-111784289D01*
X107257622Y-111784289D01*
X107257622Y-111308099D01*
X107733813Y-110546194D02*
X107733813Y-110879527D01*
X108257622Y-110879527D02*
X107257622Y-110879527D01*
X107257622Y-110403337D01*
X108257622Y-109498575D02*
X108257622Y-110070003D01*
X108257622Y-109784289D02*
X107257622Y-109784289D01*
X107400480Y-109879527D01*
X107495718Y-109974765D01*
X107543337Y-110070003D01*
%TO.C,C3*%
X139033333Y-86857142D02*
X138985714Y-86904761D01*
X138842857Y-86952380D01*
X138747619Y-86952380D01*
X138604761Y-86904761D01*
X138509523Y-86809523D01*
X138461904Y-86714285D01*
X138414285Y-86523809D01*
X138414285Y-86380952D01*
X138461904Y-86190476D01*
X138509523Y-86095238D01*
X138604761Y-86000000D01*
X138747619Y-85952380D01*
X138842857Y-85952380D01*
X138985714Y-86000000D01*
X139033333Y-86047619D01*
X139366666Y-85952380D02*
X139985714Y-85952380D01*
X139652380Y-86333333D01*
X139795238Y-86333333D01*
X139890476Y-86380952D01*
X139938095Y-86428571D01*
X139985714Y-86523809D01*
X139985714Y-86761904D01*
X139938095Y-86857142D01*
X139890476Y-86904761D01*
X139795238Y-86952380D01*
X139509523Y-86952380D01*
X139414285Y-86904761D01*
X139366666Y-86857142D01*
%TO.C,R5*%
X129833333Y-68882380D02*
X129500000Y-68406190D01*
X129261904Y-68882380D02*
X129261904Y-67882380D01*
X129642857Y-67882380D01*
X129738095Y-67930000D01*
X129785714Y-67977619D01*
X129833333Y-68072857D01*
X129833333Y-68215714D01*
X129785714Y-68310952D01*
X129738095Y-68358571D01*
X129642857Y-68406190D01*
X129261904Y-68406190D01*
X130738095Y-67882380D02*
X130261904Y-67882380D01*
X130214285Y-68358571D01*
X130261904Y-68310952D01*
X130357142Y-68263333D01*
X130595238Y-68263333D01*
X130690476Y-68310952D01*
X130738095Y-68358571D01*
X130785714Y-68453809D01*
X130785714Y-68691904D01*
X130738095Y-68787142D01*
X130690476Y-68834761D01*
X130595238Y-68882380D01*
X130357142Y-68882380D01*
X130261904Y-68834761D01*
X130214285Y-68787142D01*
%TO.C,U3*%
X142038095Y-88052380D02*
X142038095Y-88861904D01*
X142085714Y-88957142D01*
X142133333Y-89004761D01*
X142228571Y-89052380D01*
X142419047Y-89052380D01*
X142514285Y-89004761D01*
X142561904Y-88957142D01*
X142609523Y-88861904D01*
X142609523Y-88052380D01*
X142990476Y-88052380D02*
X143609523Y-88052380D01*
X143276190Y-88433333D01*
X143419047Y-88433333D01*
X143514285Y-88480952D01*
X143561904Y-88528571D01*
X143609523Y-88623809D01*
X143609523Y-88861904D01*
X143561904Y-88957142D01*
X143514285Y-89004761D01*
X143419047Y-89052380D01*
X143133333Y-89052380D01*
X143038095Y-89004761D01*
X142990476Y-88957142D01*
%TO.C,C2*%
X126233333Y-86657142D02*
X126185714Y-86704761D01*
X126042857Y-86752380D01*
X125947619Y-86752380D01*
X125804761Y-86704761D01*
X125709523Y-86609523D01*
X125661904Y-86514285D01*
X125614285Y-86323809D01*
X125614285Y-86180952D01*
X125661904Y-85990476D01*
X125709523Y-85895238D01*
X125804761Y-85800000D01*
X125947619Y-85752380D01*
X126042857Y-85752380D01*
X126185714Y-85800000D01*
X126233333Y-85847619D01*
X126614285Y-85847619D02*
X126661904Y-85800000D01*
X126757142Y-85752380D01*
X126995238Y-85752380D01*
X127090476Y-85800000D01*
X127138095Y-85847619D01*
X127185714Y-85942857D01*
X127185714Y-86038095D01*
X127138095Y-86180952D01*
X126566666Y-86752380D01*
X127185714Y-86752380D01*
%TO.C,U2*%
X128138095Y-88152380D02*
X128138095Y-88961904D01*
X128185714Y-89057142D01*
X128233333Y-89104761D01*
X128328571Y-89152380D01*
X128519047Y-89152380D01*
X128614285Y-89104761D01*
X128661904Y-89057142D01*
X128709523Y-88961904D01*
X128709523Y-88152380D01*
X129138095Y-88247619D02*
X129185714Y-88200000D01*
X129280952Y-88152380D01*
X129519047Y-88152380D01*
X129614285Y-88200000D01*
X129661904Y-88247619D01*
X129709523Y-88342857D01*
X129709523Y-88438095D01*
X129661904Y-88580952D01*
X129090476Y-89152380D01*
X129709523Y-89152380D01*
%TO.C,R2*%
X127822380Y-77766666D02*
X127346190Y-78100000D01*
X127822380Y-78338095D02*
X126822380Y-78338095D01*
X126822380Y-77957142D01*
X126870000Y-77861904D01*
X126917619Y-77814285D01*
X127012857Y-77766666D01*
X127155714Y-77766666D01*
X127250952Y-77814285D01*
X127298571Y-77861904D01*
X127346190Y-77957142D01*
X127346190Y-78338095D01*
X126917619Y-77385714D02*
X126870000Y-77338095D01*
X126822380Y-77242857D01*
X126822380Y-77004761D01*
X126870000Y-76909523D01*
X126917619Y-76861904D01*
X127012857Y-76814285D01*
X127108095Y-76814285D01*
X127250952Y-76861904D01*
X127822380Y-77433333D01*
X127822380Y-76814285D01*
%TO.C,D3*%
X136372380Y-78933095D02*
X135372380Y-78933095D01*
X135372380Y-78695000D01*
X135420000Y-78552142D01*
X135515238Y-78456904D01*
X135610476Y-78409285D01*
X135800952Y-78361666D01*
X135943809Y-78361666D01*
X136134285Y-78409285D01*
X136229523Y-78456904D01*
X136324761Y-78552142D01*
X136372380Y-78695000D01*
X136372380Y-78933095D01*
X135372380Y-78028333D02*
X135372380Y-77409285D01*
X135753333Y-77742619D01*
X135753333Y-77599761D01*
X135800952Y-77504523D01*
X135848571Y-77456904D01*
X135943809Y-77409285D01*
X136181904Y-77409285D01*
X136277142Y-77456904D01*
X136324761Y-77504523D01*
X136372380Y-77599761D01*
X136372380Y-77885476D01*
X136324761Y-77980714D01*
X136277142Y-78028333D01*
X136202380Y-74646904D02*
X135202380Y-74646904D01*
X136202380Y-74075476D02*
X135630952Y-74504047D01*
X135202380Y-74075476D02*
X135773809Y-74646904D01*
%TO.C,R4*%
X152722380Y-78066666D02*
X152246190Y-78400000D01*
X152722380Y-78638095D02*
X151722380Y-78638095D01*
X151722380Y-78257142D01*
X151770000Y-78161904D01*
X151817619Y-78114285D01*
X151912857Y-78066666D01*
X152055714Y-78066666D01*
X152150952Y-78114285D01*
X152198571Y-78161904D01*
X152246190Y-78257142D01*
X152246190Y-78638095D01*
X152055714Y-77209523D02*
X152722380Y-77209523D01*
X151674761Y-77447619D02*
X152389047Y-77685714D01*
X152389047Y-77066666D01*
%TO.C,CP2*%
X158233333Y-83257142D02*
X158185714Y-83304761D01*
X158042857Y-83352380D01*
X157947619Y-83352380D01*
X157804761Y-83304761D01*
X157709523Y-83209523D01*
X157661904Y-83114285D01*
X157614285Y-82923809D01*
X157614285Y-82780952D01*
X157661904Y-82590476D01*
X157709523Y-82495238D01*
X157804761Y-82400000D01*
X157947619Y-82352380D01*
X158042857Y-82352380D01*
X158185714Y-82400000D01*
X158233333Y-82447619D01*
X158661904Y-83352380D02*
X158661904Y-82352380D01*
X159042857Y-82352380D01*
X159138095Y-82400000D01*
X159185714Y-82447619D01*
X159233333Y-82542857D01*
X159233333Y-82685714D01*
X159185714Y-82780952D01*
X159138095Y-82828571D01*
X159042857Y-82876190D01*
X158661904Y-82876190D01*
X159614285Y-82447619D02*
X159661904Y-82400000D01*
X159757142Y-82352380D01*
X159995238Y-82352380D01*
X160090476Y-82400000D01*
X160138095Y-82447619D01*
X160185714Y-82542857D01*
X160185714Y-82638095D01*
X160138095Y-82780952D01*
X159566666Y-83352380D01*
X160185714Y-83352380D01*
%TO.C,REF2*%
X102952380Y-50452380D02*
X102619047Y-49976190D01*
X102380952Y-50452380D02*
X102380952Y-49452380D01*
X102761904Y-49452380D01*
X102857142Y-49500000D01*
X102904761Y-49547619D01*
X102952380Y-49642857D01*
X102952380Y-49785714D01*
X102904761Y-49880952D01*
X102857142Y-49928571D01*
X102761904Y-49976190D01*
X102380952Y-49976190D01*
X103380952Y-49928571D02*
X103714285Y-49928571D01*
X103857142Y-50452380D02*
X103380952Y-50452380D01*
X103380952Y-49452380D01*
X103857142Y-49452380D01*
X104619047Y-49928571D02*
X104285714Y-49928571D01*
X104285714Y-50452380D02*
X104285714Y-49452380D01*
X104761904Y-49452380D01*
X105095238Y-49547619D02*
X105142857Y-49500000D01*
X105238095Y-49452380D01*
X105476190Y-49452380D01*
X105571428Y-49500000D01*
X105619047Y-49547619D01*
X105666666Y-49642857D01*
X105666666Y-49738095D01*
X105619047Y-49880952D01*
X105047619Y-50452380D01*
X105666666Y-50452380D01*
%TO.C,REF3*%
X157307622Y-112212861D02*
X156831432Y-112546194D01*
X157307622Y-112784289D02*
X156307622Y-112784289D01*
X156307622Y-112403337D01*
X156355242Y-112308099D01*
X156402861Y-112260480D01*
X156498099Y-112212861D01*
X156640956Y-112212861D01*
X156736194Y-112260480D01*
X156783813Y-112308099D01*
X156831432Y-112403337D01*
X156831432Y-112784289D01*
X156783813Y-111784289D02*
X156783813Y-111450956D01*
X157307622Y-111308099D02*
X157307622Y-111784289D01*
X156307622Y-111784289D01*
X156307622Y-111308099D01*
X156783813Y-110546194D02*
X156783813Y-110879527D01*
X157307622Y-110879527D02*
X156307622Y-110879527D01*
X156307622Y-110403337D01*
X156307622Y-110117622D02*
X156307622Y-109498575D01*
X156688575Y-109831908D01*
X156688575Y-109689051D01*
X156736194Y-109593813D01*
X156783813Y-109546194D01*
X156879051Y-109498575D01*
X157117146Y-109498575D01*
X157212384Y-109546194D01*
X157260003Y-109593813D01*
X157307622Y-109689051D01*
X157307622Y-109974765D01*
X157260003Y-110070003D01*
X157212384Y-110117622D01*
%TO.C,CP4*%
X158233333Y-73057142D02*
X158185714Y-73104761D01*
X158042857Y-73152380D01*
X157947619Y-73152380D01*
X157804761Y-73104761D01*
X157709523Y-73009523D01*
X157661904Y-72914285D01*
X157614285Y-72723809D01*
X157614285Y-72580952D01*
X157661904Y-72390476D01*
X157709523Y-72295238D01*
X157804761Y-72200000D01*
X157947619Y-72152380D01*
X158042857Y-72152380D01*
X158185714Y-72200000D01*
X158233333Y-72247619D01*
X158661904Y-73152380D02*
X158661904Y-72152380D01*
X159042857Y-72152380D01*
X159138095Y-72200000D01*
X159185714Y-72247619D01*
X159233333Y-72342857D01*
X159233333Y-72485714D01*
X159185714Y-72580952D01*
X159138095Y-72628571D01*
X159042857Y-72676190D01*
X158661904Y-72676190D01*
X160090476Y-72485714D02*
X160090476Y-73152380D01*
X159852380Y-72104761D02*
X159614285Y-72819047D01*
X160233333Y-72819047D01*
%TO.C,USB-A1*%
X156614285Y-57252380D02*
X156614285Y-58061904D01*
X156661904Y-58157142D01*
X156709523Y-58204761D01*
X156804761Y-58252380D01*
X156995238Y-58252380D01*
X157090476Y-58204761D01*
X157138095Y-58157142D01*
X157185714Y-58061904D01*
X157185714Y-57252380D01*
X157614285Y-58204761D02*
X157757142Y-58252380D01*
X157995238Y-58252380D01*
X158090476Y-58204761D01*
X158138095Y-58157142D01*
X158185714Y-58061904D01*
X158185714Y-57966666D01*
X158138095Y-57871428D01*
X158090476Y-57823809D01*
X157995238Y-57776190D01*
X157804761Y-57728571D01*
X157709523Y-57680952D01*
X157661904Y-57633333D01*
X157614285Y-57538095D01*
X157614285Y-57442857D01*
X157661904Y-57347619D01*
X157709523Y-57300000D01*
X157804761Y-57252380D01*
X158042857Y-57252380D01*
X158185714Y-57300000D01*
X158947619Y-57728571D02*
X159090476Y-57776190D01*
X159138095Y-57823809D01*
X159185714Y-57919047D01*
X159185714Y-58061904D01*
X159138095Y-58157142D01*
X159090476Y-58204761D01*
X158995238Y-58252380D01*
X158614285Y-58252380D01*
X158614285Y-57252380D01*
X158947619Y-57252380D01*
X159042857Y-57300000D01*
X159090476Y-57347619D01*
X159138095Y-57442857D01*
X159138095Y-57538095D01*
X159090476Y-57633333D01*
X159042857Y-57680952D01*
X158947619Y-57728571D01*
X158614285Y-57728571D01*
X159614285Y-57871428D02*
X160376190Y-57871428D01*
X160804761Y-57966666D02*
X161280952Y-57966666D01*
X160709523Y-58252380D02*
X161042857Y-57252380D01*
X161376190Y-58252380D01*
X162233333Y-58252380D02*
X161661904Y-58252380D01*
X161947619Y-58252380D02*
X161947619Y-57252380D01*
X161852380Y-57395238D01*
X161757142Y-57490476D01*
X161661904Y-57538095D01*
%TO.C,C1*%
X114533333Y-86657142D02*
X114485714Y-86704761D01*
X114342857Y-86752380D01*
X114247619Y-86752380D01*
X114104761Y-86704761D01*
X114009523Y-86609523D01*
X113961904Y-86514285D01*
X113914285Y-86323809D01*
X113914285Y-86180952D01*
X113961904Y-85990476D01*
X114009523Y-85895238D01*
X114104761Y-85800000D01*
X114247619Y-85752380D01*
X114342857Y-85752380D01*
X114485714Y-85800000D01*
X114533333Y-85847619D01*
X115485714Y-86752380D02*
X114914285Y-86752380D01*
X115200000Y-86752380D02*
X115200000Y-85752380D01*
X115104761Y-85895238D01*
X115009523Y-85990476D01*
X114914285Y-86038095D01*
%TO.C,U5*%
X129238095Y-51252380D02*
X129238095Y-52061904D01*
X129285714Y-52157142D01*
X129333333Y-52204761D01*
X129428571Y-52252380D01*
X129619047Y-52252380D01*
X129714285Y-52204761D01*
X129761904Y-52157142D01*
X129809523Y-52061904D01*
X129809523Y-51252380D01*
X130761904Y-51252380D02*
X130285714Y-51252380D01*
X130238095Y-51728571D01*
X130285714Y-51680952D01*
X130380952Y-51633333D01*
X130619047Y-51633333D01*
X130714285Y-51680952D01*
X130761904Y-51728571D01*
X130809523Y-51823809D01*
X130809523Y-52061904D01*
X130761904Y-52157142D01*
X130714285Y-52204761D01*
X130619047Y-52252380D01*
X130380952Y-52252380D01*
X130285714Y-52204761D01*
X130238095Y-52157142D01*
%TO.C,D2*%
X122472380Y-78833095D02*
X121472380Y-78833095D01*
X121472380Y-78595000D01*
X121520000Y-78452142D01*
X121615238Y-78356904D01*
X121710476Y-78309285D01*
X121900952Y-78261666D01*
X122043809Y-78261666D01*
X122234285Y-78309285D01*
X122329523Y-78356904D01*
X122424761Y-78452142D01*
X122472380Y-78595000D01*
X122472380Y-78833095D01*
X121567619Y-77880714D02*
X121520000Y-77833095D01*
X121472380Y-77737857D01*
X121472380Y-77499761D01*
X121520000Y-77404523D01*
X121567619Y-77356904D01*
X121662857Y-77309285D01*
X121758095Y-77309285D01*
X121900952Y-77356904D01*
X122472380Y-77928333D01*
X122472380Y-77309285D01*
X122302380Y-74546904D02*
X121302380Y-74546904D01*
X122302380Y-73975476D02*
X121730952Y-74404047D01*
X121302380Y-73975476D02*
X121873809Y-74546904D01*
%TO.C,REF4*%
X157307622Y-46712861D02*
X156831432Y-47046194D01*
X157307622Y-47284289D02*
X156307622Y-47284289D01*
X156307622Y-46903337D01*
X156355242Y-46808099D01*
X156402861Y-46760480D01*
X156498099Y-46712861D01*
X156640956Y-46712861D01*
X156736194Y-46760480D01*
X156783813Y-46808099D01*
X156831432Y-46903337D01*
X156831432Y-47284289D01*
X156783813Y-46284289D02*
X156783813Y-45950956D01*
X157307622Y-45808099D02*
X157307622Y-46284289D01*
X156307622Y-46284289D01*
X156307622Y-45808099D01*
X156783813Y-45046194D02*
X156783813Y-45379527D01*
X157307622Y-45379527D02*
X156307622Y-45379527D01*
X156307622Y-44903337D01*
X156640956Y-44093813D02*
X157307622Y-44093813D01*
X156260003Y-44331908D02*
X156974289Y-44570003D01*
X156974289Y-43950956D01*
%TO.C,U1*%
X111238095Y-88752380D02*
X111238095Y-89561904D01*
X111285714Y-89657142D01*
X111333333Y-89704761D01*
X111428571Y-89752380D01*
X111619047Y-89752380D01*
X111714285Y-89704761D01*
X111761904Y-89657142D01*
X111809523Y-89561904D01*
X111809523Y-88752380D01*
X112809523Y-89752380D02*
X112238095Y-89752380D01*
X112523809Y-89752380D02*
X112523809Y-88752380D01*
X112428571Y-88895238D01*
X112333333Y-88990476D01*
X112238095Y-89038095D01*
%TO.C,J1*%
X132766666Y-105152380D02*
X132766666Y-105866666D01*
X132719047Y-106009523D01*
X132623809Y-106104761D01*
X132480952Y-106152380D01*
X132385714Y-106152380D01*
X133766666Y-106152380D02*
X133195238Y-106152380D01*
X133480952Y-106152380D02*
X133480952Y-105152380D01*
X133385714Y-105295238D01*
X133290476Y-105390476D01*
X133195238Y-105438095D01*
%TO.C,C4*%
X150033333Y-86657142D02*
X149985714Y-86704761D01*
X149842857Y-86752380D01*
X149747619Y-86752380D01*
X149604761Y-86704761D01*
X149509523Y-86609523D01*
X149461904Y-86514285D01*
X149414285Y-86323809D01*
X149414285Y-86180952D01*
X149461904Y-85990476D01*
X149509523Y-85895238D01*
X149604761Y-85800000D01*
X149747619Y-85752380D01*
X149842857Y-85752380D01*
X149985714Y-85800000D01*
X150033333Y-85847619D01*
X150890476Y-86085714D02*
X150890476Y-86752380D01*
X150652380Y-85704761D02*
X150414285Y-86419047D01*
X151033333Y-86419047D01*
%TO.C,D1*%
X111189880Y-78930595D02*
X110189880Y-78930595D01*
X110189880Y-78692500D01*
X110237500Y-78549642D01*
X110332738Y-78454404D01*
X110427976Y-78406785D01*
X110618452Y-78359166D01*
X110761309Y-78359166D01*
X110951785Y-78406785D01*
X111047023Y-78454404D01*
X111142261Y-78549642D01*
X111189880Y-78692500D01*
X111189880Y-78930595D01*
X111189880Y-77406785D02*
X111189880Y-77978214D01*
X111189880Y-77692500D02*
X110189880Y-77692500D01*
X110332738Y-77787738D01*
X110427976Y-77882976D01*
X110475595Y-77978214D01*
X111269880Y-74644404D02*
X110269880Y-74644404D01*
X111269880Y-74072976D02*
X110698452Y-74501547D01*
X110269880Y-74072976D02*
X110841309Y-74644404D01*
D12*
%TO.C,D4*%
X144480000Y-77155000D02*
X144480000Y-80435000D01*
X146320000Y-77611000D02*
X144480000Y-77611000D01*
X144480000Y-80435000D02*
X146320000Y-80435000D01*
X146320000Y-77851000D02*
X144480000Y-77851000D01*
X146320000Y-77155000D02*
X144480000Y-77155000D01*
X146320000Y-77731000D02*
X144480000Y-77731000D01*
X146320000Y-80435000D02*
X146320000Y-77155000D01*
X145400000Y-75975000D02*
X145400000Y-77155000D01*
X145400000Y-81615000D02*
X145400000Y-80435000D01*
%TO.C,U4*%
X112000000Y-64010000D02*
X115860000Y-64010000D01*
X112000000Y-53490000D02*
X115860000Y-53490000D01*
X108140000Y-64010000D02*
X108140000Y-63755000D01*
X112000000Y-53490000D02*
X108140000Y-53490000D01*
X115860000Y-64010000D02*
X115860000Y-63755000D01*
X108140000Y-53745000D02*
X106325000Y-53745000D01*
X115860000Y-53490000D02*
X115860000Y-53745000D01*
X108140000Y-53490000D02*
X108140000Y-53745000D01*
X112000000Y-64010000D02*
X108140000Y-64010000D01*
%TO.C,R3*%
X138200000Y-81940000D02*
X138200000Y-81170000D01*
X136830000Y-74630000D02*
X136830000Y-81170000D01*
X139570000Y-74630000D02*
X136830000Y-74630000D01*
X139570000Y-81170000D02*
X139570000Y-74630000D01*
X138200000Y-73860000D02*
X138200000Y-74630000D01*
X136830000Y-81170000D02*
X139570000Y-81170000D01*
%TO.C,R1*%
X114387500Y-74227500D02*
X111647500Y-74227500D01*
X111647500Y-80767500D02*
X114387500Y-80767500D01*
X111647500Y-74227500D02*
X111647500Y-80767500D01*
X113017500Y-81537500D02*
X113017500Y-80767500D01*
X114387500Y-80767500D02*
X114387500Y-74227500D01*
X113017500Y-73457500D02*
X113017500Y-74227500D01*
%TO.C,C3*%
X133340000Y-84440000D02*
X133340000Y-85140000D01*
X136670563Y-87260000D02*
X135970563Y-87960000D01*
X136670563Y-85140000D02*
X135970563Y-84440000D01*
X135970563Y-87960000D02*
X133340000Y-87960000D01*
X137475000Y-87635000D02*
X137100000Y-87635000D01*
X137287500Y-87822500D02*
X137287500Y-87447500D01*
X135970563Y-84440000D02*
X133340000Y-84440000D01*
X133340000Y-87960000D02*
X133340000Y-87260000D01*
%TO.C,R5*%
X130237258Y-66477500D02*
X129762742Y-66477500D01*
X130237258Y-67522500D02*
X129762742Y-67522500D01*
%TO.C,U3*%
X146500000Y-89740000D02*
X150360000Y-89740000D01*
X146500000Y-89740000D02*
X142640000Y-89740000D01*
X142640000Y-100260000D02*
X142640000Y-100005000D01*
X150360000Y-89740000D02*
X150360000Y-89995000D01*
X150360000Y-100260000D02*
X150360000Y-100005000D01*
X146500000Y-100260000D02*
X142640000Y-100260000D01*
X142640000Y-89740000D02*
X142640000Y-89995000D01*
X146500000Y-100260000D02*
X150360000Y-100260000D01*
X142640000Y-89995000D02*
X140825000Y-89995000D01*
%TO.C,C2*%
X123070563Y-84325000D02*
X120440000Y-84325000D01*
X124387500Y-87707500D02*
X124387500Y-87332500D01*
X123070563Y-87845000D02*
X120440000Y-87845000D01*
X120440000Y-87845000D02*
X120440000Y-87145000D01*
X124575000Y-87520000D02*
X124200000Y-87520000D01*
X123770563Y-87145000D02*
X123070563Y-87845000D01*
X123770563Y-85025000D02*
X123070563Y-84325000D01*
X120440000Y-84325000D02*
X120440000Y-85025000D01*
%TO.C,U2*%
X132860000Y-89740000D02*
X132860000Y-89995000D01*
X125140000Y-89740000D02*
X125140000Y-89995000D01*
X129000000Y-100260000D02*
X132860000Y-100260000D01*
X129000000Y-89740000D02*
X125140000Y-89740000D01*
X129000000Y-89740000D02*
X132860000Y-89740000D01*
X129000000Y-100260000D02*
X125140000Y-100260000D01*
X132860000Y-100260000D02*
X132860000Y-100005000D01*
X125140000Y-89995000D02*
X123325000Y-89995000D01*
X125140000Y-100260000D02*
X125140000Y-100005000D01*
%TO.C,R2*%
X126370000Y-80870000D02*
X126370000Y-74330000D01*
X125000000Y-73560000D02*
X125000000Y-74330000D01*
X123630000Y-80870000D02*
X126370000Y-80870000D01*
X125000000Y-81640000D02*
X125000000Y-80870000D01*
X126370000Y-74330000D02*
X123630000Y-74330000D01*
X123630000Y-74330000D02*
X123630000Y-80870000D01*
%TO.C,D3*%
X134920000Y-77131000D02*
X133080000Y-77131000D01*
X134920000Y-77251000D02*
X133080000Y-77251000D01*
X134920000Y-77011000D02*
X133080000Y-77011000D01*
X134920000Y-76555000D02*
X133080000Y-76555000D01*
X134000000Y-81015000D02*
X134000000Y-79835000D01*
X133080000Y-79835000D02*
X134920000Y-79835000D01*
X133080000Y-76555000D02*
X133080000Y-79835000D01*
X134000000Y-75375000D02*
X134000000Y-76555000D01*
X134920000Y-79835000D02*
X134920000Y-76555000D01*
%TO.C,*%
G36*
X110813413Y-45587510D02*
G01*
X110836999Y-45605342D01*
X110850901Y-45620642D01*
X110860764Y-45636528D01*
X110865912Y-45655070D01*
X110865664Y-45678332D01*
X110859345Y-45708384D01*
X110846276Y-45747292D01*
X110825778Y-45797124D01*
X110797175Y-45859946D01*
X110759787Y-45937827D01*
X110712937Y-46032833D01*
X110665846Y-46127244D01*
X110619866Y-46218551D01*
X110576000Y-46304447D01*
X110535608Y-46382358D01*
X110500052Y-46449706D01*
X110470694Y-46503915D01*
X110448894Y-46542410D01*
X110436013Y-46562614D01*
X110435379Y-46563400D01*
X110388015Y-46606974D01*
X110337002Y-46631581D01*
X110286212Y-46635805D01*
X110258064Y-46628224D01*
X110226773Y-46611482D01*
X110210815Y-46590120D01*
X110205630Y-46556375D01*
X110205533Y-46538825D01*
X110208697Y-46516827D01*
X110218399Y-46486057D01*
X110235719Y-46444032D01*
X110261736Y-46388269D01*
X110297528Y-46316287D01*
X110328994Y-46254890D01*
X110371063Y-46173289D01*
X110415645Y-46086456D01*
X110459486Y-46000753D01*
X110499331Y-45922545D01*
X110531927Y-45858192D01*
X110534692Y-45852707D01*
X110578466Y-45767521D01*
X110614856Y-45701539D01*
X110645860Y-45652411D01*
X110673479Y-45617786D01*
X110699711Y-45595315D01*
X110726558Y-45582649D01*
X110756019Y-45577437D01*
X110769414Y-45576908D01*
X110813413Y-45587510D01*
G37*
G36*
X117107126Y-44189542D02*
G01*
X117107126Y-47022212D01*
X107104628Y-47022212D01*
X107104628Y-46813974D01*
X107270935Y-46813974D01*
X107271353Y-46819335D01*
X107284791Y-46848573D01*
X107311829Y-46870012D01*
X107343351Y-46877215D01*
X107351458Y-46875882D01*
X107372579Y-46871897D01*
X107407776Y-46866812D01*
X107433734Y-46863582D01*
X107482613Y-46857472D01*
X107551806Y-46848212D01*
X107638390Y-46836213D01*
X107739445Y-46821886D01*
X107852048Y-46805644D01*
X107973278Y-46787898D01*
X108019934Y-46781003D01*
X108124332Y-46763899D01*
X108208882Y-46745234D01*
X108277228Y-46722631D01*
X108333018Y-46693712D01*
X108379894Y-46656101D01*
X108421504Y-46607418D01*
X108461492Y-46545287D01*
X108503504Y-46467330D01*
X108504825Y-46464738D01*
X108548673Y-46379909D01*
X108584356Y-46314386D01*
X108613477Y-46266094D01*
X108637642Y-46232956D01*
X108658455Y-46212897D01*
X108677520Y-46203842D01*
X108696442Y-46203715D01*
X108704931Y-46205888D01*
X108717477Y-46212354D01*
X108729780Y-46225207D01*
X108743028Y-46247063D01*
X108758407Y-46280541D01*
X108777103Y-46328257D01*
X108800303Y-46392830D01*
X108829194Y-46476876D01*
X108833430Y-46489372D01*
X108873644Y-46601384D01*
X108911139Y-46691481D01*
X108946578Y-46761012D01*
X108980625Y-46811325D01*
X109004089Y-46835921D01*
X109038966Y-46856779D01*
X109087143Y-46869295D01*
X109150129Y-46873413D01*
X109229435Y-46869074D01*
X109326570Y-46856221D01*
X109443045Y-46834797D01*
X109531791Y-46815812D01*
X109618470Y-46796537D01*
X109685557Y-46782207D01*
X109736399Y-46772634D01*
X109774343Y-46767631D01*
X109802740Y-46767011D01*
X109824935Y-46770587D01*
X109844276Y-46778170D01*
X109864113Y-46789575D01*
X109875188Y-46796603D01*
X109919235Y-46820500D01*
X109967200Y-46840353D01*
X109988083Y-46846707D01*
X110056877Y-46856095D01*
X110137610Y-46854811D01*
X110221694Y-46843634D01*
X110300537Y-46823346D01*
X110319297Y-46816606D01*
X110376723Y-46795222D01*
X110417930Y-46782809D01*
X110448335Y-46779155D01*
X110473360Y-46784048D01*
X110498422Y-46797277D01*
X110515475Y-46808945D01*
X110582261Y-46845101D01*
X110656118Y-46862245D01*
X110740976Y-46861148D01*
X110765259Y-46857980D01*
X110830001Y-46845068D01*
X110887737Y-46825682D01*
X110942702Y-46797259D01*
X110999132Y-46757236D01*
X111061260Y-46703048D01*
X111126022Y-46639568D01*
X111177028Y-46588375D01*
X111234359Y-46531862D01*
X111295641Y-46472267D01*
X111358500Y-46411828D01*
X111420563Y-46352781D01*
X111479455Y-46297363D01*
X111532804Y-46247811D01*
X111578234Y-46206364D01*
X111613374Y-46175257D01*
X111635848Y-46156728D01*
X111642911Y-46152429D01*
X111646709Y-46154153D01*
X111647142Y-46160722D01*
X111643267Y-46174233D01*
X111634143Y-46196781D01*
X111618827Y-46230462D01*
X111596378Y-46277373D01*
X111565855Y-46339610D01*
X111526315Y-46419268D01*
X111493008Y-46486036D01*
X111451120Y-46570246D01*
X111418885Y-46636134D01*
X111395244Y-46686303D01*
X111379137Y-46723358D01*
X111369508Y-46749902D01*
X111365297Y-46768539D01*
X111365447Y-46781873D01*
X111368651Y-46791972D01*
X111389361Y-46817133D01*
X111412185Y-46829270D01*
X111433015Y-46830011D01*
X111472279Y-46827597D01*
X111525202Y-46822617D01*
X111587011Y-46815657D01*
X111652931Y-46807306D01*
X111718190Y-46798152D01*
X111778011Y-46788783D01*
X111827623Y-46779788D01*
X111846383Y-46775781D01*
X111868397Y-46770303D01*
X111887889Y-46763540D01*
X111906086Y-46753678D01*
X111924212Y-46738900D01*
X111943493Y-46717390D01*
X111965154Y-46687333D01*
X111990421Y-46646914D01*
X112020518Y-46594316D01*
X112056672Y-46527723D01*
X112100108Y-46445321D01*
X112152050Y-46345294D01*
X112201374Y-46249768D01*
X112239692Y-46176272D01*
X112276612Y-46106892D01*
X112310101Y-46045344D01*
X112338125Y-45995342D01*
X112358647Y-45960598D01*
X112365864Y-45949531D01*
X112392467Y-45919909D01*
X112432845Y-45884325D01*
X112481315Y-45846845D01*
X112532196Y-45811535D01*
X112579805Y-45782462D01*
X112618461Y-45763691D01*
X112631010Y-45759778D01*
X112664707Y-45761445D01*
X112688238Y-45779389D01*
X112695963Y-45808405D01*
X112694405Y-45818296D01*
X112687659Y-45835395D01*
X112671859Y-45870690D01*
X112648361Y-45921300D01*
X112618521Y-45984345D01*
X112583694Y-46056944D01*
X112545235Y-46136216D01*
X112533419Y-46160406D01*
X112478443Y-46273041D01*
X112433120Y-46366785D01*
X112396611Y-46443784D01*
X112368077Y-46506182D01*
X112346679Y-46556126D01*
X112331578Y-46595760D01*
X112321935Y-46627230D01*
X112316913Y-46652682D01*
X112315671Y-46674261D01*
X112317372Y-46694113D01*
X112319669Y-46707160D01*
X112340581Y-46754337D01*
X112381079Y-46792675D01*
X112438538Y-46821032D01*
X112510333Y-46838264D01*
X112593838Y-46843228D01*
X112628531Y-46841628D01*
X112673849Y-46837654D01*
X112715642Y-46832212D01*
X112757479Y-46824300D01*
X112802928Y-46812916D01*
X112855557Y-46797059D01*
X112918934Y-46775726D01*
X112996629Y-46747917D01*
X113092208Y-46712629D01*
X113104951Y-46707880D01*
X113169111Y-46684162D01*
X113227331Y-46663021D01*
X113275300Y-46645993D01*
X113308708Y-46634614D01*
X113321359Y-46630773D01*
X113348504Y-46628997D01*
X113377008Y-46639007D01*
X113411312Y-46663154D01*
X113451689Y-46699758D01*
X113529825Y-46759379D01*
X113619718Y-46798847D01*
X113721876Y-46818377D01*
X113733535Y-46819294D01*
X113809683Y-46820618D01*
X113877297Y-46811921D01*
X113944930Y-46791320D01*
X114021137Y-46756935D01*
X114024401Y-46755288D01*
X114109329Y-46712310D01*
X114171323Y-46754933D01*
X114214156Y-46780367D01*
X114259260Y-46801030D01*
X114286210Y-46809689D01*
X114317902Y-46816386D01*
X114347468Y-46820672D01*
X114377268Y-46821923D01*
X114409658Y-46819513D01*
X114446995Y-46812818D01*
X114491639Y-46801212D01*
X114545947Y-46784070D01*
X114612275Y-46760767D01*
X114692982Y-46730679D01*
X114790426Y-46693179D01*
X114906963Y-46647644D01*
X114926793Y-46639864D01*
X114980747Y-46618993D01*
X115018717Y-46607212D01*
X115046763Y-46605449D01*
X115070947Y-46614633D01*
X115097329Y-46635692D01*
X115131971Y-46669554D01*
X115134038Y-46671609D01*
X115191411Y-46722623D01*
X115247511Y-46757708D01*
X115309406Y-46779915D01*
X115384165Y-46792297D01*
X115420454Y-46795259D01*
X115534718Y-46792198D01*
X115645046Y-46769113D01*
X115731644Y-46734388D01*
X115766445Y-46717977D01*
X115793813Y-46707255D01*
X115804140Y-46704858D01*
X115820786Y-46711139D01*
X115849629Y-46727453D01*
X115878147Y-46746034D01*
X115932242Y-46776194D01*
X115990628Y-46797819D01*
X116004223Y-46801113D01*
X116039703Y-46807294D01*
X116071064Y-46808607D01*
X116106231Y-46804500D01*
X116153131Y-46794417D01*
X116174498Y-46789197D01*
X116225405Y-46773806D01*
X116286643Y-46751023D01*
X116353880Y-46722929D01*
X116422785Y-46691605D01*
X116489029Y-46659132D01*
X116548280Y-46627592D01*
X116596207Y-46599066D01*
X116628480Y-46575635D01*
X116637080Y-46566885D01*
X116656082Y-46528718D01*
X116654022Y-46492920D01*
X116631496Y-46464147D01*
X116623231Y-46458871D01*
X116605687Y-46450791D01*
X116587154Y-46448210D01*
X116561500Y-46451608D01*
X116522590Y-46461466D01*
X116496905Y-46468778D01*
X116439839Y-46483036D01*
X116401125Y-46486675D01*
X116377918Y-46479239D01*
X116367374Y-46460271D01*
X116365999Y-46447774D01*
X116371033Y-46433688D01*
X116385705Y-46400808D01*
X116408972Y-46351284D01*
X116439792Y-46287264D01*
X116477122Y-46210895D01*
X116519920Y-46124327D01*
X116567144Y-46029707D01*
X116614834Y-45934956D01*
X116675334Y-45815080D01*
X116725823Y-45714373D01*
X116766948Y-45631045D01*
X116799350Y-45563311D01*
X116823676Y-45509383D01*
X116840570Y-45467473D01*
X116850675Y-45435795D01*
X116854636Y-45412562D01*
X116853097Y-45395986D01*
X116846703Y-45384280D01*
X116836098Y-45375658D01*
X116821927Y-45368331D01*
X116819521Y-45367227D01*
X116805156Y-45363394D01*
X116782962Y-45362295D01*
X116750696Y-45364229D01*
X116706116Y-45369495D01*
X116646981Y-45378390D01*
X116571047Y-45391211D01*
X116476072Y-45408257D01*
X116387879Y-45424575D01*
X116344530Y-45431882D01*
X116314148Y-45433222D01*
X116286705Y-45427509D01*
X116252173Y-45413657D01*
X116240956Y-45408661D01*
X116141490Y-45372989D01*
X116039825Y-45355336D01*
X115931076Y-45355261D01*
X115819160Y-45370608D01*
X115701869Y-45404145D01*
X115585610Y-45458392D01*
X115474129Y-45530711D01*
X115371173Y-45618462D01*
X115280489Y-45719005D01*
X115234964Y-45782184D01*
X115168336Y-45889530D01*
X115117208Y-45986924D01*
X115079362Y-46079865D01*
X115052582Y-46173854D01*
X115034653Y-46274390D01*
X115033684Y-46281718D01*
X115025883Y-46333107D01*
X115017154Y-46376690D01*
X115008803Y-46406500D01*
X115004450Y-46415375D01*
X114986908Y-46426495D01*
X114952331Y-46441477D01*
X114906482Y-46458440D01*
X114855120Y-46475504D01*
X114804007Y-46490788D01*
X114758903Y-46502411D01*
X114725571Y-46508491D01*
X114717826Y-46508962D01*
X114683825Y-46500854D01*
X114667501Y-46477777D01*
X114668453Y-46448667D01*
X114674683Y-46433691D01*
X114690529Y-46399524D01*
X114715097Y-46348005D01*
X114747490Y-46280968D01*
X114786813Y-46200251D01*
X114832170Y-46107690D01*
X114882666Y-46005120D01*
X114937405Y-45894380D01*
X114995491Y-45777304D01*
X115015722Y-45736626D01*
X115074849Y-45617394D01*
X115130928Y-45503500D01*
X115183056Y-45396826D01*
X115230333Y-45299256D01*
X115271856Y-45212673D01*
X115306725Y-45138961D01*
X115334038Y-45080003D01*
X115352893Y-45037682D01*
X115362389Y-45013882D01*
X115363304Y-45010481D01*
X115361959Y-44969663D01*
X115342162Y-44943250D01*
X115303688Y-44931013D01*
X115284354Y-44930032D01*
X115248408Y-44931914D01*
X115197156Y-44937035D01*
X115135853Y-44944610D01*
X115069755Y-44953853D01*
X115004115Y-44963977D01*
X114944189Y-44974195D01*
X114895232Y-44983723D01*
X114862500Y-44991774D01*
X114855704Y-44994157D01*
X114829184Y-45008894D01*
X114803181Y-45032019D01*
X114775664Y-45066320D01*
X114744600Y-45114583D01*
X114707958Y-45179596D01*
X114675165Y-45241857D01*
X114646013Y-45296589D01*
X114619038Y-45344146D01*
X114596714Y-45380381D01*
X114581519Y-45401146D01*
X114578370Y-45403974D01*
X114559244Y-45408557D01*
X114529437Y-45402183D01*
X114496094Y-45389290D01*
X114435719Y-45370184D01*
X114360474Y-45358844D01*
X114326517Y-45356327D01*
X114188248Y-45359726D01*
X114055005Y-45385809D01*
X113927614Y-45434129D01*
X113806903Y-45504240D01*
X113693700Y-45595696D01*
X113588833Y-45708051D01*
X113529887Y-45785838D01*
X113470852Y-45876308D01*
X113424376Y-45963533D01*
X113388473Y-46053120D01*
X113361158Y-46150676D01*
X113340446Y-46261807D01*
X113328303Y-46355189D01*
X113321368Y-46395127D01*
X113311510Y-46426775D01*
X113304114Y-46439371D01*
X113284845Y-46450937D01*
X113249032Y-46466376D01*
X113202871Y-46483598D01*
X113152558Y-46500515D01*
X113104288Y-46515037D01*
X113064258Y-46525073D01*
X113039689Y-46528551D01*
X113011208Y-46523314D01*
X112995641Y-46514447D01*
X112987363Y-46504172D01*
X112982549Y-46491540D01*
X112981941Y-46474553D01*
X112986284Y-46451212D01*
X112996322Y-46419520D01*
X113012799Y-46377480D01*
X113036459Y-46323093D01*
X113068046Y-46254362D01*
X113108303Y-46169290D01*
X113157975Y-46065878D01*
X113178614Y-46023137D01*
X113227827Y-45921185D01*
X113267767Y-45838006D01*
X113299458Y-45771242D01*
X113323924Y-45718533D01*
X113342188Y-45677520D01*
X113355274Y-45645845D01*
X113364206Y-45621148D01*
X113370007Y-45601070D01*
X113373701Y-45583252D01*
X113375897Y-45568520D01*
X113375258Y-45502825D01*
X113354321Y-45448934D01*
X113313057Y-45406809D01*
X113251437Y-45376415D01*
X113207260Y-45364340D01*
X113137223Y-45359206D01*
X113054797Y-45371407D01*
X112959370Y-45401140D01*
X112850329Y-45448603D01*
X112727062Y-45513993D01*
X112706737Y-45525690D01*
X112656738Y-45554031D01*
X112613186Y-45577391D01*
X112580543Y-45593468D01*
X112563268Y-45599963D01*
X112562695Y-45600000D01*
X112553164Y-45593323D01*
X112548586Y-45570762D01*
X112548078Y-45531490D01*
X112544280Y-45471586D01*
X112528281Y-45427605D01*
X112497823Y-45397716D01*
X112450645Y-45380089D01*
X112384487Y-45372894D01*
X112351804Y-45372530D01*
X112246508Y-45379616D01*
X112153110Y-45400170D01*
X112063035Y-45436114D01*
X112058862Y-45438154D01*
X112032449Y-45453411D01*
X112000876Y-45476088D01*
X111962959Y-45507343D01*
X111917513Y-45548328D01*
X111863353Y-45600201D01*
X111799297Y-45664115D01*
X111724159Y-45741227D01*
X111636756Y-45832692D01*
X111535904Y-45939663D01*
X111443909Y-46038077D01*
X111384935Y-46100954D01*
X111330894Y-46157812D01*
X111283913Y-46206471D01*
X111246121Y-46244754D01*
X111219646Y-46270481D01*
X111206617Y-46281474D01*
X111205894Y-46281721D01*
X111199297Y-46279240D01*
X111197200Y-46270613D01*
X111200368Y-46254067D01*
X111209568Y-46227825D01*
X111225563Y-46190114D01*
X111249120Y-46139159D01*
X111281003Y-46073185D01*
X111321979Y-45990418D01*
X111372812Y-45889082D01*
X111389484Y-45856013D01*
X111440049Y-45755650D01*
X111480877Y-45674070D01*
X111512896Y-45609107D01*
X111537034Y-45558596D01*
X111554221Y-45520372D01*
X111565385Y-45492268D01*
X111571454Y-45472119D01*
X111573358Y-45457760D01*
X111572025Y-45447026D01*
X111568636Y-45438276D01*
X111555201Y-45417739D01*
X111535138Y-45407251D01*
X111500227Y-45402644D01*
X111498063Y-45402501D01*
X111467138Y-45403220D01*
X111418671Y-45407570D01*
X111358235Y-45414912D01*
X111291406Y-45424606D01*
X111258177Y-45429994D01*
X111177979Y-45442904D01*
X111115783Y-45451008D01*
X111066559Y-45454214D01*
X111025276Y-45452427D01*
X110986906Y-45445554D01*
X110946418Y-45433499D01*
X110918741Y-45423638D01*
X110877198Y-45410482D01*
X110834430Y-45402433D01*
X110782689Y-45398446D01*
X110724803Y-45397469D01*
X110665761Y-45398768D01*
X110608584Y-45402374D01*
X110561714Y-45407654D01*
X110543049Y-45411121D01*
X110408335Y-45454591D01*
X110277644Y-45519250D01*
X110153725Y-45602816D01*
X110039330Y-45703006D01*
X109937208Y-45817536D01*
X109850110Y-45944123D01*
X109807978Y-46021327D01*
X109770601Y-46103325D01*
X109745002Y-46177887D01*
X109728950Y-46253964D01*
X109720214Y-46340509D01*
X109718209Y-46381628D01*
X109715692Y-46439148D01*
X109712829Y-46489924D01*
X109709981Y-46528269D01*
X109707629Y-46547946D01*
X109692028Y-46570393D01*
X109660066Y-46587238D01*
X109618505Y-46597115D01*
X109574106Y-46598657D01*
X109533631Y-46590499D01*
X109522203Y-46585400D01*
X109504915Y-46574689D01*
X109490322Y-46560661D01*
X109476498Y-46539678D01*
X109461515Y-46508100D01*
X109443449Y-46462288D01*
X109420373Y-46398601D01*
X109414361Y-46381628D01*
X109388306Y-46308099D01*
X109359051Y-46225868D01*
X109330463Y-46145786D01*
X109309672Y-46087783D01*
X109272001Y-45982733D01*
X109241731Y-45897531D01*
X109218205Y-45829946D01*
X109200762Y-45777743D01*
X109188744Y-45738689D01*
X109181493Y-45710550D01*
X109178348Y-45691095D01*
X109178651Y-45678089D01*
X109181743Y-45669298D01*
X109184869Y-45664867D01*
X109204592Y-45649440D01*
X109243836Y-45626089D01*
X109300393Y-45595859D01*
X109372056Y-45559797D01*
X109456616Y-45518948D01*
X109551865Y-45474359D01*
X109655596Y-45427074D01*
X109765601Y-45378140D01*
X109879672Y-45328602D01*
X109995600Y-45279507D01*
X110019574Y-45269517D01*
X110092741Y-45239086D01*
X110159644Y-45211197D01*
X110216888Y-45187274D01*
X110261073Y-45168736D01*
X110288802Y-45157005D01*
X110295789Y-45153978D01*
X110317073Y-45145570D01*
X110356468Y-45131044D01*
X110409830Y-45111850D01*
X110473017Y-45089440D01*
X110541883Y-45065265D01*
X110612284Y-45040776D01*
X110680077Y-45017423D01*
X110741117Y-44996659D01*
X110791261Y-44979933D01*
X110812957Y-44972897D01*
X111073711Y-44895546D01*
X111333274Y-44829937D01*
X111588482Y-44776629D01*
X111836167Y-44736184D01*
X112073162Y-44709163D01*
X112296302Y-44696128D01*
X112380845Y-44694956D01*
X112580034Y-44702270D01*
X112770560Y-44724836D01*
X112955172Y-44763589D01*
X113136617Y-44819463D01*
X113317643Y-44893393D01*
X113500998Y-44986315D01*
X113689429Y-45099162D01*
X113814614Y-45182726D01*
X113874808Y-45222836D01*
X113925947Y-45251703D01*
X113972931Y-45269965D01*
X114020663Y-45278259D01*
X114074044Y-45277221D01*
X114137976Y-45267488D01*
X114217360Y-45249697D01*
X114256083Y-45240077D01*
X114318528Y-45223872D01*
X114361836Y-45210967D01*
X114389788Y-45199444D01*
X114406170Y-45187386D01*
X114414763Y-45172877D01*
X114418671Y-45157701D01*
X114420616Y-45121861D01*
X114410110Y-45088962D01*
X114384727Y-45055412D01*
X114342042Y-45017620D01*
X114305616Y-44990334D01*
X114083170Y-44844383D01*
X113850335Y-44718778D01*
X113608936Y-44614409D01*
X113375289Y-44536302D01*
X113260022Y-44506670D01*
X113127068Y-44478582D01*
X112982240Y-44452935D01*
X112831351Y-44430625D01*
X112680212Y-44412549D01*
X112534636Y-44399601D01*
X112458491Y-44394964D01*
X112317611Y-44392628D01*
X112161274Y-44398122D01*
X111995181Y-44410729D01*
X111825035Y-44429734D01*
X111656538Y-44454420D01*
X111495392Y-44484072D01*
X111347298Y-44517974D01*
X111241971Y-44547699D01*
X110988384Y-44627876D01*
X110754975Y-44703674D01*
X110539034Y-44776080D01*
X110337851Y-44846078D01*
X110148716Y-44914654D01*
X109968919Y-44982793D01*
X109795750Y-45051481D01*
X109626500Y-45121702D01*
X109458458Y-45194441D01*
X109437459Y-45203735D01*
X109364388Y-45235767D01*
X109309180Y-45258869D01*
X109268454Y-45274179D01*
X109238830Y-45282833D01*
X109216928Y-45285970D01*
X109199368Y-45284728D01*
X109197769Y-45284416D01*
X109173855Y-45278129D01*
X109157407Y-45268894D01*
X109148916Y-45254287D01*
X109148876Y-45231884D01*
X109157778Y-45199262D01*
X109176116Y-45153997D01*
X109204382Y-45093665D01*
X109243069Y-45015844D01*
X109258586Y-44985162D01*
X109307026Y-44890487D01*
X109348190Y-44814024D01*
X109385152Y-44752878D01*
X109420985Y-44704154D01*
X109458760Y-44664959D01*
X109501552Y-44632396D01*
X109552432Y-44603570D01*
X109614475Y-44575587D01*
X109690753Y-44545552D01*
X109748007Y-44524084D01*
X109792615Y-44505771D01*
X109830615Y-44487120D01*
X109854724Y-44471758D01*
X109856730Y-44469924D01*
X109875872Y-44436873D01*
X109876841Y-44400172D01*
X109860227Y-44368225D01*
X109848914Y-44358740D01*
X109839738Y-44352798D01*
X109830652Y-44348291D01*
X109819189Y-44345452D01*
X109802883Y-44344519D01*
X109779268Y-44345726D01*
X109745877Y-44349308D01*
X109700244Y-44355502D01*
X109639903Y-44364541D01*
X109562387Y-44376663D01*
X109465231Y-44392102D01*
X109414253Y-44400225D01*
X109321821Y-44414936D01*
X109227556Y-44429914D01*
X109136878Y-44444300D01*
X109055207Y-44457235D01*
X108987963Y-44467857D01*
X108955854Y-44472912D01*
X108846960Y-44490418D01*
X108737883Y-44508693D01*
X108631275Y-44527232D01*
X108529786Y-44545529D01*
X108436067Y-44563081D01*
X108352768Y-44579383D01*
X108282541Y-44593928D01*
X108228036Y-44606211D01*
X108191904Y-44615729D01*
X108177789Y-44621152D01*
X108150223Y-44649962D01*
X108141387Y-44683310D01*
X108150132Y-44714919D01*
X108175307Y-44738514D01*
X108200814Y-44746717D01*
X108228043Y-44749620D01*
X108272134Y-44752999D01*
X108326458Y-44756387D01*
X108371969Y-44758751D01*
X108446150Y-44763735D01*
X108500291Y-44771387D01*
X108537811Y-44782835D01*
X108562127Y-44799205D01*
X108576657Y-44821622D01*
X108578665Y-44826861D01*
X108582596Y-44846160D01*
X108579545Y-44868545D01*
X108567924Y-44899561D01*
X108546146Y-44944753D01*
X108543357Y-44950248D01*
X108530069Y-44976498D01*
X108507255Y-45021732D01*
X108475934Y-45083923D01*
X108437124Y-45161046D01*
X108391844Y-45251075D01*
X108341114Y-45351984D01*
X108285952Y-45461747D01*
X108227377Y-45578338D01*
X108166408Y-45699730D01*
X108142708Y-45746927D01*
X108062737Y-45905726D01*
X107992521Y-46044129D01*
X107931640Y-46162930D01*
X107879672Y-46262925D01*
X107836198Y-46344908D01*
X107800796Y-46409675D01*
X107773046Y-46458019D01*
X107752527Y-46490736D01*
X107740642Y-46506644D01*
X107697298Y-46550285D01*
X107647507Y-46588448D01*
X107586681Y-46623949D01*
X107510227Y-46659605D01*
X107453620Y-46682767D01*
X107380796Y-46713272D01*
X107328454Y-46739892D01*
X107294256Y-46764381D01*
X107275863Y-46788491D01*
X107270935Y-46813974D01*
X107104628Y-46813974D01*
X107104628Y-44189542D01*
X117107126Y-44189542D01*
G37*
G36*
X116118170Y-45545162D02*
G01*
X116148643Y-45570992D01*
X116160393Y-45597489D01*
X116162372Y-45611172D01*
X116161880Y-45626793D01*
X116158069Y-45646286D01*
X116150095Y-45671585D01*
X116137112Y-45704622D01*
X116118273Y-45747331D01*
X116092733Y-45801646D01*
X116059647Y-45869500D01*
X116018169Y-45952826D01*
X115967452Y-46053559D01*
X115919283Y-46148720D01*
X115861896Y-46261455D01*
X115813602Y-46354870D01*
X115773163Y-46430759D01*
X115739340Y-46490919D01*
X115710897Y-46537145D01*
X115686595Y-46571234D01*
X115665197Y-46594979D01*
X115645465Y-46610178D01*
X115626161Y-46618626D01*
X115606047Y-46622118D01*
X115592642Y-46622582D01*
X115544226Y-46613739D01*
X115516069Y-46598221D01*
X115502846Y-46586713D01*
X115493282Y-46574240D01*
X115488056Y-46558888D01*
X115487844Y-46538744D01*
X115493325Y-46511893D01*
X115505176Y-46476422D01*
X115524075Y-46430418D01*
X115550700Y-46371966D01*
X115585727Y-46299153D01*
X115629834Y-46210066D01*
X115683700Y-46102789D01*
X115709814Y-46051023D01*
X115758372Y-45955330D01*
X115804471Y-45865437D01*
X115846873Y-45783686D01*
X115884345Y-45712415D01*
X115915650Y-45653965D01*
X115939554Y-45610676D01*
X115954821Y-45584887D01*
X115958878Y-45579233D01*
X115986625Y-45558040D01*
X116022905Y-45540837D01*
X116028417Y-45539050D01*
X116076211Y-45533681D01*
X116118170Y-45545162D01*
G37*
G36*
X114376941Y-45531419D02*
G01*
X114420727Y-45548197D01*
X114435095Y-45559755D01*
X114454536Y-45583602D01*
X114461337Y-45608896D01*
X114459635Y-45640942D01*
X114452752Y-45665189D01*
X114436285Y-45707287D01*
X114411645Y-45764387D01*
X114380244Y-45833636D01*
X114343493Y-45912184D01*
X114302805Y-45997180D01*
X114259590Y-46085773D01*
X114215261Y-46175112D01*
X114171229Y-46262346D01*
X114128906Y-46344624D01*
X114089704Y-46419095D01*
X114055034Y-46482907D01*
X114026308Y-46533211D01*
X114004937Y-46567154D01*
X113994568Y-46580178D01*
X113949186Y-46609575D01*
X113898275Y-46621928D01*
X113848590Y-46616677D01*
X113809395Y-46595497D01*
X113793521Y-46580498D01*
X113782016Y-46564839D01*
X113775524Y-46546470D01*
X113774687Y-46523342D01*
X113780148Y-46493403D01*
X113792548Y-46454605D01*
X113812530Y-46404896D01*
X113840737Y-46342226D01*
X113877811Y-46264545D01*
X113924393Y-46169803D01*
X113973943Y-46070328D01*
X114032692Y-45953091D01*
X114082240Y-45855171D01*
X114123647Y-45774734D01*
X114157970Y-45709947D01*
X114186268Y-45658974D01*
X114209600Y-45619983D01*
X114229024Y-45591139D01*
X114245598Y-45570608D01*
X114260382Y-45556557D01*
X114274433Y-45547152D01*
X114276556Y-45546022D01*
X114326228Y-45530464D01*
X114376941Y-45531419D01*
G37*
%TO.C,R4*%
X151270000Y-74630000D02*
X148530000Y-74630000D01*
X149900000Y-73860000D02*
X149900000Y-74630000D01*
X148530000Y-74630000D02*
X148530000Y-81170000D01*
X151270000Y-81170000D02*
X151270000Y-74630000D01*
X149900000Y-81940000D02*
X149900000Y-81170000D01*
X148530000Y-81170000D02*
X151270000Y-81170000D01*
%TO.C,USB-A1*%
X143600000Y-66020000D02*
X152400000Y-66020000D01*
X143600000Y-66020000D02*
X143600000Y-66775000D01*
X154145000Y-62850000D02*
X154145000Y-61800000D01*
X141855000Y-62850000D02*
X141855000Y-61800000D01*
%TO.C,C1*%
X108657500Y-84437500D02*
X108657500Y-85137500D01*
X111988063Y-85137500D02*
X111288063Y-84437500D01*
X112792500Y-87632500D02*
X112417500Y-87632500D01*
X111988063Y-87257500D02*
X111288063Y-87957500D01*
X111288063Y-87957500D02*
X108657500Y-87957500D01*
X112605000Y-87820000D02*
X112605000Y-87445000D01*
X111288063Y-84437500D02*
X108657500Y-84437500D01*
X108657500Y-87957500D02*
X108657500Y-87257500D01*
%TO.C,U5*%
X133860000Y-53115000D02*
X133860000Y-53360000D01*
X130000000Y-64885000D02*
X126140000Y-64885000D01*
X130000000Y-53115000D02*
X133860000Y-53115000D01*
X126140000Y-53360000D02*
X124325000Y-53360000D01*
X133860000Y-64885000D02*
X133860000Y-64640000D01*
X130000000Y-64885000D02*
X133860000Y-64885000D01*
X130000000Y-53115000D02*
X126140000Y-53115000D01*
X126140000Y-53115000D02*
X126140000Y-53360000D01*
X126140000Y-64885000D02*
X126140000Y-64640000D01*
%TO.C,D2*%
X121020000Y-79735000D02*
X121020000Y-76455000D01*
X121020000Y-77151000D02*
X119180000Y-77151000D01*
X120100000Y-80915000D02*
X120100000Y-79735000D01*
X119180000Y-79735000D02*
X121020000Y-79735000D01*
X119180000Y-76455000D02*
X119180000Y-79735000D01*
X121020000Y-76911000D02*
X119180000Y-76911000D01*
X120100000Y-75275000D02*
X120100000Y-76455000D01*
X121020000Y-77031000D02*
X119180000Y-77031000D01*
X121020000Y-76455000D02*
X119180000Y-76455000D01*
%TO.C,U1*%
X108140000Y-99610000D02*
X108140000Y-99370000D01*
X115860000Y-90390000D02*
X115860000Y-90630000D01*
X112000000Y-90390000D02*
X115860000Y-90390000D01*
X115860000Y-99610000D02*
X115860000Y-99370000D01*
X108140000Y-90630000D02*
X106325000Y-90630000D01*
X112000000Y-99610000D02*
X108140000Y-99610000D01*
X108140000Y-90390000D02*
X108140000Y-90630000D01*
X112000000Y-90390000D02*
X108140000Y-90390000D01*
X112000000Y-99610000D02*
X115860000Y-99610000D01*
%TO.C,J1*%
X142250000Y-112400000D02*
X124750000Y-112400000D01*
X124750000Y-112400000D02*
X124750000Y-107400000D01*
X124750000Y-107400000D02*
X142250000Y-107400000D01*
X142250000Y-107400000D02*
X142250000Y-112400000D01*
%TO.C,C4*%
X146970563Y-84640000D02*
X144340000Y-84640000D01*
X144340000Y-88160000D02*
X144340000Y-87460000D01*
X148287500Y-88022500D02*
X148287500Y-87647500D01*
X147670563Y-87460000D02*
X146970563Y-88160000D01*
X144340000Y-84640000D02*
X144340000Y-85340000D01*
X147670563Y-85340000D02*
X146970563Y-84640000D01*
X146970563Y-88160000D02*
X144340000Y-88160000D01*
X148475000Y-87835000D02*
X148100000Y-87835000D01*
%TO.C,D1*%
X108817500Y-81012500D02*
X108817500Y-79832500D01*
X109737500Y-77128500D02*
X107897500Y-77128500D01*
X108817500Y-75372500D02*
X108817500Y-76552500D01*
X109737500Y-76552500D02*
X107897500Y-76552500D01*
X107897500Y-76552500D02*
X107897500Y-79832500D01*
X109737500Y-79832500D02*
X109737500Y-76552500D01*
X109737500Y-77008500D02*
X107897500Y-77008500D01*
X107897500Y-79832500D02*
X109737500Y-79832500D01*
X109737500Y-77248500D02*
X107897500Y-77248500D01*
%TD*%
%LPC*%
D13*
%TO.C,CP1*%
X159200000Y-90100000D03*
%TD*%
D14*
%TO.C,D4*%
X145400000Y-74985000D03*
D15*
X145400000Y-82605000D03*
%TD*%
D16*
%TO.C,U4*%
X107350000Y-54305000D03*
X107350000Y-55575000D03*
X107350000Y-56845000D03*
X107350000Y-58115000D03*
X107350000Y-59385000D03*
X107350000Y-60655000D03*
X107350000Y-61925000D03*
X107350000Y-63195000D03*
X116650000Y-63195000D03*
X116650000Y-61925000D03*
X116650000Y-60655000D03*
X116650000Y-59385000D03*
X116650000Y-58115000D03*
X116650000Y-56845000D03*
X116650000Y-55575000D03*
X116650000Y-54305000D03*
%TD*%
D17*
%TO.C,R3*%
X138200000Y-72820000D03*
D18*
X138200000Y-82980000D03*
%TD*%
D13*
%TO.C,Cp3*%
X159100000Y-80000000D03*
%TD*%
D17*
%TO.C,R1*%
X113017500Y-72417500D03*
D18*
X113017500Y-82577500D03*
%TD*%
D19*
%TO.C,REF1*%
X103955242Y-111165242D03*
%TD*%
D20*
%TO.C,C3*%
X136600000Y-86200000D03*
X133600000Y-86200000D03*
%TD*%
D21*
%TO.C,R5*%
X130825000Y-67000000D03*
X129175000Y-67000000D03*
%TD*%
D16*
%TO.C,U3*%
X141850000Y-90555000D03*
X141850000Y-91825000D03*
X141850000Y-93095000D03*
X141850000Y-94365000D03*
X141850000Y-95635000D03*
X141850000Y-96905000D03*
X141850000Y-98175000D03*
X141850000Y-99445000D03*
X151150000Y-99445000D03*
X151150000Y-98175000D03*
X151150000Y-96905000D03*
X151150000Y-95635000D03*
X151150000Y-94365000D03*
X151150000Y-93095000D03*
X151150000Y-91825000D03*
X151150000Y-90555000D03*
%TD*%
D20*
%TO.C,C2*%
X123700000Y-86085000D03*
X120700000Y-86085000D03*
%TD*%
D16*
%TO.C,U2*%
X124350000Y-90555000D03*
X124350000Y-91825000D03*
X124350000Y-93095000D03*
X124350000Y-94365000D03*
X124350000Y-95635000D03*
X124350000Y-96905000D03*
X124350000Y-98175000D03*
X124350000Y-99445000D03*
X133650000Y-99445000D03*
X133650000Y-98175000D03*
X133650000Y-96905000D03*
X133650000Y-95635000D03*
X133650000Y-94365000D03*
X133650000Y-93095000D03*
X133650000Y-91825000D03*
X133650000Y-90555000D03*
%TD*%
D17*
%TO.C,R2*%
X125000000Y-72520000D03*
D18*
X125000000Y-82680000D03*
%TD*%
D14*
%TO.C,D3*%
X134000000Y-74385000D03*
D15*
X134000000Y-82005000D03*
%TD*%
D17*
%TO.C,R4*%
X149900000Y-72820000D03*
D18*
X149900000Y-82980000D03*
%TD*%
D13*
%TO.C,CP2*%
X159100000Y-84900000D03*
%TD*%
D19*
%TO.C,REF2*%
X103705242Y-45665242D03*
%TD*%
%TO.C,REF3*%
X160705242Y-111165242D03*
%TD*%
D13*
%TO.C,CP4*%
X159100000Y-74900000D03*
%TD*%
D22*
%TO.C,USB-A1*%
X150300000Y-64900000D03*
X145700000Y-64900000D03*
D23*
X144500000Y-67650000D03*
X147000000Y-67650000D03*
X149000000Y-67650000D03*
X151500000Y-67650000D03*
D24*
X153700000Y-64900000D03*
X142300000Y-64900000D03*
%TD*%
D20*
%TO.C,C1*%
X111917500Y-86197500D03*
X108917500Y-86197500D03*
%TD*%
D16*
%TO.C,U5*%
X125350000Y-53920000D03*
X125350000Y-55190000D03*
X125350000Y-56460000D03*
X125350000Y-57730000D03*
X125350000Y-59000000D03*
X125350000Y-60270000D03*
X125350000Y-61540000D03*
X125350000Y-62810000D03*
X125350000Y-64080000D03*
X134650000Y-64080000D03*
X134650000Y-62810000D03*
X134650000Y-61540000D03*
X134650000Y-60270000D03*
X134650000Y-59000000D03*
X134650000Y-57730000D03*
X134650000Y-56460000D03*
X134650000Y-55190000D03*
X134650000Y-53920000D03*
%TD*%
D14*
%TO.C,D2*%
X120100000Y-74285000D03*
D15*
X120100000Y-81905000D03*
%TD*%
D19*
%TO.C,REF4*%
X160705242Y-45665242D03*
%TD*%
D16*
%TO.C,U1*%
X107350000Y-91190000D03*
X107350000Y-92460000D03*
X107350000Y-93730000D03*
X107350000Y-95000000D03*
X107350000Y-96270000D03*
X107350000Y-97540000D03*
X107350000Y-98810000D03*
X116650000Y-98810000D03*
X116650000Y-97540000D03*
X116650000Y-96270000D03*
X116650000Y-95000000D03*
X116650000Y-93730000D03*
X116650000Y-92460000D03*
X116650000Y-91190000D03*
%TD*%
D25*
%TO.C,J1*%
X127250000Y-109900000D03*
X129750000Y-109900000D03*
X132250000Y-109900000D03*
X134750000Y-109900000D03*
X137250000Y-109900000D03*
X139750000Y-109900000D03*
%TD*%
D20*
%TO.C,C4*%
X147600000Y-86400000D03*
X144600000Y-86400000D03*
%TD*%
D14*
%TO.C,D1*%
X108817500Y-74382500D03*
D15*
X108817500Y-82002500D03*
%TD*%
M02*
