%TF.GenerationSoftware,KiCad,Pcbnew,(6.0.7-1)-1*%
%TF.CreationDate,2022-09-10T09:57:04+09:00*%
%TF.ProjectId,mouse,6d6f7573-652e-46b6-9963-61645f706362,rev?*%
%TF.SameCoordinates,Original*%
%TF.FileFunction,Paste,Top*%
%TF.FilePolarity,Positive*%
%FSLAX46Y46*%
G04 Gerber Fmt 4.6, Leading zero omitted, Abs format (unit mm)*
G04 Created by KiCad (PCBNEW (6.0.7-1)-1) date 2022-09-10 09:57:04*
%MOMM*%
%LPD*%
G01*
G04 APERTURE LIST*
G04 Aperture macros list*
%AMRoundRect*
0 Rectangle with rounded corners*
0 $1 Rounding radius*
0 $2 $3 $4 $5 $6 $7 $8 $9 X,Y pos of 4 corners*
0 Add a 4 corners polygon primitive as box body*
4,1,4,$2,$3,$4,$5,$6,$7,$8,$9,$2,$3,0*
0 Add four circle primitives for the rounded corners*
1,1,$1+$1,$2,$3*
1,1,$1+$1,$4,$5*
1,1,$1+$1,$6,$7*
1,1,$1+$1,$8,$9*
0 Add four rect primitives between the rounded corners*
20,1,$1+$1,$2,$3,$4,$5,0*
20,1,$1+$1,$4,$5,$6,$7,0*
20,1,$1+$1,$6,$7,$8,$9,0*
20,1,$1+$1,$8,$9,$2,$3,0*%
G04 Aperture macros list end*
%ADD10RoundRect,0.150000X-0.875000X-0.150000X0.875000X-0.150000X0.875000X0.150000X-0.875000X0.150000X0*%
%ADD11R,2.200000X1.600000*%
%ADD12RoundRect,0.200000X0.200000X0.275000X-0.200000X0.275000X-0.200000X-0.275000X0.200000X-0.275000X0*%
%ADD13R,1.100000X2.500000*%
G04 APERTURE END LIST*
D10*
%TO.C,U4*%
X107350000Y-54305000D03*
X107350000Y-55575000D03*
X107350000Y-56845000D03*
X107350000Y-58115000D03*
X107350000Y-59385000D03*
X107350000Y-60655000D03*
X107350000Y-61925000D03*
X107350000Y-63195000D03*
X116650000Y-63195000D03*
X116650000Y-61925000D03*
X116650000Y-60655000D03*
X116650000Y-59385000D03*
X116650000Y-58115000D03*
X116650000Y-56845000D03*
X116650000Y-55575000D03*
X116650000Y-54305000D03*
%TD*%
D11*
%TO.C,C3*%
X136600000Y-86200000D03*
X133600000Y-86200000D03*
%TD*%
D12*
%TO.C,R5*%
X130825000Y-67000000D03*
X129175000Y-67000000D03*
%TD*%
D10*
%TO.C,U3*%
X141850000Y-90555000D03*
X141850000Y-91825000D03*
X141850000Y-93095000D03*
X141850000Y-94365000D03*
X141850000Y-95635000D03*
X141850000Y-96905000D03*
X141850000Y-98175000D03*
X141850000Y-99445000D03*
X151150000Y-99445000D03*
X151150000Y-98175000D03*
X151150000Y-96905000D03*
X151150000Y-95635000D03*
X151150000Y-94365000D03*
X151150000Y-93095000D03*
X151150000Y-91825000D03*
X151150000Y-90555000D03*
%TD*%
D11*
%TO.C,C2*%
X123700000Y-86085000D03*
X120700000Y-86085000D03*
%TD*%
D10*
%TO.C,U2*%
X124350000Y-90555000D03*
X124350000Y-91825000D03*
X124350000Y-93095000D03*
X124350000Y-94365000D03*
X124350000Y-95635000D03*
X124350000Y-96905000D03*
X124350000Y-98175000D03*
X124350000Y-99445000D03*
X133650000Y-99445000D03*
X133650000Y-98175000D03*
X133650000Y-96905000D03*
X133650000Y-95635000D03*
X133650000Y-94365000D03*
X133650000Y-93095000D03*
X133650000Y-91825000D03*
X133650000Y-90555000D03*
%TD*%
D13*
%TO.C,USB-A1*%
X144500000Y-67650000D03*
X147000000Y-67650000D03*
X149000000Y-67650000D03*
X151500000Y-67650000D03*
%TD*%
D11*
%TO.C,C1*%
X111917500Y-86197500D03*
X108917500Y-86197500D03*
%TD*%
D10*
%TO.C,U5*%
X125350000Y-53920000D03*
X125350000Y-55190000D03*
X125350000Y-56460000D03*
X125350000Y-57730000D03*
X125350000Y-59000000D03*
X125350000Y-60270000D03*
X125350000Y-61540000D03*
X125350000Y-62810000D03*
X125350000Y-64080000D03*
X134650000Y-64080000D03*
X134650000Y-62810000D03*
X134650000Y-61540000D03*
X134650000Y-60270000D03*
X134650000Y-59000000D03*
X134650000Y-57730000D03*
X134650000Y-56460000D03*
X134650000Y-55190000D03*
X134650000Y-53920000D03*
%TD*%
%TO.C,U1*%
X107350000Y-91190000D03*
X107350000Y-92460000D03*
X107350000Y-93730000D03*
X107350000Y-95000000D03*
X107350000Y-96270000D03*
X107350000Y-97540000D03*
X107350000Y-98810000D03*
X116650000Y-98810000D03*
X116650000Y-97540000D03*
X116650000Y-96270000D03*
X116650000Y-95000000D03*
X116650000Y-93730000D03*
X116650000Y-92460000D03*
X116650000Y-91190000D03*
%TD*%
D11*
%TO.C,C4*%
X147600000Y-86400000D03*
X144600000Y-86400000D03*
%TD*%
M02*
