%TF.GenerationSoftware,KiCad,Pcbnew,(6.0.6)*%
%TF.CreationDate,2022-09-06T17:14:09+09:00*%
%TF.ProjectId,mouse,6d6f7573-652e-46b6-9963-61645f706362,rev?*%
%TF.SameCoordinates,Original*%
%TF.FileFunction,Copper,L1,Top*%
%TF.FilePolarity,Positive*%
%FSLAX46Y46*%
G04 Gerber Fmt 4.6, Leading zero omitted, Abs format (unit mm)*
G04 Created by KiCad (PCBNEW (6.0.6)) date 2022-09-06 17:14:09*
%MOMM*%
%LPD*%
G01*
G04 APERTURE LIST*
G04 Aperture macros list*
%AMRoundRect*
0 Rectangle with rounded corners*
0 $1 Rounding radius*
0 $2 $3 $4 $5 $6 $7 $8 $9 X,Y pos of 4 corners*
0 Add a 4 corners polygon primitive as box body*
4,1,4,$2,$3,$4,$5,$6,$7,$8,$9,$2,$3,0*
0 Add four circle primitives for the rounded corners*
1,1,$1+$1,$2,$3*
1,1,$1+$1,$4,$5*
1,1,$1+$1,$6,$7*
1,1,$1+$1,$8,$9*
0 Add four rect primitives between the rounded corners*
20,1,$1+$1,$2,$3,$4,$5,0*
20,1,$1+$1,$4,$5,$6,$7,0*
20,1,$1+$1,$6,$7,$8,$9,0*
20,1,$1+$1,$8,$9,$2,$3,0*%
G04 Aperture macros list end*
%TA.AperFunction,ComponentPad*%
%ADD10C,1.524000*%
%TD*%
%TA.AperFunction,ComponentPad*%
%ADD11C,2.400000*%
%TD*%
%TA.AperFunction,ComponentPad*%
%ADD12R,1.500000X1.500000*%
%TD*%
%TA.AperFunction,ComponentPad*%
%ADD13O,1.500000X1.500000*%
%TD*%
%TA.AperFunction,SMDPad,CuDef*%
%ADD14RoundRect,0.150000X-0.875000X-0.150000X0.875000X-0.150000X0.875000X0.150000X-0.875000X0.150000X0*%
%TD*%
%TA.AperFunction,ComponentPad*%
%ADD15C,1.600000*%
%TD*%
%TA.AperFunction,ComponentPad*%
%ADD16O,1.600000X1.600000*%
%TD*%
%TA.AperFunction,ComponentPad*%
%ADD17C,5.700000*%
%TD*%
%TA.AperFunction,SMDPad,CuDef*%
%ADD18R,2.200000X1.600000*%
%TD*%
%TA.AperFunction,SMDPad,CuDef*%
%ADD19RoundRect,0.200000X0.200000X0.275000X-0.200000X0.275000X-0.200000X-0.275000X0.200000X-0.275000X0*%
%TD*%
%TA.AperFunction,SMDPad,CuDef*%
%ADD20R,1.100000X2.500000*%
%TD*%
%TA.AperFunction,ComponentPad*%
%ADD21O,1.900000X3.500000*%
%TD*%
%TA.AperFunction,ViaPad*%
%ADD22C,0.800000*%
%TD*%
%TA.AperFunction,Conductor*%
%ADD23C,0.250000*%
%TD*%
G04 APERTURE END LIST*
D10*
%TO.P,J1,1,Pin_1*%
%TO.N,unconnected-(J1-Pad1)*%
X127250000Y-109900000D03*
%TO.P,J1,2,Pin_2*%
%TO.N,unconnected-(J1-Pad2)*%
X129750000Y-109900000D03*
%TO.P,J1,3,Pin_3*%
%TO.N,Net-(J1-Pad3)*%
X132250000Y-109900000D03*
%TO.P,J1,4,Pin_4*%
%TO.N,Net-(U1-Pad3)*%
X134750000Y-109900000D03*
%TO.P,J1,5,Pin_5*%
%TO.N,Net-(U1-Pad5)*%
X137250000Y-109900000D03*
%TO.P,J1,6,Pin_6*%
%TO.N,Net-(U1-Pad9)*%
X139750000Y-109900000D03*
%TD*%
D11*
%TO.P,CP1,1,Pin_1*%
%TO.N,Net-(CP1-Pad1)*%
X159200000Y-90100000D03*
%TD*%
D12*
%TO.P,D4,1,K*%
%TO.N,VCC*%
X150000000Y-86215000D03*
D13*
%TO.P,D4,2,A*%
%TO.N,Net-(C4-Pad1)*%
X150000000Y-78595000D03*
%TD*%
D14*
%TO.P,U4,1,S*%
%TO.N,VCC*%
X107350000Y-54305000D03*
%TO.P,U4,2,I0a*%
%TO.N,Net-(U2-Pad13)*%
X107350000Y-55575000D03*
%TO.P,U4,3,I1a*%
%TO.N,Net-(J1-Pad3)*%
X107350000Y-56845000D03*
%TO.P,U4,4,Za*%
%TO.N,Net-(CP1-Pad1)*%
X107350000Y-58115000D03*
%TO.P,U4,5,I0b*%
%TO.N,Net-(U2-Pad5)*%
X107350000Y-59385000D03*
%TO.P,U4,6,I1b*%
%TO.N,Net-(U1-Pad3)*%
X107350000Y-60655000D03*
%TO.P,U4,7,Zb*%
%TO.N,Net-(CP2-Pad1)*%
X107350000Y-61925000D03*
%TO.P,U4,8,GND*%
%TO.N,GND*%
X107350000Y-63195000D03*
%TO.P,U4,9,Zc*%
%TO.N,Net-(Cp3-Pad1)*%
X116650000Y-63195000D03*
%TO.P,U4,10,I1c*%
%TO.N,Net-(U1-Pad5)*%
X116650000Y-61925000D03*
%TO.P,U4,11,I0c*%
%TO.N,Net-(U3-Pad13)*%
X116650000Y-60655000D03*
%TO.P,U4,12,Zd*%
%TO.N,Net-(CP4-Pad1)*%
X116650000Y-59385000D03*
%TO.P,U4,13,I1d*%
%TO.N,Net-(U1-Pad9)*%
X116650000Y-58115000D03*
%TO.P,U4,14,I0d*%
%TO.N,Net-(U3-Pad5)*%
X116650000Y-56845000D03*
%TO.P,U4,15,E*%
%TO.N,GND*%
X116650000Y-55575000D03*
%TO.P,U4,16,VCC*%
%TO.N,VCC*%
X116650000Y-54305000D03*
%TD*%
D15*
%TO.P,R3,1*%
%TO.N,VCC*%
X134000000Y-87980000D03*
D16*
%TO.P,R3,2*%
%TO.N,Net-(C3-Pad1)*%
X134000000Y-77820000D03*
%TD*%
D11*
%TO.P,Cp3,1,Pin_1*%
%TO.N,Net-(Cp3-Pad1)*%
X159100000Y-80000000D03*
%TD*%
D15*
%TO.P,R1,1*%
%TO.N,VCC*%
X107800000Y-88380000D03*
D16*
%TO.P,R1,2*%
%TO.N,Net-(C1-Pad1)*%
X107800000Y-78220000D03*
%TD*%
D17*
%TO.P,REF1,1*%
%TO.N,GND*%
X103955242Y-111165242D03*
%TD*%
D18*
%TO.P,C3,1,+*%
%TO.N,Net-(C3-Pad1)*%
X135600000Y-74600000D03*
%TO.P,C3,2,-*%
%TO.N,GND*%
X138600000Y-74600000D03*
%TD*%
D19*
%TO.P,R5,1*%
%TO.N,Net-(R5-Pad1)*%
X130825000Y-67000000D03*
%TO.P,R5,2*%
%TO.N,Net-(R5-Pad2)*%
X129175000Y-67000000D03*
%TD*%
D14*
%TO.P,U3,1,A*%
%TO.N,Net-(U1-Pad6)*%
X141850000Y-90555000D03*
%TO.P,U3,2,B*%
%TO.N,VCC*%
X141850000Y-91825000D03*
%TO.P,U3,3,Clr*%
X141850000Y-93095000D03*
%TO.P,U3,4,~{Q}*%
%TO.N,unconnected-(U3-Pad4)*%
X141850000Y-94365000D03*
%TO.P,U3,5,Q*%
%TO.N,Net-(U3-Pad5)*%
X141850000Y-95635000D03*
%TO.P,U3,6,Cext*%
%TO.N,GND*%
X141850000Y-96905000D03*
%TO.P,U3,7,RCext*%
%TO.N,Net-(C4-Pad1)*%
X141850000Y-98175000D03*
%TO.P,U3,8*%
%TO.N,N/C*%
X141850000Y-99445000D03*
%TO.P,U3,9,A*%
%TO.N,Net-(U1-Pad8)*%
X151150000Y-99445000D03*
%TO.P,U3,10,B*%
%TO.N,VCC*%
X151150000Y-98175000D03*
%TO.P,U3,11,Clr*%
X151150000Y-96905000D03*
%TO.P,U3,12,~{Q}*%
%TO.N,unconnected-(U3-Pad12)*%
X151150000Y-95635000D03*
%TO.P,U3,13,Q*%
%TO.N,Net-(U3-Pad13)*%
X151150000Y-94365000D03*
%TO.P,U3,14,Cext*%
%TO.N,GND*%
X151150000Y-93095000D03*
%TO.P,U3,15,RCext*%
%TO.N,Net-(C3-Pad1)*%
X151150000Y-91825000D03*
%TO.P,U3,16*%
%TO.N,N/C*%
X151150000Y-90555000D03*
%TD*%
D18*
%TO.P,C2,1,+*%
%TO.N,Net-(C2-Pad1)*%
X121600000Y-74600000D03*
%TO.P,C2,2,-*%
%TO.N,GND*%
X124600000Y-74600000D03*
%TD*%
D14*
%TO.P,U2,1,A*%
%TO.N,Net-(U1-Pad2)*%
X124350000Y-90555000D03*
%TO.P,U2,2,B*%
%TO.N,VCC*%
X124350000Y-91825000D03*
%TO.P,U2,3,Clr*%
X124350000Y-93095000D03*
%TO.P,U2,4,~{Q}*%
%TO.N,unconnected-(U2-Pad4)*%
X124350000Y-94365000D03*
%TO.P,U2,5,Q*%
%TO.N,Net-(U2-Pad5)*%
X124350000Y-95635000D03*
%TO.P,U2,6,Cext*%
%TO.N,GND*%
X124350000Y-96905000D03*
%TO.P,U2,7,RCext*%
%TO.N,Net-(C2-Pad1)*%
X124350000Y-98175000D03*
%TO.P,U2,8*%
%TO.N,N/C*%
X124350000Y-99445000D03*
%TO.P,U2,9,A*%
%TO.N,Net-(U1-Pad4)*%
X133650000Y-99445000D03*
%TO.P,U2,10,B*%
%TO.N,VCC*%
X133650000Y-98175000D03*
%TO.P,U2,11,Clr*%
X133650000Y-96905000D03*
%TO.P,U2,12,~{Q}*%
%TO.N,unconnected-(U2-Pad12)*%
X133650000Y-95635000D03*
%TO.P,U2,13,Q*%
%TO.N,Net-(U2-Pad13)*%
X133650000Y-94365000D03*
%TO.P,U2,14,Cext*%
%TO.N,GND*%
X133650000Y-93095000D03*
%TO.P,U2,15,RCext*%
%TO.N,Net-(C1-Pad1)*%
X133650000Y-91825000D03*
%TO.P,U2,16*%
%TO.N,N/C*%
X133650000Y-90555000D03*
%TD*%
D15*
%TO.P,R2,1*%
%TO.N,VCC*%
X120300000Y-88165000D03*
D16*
%TO.P,R2,2*%
%TO.N,Net-(C2-Pad1)*%
X120300000Y-78005000D03*
%TD*%
D12*
%TO.P,D3,1,K*%
%TO.N,VCC*%
X138200000Y-86415000D03*
D13*
%TO.P,D3,2,A*%
%TO.N,Net-(C3-Pad1)*%
X138200000Y-78795000D03*
%TD*%
D15*
%TO.P,R4,1*%
%TO.N,VCC*%
X145500000Y-88380000D03*
D16*
%TO.P,R4,2*%
%TO.N,Net-(C4-Pad1)*%
X145500000Y-78220000D03*
%TD*%
D11*
%TO.P,CP2,1,Pin_1*%
%TO.N,Net-(CP2-Pad1)*%
X159100000Y-84900000D03*
%TD*%
D17*
%TO.P,REF2,1*%
%TO.N,GND*%
X103705242Y-45665242D03*
%TD*%
%TO.P,REF3,1*%
%TO.N,GND*%
X160705242Y-111165242D03*
%TD*%
D11*
%TO.P,CP4,1,Pin_1*%
%TO.N,Net-(CP4-Pad1)*%
X159100000Y-74900000D03*
%TD*%
D20*
%TO.P,USB-A1,1,VBUS*%
%TO.N,VCC*%
X144500000Y-67650000D03*
%TO.P,USB-A1,2,D-*%
%TO.N,Net-(R5-Pad1)*%
X147000000Y-67650000D03*
%TO.P,USB-A1,3,D+*%
%TO.N,Net-(U5-Pad13)*%
X149000000Y-67650000D03*
%TO.P,USB-A1,4,GND*%
%TO.N,GND*%
X151500000Y-67650000D03*
D21*
%TO.P,USB-A1,5,Shield*%
X153700000Y-64900000D03*
X142300000Y-64900000D03*
%TD*%
D18*
%TO.P,C1,1,+*%
%TO.N,Net-(C1-Pad1)*%
X108900000Y-74600000D03*
%TO.P,C1,2,-*%
%TO.N,GND*%
X111900000Y-74600000D03*
%TD*%
D14*
%TO.P,U5,1,P0.0*%
%TO.N,Net-(CP1-Pad1)*%
X125350000Y-53920000D03*
%TO.P,U5,2,P0.1*%
%TO.N,Net-(CP2-Pad1)*%
X125350000Y-55190000D03*
%TO.P,U5,3,P0.2*%
%TO.N,Net-(Cp3-Pad1)*%
X125350000Y-56460000D03*
%TO.P,U5,4,P0.3*%
%TO.N,Net-(CP4-Pad1)*%
X125350000Y-57730000D03*
%TO.P,U5,5,P0.5*%
%TO.N,unconnected-(U5-Pad5)*%
X125350000Y-59000000D03*
%TO.P,U5,6,GND*%
%TO.N,GND*%
X125350000Y-60270000D03*
%TO.P,U5,7,Vpp*%
X125350000Y-61540000D03*
%TO.P,U5,8,VRG*%
%TO.N,Net-(R5-Pad2)*%
X125350000Y-62810000D03*
%TO.P,U5,9,XTALIN*%
%TO.N,unconnected-(U5-Pad9)*%
X125350000Y-64080000D03*
%TO.P,U5,10,XTALOUT*%
%TO.N,unconnected-(U5-Pad10)*%
X134650000Y-64080000D03*
%TO.P,U5,11,VCC*%
%TO.N,VCC*%
X134650000Y-62810000D03*
%TO.P,U5,12,D-*%
%TO.N,Net-(R5-Pad1)*%
X134650000Y-61540000D03*
%TO.P,U5,13,D+*%
%TO.N,Net-(U5-Pad13)*%
X134650000Y-60270000D03*
%TO.P,U5,14,P1.1*%
%TO.N,unconnected-(U5-Pad14)*%
X134650000Y-59000000D03*
%TO.P,U5,15,P0.7*%
%TO.N,GND*%
X134650000Y-57730000D03*
%TO.P,U5,16,P0.6*%
%TO.N,unconnected-(U5-Pad16)*%
X134650000Y-56460000D03*
%TO.P,U5,17,P0.5*%
%TO.N,unconnected-(U5-Pad17)*%
X134650000Y-55190000D03*
%TO.P,U5,18,P0.4*%
%TO.N,unconnected-(U5-Pad18)*%
X134650000Y-53920000D03*
%TD*%
D12*
%TO.P,D2,1,K*%
%TO.N,VCC*%
X125200000Y-86400000D03*
D13*
%TO.P,D2,2,A*%
%TO.N,Net-(C2-Pad1)*%
X125200000Y-78780000D03*
%TD*%
D17*
%TO.P,REF4,1*%
%TO.N,GND*%
X160705242Y-45665242D03*
%TD*%
D14*
%TO.P,U1,1*%
%TO.N,Net-(J1-Pad3)*%
X107350000Y-91190000D03*
%TO.P,U1,2*%
%TO.N,Net-(U1-Pad2)*%
X107350000Y-92460000D03*
%TO.P,U1,3*%
%TO.N,Net-(U1-Pad3)*%
X107350000Y-93730000D03*
%TO.P,U1,4*%
%TO.N,Net-(U1-Pad4)*%
X107350000Y-95000000D03*
%TO.P,U1,5*%
%TO.N,Net-(U1-Pad5)*%
X107350000Y-96270000D03*
%TO.P,U1,6*%
%TO.N,Net-(U1-Pad6)*%
X107350000Y-97540000D03*
%TO.P,U1,7*%
%TO.N,N/C*%
X107350000Y-98810000D03*
%TO.P,U1,8*%
%TO.N,Net-(U1-Pad8)*%
X116650000Y-98810000D03*
%TO.P,U1,9*%
%TO.N,Net-(U1-Pad9)*%
X116650000Y-97540000D03*
%TO.P,U1,10*%
%TO.N,N/C*%
X116650000Y-96270000D03*
%TO.P,U1,11*%
X116650000Y-95000000D03*
%TO.P,U1,12*%
X116650000Y-93730000D03*
%TO.P,U1,13*%
X116650000Y-92460000D03*
%TO.P,U1,14*%
X116650000Y-91190000D03*
%TD*%
D18*
%TO.P,C4,1,+*%
%TO.N,Net-(C4-Pad1)*%
X147800000Y-74800000D03*
%TO.P,C4,2,-*%
%TO.N,GND*%
X150800000Y-74800000D03*
%TD*%
D12*
%TO.P,D1,1,K*%
%TO.N,VCC*%
X112000000Y-86415000D03*
D13*
%TO.P,D1,2,A*%
%TO.N,Net-(C1-Pad1)*%
X112000000Y-78795000D03*
%TD*%
D22*
%TO.N,VCC*%
X138200000Y-66400000D03*
X127000000Y-91000000D03*
X156000000Y-96000000D03*
X131000000Y-95000000D03*
X143700000Y-72600000D03*
X101600000Y-83300000D03*
X147000000Y-96000000D03*
X115200000Y-83200000D03*
X139200000Y-92700000D03*
%TO.N,Net-(C2-Pad1)*%
X128000000Y-87000000D03*
X129000000Y-91000000D03*
%TO.N,GND*%
X124600000Y-72600000D03*
X138000000Y-96000000D03*
X122000000Y-98000000D03*
X149000000Y-93000000D03*
X131500000Y-57400000D03*
X152000000Y-77100000D03*
X131000000Y-93000000D03*
X106400000Y-64800000D03*
X138600000Y-72400000D03*
X111200000Y-72600000D03*
X128100000Y-60300000D03*
X119300000Y-55600000D03*
%TO.N,Net-(U1-Pad4)*%
X129100000Y-99200000D03*
X112000000Y-103000000D03*
%TO.N,Net-(U1-Pad6)*%
X129000000Y-97000000D03*
X109000000Y-101000000D03*
%TO.N,Net-(U1-Pad5)*%
X110000000Y-97000000D03*
X113000000Y-63000000D03*
%TO.N,Net-(U1-Pad9)*%
X113000000Y-59000000D03*
X121000000Y-96000000D03*
%TO.N,Net-(U1-Pad2)*%
X120000000Y-91000000D03*
X105100000Y-89500000D03*
%TO.N,Net-(U2-Pad5)*%
X103000000Y-93000000D03*
X120000000Y-93000000D03*
%TO.N,Net-(U3-Pad5)*%
X120100000Y-57700000D03*
X137000000Y-93000000D03*
%TO.N,Net-(U3-Pad13)*%
X118623575Y-60623577D03*
X118600000Y-65300000D03*
%TO.N,Net-(CP2-Pad1)*%
X122700000Y-51600000D03*
X122100000Y-66400000D03*
X122700000Y-54800000D03*
%TO.N,Net-(Cp3-Pad1)*%
X129600000Y-56600000D03*
X129600000Y-58900000D03*
%TD*%
D23*
%TO.N,Net-(U1-Pad3)*%
X126000000Y-111953249D02*
X132696751Y-111953249D01*
X107776751Y-93730000D02*
X126000000Y-111953249D01*
X107350000Y-93730000D02*
X107776751Y-93730000D01*
X132696751Y-111953249D02*
X134750000Y-109900000D01*
%TO.N,Net-(U1-Pad9)*%
X124000000Y-108000000D02*
X129100000Y-108000000D01*
%TO.N,Net-(J1-Pad3)*%
X125987000Y-110987000D02*
X131163000Y-110987000D01*
X114550000Y-97963249D02*
X114550000Y-99550000D01*
X107776751Y-91190000D02*
X114550000Y-97963249D01*
X114550000Y-99550000D02*
X125987000Y-110987000D01*
X107350000Y-91190000D02*
X107776751Y-91190000D01*
X131163000Y-110987000D02*
X132250000Y-109900000D01*
%TO.N,Net-(U1-Pad5)*%
X124506751Y-113000000D02*
X134415242Y-113000000D01*
X134415242Y-113000000D02*
X137300000Y-110115242D01*
X107350000Y-96270000D02*
X107776751Y-96270000D01*
X107776751Y-96270000D02*
X124506751Y-113000000D01*
%TO.N,Net-(C2-Pad1)*%
X120300000Y-78005000D02*
X121600000Y-76705000D01*
X124776751Y-98175000D02*
X127000000Y-95951751D01*
X128000000Y-82395000D02*
X124900000Y-79295000D01*
X128000000Y-87000000D02*
X128000000Y-82395000D01*
X127000000Y-93000000D02*
X129000000Y-91000000D01*
X127000000Y-95951751D02*
X127000000Y-93000000D01*
X120995000Y-78700000D02*
X120300000Y-78005000D01*
X125120000Y-78700000D02*
X120995000Y-78700000D01*
X121600000Y-76705000D02*
X121600000Y-74600000D01*
X125200000Y-78780000D02*
X125120000Y-78700000D01*
X124350000Y-98175000D02*
X124776751Y-98175000D01*
%TO.N,Net-(C3-Pad1)*%
X134000000Y-77820000D02*
X134000000Y-76200000D01*
X138200000Y-78795000D02*
X134975000Y-78795000D01*
X134975000Y-78795000D02*
X134000000Y-77820000D01*
X146825000Y-91825000D02*
X151150000Y-91825000D01*
X134000000Y-76200000D02*
X135600000Y-74600000D01*
X138200000Y-83200000D02*
X146825000Y-91825000D01*
X138200000Y-78795000D02*
X138200000Y-83200000D01*
%TO.N,Net-(C4-Pad1)*%
X152500000Y-81095000D02*
X152500000Y-98521751D01*
X145500000Y-78220000D02*
X145500000Y-78100000D01*
X150000000Y-78595000D02*
X145875000Y-78595000D01*
X142495000Y-98820000D02*
X141850000Y-98175000D01*
X147800000Y-75800000D02*
X147800000Y-74800000D01*
X145875000Y-78595000D02*
X145500000Y-78220000D01*
X152500000Y-98521751D02*
X152201751Y-98820000D01*
X145500000Y-78100000D02*
X147800000Y-75800000D01*
X150000000Y-78595000D02*
X152500000Y-81095000D01*
X152201751Y-98820000D02*
X142495000Y-98820000D01*
%TO.N,Net-(C1-Pad1)*%
X109600000Y-86700000D02*
X109600000Y-81195000D01*
X109600000Y-87000000D02*
X109600000Y-86500000D01*
X109600000Y-81195000D02*
X112000000Y-78795000D01*
X133650000Y-91825000D02*
X132825000Y-91825000D01*
X107900000Y-78400000D02*
X111605000Y-78400000D01*
X108900000Y-74600000D02*
X107900000Y-75600000D01*
X130930000Y-89930000D02*
X112530000Y-89930000D01*
X132825000Y-91825000D02*
X130930000Y-89930000D01*
X111605000Y-78400000D02*
X112000000Y-78795000D01*
X112530000Y-89930000D02*
X109600000Y-87000000D01*
X107900000Y-75600000D02*
X107900000Y-78400000D01*
%TO.N,GND*%
X149000000Y-93000000D02*
X151055000Y-93000000D01*
X138000000Y-96000000D02*
X138905000Y-96905000D01*
X133555000Y-93000000D02*
X133650000Y-93095000D01*
X151500000Y-67650000D02*
X153700000Y-65450000D01*
X111200000Y-72600000D02*
X111200000Y-74100000D01*
X131000000Y-93000000D02*
X133555000Y-93000000D01*
X150800000Y-75900000D02*
X152000000Y-77100000D01*
X151055000Y-93000000D02*
X151150000Y-93095000D01*
X153700000Y-65450000D02*
X153700000Y-64900000D01*
X119300000Y-55600000D02*
X116675000Y-55600000D01*
X128100000Y-60300000D02*
X125380000Y-60300000D01*
X106400000Y-64145000D02*
X107350000Y-63195000D01*
X106400000Y-64800000D02*
X106400000Y-64145000D01*
X125380000Y-60300000D02*
X125350000Y-60270000D01*
X125350000Y-60270000D02*
X125350000Y-61540000D01*
X138800000Y-74800000D02*
X138600000Y-74600000D01*
X138905000Y-96905000D02*
X141850000Y-96905000D01*
X131500000Y-57400000D02*
X134320000Y-57400000D01*
X124600000Y-72600000D02*
X124600000Y-74600000D01*
X122000000Y-98000000D02*
X123095000Y-96905000D01*
X150800000Y-74800000D02*
X150800000Y-75900000D01*
X134320000Y-57400000D02*
X134650000Y-57730000D01*
X123095000Y-96905000D02*
X124350000Y-96905000D01*
X138600000Y-74900000D02*
X138600000Y-72400000D01*
X116675000Y-55600000D02*
X116650000Y-55575000D01*
%TO.N,Net-(U1-Pad4)*%
X106000000Y-99156751D02*
X109843249Y-103000000D01*
X133650000Y-99445000D02*
X129445000Y-99445000D01*
X107350000Y-95000000D02*
X106923249Y-95000000D01*
X106000000Y-95923249D02*
X106000000Y-99156751D01*
X106923249Y-95000000D02*
X106000000Y-95923249D01*
X109843249Y-103000000D02*
X112000000Y-103000000D01*
%TO.N,Net-(U1-Pad6)*%
X107350000Y-97540000D02*
X107776751Y-97540000D01*
X137944695Y-97530000D02*
X142921751Y-97530000D01*
X136694695Y-96280000D02*
X137944695Y-97530000D01*
X129720000Y-96280000D02*
X136694695Y-96280000D01*
X109000000Y-98763249D02*
X109000000Y-101000000D01*
X144000000Y-92278249D02*
X142276751Y-90555000D01*
X129000000Y-97000000D02*
X129720000Y-96280000D01*
X107776751Y-97540000D02*
X109000000Y-98763249D01*
X142276751Y-90555000D02*
X141850000Y-90555000D01*
X144000000Y-96451751D02*
X144000000Y-92278249D01*
X142921751Y-97530000D02*
X144000000Y-96451751D01*
%TO.N,Net-(U1-Pad8)*%
X116650000Y-98810000D02*
X117910000Y-100070000D01*
X117910000Y-100070000D02*
X150525000Y-100070000D01*
X150525000Y-100070000D02*
X151150000Y-99445000D01*
%TO.N,Net-(J1-Pad3)*%
X110100000Y-61725305D02*
X110100000Y-68500000D01*
X110100000Y-59168249D02*
X110100000Y-61074695D01*
X107776751Y-56845000D02*
X110100000Y-59168249D01*
X110125000Y-61099695D02*
X110125000Y-61700305D01*
X105900000Y-89740000D02*
X107350000Y-91190000D01*
X110125000Y-61700305D02*
X110100000Y-61725305D01*
X110100000Y-61074695D02*
X110125000Y-61099695D01*
X107350000Y-56845000D02*
X107776751Y-56845000D01*
X105900000Y-87653833D02*
X105900000Y-89740000D01*
X104500000Y-74200000D02*
X104500000Y-86353833D01*
X104500000Y-74100000D02*
X104500000Y-74300000D01*
X104500000Y-86353833D02*
X105900000Y-87753833D01*
X110100000Y-68500000D02*
X104500000Y-74100000D01*
%TO.N,Net-(U1-Pad3)*%
X104000000Y-90806751D02*
X104000000Y-63000000D01*
X106923249Y-93730000D02*
X104000000Y-90806751D01*
X107350000Y-93730000D02*
X106923249Y-93730000D01*
X104000000Y-63000000D02*
X106345000Y-60655000D01*
X106345000Y-60655000D02*
X107350000Y-60655000D01*
%TO.N,Net-(U1-Pad5)*%
X107350000Y-96270000D02*
X109270000Y-96270000D01*
X113000000Y-63000000D02*
X114075000Y-61925000D01*
X109270000Y-96270000D02*
X110000000Y-97000000D01*
X114075000Y-61925000D02*
X116650000Y-61925000D01*
%TO.N,Net-(U1-Pad9)*%
X117076751Y-97540000D02*
X118616751Y-96000000D01*
X115460000Y-97540000D02*
X115000000Y-98000000D01*
X115000000Y-98000000D02*
X115000000Y-99000000D01*
X118616751Y-96000000D02*
X121000000Y-96000000D01*
X113885000Y-58115000D02*
X116650000Y-58115000D01*
X116650000Y-97540000D02*
X115460000Y-97540000D01*
X115000000Y-99000000D02*
X124000000Y-108000000D01*
X113000000Y-59000000D02*
X113885000Y-58115000D01*
X116650000Y-97540000D02*
X117076751Y-97540000D01*
X138094758Y-108000000D02*
X139800000Y-109705242D01*
X129094758Y-108000000D02*
X138094758Y-108000000D01*
%TO.N,Net-(U1-Pad2)*%
X106278249Y-91815000D02*
X105100000Y-90636751D01*
X120000000Y-91000000D02*
X123905000Y-91000000D01*
X107350000Y-92460000D02*
X106705000Y-91815000D01*
X106705000Y-91815000D02*
X106278249Y-91815000D01*
X105100000Y-90636751D02*
X105100000Y-89500000D01*
X123905000Y-91000000D02*
X124350000Y-90555000D01*
%TO.N,Net-(U2-Pad5)*%
X124350000Y-95635000D02*
X122635000Y-95635000D01*
X105615000Y-59385000D02*
X107350000Y-59385000D01*
X122635000Y-95635000D02*
X120000000Y-93000000D01*
X103000000Y-62000000D02*
X105615000Y-59385000D01*
X103000000Y-93000000D02*
X103000000Y-62000000D01*
%TO.N,Net-(U2-Pad13)*%
X117400000Y-73900000D02*
X117400000Y-81900000D01*
X135095000Y-90303249D02*
X135095000Y-93346751D01*
X117400000Y-81900000D02*
X124980000Y-89480000D01*
X107776751Y-55575000D02*
X111000000Y-58798249D01*
X111000000Y-58798249D02*
X111000000Y-67500000D01*
X131136396Y-89500000D02*
X134291751Y-89500000D01*
X107350000Y-55575000D02*
X107776751Y-55575000D01*
X134291751Y-89500000D02*
X135095000Y-90303249D01*
X135095000Y-93346751D02*
X134076751Y-94365000D01*
X134076751Y-94365000D02*
X133650000Y-94365000D01*
X131116396Y-89480000D02*
X131136396Y-89500000D01*
X111000000Y-67500000D02*
X117400000Y-73900000D01*
X124980000Y-89480000D02*
X131116396Y-89480000D01*
%TO.N,Net-(U3-Pad5)*%
X120100000Y-57700000D02*
X118700000Y-57700000D01*
X139635000Y-95635000D02*
X141850000Y-95635000D01*
X117845000Y-56845000D02*
X116650000Y-56845000D01*
X137000000Y-93000000D02*
X139635000Y-95635000D01*
X118700000Y-57700000D02*
X117845000Y-56845000D01*
%TO.N,Net-(U3-Pad13)*%
X142591751Y-88691751D02*
X138150000Y-84250000D01*
X128600000Y-75900000D02*
X128600000Y-74100000D01*
X128600000Y-74100000D02*
X122599695Y-68099695D01*
X138150000Y-84250000D02*
X136950000Y-84250000D01*
X118623575Y-60623577D02*
X116681423Y-60623577D01*
X116681423Y-60623577D02*
X116650000Y-60655000D01*
X147356751Y-94365000D02*
X142591751Y-89600000D01*
X121399695Y-68099695D02*
X118600000Y-65300000D01*
X122599695Y-68099695D02*
X121399695Y-68099695D01*
X142591751Y-89600000D02*
X142591751Y-88691751D01*
X136950000Y-84250000D02*
X128600000Y-75900000D01*
X151150000Y-94365000D02*
X147356751Y-94365000D01*
%TO.N,Net-(CP1-Pad1)*%
X106000000Y-53958249D02*
X106958249Y-53000000D01*
X106958249Y-53000000D02*
X124430000Y-53000000D01*
X161750000Y-87550000D02*
X159200000Y-90100000D01*
X156545000Y-54545000D02*
X162650000Y-60650000D01*
X106000000Y-57191751D02*
X106000000Y-53958249D01*
X124430000Y-53000000D02*
X125350000Y-53920000D01*
X162650000Y-60650000D02*
X162650000Y-86650000D01*
X125975000Y-54545000D02*
X156545000Y-54545000D01*
X106923249Y-58115000D02*
X106000000Y-57191751D01*
X162650000Y-86650000D02*
X161800000Y-87500000D01*
X125350000Y-53920000D02*
X125975000Y-54545000D01*
X107350000Y-58115000D02*
X106923249Y-58115000D01*
%TO.N,Net-(CP2-Pad1)*%
X108700000Y-59038249D02*
X108700000Y-61001751D01*
X107700000Y-51600000D02*
X105550000Y-53750000D01*
X154600000Y-71000000D02*
X154600000Y-80400000D01*
X108700000Y-61001751D02*
X107776751Y-61925000D01*
X105550000Y-58011751D02*
X106278249Y-58740000D01*
X105550000Y-53750000D02*
X105550000Y-58011751D01*
X122100000Y-66400000D02*
X123100000Y-66400000D01*
X154600000Y-80400000D02*
X159100000Y-84900000D01*
X122700000Y-54800000D02*
X123090000Y-55190000D01*
X108401751Y-58740000D02*
X108700000Y-59038249D01*
X122600000Y-51600000D02*
X107700000Y-51600000D01*
X123100000Y-66400000D02*
X127700000Y-71000000D01*
X106278249Y-58740000D02*
X108401751Y-58740000D01*
X123090000Y-55190000D02*
X125350000Y-55190000D01*
X127700000Y-71000000D02*
X154600000Y-71000000D01*
X107776751Y-61925000D02*
X107350000Y-61925000D01*
%TO.N,Net-(Cp3-Pad1)*%
X123426751Y-64426751D02*
X117881751Y-64426751D01*
X117881751Y-64426751D02*
X116650000Y-63195000D01*
X129600000Y-56600000D02*
X125490000Y-56600000D01*
X116650000Y-63195000D02*
X123248249Y-63195000D01*
X129600000Y-59825305D02*
X129600000Y-58900000D01*
X127240305Y-62185000D02*
X129600000Y-59825305D01*
X129200000Y-70200000D02*
X123426751Y-64426751D01*
X123248249Y-63195000D02*
X124258249Y-62185000D01*
X125490000Y-56600000D02*
X125350000Y-56460000D01*
X159100000Y-80000000D02*
X155050000Y-75950000D01*
X155050000Y-70200000D02*
X129200000Y-70200000D01*
X124258249Y-62185000D02*
X127240305Y-62185000D01*
X155050000Y-75950000D02*
X155050000Y-70200000D01*
%TO.N,Net-(CP4-Pad1)*%
X155335000Y-55835000D02*
X132039695Y-55835000D01*
X132039695Y-55835000D02*
X130144695Y-57730000D01*
X124923249Y-57730000D02*
X125350000Y-57730000D01*
X130144695Y-57730000D02*
X125350000Y-57730000D01*
X123268249Y-59385000D02*
X124923249Y-57730000D01*
X159000000Y-59500000D02*
X155335000Y-55835000D01*
X116650000Y-59385000D02*
X123268249Y-59385000D01*
X159100000Y-74900000D02*
X159000000Y-74800000D01*
X159000000Y-74800000D02*
X159000000Y-59500000D01*
%TO.N,Net-(R5-Pad1)*%
X134650000Y-61540000D02*
X141543122Y-61540000D01*
X144774999Y-65424999D02*
X147000000Y-67650000D01*
X133460000Y-61540000D02*
X134650000Y-61540000D01*
X130825000Y-67000000D02*
X130825000Y-64175000D01*
X141543122Y-61540000D02*
X144774999Y-64771877D01*
X144774999Y-64771877D02*
X144774999Y-65424999D01*
X130825000Y-64175000D02*
X133460000Y-61540000D01*
%TO.N,Net-(U5-Pad13)*%
X134650000Y-60270000D02*
X143686297Y-60270000D01*
X143686297Y-60270000D02*
X149000000Y-65583703D01*
X149000000Y-65583703D02*
X149000000Y-67650000D01*
%TO.N,Net-(R5-Pad2)*%
X129175000Y-66208249D02*
X125776751Y-62810000D01*
X129175000Y-67000000D02*
X129175000Y-66208249D01*
X125776751Y-62810000D02*
X125350000Y-62810000D01*
%TD*%
%TA.AperFunction,Conductor*%
%TO.N,VCC*%
G36*
X158785600Y-42693744D02*
G01*
X158832093Y-42747400D01*
X158842197Y-42817674D01*
X158812703Y-42882254D01*
X158793483Y-42900238D01*
X158534288Y-43096265D01*
X158269538Y-43345753D01*
X158033282Y-43622374D01*
X157828282Y-43922893D01*
X157656936Y-44243794D01*
X157655661Y-44246966D01*
X157655659Y-44246970D01*
X157653868Y-44251427D01*
X157521251Y-44581323D01*
X157422811Y-44931532D01*
X157362770Y-45290324D01*
X157341829Y-45653501D01*
X157360234Y-46016816D01*
X157360771Y-46020171D01*
X157360772Y-46020177D01*
X157400453Y-46267912D01*
X157417769Y-46376019D01*
X157513761Y-46726906D01*
X157647087Y-47065375D01*
X157648670Y-47068390D01*
X157814604Y-47384448D01*
X157814609Y-47384456D01*
X157816188Y-47387464D01*
X157818082Y-47390282D01*
X157818087Y-47390291D01*
X157964286Y-47607857D01*
X158019085Y-47689407D01*
X158253405Y-47967670D01*
X158280141Y-47993219D01*
X158513944Y-48216647D01*
X158513951Y-48216653D01*
X158516407Y-48219000D01*
X158805013Y-48440456D01*
X158807931Y-48442230D01*
X159112934Y-48627675D01*
X159112939Y-48627678D01*
X159115849Y-48629447D01*
X159118937Y-48630893D01*
X159118936Y-48630893D01*
X159442194Y-48782319D01*
X159442204Y-48782323D01*
X159445278Y-48783763D01*
X159448496Y-48784865D01*
X159448499Y-48784866D01*
X159786223Y-48900495D01*
X159786231Y-48900497D01*
X159789446Y-48901598D01*
X160144326Y-48981574D01*
X160197365Y-48987617D01*
X160502386Y-49022370D01*
X160502394Y-49022370D01*
X160505769Y-49022755D01*
X160509173Y-49022773D01*
X160509176Y-49022773D01*
X160707300Y-49023810D01*
X160869545Y-49024660D01*
X160872931Y-49024310D01*
X160872933Y-49024310D01*
X161228007Y-48987617D01*
X161228016Y-48987616D01*
X161231399Y-48987266D01*
X161234732Y-48986552D01*
X161234735Y-48986551D01*
X161345137Y-48962883D01*
X161587098Y-48911010D01*
X161932481Y-48796786D01*
X161935565Y-48795380D01*
X161935574Y-48795377D01*
X162260413Y-48647338D01*
X162263507Y-48645928D01*
X162307518Y-48619796D01*
X162573370Y-48461946D01*
X162573374Y-48461943D01*
X162576305Y-48460203D01*
X162867215Y-48241781D01*
X163132834Y-47993219D01*
X163370055Y-47717424D01*
X163445359Y-47607856D01*
X163500426Y-47563046D01*
X163570979Y-47555121D01*
X163634617Y-47586597D01*
X163671134Y-47647482D01*
X163675198Y-47679136D01*
X163693209Y-73430923D01*
X163718178Y-109129116D01*
X163718237Y-109213978D01*
X163698283Y-109282113D01*
X163644659Y-109328643D01*
X163574393Y-109338796D01*
X163509791Y-109309348D01*
X163487901Y-109284706D01*
X163386227Y-109134534D01*
X163384317Y-109131713D01*
X163149027Y-108854269D01*
X162885150Y-108603859D01*
X162595772Y-108383412D01*
X162592860Y-108381655D01*
X162592855Y-108381652D01*
X162287193Y-108197265D01*
X162287187Y-108197262D01*
X162284278Y-108195507D01*
X161954313Y-108042342D01*
X161609736Y-107925709D01*
X161600476Y-107923656D01*
X161525727Y-107907085D01*
X161254578Y-107846973D01*
X161125459Y-107832718D01*
X160896375Y-107807426D01*
X160896370Y-107807426D01*
X160892994Y-107807053D01*
X160889595Y-107807047D01*
X160889594Y-107807047D01*
X160718004Y-107806748D01*
X160529214Y-107806418D01*
X160394073Y-107820860D01*
X160170876Y-107844713D01*
X160170870Y-107844714D01*
X160167492Y-107845075D01*
X159812062Y-107922572D01*
X159467080Y-108038001D01*
X159136582Y-108190013D01*
X158824434Y-108376830D01*
X158534288Y-108596265D01*
X158269538Y-108845753D01*
X158033282Y-109122374D01*
X157828282Y-109422893D01*
X157803602Y-109469114D01*
X157688855Y-109684016D01*
X157656936Y-109743794D01*
X157655661Y-109746966D01*
X157655659Y-109746970D01*
X157592960Y-109902941D01*
X157521251Y-110081323D01*
X157520332Y-110084591D01*
X157520330Y-110084598D01*
X157423732Y-110428254D01*
X157422811Y-110431532D01*
X157362770Y-110790324D01*
X157341829Y-111153501D01*
X157360234Y-111516816D01*
X157360771Y-111520171D01*
X157360772Y-111520177D01*
X157400453Y-111767912D01*
X157417769Y-111876019D01*
X157513761Y-112226906D01*
X157647087Y-112565375D01*
X157648670Y-112568390D01*
X157814604Y-112884448D01*
X157814609Y-112884456D01*
X157816188Y-112887464D01*
X157818082Y-112890282D01*
X157818087Y-112890291D01*
X157889428Y-112996457D01*
X158019085Y-113189407D01*
X158253405Y-113467670D01*
X158314808Y-113526348D01*
X158513944Y-113716647D01*
X158513951Y-113716653D01*
X158516407Y-113719000D01*
X158805013Y-113940456D01*
X158994198Y-114055482D01*
X159042013Y-114107963D01*
X159053864Y-114177964D01*
X159025989Y-114243259D01*
X158967238Y-114283118D01*
X158928739Y-114289144D01*
X105731309Y-114289144D01*
X105663188Y-114269142D01*
X105616695Y-114215486D01*
X105606591Y-114145212D01*
X105636085Y-114080632D01*
X105666981Y-114054802D01*
X105823370Y-113961946D01*
X105823374Y-113961943D01*
X105826305Y-113960203D01*
X106117215Y-113741781D01*
X106353780Y-113520407D01*
X106380342Y-113495551D01*
X106382834Y-113493219D01*
X106620055Y-113217424D01*
X106771922Y-112996457D01*
X106824173Y-112920432D01*
X106824178Y-112920424D01*
X106826103Y-112917623D01*
X106827715Y-112914629D01*
X106827720Y-112914621D01*
X106970355Y-112649717D01*
X106998567Y-112597322D01*
X107135430Y-112260269D01*
X107235092Y-111910406D01*
X107296385Y-111551825D01*
X107298527Y-111516816D01*
X107318483Y-111190520D01*
X107318593Y-111188723D01*
X107318675Y-111165242D01*
X107299002Y-110801993D01*
X107240214Y-110442994D01*
X107142998Y-110092444D01*
X107138573Y-110081323D01*
X107009750Y-109757607D01*
X107008491Y-109754443D01*
X106956488Y-109656227D01*
X106839866Y-109435965D01*
X106839862Y-109435958D01*
X106838267Y-109432946D01*
X106836360Y-109430130D01*
X106836355Y-109430121D01*
X106636227Y-109134534D01*
X106634317Y-109131713D01*
X106399027Y-108854269D01*
X106135150Y-108603859D01*
X105845772Y-108383412D01*
X105842860Y-108381655D01*
X105842855Y-108381652D01*
X105537193Y-108197265D01*
X105537187Y-108197262D01*
X105534278Y-108195507D01*
X105204313Y-108042342D01*
X104859736Y-107925709D01*
X104850476Y-107923656D01*
X104775727Y-107907085D01*
X104504578Y-107846973D01*
X104375459Y-107832718D01*
X104146375Y-107807426D01*
X104146370Y-107807426D01*
X104142994Y-107807053D01*
X104139595Y-107807047D01*
X104139594Y-107807047D01*
X103968004Y-107806748D01*
X103779214Y-107806418D01*
X103644073Y-107820860D01*
X103420876Y-107844713D01*
X103420870Y-107844714D01*
X103417492Y-107845075D01*
X103062062Y-107922572D01*
X102717080Y-108038001D01*
X102386582Y-108190013D01*
X102074434Y-108376830D01*
X101784288Y-108596265D01*
X101519538Y-108845753D01*
X101283282Y-109122374D01*
X101078282Y-109422893D01*
X101053602Y-109469114D01*
X100975684Y-109615041D01*
X100925954Y-109665711D01*
X100856724Y-109681451D01*
X100789974Y-109657263D01*
X100746898Y-109600828D01*
X100738536Y-109555693D01*
X100738536Y-93000000D01*
X102086496Y-93000000D01*
X102087186Y-93006565D01*
X102102628Y-93153484D01*
X102106458Y-93189928D01*
X102165473Y-93371556D01*
X102168776Y-93377278D01*
X102168777Y-93377279D01*
X102185792Y-93406749D01*
X102260960Y-93536944D01*
X102265378Y-93541851D01*
X102265379Y-93541852D01*
X102380350Y-93669540D01*
X102388747Y-93678866D01*
X102480829Y-93745768D01*
X102505087Y-93763392D01*
X102543248Y-93791118D01*
X102549276Y-93793802D01*
X102549278Y-93793803D01*
X102676416Y-93850408D01*
X102717712Y-93868794D01*
X102811113Y-93888647D01*
X102898056Y-93907128D01*
X102898061Y-93907128D01*
X102904513Y-93908500D01*
X103095487Y-93908500D01*
X103101939Y-93907128D01*
X103101944Y-93907128D01*
X103188887Y-93888647D01*
X103282288Y-93868794D01*
X103323584Y-93850408D01*
X103450722Y-93793803D01*
X103450724Y-93793802D01*
X103456752Y-93791118D01*
X103494914Y-93763392D01*
X103519171Y-93745768D01*
X103611253Y-93678866D01*
X103619650Y-93669540D01*
X103734621Y-93541852D01*
X103734622Y-93541851D01*
X103739040Y-93536944D01*
X103814208Y-93406749D01*
X103831223Y-93377279D01*
X103831224Y-93377278D01*
X103834527Y-93371556D01*
X103893542Y-93189928D01*
X103897373Y-93153484D01*
X103912814Y-93006565D01*
X103913504Y-93000000D01*
X103900937Y-92880427D01*
X103894232Y-92816635D01*
X103894232Y-92816633D01*
X103893542Y-92810072D01*
X103834527Y-92628444D01*
X103739040Y-92463056D01*
X103665863Y-92381785D01*
X103635147Y-92317779D01*
X103633500Y-92297476D01*
X103633500Y-91640345D01*
X103653502Y-91572224D01*
X103707158Y-91525731D01*
X103777432Y-91515627D01*
X103842012Y-91545121D01*
X103848595Y-91551250D01*
X105779595Y-93482250D01*
X105813621Y-93544562D01*
X105816500Y-93571345D01*
X105816500Y-93946502D01*
X105816693Y-93948950D01*
X105816693Y-93948958D01*
X105817485Y-93959012D01*
X105819438Y-93983831D01*
X105865855Y-94143601D01*
X105950547Y-94286807D01*
X105953229Y-94289489D01*
X105978502Y-94353861D01*
X105964600Y-94423484D01*
X105954428Y-94439312D01*
X105950547Y-94443193D01*
X105865855Y-94586399D01*
X105819438Y-94746169D01*
X105818934Y-94752574D01*
X105818933Y-94752579D01*
X105816885Y-94778601D01*
X105816500Y-94783498D01*
X105816500Y-95158654D01*
X105796498Y-95226775D01*
X105779595Y-95247749D01*
X105607747Y-95419597D01*
X105599461Y-95427137D01*
X105592982Y-95431249D01*
X105587557Y-95437026D01*
X105546357Y-95480900D01*
X105543602Y-95483742D01*
X105523865Y-95503479D01*
X105521385Y-95506676D01*
X105513682Y-95515696D01*
X105483414Y-95547928D01*
X105479595Y-95554874D01*
X105479593Y-95554877D01*
X105473652Y-95565683D01*
X105462801Y-95582202D01*
X105450386Y-95598208D01*
X105447241Y-95605477D01*
X105447238Y-95605481D01*
X105432826Y-95638786D01*
X105427609Y-95649436D01*
X105406305Y-95688189D01*
X105404334Y-95695864D01*
X105404334Y-95695865D01*
X105401267Y-95707811D01*
X105394863Y-95726515D01*
X105386819Y-95745104D01*
X105385580Y-95752927D01*
X105385577Y-95752937D01*
X105379901Y-95788773D01*
X105377495Y-95800393D01*
X105375010Y-95810072D01*
X105366500Y-95843219D01*
X105366500Y-95863473D01*
X105364949Y-95883183D01*
X105361780Y-95903192D01*
X105362526Y-95911084D01*
X105365941Y-95947210D01*
X105366500Y-95959068D01*
X105366500Y-99077984D01*
X105365973Y-99089167D01*
X105364298Y-99096660D01*
X105364547Y-99104586D01*
X105364547Y-99104587D01*
X105366438Y-99164737D01*
X105366500Y-99168696D01*
X105366500Y-99196607D01*
X105366997Y-99200541D01*
X105366997Y-99200542D01*
X105367005Y-99200607D01*
X105367938Y-99212444D01*
X105369327Y-99256640D01*
X105374978Y-99276090D01*
X105378987Y-99295451D01*
X105381526Y-99315548D01*
X105384445Y-99322919D01*
X105384445Y-99322921D01*
X105397804Y-99356663D01*
X105401649Y-99367893D01*
X105413982Y-99410344D01*
X105418015Y-99417163D01*
X105418017Y-99417168D01*
X105424293Y-99427779D01*
X105432988Y-99445527D01*
X105440448Y-99464368D01*
X105445110Y-99470784D01*
X105445110Y-99470785D01*
X105466436Y-99500138D01*
X105472952Y-99510058D01*
X105495458Y-99548113D01*
X105509779Y-99562434D01*
X105522619Y-99577467D01*
X105534528Y-99593858D01*
X105540634Y-99598909D01*
X105568605Y-99622049D01*
X105577384Y-99630039D01*
X109339597Y-103392253D01*
X109347137Y-103400539D01*
X109351249Y-103407018D01*
X109357026Y-103412443D01*
X109400900Y-103453643D01*
X109403742Y-103456398D01*
X109423479Y-103476135D01*
X109426676Y-103478615D01*
X109435696Y-103486318D01*
X109467928Y-103516586D01*
X109474874Y-103520405D01*
X109474877Y-103520407D01*
X109485683Y-103526348D01*
X109502202Y-103537199D01*
X109518208Y-103549614D01*
X109525477Y-103552759D01*
X109525481Y-103552762D01*
X109558786Y-103567174D01*
X109569436Y-103572391D01*
X109608189Y-103593695D01*
X109615864Y-103595666D01*
X109615865Y-103595666D01*
X109627811Y-103598733D01*
X109646516Y-103605137D01*
X109665104Y-103613181D01*
X109672927Y-103614420D01*
X109672937Y-103614423D01*
X109708773Y-103620099D01*
X109720393Y-103622505D01*
X109755538Y-103631528D01*
X109763219Y-103633500D01*
X109783473Y-103633500D01*
X109803183Y-103635051D01*
X109823192Y-103638220D01*
X109831084Y-103637474D01*
X109867210Y-103634059D01*
X109879068Y-103633500D01*
X111291800Y-103633500D01*
X111359921Y-103653502D01*
X111379147Y-103669843D01*
X111379420Y-103669540D01*
X111384332Y-103673963D01*
X111388747Y-103678866D01*
X111543248Y-103791118D01*
X111549276Y-103793802D01*
X111549278Y-103793803D01*
X111711681Y-103866109D01*
X111717712Y-103868794D01*
X111811112Y-103888647D01*
X111898056Y-103907128D01*
X111898061Y-103907128D01*
X111904513Y-103908500D01*
X112095487Y-103908500D01*
X112101939Y-103907128D01*
X112101944Y-103907128D01*
X112188887Y-103888647D01*
X112282288Y-103868794D01*
X112288319Y-103866109D01*
X112450722Y-103793803D01*
X112450724Y-103793802D01*
X112456752Y-103791118D01*
X112611253Y-103678866D01*
X112647851Y-103638220D01*
X112734621Y-103541852D01*
X112734622Y-103541851D01*
X112739040Y-103536944D01*
X112834527Y-103371556D01*
X112893542Y-103189928D01*
X112913504Y-103000000D01*
X112893542Y-102810072D01*
X112834527Y-102628444D01*
X112760140Y-102499602D01*
X112743402Y-102430607D01*
X112766622Y-102363515D01*
X112822430Y-102319628D01*
X112893105Y-102312879D01*
X112958354Y-102347507D01*
X118532691Y-107921845D01*
X124003099Y-113392253D01*
X124010639Y-113400539D01*
X124014751Y-113407018D01*
X124020528Y-113412443D01*
X124064402Y-113453643D01*
X124067244Y-113456398D01*
X124086981Y-113476135D01*
X124090178Y-113478615D01*
X124099198Y-113486318D01*
X124131430Y-113516586D01*
X124138376Y-113520405D01*
X124138379Y-113520407D01*
X124149185Y-113526348D01*
X124165704Y-113537199D01*
X124181710Y-113549614D01*
X124188979Y-113552759D01*
X124188983Y-113552762D01*
X124222288Y-113567174D01*
X124232938Y-113572391D01*
X124271691Y-113593695D01*
X124279366Y-113595666D01*
X124279367Y-113595666D01*
X124291313Y-113598733D01*
X124310018Y-113605137D01*
X124328606Y-113613181D01*
X124336429Y-113614420D01*
X124336439Y-113614423D01*
X124372275Y-113620099D01*
X124383895Y-113622505D01*
X124415710Y-113630673D01*
X124426721Y-113633500D01*
X124446975Y-113633500D01*
X124466685Y-113635051D01*
X124486694Y-113638220D01*
X124494586Y-113637474D01*
X124513331Y-113635702D01*
X124530713Y-113634059D01*
X124542570Y-113633500D01*
X134336475Y-113633500D01*
X134347658Y-113634027D01*
X134355151Y-113635702D01*
X134363077Y-113635453D01*
X134363078Y-113635453D01*
X134423228Y-113633562D01*
X134427187Y-113633500D01*
X134455098Y-113633500D01*
X134459033Y-113633003D01*
X134459098Y-113632995D01*
X134470935Y-113632062D01*
X134503193Y-113631048D01*
X134507212Y-113630922D01*
X134515131Y-113630673D01*
X134534585Y-113625021D01*
X134553942Y-113621013D01*
X134566172Y-113619468D01*
X134566173Y-113619468D01*
X134574039Y-113618474D01*
X134581410Y-113615555D01*
X134581412Y-113615555D01*
X134615154Y-113602196D01*
X134626384Y-113598351D01*
X134661225Y-113588229D01*
X134661226Y-113588229D01*
X134668835Y-113586018D01*
X134675654Y-113581985D01*
X134675659Y-113581983D01*
X134686270Y-113575707D01*
X134704018Y-113567012D01*
X134722859Y-113559552D01*
X134758629Y-113533564D01*
X134768549Y-113527048D01*
X134799777Y-113508580D01*
X134799780Y-113508578D01*
X134806604Y-113504542D01*
X134820925Y-113490221D01*
X134835959Y-113477380D01*
X134845936Y-113470131D01*
X134852349Y-113465472D01*
X134880540Y-113431395D01*
X134888530Y-113422616D01*
X137103434Y-111207712D01*
X137165746Y-111173686D01*
X137203510Y-111171286D01*
X137244524Y-111174874D01*
X137244525Y-111174874D01*
X137250000Y-111175353D01*
X137471463Y-111155978D01*
X137644476Y-111109619D01*
X137680886Y-111099863D01*
X137680888Y-111099862D01*
X137686196Y-111098440D01*
X137691178Y-111096117D01*
X137882690Y-111006814D01*
X137882695Y-111006811D01*
X137887677Y-111004488D01*
X137989505Y-110933187D01*
X138065270Y-110880136D01*
X138065273Y-110880134D01*
X138069781Y-110876977D01*
X138226977Y-110719781D01*
X138354488Y-110537676D01*
X138356811Y-110532694D01*
X138356814Y-110532689D01*
X138385805Y-110470517D01*
X138432723Y-110417232D01*
X138501000Y-110397771D01*
X138568960Y-110418313D01*
X138614195Y-110470517D01*
X138643186Y-110532689D01*
X138643189Y-110532694D01*
X138645512Y-110537676D01*
X138773023Y-110719781D01*
X138930219Y-110876977D01*
X138934727Y-110880134D01*
X138934730Y-110880136D01*
X139010495Y-110933187D01*
X139112323Y-111004488D01*
X139117305Y-111006811D01*
X139117310Y-111006814D01*
X139308822Y-111096117D01*
X139313804Y-111098440D01*
X139319112Y-111099862D01*
X139319114Y-111099863D01*
X139355524Y-111109619D01*
X139528537Y-111155978D01*
X139750000Y-111175353D01*
X139971463Y-111155978D01*
X140144476Y-111109619D01*
X140180886Y-111099863D01*
X140180888Y-111099862D01*
X140186196Y-111098440D01*
X140191178Y-111096117D01*
X140382690Y-111006814D01*
X140382695Y-111006811D01*
X140387677Y-111004488D01*
X140489505Y-110933187D01*
X140565270Y-110880136D01*
X140565273Y-110880134D01*
X140569781Y-110876977D01*
X140726977Y-110719781D01*
X140854488Y-110537676D01*
X140856811Y-110532694D01*
X140856814Y-110532689D01*
X140946117Y-110341178D01*
X140946118Y-110341177D01*
X140948440Y-110336196D01*
X141005978Y-110121463D01*
X141025353Y-109900000D01*
X141005978Y-109678537D01*
X140948440Y-109463804D01*
X140946117Y-109458822D01*
X140856814Y-109267311D01*
X140856811Y-109267306D01*
X140854488Y-109262324D01*
X140765009Y-109134534D01*
X140730136Y-109084730D01*
X140730134Y-109084727D01*
X140726977Y-109080219D01*
X140569781Y-108923023D01*
X140565273Y-108919866D01*
X140565270Y-108919864D01*
X140463487Y-108848595D01*
X140387677Y-108795512D01*
X140382695Y-108793189D01*
X140382690Y-108793186D01*
X140191178Y-108703883D01*
X140191177Y-108703882D01*
X140186196Y-108701560D01*
X140180888Y-108700138D01*
X140180886Y-108700137D01*
X140115051Y-108682497D01*
X139971463Y-108644022D01*
X139750000Y-108624647D01*
X139744525Y-108625126D01*
X139744524Y-108625126D01*
X139684675Y-108630362D01*
X139615071Y-108616373D01*
X139584599Y-108593936D01*
X138598410Y-107607747D01*
X138590870Y-107599461D01*
X138586758Y-107592982D01*
X138537106Y-107546356D01*
X138534265Y-107543602D01*
X138514528Y-107523865D01*
X138511331Y-107521385D01*
X138502309Y-107513680D01*
X138475858Y-107488841D01*
X138470079Y-107483414D01*
X138463133Y-107479595D01*
X138463130Y-107479593D01*
X138452324Y-107473652D01*
X138435805Y-107462801D01*
X138435341Y-107462441D01*
X138419799Y-107450386D01*
X138412530Y-107447241D01*
X138412526Y-107447238D01*
X138379221Y-107432826D01*
X138368571Y-107427609D01*
X138329818Y-107406305D01*
X138310195Y-107401267D01*
X138291492Y-107394863D01*
X138280178Y-107389967D01*
X138280177Y-107389967D01*
X138272903Y-107386819D01*
X138265080Y-107385580D01*
X138265070Y-107385577D01*
X138229234Y-107379901D01*
X138217614Y-107377495D01*
X138182469Y-107368472D01*
X138182468Y-107368472D01*
X138174788Y-107366500D01*
X138154534Y-107366500D01*
X138134823Y-107364949D01*
X138122644Y-107363020D01*
X138114815Y-107361780D01*
X138106923Y-107362526D01*
X138070797Y-107365941D01*
X138058939Y-107366500D01*
X124314594Y-107366500D01*
X124246473Y-107346498D01*
X124225499Y-107329595D01*
X117818147Y-100922242D01*
X117784121Y-100859930D01*
X117789186Y-100789115D01*
X117831733Y-100732279D01*
X117895383Y-100707706D01*
X117919804Y-100705397D01*
X117933963Y-100704059D01*
X117945819Y-100703500D01*
X150446233Y-100703500D01*
X150457416Y-100704027D01*
X150464909Y-100705702D01*
X150472835Y-100705453D01*
X150472836Y-100705453D01*
X150532986Y-100703562D01*
X150536945Y-100703500D01*
X150564856Y-100703500D01*
X150568791Y-100703003D01*
X150568856Y-100702995D01*
X150580693Y-100702062D01*
X150612951Y-100701048D01*
X150616970Y-100700922D01*
X150624889Y-100700673D01*
X150644343Y-100695021D01*
X150663700Y-100691013D01*
X150675930Y-100689468D01*
X150675931Y-100689468D01*
X150683797Y-100688474D01*
X150691168Y-100685555D01*
X150691170Y-100685555D01*
X150724912Y-100672196D01*
X150736142Y-100668351D01*
X150770983Y-100658229D01*
X150770984Y-100658229D01*
X150778593Y-100656018D01*
X150785412Y-100651985D01*
X150785417Y-100651983D01*
X150796028Y-100645707D01*
X150813776Y-100637012D01*
X150832617Y-100629552D01*
X150868387Y-100603564D01*
X150878307Y-100597048D01*
X150909535Y-100578580D01*
X150909538Y-100578578D01*
X150916362Y-100574542D01*
X150930683Y-100560221D01*
X150945717Y-100547380D01*
X150955694Y-100540131D01*
X150962107Y-100535472D01*
X150990298Y-100501395D01*
X150998288Y-100492616D01*
X151200499Y-100290405D01*
X151262811Y-100256379D01*
X151289594Y-100253500D01*
X152091502Y-100253500D01*
X152093950Y-100253307D01*
X152093958Y-100253307D01*
X152122421Y-100251067D01*
X152122426Y-100251066D01*
X152128831Y-100250562D01*
X152228769Y-100221528D01*
X152280988Y-100206357D01*
X152280990Y-100206356D01*
X152288601Y-100204145D01*
X152317411Y-100187107D01*
X152424980Y-100123491D01*
X152424983Y-100123489D01*
X152431807Y-100119453D01*
X152549453Y-100001807D01*
X152553489Y-99994983D01*
X152553491Y-99994980D01*
X152630108Y-99865427D01*
X152634145Y-99858601D01*
X152680562Y-99698831D01*
X152681088Y-99692158D01*
X152683307Y-99663958D01*
X152683307Y-99663950D01*
X152683500Y-99661502D01*
X152683500Y-99286346D01*
X152703502Y-99218225D01*
X152720405Y-99197250D01*
X152892258Y-99025398D01*
X152900537Y-99017864D01*
X152907018Y-99013751D01*
X152953645Y-98964098D01*
X152956399Y-98961257D01*
X152976135Y-98941521D01*
X152978615Y-98938324D01*
X152986320Y-98929302D01*
X153011159Y-98902851D01*
X153016586Y-98897072D01*
X153020405Y-98890126D01*
X153020407Y-98890123D01*
X153026348Y-98879317D01*
X153037199Y-98862798D01*
X153044758Y-98853052D01*
X153049614Y-98846792D01*
X153052759Y-98839523D01*
X153052762Y-98839519D01*
X153067174Y-98806214D01*
X153072391Y-98795564D01*
X153093695Y-98756811D01*
X153098733Y-98737188D01*
X153105137Y-98718485D01*
X153110033Y-98707171D01*
X153110033Y-98707170D01*
X153113181Y-98699896D01*
X153114420Y-98692073D01*
X153114423Y-98692063D01*
X153120099Y-98656227D01*
X153122505Y-98644607D01*
X153131528Y-98609462D01*
X153131528Y-98609461D01*
X153133500Y-98601781D01*
X153133500Y-98581527D01*
X153135051Y-98561816D01*
X153136980Y-98549637D01*
X153138220Y-98541808D01*
X153134059Y-98497789D01*
X153133500Y-98485932D01*
X153133500Y-81173767D01*
X153134027Y-81162584D01*
X153135702Y-81155091D01*
X153134726Y-81124020D01*
X153133562Y-81087001D01*
X153133500Y-81083043D01*
X153133500Y-81055144D01*
X153132996Y-81051153D01*
X153132063Y-81039311D01*
X153131805Y-81031084D01*
X153130674Y-80995111D01*
X153128462Y-80987497D01*
X153128461Y-80987492D01*
X153125023Y-80975659D01*
X153121012Y-80956295D01*
X153119467Y-80944064D01*
X153118474Y-80936203D01*
X153115557Y-80928836D01*
X153115556Y-80928831D01*
X153102198Y-80895092D01*
X153098354Y-80883865D01*
X153095281Y-80873288D01*
X153086018Y-80841407D01*
X153075707Y-80823972D01*
X153067012Y-80806224D01*
X153059552Y-80787383D01*
X153053040Y-80778419D01*
X153033564Y-80751613D01*
X153027048Y-80741693D01*
X153008580Y-80710465D01*
X153008578Y-80710462D01*
X153004542Y-80703638D01*
X152990221Y-80689317D01*
X152977380Y-80674283D01*
X152970131Y-80664306D01*
X152965472Y-80657893D01*
X152931395Y-80629702D01*
X152922616Y-80621712D01*
X151268328Y-78967423D01*
X151234302Y-78905111D01*
X151235716Y-78845717D01*
X151242691Y-78819685D01*
X151244115Y-78814371D01*
X151263307Y-78595000D01*
X151244115Y-78375629D01*
X151187120Y-78162924D01*
X151132830Y-78046498D01*
X151096382Y-77968334D01*
X151096379Y-77968329D01*
X151094056Y-77963347D01*
X151078757Y-77941498D01*
X150970908Y-77787473D01*
X150970906Y-77787470D01*
X150967749Y-77782962D01*
X150812038Y-77627251D01*
X150782342Y-77606457D01*
X150714199Y-77558743D01*
X150631654Y-77500944D01*
X150432076Y-77407880D01*
X150219371Y-77350885D01*
X150000000Y-77331693D01*
X149780629Y-77350885D01*
X149567924Y-77407880D01*
X149474562Y-77451415D01*
X149373334Y-77498618D01*
X149373329Y-77498621D01*
X149368347Y-77500944D01*
X149363840Y-77504100D01*
X149363838Y-77504101D01*
X149192473Y-77624092D01*
X149192470Y-77624094D01*
X149187962Y-77627251D01*
X149032251Y-77782962D01*
X149029094Y-77787470D01*
X149029092Y-77787473D01*
X148944859Y-77907771D01*
X148889402Y-77952099D01*
X148841646Y-77961500D01*
X146882077Y-77961500D01*
X146813956Y-77941498D01*
X146767463Y-77887842D01*
X146760370Y-77868111D01*
X146751181Y-77833817D01*
X146752871Y-77762841D01*
X146783793Y-77712111D01*
X148192247Y-76303657D01*
X148200537Y-76296113D01*
X148207018Y-76292000D01*
X148253659Y-76242332D01*
X148256413Y-76239491D01*
X148276134Y-76219770D01*
X148278612Y-76216575D01*
X148286318Y-76207553D01*
X148293872Y-76199509D01*
X148316586Y-76175321D01*
X148320406Y-76168372D01*
X148325064Y-76161961D01*
X148327530Y-76163752D01*
X148367758Y-76123746D01*
X148427837Y-76108500D01*
X148948134Y-76108500D01*
X149010316Y-76101745D01*
X149146705Y-76050615D01*
X149153892Y-76045229D01*
X149224435Y-75992360D01*
X149290942Y-75967512D01*
X149360324Y-75982565D01*
X149375565Y-75992360D01*
X149446108Y-76045229D01*
X149453295Y-76050615D01*
X149589684Y-76101745D01*
X149651866Y-76108500D01*
X150115445Y-76108500D01*
X150183566Y-76128502D01*
X150223873Y-76170318D01*
X150224269Y-76170987D01*
X150232988Y-76188776D01*
X150240448Y-76207617D01*
X150245110Y-76214033D01*
X150245110Y-76214034D01*
X150266436Y-76243387D01*
X150272952Y-76253307D01*
X150290545Y-76283054D01*
X150295458Y-76291362D01*
X150309779Y-76305683D01*
X150322619Y-76320716D01*
X150334528Y-76337107D01*
X150356315Y-76355131D01*
X150368605Y-76365298D01*
X150377384Y-76373288D01*
X151052878Y-77048782D01*
X151086904Y-77111094D01*
X151089092Y-77124703D01*
X151097652Y-77206144D01*
X151098867Y-77217699D01*
X151106458Y-77289928D01*
X151165473Y-77471556D01*
X151260960Y-77636944D01*
X151265378Y-77641851D01*
X151265379Y-77641852D01*
X151382203Y-77771598D01*
X151388747Y-77778866D01*
X151543248Y-77891118D01*
X151549276Y-77893802D01*
X151549278Y-77893803D01*
X151707090Y-77964065D01*
X151717712Y-77968794D01*
X151801473Y-77986598D01*
X151898056Y-78007128D01*
X151898061Y-78007128D01*
X151904513Y-78008500D01*
X152095487Y-78008500D01*
X152101939Y-78007128D01*
X152101944Y-78007128D01*
X152198527Y-77986598D01*
X152282288Y-77968794D01*
X152292910Y-77964065D01*
X152450722Y-77893803D01*
X152450724Y-77893802D01*
X152456752Y-77891118D01*
X152611253Y-77778866D01*
X152617797Y-77771598D01*
X152734621Y-77641852D01*
X152734622Y-77641851D01*
X152739040Y-77636944D01*
X152834527Y-77471556D01*
X152893542Y-77289928D01*
X152901134Y-77217699D01*
X152912814Y-77106565D01*
X152913504Y-77100000D01*
X152902536Y-76995643D01*
X152894232Y-76916635D01*
X152894232Y-76916633D01*
X152893542Y-76910072D01*
X152834527Y-76728444D01*
X152813199Y-76691502D01*
X152797314Y-76663990D01*
X152739040Y-76563056D01*
X152700226Y-76519948D01*
X152615675Y-76426045D01*
X152615674Y-76426044D01*
X152611253Y-76421134D01*
X152486774Y-76330694D01*
X152462094Y-76312763D01*
X152462093Y-76312762D01*
X152456752Y-76308882D01*
X152450724Y-76306198D01*
X152450722Y-76306197D01*
X152288319Y-76233891D01*
X152288318Y-76233891D01*
X152282288Y-76231206D01*
X152275833Y-76229834D01*
X152275830Y-76229833D01*
X152260322Y-76226537D01*
X152197849Y-76192809D01*
X152163527Y-76130660D01*
X152168254Y-76059821D01*
X152210953Y-76002464D01*
X152256080Y-75968643D01*
X152256081Y-75968642D01*
X152263261Y-75963261D01*
X152350615Y-75846705D01*
X152401745Y-75710316D01*
X152408500Y-75648134D01*
X152408500Y-73951866D01*
X152401745Y-73889684D01*
X152350615Y-73753295D01*
X152263261Y-73636739D01*
X152146705Y-73549385D01*
X152010316Y-73498255D01*
X151948134Y-73491500D01*
X149651866Y-73491500D01*
X149589684Y-73498255D01*
X149453295Y-73549385D01*
X149446110Y-73554770D01*
X149446108Y-73554771D01*
X149375565Y-73607640D01*
X149309058Y-73632488D01*
X149239676Y-73617435D01*
X149224435Y-73607640D01*
X149153892Y-73554771D01*
X149153890Y-73554770D01*
X149146705Y-73549385D01*
X149010316Y-73498255D01*
X148948134Y-73491500D01*
X146651866Y-73491500D01*
X146589684Y-73498255D01*
X146453295Y-73549385D01*
X146336739Y-73636739D01*
X146249385Y-73753295D01*
X146198255Y-73889684D01*
X146191500Y-73951866D01*
X146191500Y-75648134D01*
X146198255Y-75710316D01*
X146249385Y-75846705D01*
X146336739Y-75963261D01*
X146343919Y-75968642D01*
X146343920Y-75968643D01*
X146451428Y-76049216D01*
X146493943Y-76106075D01*
X146498969Y-76176894D01*
X146464958Y-76239137D01*
X145815198Y-76888897D01*
X145752886Y-76922923D01*
X145715123Y-76925323D01*
X145500000Y-76906502D01*
X145271913Y-76926457D01*
X145266600Y-76927881D01*
X145266598Y-76927881D01*
X145056067Y-76984293D01*
X145056065Y-76984294D01*
X145050757Y-76985716D01*
X145045776Y-76988039D01*
X145045775Y-76988039D01*
X144848238Y-77080151D01*
X144848233Y-77080154D01*
X144843251Y-77082477D01*
X144782852Y-77124769D01*
X144660211Y-77210643D01*
X144660208Y-77210645D01*
X144655700Y-77213802D01*
X144493802Y-77375700D01*
X144490645Y-77380208D01*
X144490643Y-77380211D01*
X144471269Y-77407880D01*
X144362477Y-77563251D01*
X144360154Y-77568233D01*
X144360151Y-77568238D01*
X144268039Y-77765775D01*
X144265716Y-77770757D01*
X144264294Y-77776065D01*
X144264293Y-77776067D01*
X144208855Y-77982962D01*
X144206457Y-77991913D01*
X144186502Y-78220000D01*
X144206457Y-78448087D01*
X144207881Y-78453400D01*
X144207881Y-78453402D01*
X144247290Y-78600475D01*
X144265716Y-78669243D01*
X144268039Y-78674224D01*
X144268039Y-78674225D01*
X144360151Y-78871762D01*
X144360154Y-78871767D01*
X144362477Y-78876749D01*
X144425968Y-78967423D01*
X144486789Y-79054284D01*
X144493802Y-79064300D01*
X144655700Y-79226198D01*
X144660208Y-79229355D01*
X144660211Y-79229357D01*
X144719875Y-79271134D01*
X144843251Y-79357523D01*
X144848233Y-79359846D01*
X144848238Y-79359849D01*
X145038357Y-79448502D01*
X145050757Y-79454284D01*
X145056065Y-79455706D01*
X145056067Y-79455707D01*
X145266598Y-79512119D01*
X145266600Y-79512119D01*
X145271913Y-79513543D01*
X145500000Y-79533498D01*
X145728087Y-79513543D01*
X145733400Y-79512119D01*
X145733402Y-79512119D01*
X145943933Y-79455707D01*
X145943935Y-79455706D01*
X145949243Y-79454284D01*
X145961643Y-79448502D01*
X146151762Y-79359849D01*
X146151767Y-79359846D01*
X146156749Y-79357523D01*
X146308469Y-79251287D01*
X146380740Y-79228500D01*
X148841646Y-79228500D01*
X148909767Y-79248502D01*
X148944858Y-79282228D01*
X148981845Y-79335051D01*
X149027420Y-79400138D01*
X149032251Y-79407038D01*
X149187962Y-79562749D01*
X149192471Y-79565906D01*
X149192473Y-79565908D01*
X149251213Y-79607038D01*
X149368346Y-79689056D01*
X149567924Y-79782120D01*
X149780629Y-79839115D01*
X150000000Y-79858307D01*
X150219371Y-79839115D01*
X150234556Y-79835046D01*
X150250717Y-79830716D01*
X150321694Y-79832406D01*
X150372423Y-79863328D01*
X151829595Y-81320500D01*
X151863621Y-81382812D01*
X151866500Y-81409595D01*
X151866500Y-89620500D01*
X151846498Y-89688621D01*
X151792842Y-89735114D01*
X151740500Y-89746500D01*
X150208498Y-89746500D01*
X150206050Y-89746693D01*
X150206042Y-89746693D01*
X150177579Y-89748933D01*
X150177574Y-89748934D01*
X150171169Y-89749438D01*
X150071231Y-89778472D01*
X150019012Y-89793643D01*
X150019010Y-89793644D01*
X150011399Y-89795855D01*
X150004572Y-89799892D01*
X150004573Y-89799892D01*
X149875020Y-89876509D01*
X149875017Y-89876511D01*
X149868193Y-89880547D01*
X149750547Y-89998193D01*
X149746511Y-90005017D01*
X149746509Y-90005020D01*
X149688359Y-90103347D01*
X149665855Y-90141399D01*
X149619438Y-90301169D01*
X149618934Y-90307574D01*
X149618933Y-90307579D01*
X149616693Y-90336042D01*
X149616500Y-90338498D01*
X149616500Y-90771502D01*
X149616693Y-90773950D01*
X149616693Y-90773958D01*
X149618496Y-90796858D01*
X149619438Y-90808831D01*
X149648472Y-90908769D01*
X149649775Y-90913251D01*
X149665855Y-90968601D01*
X149685231Y-91001363D01*
X149702689Y-91070178D01*
X149680172Y-91137509D01*
X149624827Y-91181978D01*
X149576776Y-91191500D01*
X147139594Y-91191500D01*
X147071473Y-91171498D01*
X147050499Y-91154595D01*
X138870405Y-82974500D01*
X138836379Y-82912188D01*
X138833500Y-82885405D01*
X138833500Y-79953354D01*
X138853502Y-79885233D01*
X138887228Y-79850142D01*
X138982341Y-79783543D01*
X139007527Y-79765908D01*
X139007530Y-79765906D01*
X139012038Y-79762749D01*
X139167749Y-79607038D01*
X139175524Y-79595935D01*
X139290899Y-79431162D01*
X139290900Y-79431160D01*
X139294056Y-79426653D01*
X139296379Y-79421671D01*
X139296382Y-79421666D01*
X139348436Y-79310034D01*
X139387120Y-79227076D01*
X139444115Y-79014371D01*
X139463307Y-78795000D01*
X139444115Y-78575629D01*
X139387120Y-78362924D01*
X139317921Y-78214525D01*
X139296382Y-78168334D01*
X139296379Y-78168329D01*
X139294056Y-78163347D01*
X139290899Y-78158838D01*
X139170908Y-77987473D01*
X139170906Y-77987470D01*
X139167749Y-77982962D01*
X139012038Y-77827251D01*
X138996182Y-77816148D01*
X138922458Y-77764526D01*
X138831654Y-77700944D01*
X138632076Y-77607880D01*
X138419371Y-77550885D01*
X138200000Y-77531693D01*
X137980629Y-77550885D01*
X137767924Y-77607880D01*
X137692197Y-77643192D01*
X137573334Y-77698618D01*
X137573329Y-77698621D01*
X137568347Y-77700944D01*
X137563841Y-77704099D01*
X137563838Y-77704101D01*
X137392473Y-77824092D01*
X137392470Y-77824094D01*
X137387962Y-77827251D01*
X137232251Y-77982962D01*
X137187763Y-78046498D01*
X137144859Y-78107771D01*
X137089402Y-78152099D01*
X137041646Y-78161500D01*
X135421126Y-78161500D01*
X135353005Y-78141498D01*
X135306512Y-78087842D01*
X135295605Y-78024518D01*
X135313019Y-77825475D01*
X135313498Y-77820000D01*
X135293543Y-77591913D01*
X135268545Y-77498619D01*
X135235707Y-77376067D01*
X135235706Y-77376065D01*
X135234284Y-77370757D01*
X135224794Y-77350406D01*
X135139849Y-77168238D01*
X135139846Y-77168233D01*
X135137523Y-77163251D01*
X135048632Y-77036302D01*
X135009357Y-76980211D01*
X135009355Y-76980208D01*
X135006198Y-76975700D01*
X134844300Y-76813802D01*
X134839792Y-76810645D01*
X134839789Y-76810643D01*
X134687229Y-76703819D01*
X134642901Y-76648362D01*
X134633500Y-76600606D01*
X134633500Y-76514594D01*
X134653502Y-76446473D01*
X134670405Y-76425499D01*
X135150499Y-75945405D01*
X135212811Y-75911379D01*
X135239594Y-75908500D01*
X136748134Y-75908500D01*
X136810316Y-75901745D01*
X136946705Y-75850615D01*
X136970085Y-75833093D01*
X137024435Y-75792360D01*
X137090942Y-75767512D01*
X137160324Y-75782565D01*
X137175565Y-75792360D01*
X137229915Y-75833093D01*
X137253295Y-75850615D01*
X137389684Y-75901745D01*
X137451866Y-75908500D01*
X139748134Y-75908500D01*
X139810316Y-75901745D01*
X139946705Y-75850615D01*
X140063261Y-75763261D01*
X140150615Y-75646705D01*
X140201745Y-75510316D01*
X140208500Y-75448134D01*
X140208500Y-73751866D01*
X140201745Y-73689684D01*
X140150615Y-73553295D01*
X140063261Y-73436739D01*
X139946705Y-73349385D01*
X139810316Y-73298255D01*
X139748134Y-73291500D01*
X139359500Y-73291500D01*
X139291379Y-73271498D01*
X139244886Y-73217842D01*
X139233500Y-73165500D01*
X139233500Y-73102524D01*
X139253502Y-73034403D01*
X139265858Y-73018221D01*
X139339040Y-72936944D01*
X139434527Y-72771556D01*
X139493542Y-72589928D01*
X139513504Y-72400000D01*
X139495473Y-72228444D01*
X139494232Y-72216635D01*
X139494232Y-72216633D01*
X139493542Y-72210072D01*
X139434527Y-72028444D01*
X139339040Y-71863056D01*
X139321709Y-71843808D01*
X139290993Y-71779802D01*
X139299758Y-71709349D01*
X139345221Y-71654818D01*
X139415347Y-71633500D01*
X153840500Y-71633500D01*
X153908621Y-71653502D01*
X153955114Y-71707158D01*
X153966500Y-71759500D01*
X153966500Y-80321233D01*
X153965973Y-80332416D01*
X153964298Y-80339909D01*
X153964547Y-80347835D01*
X153964547Y-80347836D01*
X153966438Y-80407986D01*
X153966500Y-80411945D01*
X153966500Y-80439856D01*
X153966997Y-80443790D01*
X153966997Y-80443791D01*
X153967005Y-80443856D01*
X153967938Y-80455693D01*
X153969327Y-80499889D01*
X153974978Y-80519339D01*
X153978987Y-80538700D01*
X153981526Y-80558797D01*
X153984445Y-80566168D01*
X153984445Y-80566170D01*
X153997804Y-80599912D01*
X154001649Y-80611142D01*
X154013982Y-80653593D01*
X154018015Y-80660412D01*
X154018017Y-80660417D01*
X154024293Y-80671028D01*
X154032988Y-80688776D01*
X154040448Y-80707617D01*
X154045110Y-80714033D01*
X154045110Y-80714034D01*
X154066436Y-80743387D01*
X154072952Y-80753307D01*
X154090584Y-80783120D01*
X154095458Y-80791362D01*
X154109779Y-80805683D01*
X154122619Y-80820716D01*
X154134528Y-80837107D01*
X154148931Y-80849022D01*
X154168605Y-80865298D01*
X154177384Y-80873288D01*
X157470154Y-84166058D01*
X157504180Y-84228370D01*
X157497256Y-84303877D01*
X157475246Y-84356365D01*
X157412738Y-84602490D01*
X157387296Y-84855151D01*
X157387520Y-84859817D01*
X157387520Y-84859822D01*
X157390430Y-84920405D01*
X157399480Y-85108798D01*
X157449021Y-85357857D01*
X157450600Y-85362255D01*
X157450602Y-85362262D01*
X157495022Y-85485980D01*
X157534831Y-85596858D01*
X157655025Y-85820551D01*
X157657820Y-85824294D01*
X157657822Y-85824297D01*
X157804171Y-86020282D01*
X157804176Y-86020288D01*
X157806963Y-86024020D01*
X157810272Y-86027300D01*
X157810277Y-86027306D01*
X157908859Y-86125031D01*
X157987307Y-86202797D01*
X157991069Y-86205555D01*
X157991072Y-86205558D01*
X158182396Y-86345842D01*
X158192094Y-86352953D01*
X158196229Y-86355129D01*
X158196233Y-86355131D01*
X158216126Y-86365597D01*
X158416827Y-86471191D01*
X158656568Y-86554912D01*
X158906050Y-86602278D01*
X159026532Y-86607011D01*
X159155125Y-86612064D01*
X159155130Y-86612064D01*
X159159793Y-86612247D01*
X159258774Y-86601407D01*
X159407569Y-86585112D01*
X159407575Y-86585111D01*
X159412222Y-86584602D01*
X159521680Y-86555784D01*
X159653273Y-86521138D01*
X159657793Y-86519948D01*
X159801626Y-86458153D01*
X159886807Y-86421557D01*
X159886810Y-86421555D01*
X159891110Y-86419708D01*
X159895090Y-86417245D01*
X159895094Y-86417243D01*
X160103064Y-86288547D01*
X160103066Y-86288545D01*
X160107047Y-86286082D01*
X160205428Y-86202797D01*
X160297289Y-86125031D01*
X160297291Y-86125029D01*
X160300862Y-86122006D01*
X160468295Y-85931084D01*
X160605669Y-85717512D01*
X160709967Y-85485980D01*
X160778896Y-85241575D01*
X160810943Y-84989667D01*
X160813291Y-84900000D01*
X160809957Y-84855138D01*
X160794818Y-84651411D01*
X160794817Y-84651407D01*
X160794472Y-84646759D01*
X160738428Y-84399082D01*
X160646391Y-84162409D01*
X160520383Y-83941940D01*
X160363171Y-83742517D01*
X160224521Y-83612089D01*
X160181610Y-83571722D01*
X160181608Y-83571720D01*
X160178209Y-83568523D01*
X160090413Y-83507617D01*
X159973393Y-83426437D01*
X159973390Y-83426435D01*
X159969561Y-83423779D01*
X159965384Y-83421719D01*
X159965377Y-83421715D01*
X159745996Y-83313528D01*
X159745992Y-83313527D01*
X159741810Y-83311464D01*
X159499960Y-83234047D01*
X159495355Y-83233297D01*
X159253935Y-83193980D01*
X159253934Y-83193980D01*
X159249323Y-83193229D01*
X159122365Y-83191567D01*
X159000083Y-83189966D01*
X159000080Y-83189966D01*
X158995406Y-83189905D01*
X158743787Y-83224149D01*
X158739301Y-83225457D01*
X158739299Y-83225457D01*
X158511102Y-83291970D01*
X158499993Y-83295208D01*
X158496657Y-83296746D01*
X158426107Y-83301844D01*
X158363704Y-83267799D01*
X155270405Y-80174500D01*
X155236379Y-80112188D01*
X155233500Y-80085405D01*
X155233500Y-77333594D01*
X155253502Y-77265473D01*
X155307158Y-77218980D01*
X155377432Y-77208876D01*
X155442012Y-77238370D01*
X155448595Y-77244499D01*
X157470154Y-79266058D01*
X157504180Y-79328370D01*
X157497256Y-79403877D01*
X157475246Y-79456365D01*
X157474095Y-79460897D01*
X157474094Y-79460900D01*
X157444439Y-79577668D01*
X157412738Y-79702490D01*
X157387296Y-79955151D01*
X157387520Y-79959817D01*
X157387520Y-79959822D01*
X157388591Y-79982120D01*
X157399480Y-80208798D01*
X157400393Y-80213386D01*
X157439889Y-80411945D01*
X157449021Y-80457857D01*
X157450600Y-80462255D01*
X157450602Y-80462262D01*
X157532853Y-80691348D01*
X157534831Y-80696858D01*
X157537048Y-80700984D01*
X157625337Y-80865298D01*
X157655025Y-80920551D01*
X157657820Y-80924294D01*
X157657822Y-80924297D01*
X157804171Y-81120282D01*
X157804176Y-81120288D01*
X157806963Y-81124020D01*
X157810272Y-81127300D01*
X157810277Y-81127306D01*
X157908702Y-81224875D01*
X157987307Y-81302797D01*
X157991069Y-81305555D01*
X157991072Y-81305558D01*
X158096764Y-81383054D01*
X158192094Y-81452953D01*
X158196229Y-81455129D01*
X158196233Y-81455131D01*
X158314289Y-81517243D01*
X158416827Y-81571191D01*
X158457530Y-81585405D01*
X158606980Y-81637595D01*
X158656568Y-81654912D01*
X158906050Y-81702278D01*
X159026532Y-81707011D01*
X159155125Y-81712064D01*
X159155130Y-81712064D01*
X159159793Y-81712247D01*
X159258774Y-81701407D01*
X159407569Y-81685112D01*
X159407575Y-81685111D01*
X159412222Y-81684602D01*
X159521680Y-81655784D01*
X159653273Y-81621138D01*
X159657793Y-81619948D01*
X159776353Y-81569011D01*
X159886807Y-81521557D01*
X159886810Y-81521555D01*
X159891110Y-81519708D01*
X159895090Y-81517245D01*
X159895094Y-81517243D01*
X160103064Y-81388547D01*
X160103066Y-81388545D01*
X160107047Y-81386082D01*
X160205428Y-81302797D01*
X160297289Y-81225031D01*
X160297291Y-81225029D01*
X160300862Y-81222006D01*
X160468295Y-81031084D01*
X160477448Y-81016855D01*
X160603141Y-80821442D01*
X160605669Y-80817512D01*
X160709967Y-80585980D01*
X160778896Y-80341575D01*
X160810943Y-80089667D01*
X160813291Y-80000000D01*
X160805219Y-79891381D01*
X160794818Y-79751411D01*
X160794817Y-79751407D01*
X160794472Y-79746759D01*
X160786335Y-79710796D01*
X160746107Y-79533019D01*
X160738428Y-79499082D01*
X160721816Y-79456365D01*
X160648084Y-79266762D01*
X160648083Y-79266760D01*
X160646391Y-79262409D01*
X160634733Y-79242012D01*
X160522702Y-79045997D01*
X160522700Y-79045995D01*
X160520383Y-79041940D01*
X160363171Y-78842517D01*
X160279625Y-78763925D01*
X160181610Y-78671722D01*
X160181608Y-78671720D01*
X160178209Y-78668523D01*
X160044303Y-78575629D01*
X159973393Y-78526437D01*
X159973390Y-78526435D01*
X159969561Y-78523779D01*
X159965384Y-78521719D01*
X159965377Y-78521715D01*
X159745996Y-78413528D01*
X159745992Y-78413527D01*
X159741810Y-78411464D01*
X159499960Y-78334047D01*
X159495355Y-78333297D01*
X159253935Y-78293980D01*
X159253934Y-78293980D01*
X159249323Y-78293229D01*
X159122364Y-78291567D01*
X159000083Y-78289966D01*
X159000080Y-78289966D01*
X158995406Y-78289905D01*
X158743787Y-78324149D01*
X158739301Y-78325457D01*
X158739299Y-78325457D01*
X158592534Y-78368235D01*
X158499993Y-78395208D01*
X158496657Y-78396746D01*
X158426107Y-78401844D01*
X158363704Y-78367799D01*
X155720405Y-75724500D01*
X155686379Y-75662188D01*
X155683500Y-75635405D01*
X155683500Y-70271793D01*
X155685732Y-70248184D01*
X155685790Y-70247881D01*
X155685790Y-70247877D01*
X155687275Y-70240094D01*
X155683749Y-70184049D01*
X155683500Y-70176138D01*
X155683500Y-70160144D01*
X155681494Y-70144270D01*
X155680751Y-70136402D01*
X155677723Y-70088263D01*
X155677723Y-70088262D01*
X155677225Y-70080350D01*
X155674679Y-70072513D01*
X155669506Y-70049369D01*
X155669468Y-70049065D01*
X155669467Y-70049060D01*
X155668474Y-70041203D01*
X155665558Y-70033838D01*
X155665557Y-70033834D01*
X155647801Y-69988989D01*
X155645129Y-69981570D01*
X155627764Y-69928125D01*
X155623514Y-69921428D01*
X155623350Y-69921169D01*
X155612585Y-69900042D01*
X155612471Y-69899754D01*
X155612468Y-69899749D01*
X155609552Y-69892383D01*
X155604896Y-69885975D01*
X155604893Y-69885969D01*
X155576542Y-69846948D01*
X155572092Y-69840401D01*
X155542000Y-69792982D01*
X155535993Y-69787341D01*
X155520312Y-69769554D01*
X155520134Y-69769309D01*
X155520132Y-69769307D01*
X155515472Y-69762893D01*
X155509362Y-69757838D01*
X155472204Y-69727097D01*
X155466270Y-69721866D01*
X155431102Y-69688842D01*
X155431099Y-69688840D01*
X155425321Y-69683414D01*
X155418097Y-69679442D01*
X155398494Y-69666119D01*
X155398254Y-69665920D01*
X155398247Y-69665916D01*
X155392144Y-69660867D01*
X155341324Y-69636953D01*
X155334292Y-69633371D01*
X155285060Y-69606305D01*
X155277385Y-69604335D01*
X155277379Y-69604332D01*
X155277081Y-69604256D01*
X155254772Y-69596224D01*
X155254497Y-69596094D01*
X155254489Y-69596091D01*
X155247318Y-69592717D01*
X155192151Y-69582194D01*
X155184442Y-69580471D01*
X155150449Y-69571743D01*
X155137707Y-69568471D01*
X155137706Y-69568471D01*
X155130030Y-69566500D01*
X155121793Y-69566500D01*
X155098184Y-69564268D01*
X155097881Y-69564210D01*
X155097877Y-69564210D01*
X155090094Y-69562725D01*
X155034049Y-69566251D01*
X155026138Y-69566500D01*
X152386869Y-69566500D01*
X152318748Y-69546498D01*
X152272255Y-69492842D01*
X152262151Y-69422568D01*
X152291645Y-69357988D01*
X152311304Y-69339674D01*
X152406080Y-69268643D01*
X152406081Y-69268642D01*
X152413261Y-69263261D01*
X152500615Y-69146705D01*
X152551745Y-69010316D01*
X152558500Y-68948134D01*
X152558500Y-67539594D01*
X152578502Y-67471474D01*
X152595405Y-67450500D01*
X152978093Y-67067812D01*
X153040405Y-67033786D01*
X153109247Y-67038134D01*
X153157096Y-67055078D01*
X153321280Y-67113219D01*
X153321284Y-67113220D01*
X153326155Y-67114945D01*
X153331248Y-67115852D01*
X153331251Y-67115853D01*
X153557184Y-67156098D01*
X153557190Y-67156099D01*
X153562273Y-67157004D01*
X153649540Y-67158070D01*
X153796919Y-67159871D01*
X153796921Y-67159871D01*
X153802089Y-67159934D01*
X154039163Y-67123657D01*
X154267129Y-67049146D01*
X154479864Y-66938403D01*
X154483997Y-66935300D01*
X154484000Y-66935298D01*
X154667520Y-66797507D01*
X154667523Y-66797505D01*
X154671655Y-66794402D01*
X154837352Y-66621010D01*
X154972505Y-66422883D01*
X155035188Y-66287846D01*
X155071309Y-66210030D01*
X155071310Y-66210028D01*
X155073484Y-66205344D01*
X155129648Y-66002821D01*
X155136197Y-65979205D01*
X155136197Y-65979204D01*
X155137576Y-65974232D01*
X155150244Y-65855693D01*
X155158144Y-65781778D01*
X155158144Y-65781770D01*
X155158500Y-65778443D01*
X155158500Y-64039197D01*
X155157210Y-64023502D01*
X155144271Y-63866124D01*
X155144269Y-63866109D01*
X155143847Y-63860973D01*
X155109751Y-63725230D01*
X155086679Y-63633375D01*
X155086678Y-63633371D01*
X155085420Y-63628364D01*
X155083364Y-63623634D01*
X155083361Y-63623627D01*
X154991847Y-63413159D01*
X154991845Y-63413156D01*
X154989787Y-63408422D01*
X154972574Y-63381814D01*
X154862325Y-63211396D01*
X154862323Y-63211393D01*
X154859515Y-63207053D01*
X154843933Y-63189928D01*
X154701582Y-63033487D01*
X154701580Y-63033486D01*
X154698104Y-63029665D01*
X154694053Y-63026466D01*
X154694049Y-63026462D01*
X154513946Y-62884226D01*
X154509888Y-62881021D01*
X154299922Y-62765113D01*
X154150071Y-62712048D01*
X154078720Y-62686781D01*
X154078716Y-62686780D01*
X154073845Y-62685055D01*
X154068752Y-62684148D01*
X154068749Y-62684147D01*
X153842816Y-62643902D01*
X153842810Y-62643901D01*
X153837727Y-62642996D01*
X153750460Y-62641930D01*
X153603081Y-62640129D01*
X153603079Y-62640129D01*
X153597911Y-62640066D01*
X153360837Y-62676343D01*
X153132871Y-62750854D01*
X153128279Y-62753244D01*
X153128280Y-62753244D01*
X153003895Y-62817995D01*
X152920136Y-62861597D01*
X152916003Y-62864700D01*
X152916000Y-62864702D01*
X152732480Y-63002493D01*
X152728345Y-63005598D01*
X152562648Y-63178990D01*
X152559734Y-63183262D01*
X152559733Y-63183263D01*
X152550904Y-63196206D01*
X152427495Y-63377117D01*
X152326516Y-63594656D01*
X152292216Y-63718340D01*
X152271289Y-63793803D01*
X152262424Y-63825768D01*
X152251781Y-63925354D01*
X152241882Y-64017985D01*
X152241500Y-64021557D01*
X152241500Y-65760803D01*
X152241577Y-65761735D01*
X152224445Y-65830385D01*
X152172742Y-65879040D01*
X152104962Y-65891421D01*
X152104928Y-65892053D01*
X152102284Y-65891910D01*
X152102146Y-65891935D01*
X152101545Y-65891870D01*
X152101535Y-65891869D01*
X152098134Y-65891500D01*
X151112986Y-65891500D01*
X151044865Y-65871498D01*
X150998372Y-65817842D01*
X150988268Y-65747568D01*
X151017762Y-65682988D01*
X151033348Y-65667859D01*
X151049464Y-65654715D01*
X151069555Y-65630430D01*
X151177855Y-65499518D01*
X151181783Y-65494770D01*
X151189392Y-65480698D01*
X151277584Y-65317590D01*
X151277586Y-65317585D01*
X151280514Y-65312170D01*
X151341898Y-65113871D01*
X151355615Y-64983365D01*
X151362952Y-64913554D01*
X151362952Y-64913552D01*
X151363596Y-64907425D01*
X151348755Y-64744347D01*
X151345341Y-64706836D01*
X151345340Y-64706833D01*
X151344782Y-64700697D01*
X151340495Y-64686129D01*
X151287912Y-64507469D01*
X151286173Y-64501560D01*
X151190001Y-64317600D01*
X151175013Y-64298958D01*
X151150747Y-64268778D01*
X151059929Y-64155823D01*
X151047371Y-64145285D01*
X150905629Y-64026350D01*
X150900911Y-64022391D01*
X150895519Y-64019427D01*
X150895515Y-64019424D01*
X150724402Y-63925354D01*
X150719005Y-63922387D01*
X150521139Y-63859621D01*
X150515022Y-63858935D01*
X150515018Y-63858934D01*
X150438402Y-63850341D01*
X150359587Y-63841500D01*
X150247763Y-63841500D01*
X150244707Y-63841800D01*
X150244700Y-63841800D01*
X150099534Y-63856034D01*
X150099531Y-63856035D01*
X150093408Y-63856635D01*
X149964248Y-63895630D01*
X149900593Y-63914848D01*
X149900590Y-63914849D01*
X149894685Y-63916632D01*
X149889240Y-63919527D01*
X149889238Y-63919528D01*
X149716847Y-64011191D01*
X149716845Y-64011192D01*
X149711401Y-64014087D01*
X149658430Y-64057289D01*
X149555311Y-64141390D01*
X149555308Y-64141393D01*
X149550536Y-64145285D01*
X149418217Y-64305230D01*
X149415288Y-64310647D01*
X149415286Y-64310650D01*
X149322416Y-64482410D01*
X149322414Y-64482415D01*
X149319486Y-64487830D01*
X149268889Y-64651282D01*
X149258462Y-64684966D01*
X149219210Y-64744125D01*
X149154206Y-64772672D01*
X149084087Y-64761543D01*
X149049002Y-64736801D01*
X146683563Y-62371361D01*
X144189949Y-59877747D01*
X144182409Y-59869461D01*
X144178297Y-59862982D01*
X144159534Y-59845362D01*
X144128646Y-59816357D01*
X144125804Y-59813602D01*
X144106067Y-59793865D01*
X144102870Y-59791385D01*
X144093848Y-59783680D01*
X144067397Y-59758841D01*
X144061618Y-59753414D01*
X144054672Y-59749595D01*
X144054669Y-59749593D01*
X144043863Y-59743652D01*
X144027344Y-59732801D01*
X144026880Y-59732441D01*
X144011338Y-59720386D01*
X144004069Y-59717241D01*
X144004065Y-59717238D01*
X143970760Y-59702826D01*
X143960110Y-59697609D01*
X143921357Y-59676305D01*
X143912205Y-59673955D01*
X143901735Y-59671267D01*
X143883031Y-59664863D01*
X143871717Y-59659967D01*
X143871716Y-59659967D01*
X143864442Y-59656819D01*
X143856619Y-59655580D01*
X143856609Y-59655577D01*
X143820773Y-59649901D01*
X143809153Y-59647495D01*
X143774008Y-59638472D01*
X143774007Y-59638472D01*
X143766327Y-59636500D01*
X143746073Y-59636500D01*
X143726362Y-59634949D01*
X143714183Y-59633020D01*
X143706354Y-59631780D01*
X143698462Y-59632526D01*
X143662336Y-59635941D01*
X143650478Y-59636500D01*
X136223224Y-59636500D01*
X136155103Y-59616498D01*
X136108610Y-59562842D01*
X136098506Y-59492568D01*
X136114769Y-59446364D01*
X136134145Y-59413601D01*
X136143716Y-59380659D01*
X136167122Y-59300092D01*
X136180562Y-59253831D01*
X136181147Y-59246407D01*
X136183307Y-59218958D01*
X136183307Y-59218950D01*
X136183500Y-59216502D01*
X136183500Y-58783498D01*
X136182320Y-58768502D01*
X136181067Y-58752579D01*
X136181066Y-58752574D01*
X136180562Y-58746169D01*
X136145156Y-58624300D01*
X136136357Y-58594012D01*
X136136356Y-58594010D01*
X136134145Y-58586399D01*
X136049453Y-58443193D01*
X136046771Y-58440511D01*
X136021498Y-58376139D01*
X136035400Y-58306516D01*
X136045572Y-58290688D01*
X136049453Y-58286807D01*
X136134145Y-58143601D01*
X136143431Y-58111640D01*
X136168980Y-58023696D01*
X136180562Y-57983831D01*
X136182471Y-57959587D01*
X136183307Y-57948958D01*
X136183307Y-57948950D01*
X136183500Y-57946502D01*
X136183500Y-57513498D01*
X136183307Y-57511042D01*
X136181067Y-57482579D01*
X136181066Y-57482574D01*
X136180562Y-57476169D01*
X136139470Y-57334729D01*
X136136357Y-57324012D01*
X136136356Y-57324010D01*
X136134145Y-57316399D01*
X136049453Y-57173193D01*
X136046771Y-57170511D01*
X136021498Y-57106139D01*
X136035400Y-57036516D01*
X136045572Y-57020688D01*
X136049453Y-57016807D01*
X136134145Y-56873601D01*
X136180562Y-56713831D01*
X136183500Y-56676502D01*
X136183500Y-56594500D01*
X136203502Y-56526379D01*
X136257158Y-56479886D01*
X136309500Y-56468500D01*
X155020406Y-56468500D01*
X155088527Y-56488502D01*
X155109501Y-56505405D01*
X158329595Y-59725499D01*
X158363621Y-59787811D01*
X158366500Y-59814594D01*
X158366500Y-73276091D01*
X158346498Y-73344212D01*
X158293252Y-73390516D01*
X158273632Y-73399561D01*
X158273623Y-73399566D01*
X158269380Y-73401522D01*
X158265471Y-73404085D01*
X158060928Y-73538189D01*
X158060923Y-73538193D01*
X158057015Y-73540755D01*
X158006360Y-73585966D01*
X157878493Y-73700092D01*
X157867562Y-73709848D01*
X157705183Y-73905087D01*
X157573447Y-74122182D01*
X157571638Y-74126496D01*
X157571637Y-74126498D01*
X157549719Y-74178768D01*
X157475246Y-74356365D01*
X157412738Y-74602490D01*
X157387296Y-74855151D01*
X157399480Y-75108798D01*
X157400393Y-75113386D01*
X157447359Y-75349500D01*
X157449021Y-75357857D01*
X157450600Y-75362255D01*
X157450602Y-75362262D01*
X157506416Y-75517715D01*
X157534831Y-75596858D01*
X157537048Y-75600984D01*
X157639878Y-75792360D01*
X157655025Y-75820551D01*
X157657820Y-75824294D01*
X157657822Y-75824297D01*
X157804171Y-76020282D01*
X157804176Y-76020288D01*
X157806963Y-76024020D01*
X157810272Y-76027300D01*
X157810277Y-76027306D01*
X157965421Y-76181101D01*
X157987307Y-76202797D01*
X157991069Y-76205555D01*
X157991072Y-76205558D01*
X158170483Y-76337107D01*
X158192094Y-76352953D01*
X158196229Y-76355129D01*
X158196233Y-76355131D01*
X158230744Y-76373288D01*
X158416827Y-76471191D01*
X158656568Y-76554912D01*
X158906050Y-76602278D01*
X159026532Y-76607011D01*
X159155125Y-76612064D01*
X159155130Y-76612064D01*
X159159793Y-76612247D01*
X159258774Y-76601407D01*
X159407569Y-76585112D01*
X159407575Y-76585111D01*
X159412222Y-76584602D01*
X159472341Y-76568774D01*
X159653273Y-76521138D01*
X159657793Y-76519948D01*
X159776353Y-76469011D01*
X159886807Y-76421557D01*
X159886810Y-76421555D01*
X159891110Y-76419708D01*
X159895090Y-76417245D01*
X159895094Y-76417243D01*
X160103064Y-76288547D01*
X160103066Y-76288545D01*
X160107047Y-76286082D01*
X160158726Y-76242333D01*
X160297289Y-76125031D01*
X160297291Y-76125029D01*
X160300862Y-76122006D01*
X160468295Y-75931084D01*
X160474789Y-75920989D01*
X160603141Y-75721442D01*
X160605669Y-75717512D01*
X160709967Y-75485980D01*
X160778896Y-75241575D01*
X160810943Y-74989667D01*
X160813291Y-74900000D01*
X160794472Y-74646759D01*
X160738428Y-74399082D01*
X160646391Y-74162409D01*
X160625296Y-74125500D01*
X160522702Y-73945997D01*
X160522700Y-73945995D01*
X160520383Y-73941940D01*
X160363171Y-73742517D01*
X160245005Y-73631358D01*
X160181610Y-73571722D01*
X160181608Y-73571720D01*
X160178209Y-73568523D01*
X160076918Y-73498255D01*
X159973393Y-73426437D01*
X159973390Y-73426435D01*
X159969561Y-73423779D01*
X159965384Y-73421719D01*
X159965377Y-73421715D01*
X159745996Y-73313528D01*
X159745992Y-73313527D01*
X159741810Y-73311464D01*
X159721089Y-73304831D01*
X159662309Y-73265015D01*
X159634385Y-73199741D01*
X159633500Y-73184829D01*
X159633500Y-59578768D01*
X159634027Y-59567585D01*
X159635702Y-59560092D01*
X159634975Y-59536944D01*
X159633562Y-59492002D01*
X159633500Y-59488044D01*
X159633500Y-59460144D01*
X159632996Y-59456153D01*
X159632063Y-59444311D01*
X159631832Y-59436944D01*
X159630674Y-59400111D01*
X159628462Y-59392497D01*
X159628461Y-59392492D01*
X159625023Y-59380659D01*
X159621012Y-59361295D01*
X159619467Y-59349064D01*
X159618474Y-59341203D01*
X159615557Y-59333836D01*
X159615556Y-59333831D01*
X159602198Y-59300092D01*
X159598354Y-59288865D01*
X159591499Y-59265271D01*
X159586018Y-59246407D01*
X159575707Y-59228972D01*
X159567012Y-59211224D01*
X159559552Y-59192383D01*
X159540415Y-59166042D01*
X159533564Y-59156613D01*
X159527048Y-59146693D01*
X159508580Y-59115465D01*
X159508578Y-59115462D01*
X159504542Y-59108638D01*
X159490221Y-59094317D01*
X159477380Y-59079283D01*
X159470131Y-59069306D01*
X159465472Y-59062893D01*
X159431395Y-59034702D01*
X159422616Y-59026712D01*
X155838652Y-55442747D01*
X155831112Y-55434461D01*
X155827000Y-55427982D01*
X155807928Y-55410072D01*
X155793316Y-55396350D01*
X155757350Y-55335138D01*
X155760187Y-55264198D01*
X155800927Y-55206054D01*
X155866635Y-55179165D01*
X155879568Y-55178500D01*
X156230406Y-55178500D01*
X156298527Y-55198502D01*
X156319501Y-55215405D01*
X161979595Y-60875500D01*
X162013621Y-60937812D01*
X162016500Y-60964595D01*
X162016500Y-86335405D01*
X161996498Y-86403526D01*
X161979595Y-86424501D01*
X161631239Y-86772856D01*
X161323865Y-87080230D01*
X161323852Y-87080244D01*
X159934639Y-88469456D01*
X159872327Y-88503482D01*
X159807131Y-88500363D01*
X159604405Y-88435470D01*
X159604407Y-88435470D01*
X159599960Y-88434047D01*
X159595355Y-88433297D01*
X159353935Y-88393980D01*
X159353934Y-88393980D01*
X159349323Y-88393229D01*
X159222364Y-88391567D01*
X159100083Y-88389966D01*
X159100080Y-88389966D01*
X159095406Y-88389905D01*
X158843787Y-88424149D01*
X158599993Y-88495208D01*
X158369380Y-88601522D01*
X158365471Y-88604085D01*
X158160928Y-88738189D01*
X158160923Y-88738193D01*
X158157015Y-88740755D01*
X158153523Y-88743872D01*
X157971532Y-88906305D01*
X157967562Y-88909848D01*
X157805183Y-89105087D01*
X157673447Y-89322182D01*
X157671638Y-89326496D01*
X157671637Y-89326498D01*
X157578823Y-89547836D01*
X157575246Y-89556365D01*
X157512738Y-89802490D01*
X157487296Y-90055151D01*
X157487520Y-90059817D01*
X157487520Y-90059822D01*
X157491805Y-90149012D01*
X157499480Y-90308798D01*
X157523319Y-90428643D01*
X157547478Y-90550099D01*
X157549021Y-90557857D01*
X157550600Y-90562255D01*
X157550602Y-90562262D01*
X157596554Y-90690248D01*
X157634831Y-90796858D01*
X157637048Y-90800984D01*
X157743983Y-91000000D01*
X157755025Y-91020551D01*
X157757820Y-91024294D01*
X157757822Y-91024297D01*
X157904171Y-91220282D01*
X157904176Y-91220288D01*
X157906963Y-91224020D01*
X157910272Y-91227300D01*
X157910277Y-91227306D01*
X158055792Y-91371556D01*
X158087307Y-91402797D01*
X158091069Y-91405555D01*
X158091072Y-91405558D01*
X158172785Y-91465472D01*
X158292094Y-91552953D01*
X158296229Y-91555129D01*
X158296233Y-91555131D01*
X158373890Y-91595988D01*
X158516827Y-91671191D01*
X158651160Y-91718102D01*
X158736131Y-91747775D01*
X158756568Y-91754912D01*
X159006050Y-91802278D01*
X159126532Y-91807011D01*
X159255125Y-91812064D01*
X159255130Y-91812064D01*
X159259793Y-91812247D01*
X159358774Y-91801407D01*
X159507569Y-91785112D01*
X159507575Y-91785111D01*
X159512222Y-91784602D01*
X159621680Y-91755784D01*
X159753273Y-91721138D01*
X159757793Y-91719948D01*
X159953883Y-91635702D01*
X159986807Y-91621557D01*
X159986810Y-91621555D01*
X159991110Y-91619708D01*
X159995090Y-91617245D01*
X159995094Y-91617243D01*
X160203064Y-91488547D01*
X160203066Y-91488545D01*
X160207047Y-91486082D01*
X160238608Y-91459364D01*
X160397289Y-91325031D01*
X160397291Y-91325029D01*
X160400862Y-91322006D01*
X160568295Y-91131084D01*
X160580695Y-91111807D01*
X160693668Y-90936169D01*
X160705669Y-90917512D01*
X160809967Y-90685980D01*
X160878896Y-90441575D01*
X160902064Y-90259460D01*
X160910545Y-90192798D01*
X160910545Y-90192792D01*
X160910943Y-90189667D01*
X160913291Y-90100000D01*
X160907620Y-90023681D01*
X160894818Y-89851411D01*
X160894817Y-89851407D01*
X160894472Y-89846759D01*
X160890672Y-89829962D01*
X160843274Y-89620500D01*
X160838428Y-89599082D01*
X160821817Y-89556365D01*
X160800578Y-89501750D01*
X160794531Y-89431011D01*
X160828916Y-89366988D01*
X163042247Y-87153657D01*
X163050537Y-87146113D01*
X163057018Y-87142000D01*
X163103659Y-87092332D01*
X163106413Y-87089491D01*
X163126135Y-87069769D01*
X163128612Y-87066576D01*
X163136317Y-87057555D01*
X163161159Y-87031100D01*
X163166586Y-87025321D01*
X163170407Y-87018371D01*
X163176346Y-87007568D01*
X163187202Y-86991041D01*
X163194757Y-86981302D01*
X163194758Y-86981300D01*
X163199614Y-86975040D01*
X163217174Y-86934460D01*
X163222391Y-86923812D01*
X163239875Y-86892009D01*
X163239876Y-86892007D01*
X163243695Y-86885060D01*
X163248733Y-86865437D01*
X163255137Y-86846734D01*
X163260033Y-86835420D01*
X163260033Y-86835419D01*
X163263181Y-86828145D01*
X163264420Y-86820322D01*
X163264423Y-86820312D01*
X163270099Y-86784476D01*
X163272505Y-86772856D01*
X163281528Y-86737711D01*
X163281528Y-86737710D01*
X163283500Y-86730030D01*
X163283500Y-86709776D01*
X163285051Y-86690065D01*
X163286980Y-86677886D01*
X163288220Y-86670057D01*
X163284059Y-86626038D01*
X163283500Y-86614181D01*
X163283500Y-60728767D01*
X163284027Y-60717584D01*
X163285702Y-60710091D01*
X163284870Y-60683601D01*
X163283562Y-60642001D01*
X163283500Y-60638043D01*
X163283500Y-60610144D01*
X163282996Y-60606153D01*
X163282063Y-60594311D01*
X163280923Y-60558036D01*
X163280674Y-60550111D01*
X163278462Y-60542497D01*
X163278461Y-60542492D01*
X163275023Y-60530659D01*
X163271012Y-60511295D01*
X163269467Y-60499064D01*
X163268474Y-60491203D01*
X163265557Y-60483836D01*
X163265556Y-60483831D01*
X163252198Y-60450092D01*
X163248354Y-60438865D01*
X163238230Y-60404022D01*
X163236018Y-60396407D01*
X163225707Y-60378972D01*
X163217012Y-60361224D01*
X163209552Y-60342383D01*
X163183564Y-60306613D01*
X163177048Y-60296693D01*
X163158580Y-60265465D01*
X163158578Y-60265462D01*
X163154542Y-60258638D01*
X163140221Y-60244317D01*
X163127380Y-60229283D01*
X163120131Y-60219306D01*
X163115472Y-60212893D01*
X163081395Y-60184702D01*
X163072616Y-60176712D01*
X157048652Y-54152747D01*
X157041112Y-54144461D01*
X157037000Y-54137982D01*
X156987348Y-54091356D01*
X156984507Y-54088602D01*
X156964770Y-54068865D01*
X156961573Y-54066385D01*
X156952551Y-54058680D01*
X156926100Y-54033841D01*
X156920321Y-54028414D01*
X156913375Y-54024595D01*
X156913372Y-54024593D01*
X156902566Y-54018652D01*
X156886047Y-54007801D01*
X156883979Y-54006197D01*
X156870041Y-53995386D01*
X156862772Y-53992241D01*
X156862768Y-53992238D01*
X156829463Y-53977826D01*
X156818813Y-53972609D01*
X156780060Y-53951305D01*
X156760437Y-53946267D01*
X156741734Y-53939863D01*
X156730420Y-53934967D01*
X156730419Y-53934967D01*
X156723145Y-53931819D01*
X156715322Y-53930580D01*
X156715312Y-53930577D01*
X156679476Y-53924901D01*
X156667856Y-53922495D01*
X156632711Y-53913472D01*
X156632710Y-53913472D01*
X156625030Y-53911500D01*
X156604776Y-53911500D01*
X156585065Y-53909949D01*
X156572886Y-53908020D01*
X156565057Y-53906780D01*
X156557165Y-53907526D01*
X156521039Y-53910941D01*
X156509181Y-53911500D01*
X136309500Y-53911500D01*
X136241379Y-53891498D01*
X136194886Y-53837842D01*
X136183500Y-53785500D01*
X136183500Y-53703498D01*
X136183236Y-53700142D01*
X136181067Y-53672579D01*
X136181066Y-53672574D01*
X136180562Y-53666169D01*
X136142327Y-53534562D01*
X136136357Y-53514012D01*
X136136356Y-53514010D01*
X136134145Y-53506399D01*
X136090283Y-53432232D01*
X136053491Y-53370020D01*
X136053489Y-53370017D01*
X136049453Y-53363193D01*
X135931807Y-53245547D01*
X135924983Y-53241511D01*
X135924980Y-53241509D01*
X135795427Y-53164892D01*
X135795428Y-53164892D01*
X135788601Y-53160855D01*
X135780990Y-53158644D01*
X135780988Y-53158643D01*
X135728769Y-53143472D01*
X135628831Y-53114438D01*
X135622426Y-53113934D01*
X135622421Y-53113933D01*
X135593958Y-53111693D01*
X135593950Y-53111693D01*
X135591502Y-53111500D01*
X133708498Y-53111500D01*
X133706050Y-53111693D01*
X133706042Y-53111693D01*
X133677579Y-53113933D01*
X133677574Y-53113934D01*
X133671169Y-53114438D01*
X133571231Y-53143472D01*
X133519012Y-53158643D01*
X133519010Y-53158644D01*
X133511399Y-53160855D01*
X133504572Y-53164892D01*
X133504573Y-53164892D01*
X133375020Y-53241509D01*
X133375017Y-53241511D01*
X133368193Y-53245547D01*
X133250547Y-53363193D01*
X133246511Y-53370017D01*
X133246509Y-53370020D01*
X133209717Y-53432232D01*
X133165855Y-53506399D01*
X133163644Y-53514010D01*
X133163643Y-53514012D01*
X133157673Y-53534562D01*
X133119438Y-53666169D01*
X133118934Y-53672574D01*
X133118933Y-53672579D01*
X133116764Y-53700142D01*
X133116500Y-53703498D01*
X133116500Y-53785500D01*
X133096498Y-53853621D01*
X133042842Y-53900114D01*
X132990500Y-53911500D01*
X127009500Y-53911500D01*
X126941379Y-53891498D01*
X126894886Y-53837842D01*
X126883500Y-53785500D01*
X126883500Y-53703498D01*
X126883236Y-53700142D01*
X126881067Y-53672579D01*
X126881066Y-53672574D01*
X126880562Y-53666169D01*
X126842327Y-53534562D01*
X126836357Y-53514012D01*
X126836356Y-53514010D01*
X126834145Y-53506399D01*
X126790283Y-53432232D01*
X126753491Y-53370020D01*
X126753489Y-53370017D01*
X126749453Y-53363193D01*
X126631807Y-53245547D01*
X126624983Y-53241511D01*
X126624980Y-53241509D01*
X126495427Y-53164892D01*
X126495428Y-53164892D01*
X126488601Y-53160855D01*
X126480990Y-53158644D01*
X126480988Y-53158643D01*
X126428769Y-53143472D01*
X126328831Y-53114438D01*
X126322426Y-53113934D01*
X126322421Y-53113933D01*
X126293958Y-53111693D01*
X126293950Y-53111693D01*
X126291502Y-53111500D01*
X125489595Y-53111500D01*
X125421474Y-53091498D01*
X125400500Y-53074595D01*
X124933652Y-52607747D01*
X124926112Y-52599461D01*
X124922000Y-52592982D01*
X124872348Y-52546356D01*
X124869507Y-52543602D01*
X124849770Y-52523865D01*
X124846573Y-52521385D01*
X124837551Y-52513680D01*
X124811100Y-52488841D01*
X124805321Y-52483414D01*
X124798375Y-52479595D01*
X124798372Y-52479593D01*
X124787566Y-52473652D01*
X124771047Y-52462801D01*
X124770583Y-52462441D01*
X124755041Y-52450386D01*
X124747772Y-52447241D01*
X124747768Y-52447238D01*
X124714463Y-52432826D01*
X124703813Y-52427609D01*
X124665060Y-52406305D01*
X124645437Y-52401267D01*
X124626734Y-52394863D01*
X124615420Y-52389967D01*
X124615419Y-52389967D01*
X124608145Y-52386819D01*
X124600322Y-52385580D01*
X124600312Y-52385577D01*
X124564476Y-52379901D01*
X124552856Y-52377495D01*
X124517711Y-52368472D01*
X124517710Y-52368472D01*
X124510030Y-52366500D01*
X124489776Y-52366500D01*
X124470065Y-52364949D01*
X124457886Y-52363020D01*
X124450057Y-52361780D01*
X124442165Y-52362526D01*
X124406039Y-52365941D01*
X124394181Y-52366500D01*
X123515347Y-52366500D01*
X123447226Y-52346498D01*
X123400733Y-52292842D01*
X123390629Y-52222568D01*
X123421709Y-52156192D01*
X123439040Y-52136944D01*
X123534527Y-51971556D01*
X123593542Y-51789928D01*
X123613504Y-51600000D01*
X123593542Y-51410072D01*
X123534527Y-51228444D01*
X123439040Y-51063056D01*
X123422881Y-51045109D01*
X123315675Y-50926045D01*
X123315674Y-50926044D01*
X123311253Y-50921134D01*
X123156752Y-50808882D01*
X123150724Y-50806198D01*
X123150722Y-50806197D01*
X122988319Y-50733891D01*
X122988318Y-50733891D01*
X122982288Y-50731206D01*
X122888887Y-50711353D01*
X122801944Y-50692872D01*
X122801939Y-50692872D01*
X122795487Y-50691500D01*
X122604513Y-50691500D01*
X122598061Y-50692872D01*
X122598056Y-50692872D01*
X122511112Y-50711353D01*
X122417712Y-50731206D01*
X122411682Y-50733891D01*
X122411681Y-50733891D01*
X122249278Y-50806197D01*
X122249276Y-50806198D01*
X122243248Y-50808882D01*
X122088747Y-50921134D01*
X122084332Y-50926037D01*
X122079420Y-50930460D01*
X122078295Y-50929211D01*
X122024986Y-50962051D01*
X121991800Y-50966500D01*
X107778767Y-50966500D01*
X107767584Y-50965973D01*
X107760091Y-50964298D01*
X107752165Y-50964547D01*
X107752164Y-50964547D01*
X107692014Y-50966438D01*
X107688055Y-50966500D01*
X107660144Y-50966500D01*
X107656210Y-50966997D01*
X107656209Y-50966997D01*
X107656144Y-50967005D01*
X107644307Y-50967938D01*
X107612490Y-50968938D01*
X107608029Y-50969078D01*
X107600110Y-50969327D01*
X107582454Y-50974456D01*
X107580658Y-50974978D01*
X107561306Y-50978986D01*
X107554235Y-50979880D01*
X107541203Y-50981526D01*
X107533834Y-50984443D01*
X107533832Y-50984444D01*
X107500097Y-50997800D01*
X107488869Y-51001645D01*
X107446407Y-51013982D01*
X107439585Y-51018016D01*
X107439579Y-51018019D01*
X107428968Y-51024294D01*
X107411218Y-51032990D01*
X107399756Y-51037528D01*
X107399751Y-51037531D01*
X107392383Y-51040448D01*
X107385968Y-51045109D01*
X107356625Y-51066427D01*
X107346707Y-51072943D01*
X107328019Y-51083995D01*
X107308637Y-51095458D01*
X107294313Y-51109782D01*
X107279281Y-51122621D01*
X107262893Y-51134528D01*
X107234712Y-51168593D01*
X107226722Y-51177373D01*
X105157747Y-53246348D01*
X105149461Y-53253888D01*
X105142982Y-53258000D01*
X105137557Y-53263777D01*
X105096357Y-53307651D01*
X105093602Y-53310493D01*
X105073865Y-53330230D01*
X105071385Y-53333427D01*
X105063682Y-53342447D01*
X105033414Y-53374679D01*
X105029595Y-53381625D01*
X105029593Y-53381628D01*
X105023652Y-53392434D01*
X105012801Y-53408953D01*
X105000386Y-53424959D01*
X104997241Y-53432228D01*
X104997238Y-53432232D01*
X104982826Y-53465537D01*
X104977609Y-53476187D01*
X104956305Y-53514940D01*
X104954334Y-53522615D01*
X104954334Y-53522616D01*
X104951267Y-53534562D01*
X104944863Y-53553266D01*
X104936819Y-53571855D01*
X104935580Y-53579678D01*
X104935577Y-53579688D01*
X104929901Y-53615524D01*
X104927495Y-53627144D01*
X104925124Y-53636379D01*
X104916500Y-53669970D01*
X104916500Y-53690224D01*
X104914949Y-53709934D01*
X104911780Y-53729943D01*
X104912526Y-53737835D01*
X104915941Y-53773961D01*
X104916500Y-53785819D01*
X104916500Y-57932984D01*
X104915973Y-57944167D01*
X104914298Y-57951660D01*
X104914547Y-57959586D01*
X104914547Y-57959587D01*
X104916438Y-58019737D01*
X104916500Y-58023696D01*
X104916500Y-58051607D01*
X104916997Y-58055541D01*
X104916997Y-58055542D01*
X104917005Y-58055607D01*
X104917938Y-58067444D01*
X104919327Y-58111640D01*
X104924613Y-58129834D01*
X104924978Y-58131090D01*
X104928987Y-58150451D01*
X104929793Y-58156827D01*
X104931526Y-58170548D01*
X104934445Y-58177919D01*
X104934445Y-58177921D01*
X104947804Y-58211663D01*
X104951649Y-58222893D01*
X104957157Y-58241852D01*
X104963982Y-58265344D01*
X104968015Y-58272163D01*
X104968017Y-58272168D01*
X104974293Y-58282779D01*
X104982988Y-58300527D01*
X104990448Y-58319368D01*
X104995110Y-58325784D01*
X104995110Y-58325785D01*
X105016436Y-58355138D01*
X105022952Y-58365058D01*
X105033415Y-58382749D01*
X105045458Y-58403113D01*
X105059779Y-58417434D01*
X105072619Y-58432467D01*
X105084528Y-58448858D01*
X105104159Y-58465098D01*
X105118605Y-58477049D01*
X105127384Y-58485039D01*
X105295974Y-58653629D01*
X105330000Y-58715941D01*
X105324935Y-58786756D01*
X105280944Y-58844657D01*
X105273017Y-58850417D01*
X105271628Y-58851426D01*
X105261701Y-58857947D01*
X105230460Y-58876422D01*
X105230455Y-58876426D01*
X105223637Y-58880458D01*
X105209313Y-58894782D01*
X105194281Y-58907621D01*
X105177893Y-58919528D01*
X105162083Y-58938639D01*
X105149712Y-58953593D01*
X105141722Y-58962373D01*
X102607747Y-61496348D01*
X102599461Y-61503888D01*
X102592982Y-61508000D01*
X102587557Y-61513777D01*
X102546357Y-61557651D01*
X102543602Y-61560493D01*
X102523865Y-61580230D01*
X102521385Y-61583427D01*
X102513682Y-61592447D01*
X102483414Y-61624679D01*
X102479595Y-61631625D01*
X102479593Y-61631628D01*
X102473652Y-61642434D01*
X102462801Y-61658953D01*
X102450386Y-61674959D01*
X102447241Y-61682228D01*
X102447238Y-61682232D01*
X102432826Y-61715537D01*
X102427609Y-61726187D01*
X102406305Y-61764940D01*
X102404334Y-61772615D01*
X102404334Y-61772616D01*
X102401267Y-61784562D01*
X102394863Y-61803266D01*
X102386819Y-61821855D01*
X102385580Y-61829678D01*
X102385577Y-61829688D01*
X102379901Y-61865524D01*
X102377495Y-61877144D01*
X102366500Y-61919970D01*
X102366500Y-61940224D01*
X102364949Y-61959934D01*
X102361780Y-61979943D01*
X102362526Y-61987835D01*
X102365941Y-62023961D01*
X102366500Y-62035819D01*
X102366500Y-92297476D01*
X102346498Y-92365597D01*
X102334142Y-92381779D01*
X102260960Y-92463056D01*
X102165473Y-92628444D01*
X102106458Y-92810072D01*
X102105768Y-92816633D01*
X102105768Y-92816635D01*
X102099063Y-92880427D01*
X102086496Y-93000000D01*
X100738536Y-93000000D01*
X100738536Y-47685324D01*
X100758538Y-47617203D01*
X100812194Y-47570710D01*
X100882468Y-47560606D01*
X100947048Y-47590100D01*
X100969118Y-47615047D01*
X101019085Y-47689407D01*
X101253405Y-47967670D01*
X101280141Y-47993219D01*
X101513944Y-48216647D01*
X101513951Y-48216653D01*
X101516407Y-48219000D01*
X101805013Y-48440456D01*
X101807931Y-48442230D01*
X102112934Y-48627675D01*
X102112939Y-48627678D01*
X102115849Y-48629447D01*
X102118937Y-48630893D01*
X102118936Y-48630893D01*
X102442194Y-48782319D01*
X102442204Y-48782323D01*
X102445278Y-48783763D01*
X102448496Y-48784865D01*
X102448499Y-48784866D01*
X102786223Y-48900495D01*
X102786231Y-48900497D01*
X102789446Y-48901598D01*
X103144326Y-48981574D01*
X103197365Y-48987617D01*
X103502386Y-49022370D01*
X103502394Y-49022370D01*
X103505769Y-49022755D01*
X103509173Y-49022773D01*
X103509176Y-49022773D01*
X103707300Y-49023810D01*
X103869545Y-49024660D01*
X103872931Y-49024310D01*
X103872933Y-49024310D01*
X104228007Y-48987617D01*
X104228016Y-48987616D01*
X104231399Y-48987266D01*
X104234732Y-48986552D01*
X104234735Y-48986551D01*
X104345137Y-48962883D01*
X104587098Y-48911010D01*
X104932481Y-48796786D01*
X104935565Y-48795380D01*
X104935574Y-48795377D01*
X105260413Y-48647338D01*
X105263507Y-48645928D01*
X105307518Y-48619796D01*
X105573370Y-48461946D01*
X105573374Y-48461943D01*
X105576305Y-48460203D01*
X105867215Y-48241781D01*
X106132834Y-47993219D01*
X106370055Y-47717424D01*
X106481603Y-47555121D01*
X106574173Y-47420432D01*
X106574178Y-47420424D01*
X106576103Y-47417623D01*
X106577715Y-47414629D01*
X106577720Y-47414621D01*
X106746945Y-47100334D01*
X106748567Y-47097322D01*
X106885430Y-46760269D01*
X106985092Y-46410406D01*
X107046385Y-46051825D01*
X107048527Y-46016816D01*
X107068483Y-45690520D01*
X107068593Y-45688723D01*
X107068675Y-45665242D01*
X107049002Y-45301993D01*
X106990214Y-44942994D01*
X106892998Y-44592444D01*
X106888573Y-44581323D01*
X106759750Y-44257607D01*
X106758491Y-44254443D01*
X106727932Y-44196727D01*
X106589866Y-43935965D01*
X106589862Y-43935958D01*
X106588267Y-43932946D01*
X106586360Y-43930130D01*
X106586355Y-43930121D01*
X106386227Y-43634534D01*
X106384317Y-43631713D01*
X106149027Y-43354269D01*
X105885150Y-43103859D01*
X105617510Y-42899972D01*
X105575443Y-42842780D01*
X105570974Y-42771924D01*
X105605522Y-42709900D01*
X105668118Y-42676401D01*
X105693865Y-42673742D01*
X158717479Y-42673742D01*
X158785600Y-42693744D01*
G37*
%TD.AperFunction*%
%TA.AperFunction,Conductor*%
G36*
X130683527Y-90583502D02*
G01*
X130704501Y-90600405D01*
X132081144Y-91977048D01*
X132115170Y-92039360D01*
X132117660Y-92056255D01*
X132118932Y-92072412D01*
X132118933Y-92072420D01*
X132119438Y-92078831D01*
X132154638Y-92199992D01*
X132156194Y-92205347D01*
X132155991Y-92276344D01*
X132117437Y-92335960D01*
X132052772Y-92365268D01*
X132035197Y-92366500D01*
X131708200Y-92366500D01*
X131640079Y-92346498D01*
X131620853Y-92330157D01*
X131620580Y-92330460D01*
X131615668Y-92326037D01*
X131611253Y-92321134D01*
X131456752Y-92208882D01*
X131450724Y-92206198D01*
X131450722Y-92206197D01*
X131288319Y-92133891D01*
X131288318Y-92133891D01*
X131282288Y-92131206D01*
X131188888Y-92111353D01*
X131101944Y-92092872D01*
X131101939Y-92092872D01*
X131095487Y-92091500D01*
X130904513Y-92091500D01*
X130898061Y-92092872D01*
X130898056Y-92092872D01*
X130811112Y-92111353D01*
X130717712Y-92131206D01*
X130711682Y-92133891D01*
X130711681Y-92133891D01*
X130549278Y-92206197D01*
X130549276Y-92206198D01*
X130543248Y-92208882D01*
X130388747Y-92321134D01*
X130384326Y-92326044D01*
X130384325Y-92326045D01*
X130283132Y-92438432D01*
X130260960Y-92463056D01*
X130165473Y-92628444D01*
X130106458Y-92810072D01*
X130105768Y-92816633D01*
X130105768Y-92816635D01*
X130099063Y-92880427D01*
X130086496Y-93000000D01*
X130087186Y-93006565D01*
X130102628Y-93153484D01*
X130106458Y-93189928D01*
X130165473Y-93371556D01*
X130168776Y-93377278D01*
X130168777Y-93377279D01*
X130185792Y-93406749D01*
X130260960Y-93536944D01*
X130265378Y-93541851D01*
X130265379Y-93541852D01*
X130380350Y-93669540D01*
X130388747Y-93678866D01*
X130480829Y-93745768D01*
X130505087Y-93763392D01*
X130543248Y-93791118D01*
X130549276Y-93793802D01*
X130549278Y-93793803D01*
X130676416Y-93850408D01*
X130717712Y-93868794D01*
X130811113Y-93888647D01*
X130898056Y-93907128D01*
X130898061Y-93907128D01*
X130904513Y-93908500D01*
X131095487Y-93908500D01*
X131101939Y-93907128D01*
X131101944Y-93907128D01*
X131188887Y-93888647D01*
X131282288Y-93868794D01*
X131323584Y-93850408D01*
X131450722Y-93793803D01*
X131450724Y-93793802D01*
X131456752Y-93791118D01*
X131494914Y-93763392D01*
X131600733Y-93686509D01*
X131611253Y-93678866D01*
X131615668Y-93673963D01*
X131620580Y-93669540D01*
X131621705Y-93670789D01*
X131675014Y-93637949D01*
X131708200Y-93633500D01*
X132132959Y-93633500D01*
X132201080Y-93653502D01*
X132247573Y-93707158D01*
X132257677Y-93777432D01*
X132241414Y-93823636D01*
X132165855Y-93951399D01*
X132119438Y-94111169D01*
X132118934Y-94117574D01*
X132118933Y-94117579D01*
X132116885Y-94143601D01*
X132116500Y-94148498D01*
X132116500Y-94581502D01*
X132116693Y-94583950D01*
X132116693Y-94583958D01*
X132117485Y-94594012D01*
X132119438Y-94618831D01*
X132145361Y-94708059D01*
X132162202Y-94766026D01*
X132165855Y-94778601D01*
X132250547Y-94921807D01*
X132253229Y-94924489D01*
X132278502Y-94988861D01*
X132264600Y-95058484D01*
X132254428Y-95074312D01*
X132250547Y-95078193D01*
X132165855Y-95221399D01*
X132119438Y-95381169D01*
X132118934Y-95387574D01*
X132118933Y-95387579D01*
X132116885Y-95413601D01*
X132116500Y-95418498D01*
X132116500Y-95520500D01*
X132096498Y-95588621D01*
X132042842Y-95635114D01*
X131990500Y-95646500D01*
X129798768Y-95646500D01*
X129787585Y-95645973D01*
X129780092Y-95644298D01*
X129772166Y-95644547D01*
X129772165Y-95644547D01*
X129712002Y-95646438D01*
X129708044Y-95646500D01*
X129680144Y-95646500D01*
X129676154Y-95647004D01*
X129664320Y-95647936D01*
X129620111Y-95649326D01*
X129612497Y-95651538D01*
X129612492Y-95651539D01*
X129600659Y-95654977D01*
X129581296Y-95658988D01*
X129561203Y-95661526D01*
X129553836Y-95664443D01*
X129553831Y-95664444D01*
X129520092Y-95677802D01*
X129508865Y-95681646D01*
X129466407Y-95693982D01*
X129459581Y-95698019D01*
X129448972Y-95704293D01*
X129431224Y-95712988D01*
X129412383Y-95720448D01*
X129405967Y-95725110D01*
X129405966Y-95725110D01*
X129376613Y-95746436D01*
X129366693Y-95752952D01*
X129335465Y-95771420D01*
X129335462Y-95771422D01*
X129328638Y-95775458D01*
X129314317Y-95789779D01*
X129299284Y-95802619D01*
X129282893Y-95814528D01*
X129277840Y-95820636D01*
X129254708Y-95848598D01*
X129246718Y-95857378D01*
X129049501Y-96054595D01*
X128987189Y-96088621D01*
X128960406Y-96091500D01*
X128904513Y-96091500D01*
X128898061Y-96092872D01*
X128898056Y-96092872D01*
X128812138Y-96111135D01*
X128717712Y-96131206D01*
X128711682Y-96133891D01*
X128711681Y-96133891D01*
X128549278Y-96206197D01*
X128549276Y-96206198D01*
X128543248Y-96208882D01*
X128537907Y-96212762D01*
X128537906Y-96212763D01*
X128505629Y-96236214D01*
X128388747Y-96321134D01*
X128384326Y-96326044D01*
X128384325Y-96326045D01*
X128281214Y-96440562D01*
X128260960Y-96463056D01*
X128225859Y-96523852D01*
X128169154Y-96622069D01*
X128165473Y-96628444D01*
X128106458Y-96810072D01*
X128105768Y-96816633D01*
X128105768Y-96816635D01*
X128099705Y-96874323D01*
X128086496Y-97000000D01*
X128087186Y-97006565D01*
X128093840Y-97069870D01*
X128106458Y-97189928D01*
X128165473Y-97371556D01*
X128260960Y-97536944D01*
X128388747Y-97678866D01*
X128543248Y-97791118D01*
X128549276Y-97793802D01*
X128549278Y-97793803D01*
X128600560Y-97816635D01*
X128717712Y-97868794D01*
X128811112Y-97888647D01*
X128898056Y-97907128D01*
X128898061Y-97907128D01*
X128904513Y-97908500D01*
X129095487Y-97908500D01*
X129101939Y-97907128D01*
X129101944Y-97907128D01*
X129188888Y-97888647D01*
X129282288Y-97868794D01*
X129399440Y-97816635D01*
X129450722Y-97793803D01*
X129450724Y-97793802D01*
X129456752Y-97791118D01*
X129611253Y-97678866D01*
X129739040Y-97536944D01*
X129834527Y-97371556D01*
X129893542Y-97189928D01*
X129906161Y-97069870D01*
X129910737Y-97026329D01*
X129937750Y-96960673D01*
X129995972Y-96920043D01*
X130036047Y-96913500D01*
X136380101Y-96913500D01*
X136448222Y-96933502D01*
X136469192Y-96950401D01*
X137441054Y-97922264D01*
X137448583Y-97930538D01*
X137452695Y-97937018D01*
X137458472Y-97942443D01*
X137502346Y-97983643D01*
X137505188Y-97986398D01*
X137524925Y-98006135D01*
X137528122Y-98008615D01*
X137537142Y-98016318D01*
X137569374Y-98046586D01*
X137576320Y-98050405D01*
X137576323Y-98050407D01*
X137587129Y-98056348D01*
X137603648Y-98067199D01*
X137619654Y-98079614D01*
X137626923Y-98082759D01*
X137626927Y-98082762D01*
X137660232Y-98097174D01*
X137670882Y-98102391D01*
X137709635Y-98123695D01*
X137728821Y-98128621D01*
X137729257Y-98128733D01*
X137747962Y-98135137D01*
X137766550Y-98143181D01*
X137774373Y-98144420D01*
X137774383Y-98144423D01*
X137810219Y-98150099D01*
X137821839Y-98152505D01*
X137856984Y-98161528D01*
X137864665Y-98163500D01*
X137884919Y-98163500D01*
X137904629Y-98165051D01*
X137924638Y-98168220D01*
X137932530Y-98167474D01*
X137968656Y-98164059D01*
X137980514Y-98163500D01*
X140190500Y-98163500D01*
X140258621Y-98183502D01*
X140305114Y-98237158D01*
X140316500Y-98289500D01*
X140316500Y-98391502D01*
X140316693Y-98393950D01*
X140316693Y-98393958D01*
X140317868Y-98408882D01*
X140319438Y-98428831D01*
X140321233Y-98435008D01*
X140352261Y-98541808D01*
X140365855Y-98588601D01*
X140450547Y-98731807D01*
X140453229Y-98734489D01*
X140478502Y-98798861D01*
X140464600Y-98868484D01*
X140454428Y-98884312D01*
X140450547Y-98888193D01*
X140365855Y-99031399D01*
X140319438Y-99191169D01*
X140318934Y-99197574D01*
X140318933Y-99197579D01*
X140316885Y-99223601D01*
X140316500Y-99228498D01*
X140316500Y-99310500D01*
X140296498Y-99378621D01*
X140242842Y-99425114D01*
X140190500Y-99436500D01*
X135309500Y-99436500D01*
X135241379Y-99416498D01*
X135194886Y-99362842D01*
X135183500Y-99310500D01*
X135183500Y-99228498D01*
X135183115Y-99223601D01*
X135181067Y-99197579D01*
X135181066Y-99197574D01*
X135180562Y-99191169D01*
X135134145Y-99031399D01*
X135092663Y-98961257D01*
X135053491Y-98895020D01*
X135053489Y-98895017D01*
X135049453Y-98888193D01*
X134931807Y-98770547D01*
X134924983Y-98766511D01*
X134924980Y-98766509D01*
X134795427Y-98689892D01*
X134795428Y-98689892D01*
X134788601Y-98685855D01*
X134780990Y-98683644D01*
X134780988Y-98683643D01*
X134728769Y-98668472D01*
X134628831Y-98639438D01*
X134622426Y-98638934D01*
X134622421Y-98638933D01*
X134593958Y-98636693D01*
X134593950Y-98636693D01*
X134591502Y-98636500D01*
X132708498Y-98636500D01*
X132706050Y-98636693D01*
X132706042Y-98636693D01*
X132677579Y-98638933D01*
X132677574Y-98638934D01*
X132671169Y-98639438D01*
X132571231Y-98668472D01*
X132519012Y-98683643D01*
X132519010Y-98683644D01*
X132511399Y-98685855D01*
X132504572Y-98689892D01*
X132504573Y-98689892D01*
X132375020Y-98766509D01*
X132375017Y-98766511D01*
X132368193Y-98770547D01*
X132362585Y-98776155D01*
X132356325Y-98781011D01*
X132355156Y-98779504D01*
X132301833Y-98808621D01*
X132275050Y-98811500D01*
X129997490Y-98811500D01*
X129929369Y-98791498D01*
X129888371Y-98748500D01*
X129864510Y-98707171D01*
X129839040Y-98663056D01*
X129822429Y-98644607D01*
X129715675Y-98526045D01*
X129715674Y-98526044D01*
X129711253Y-98521134D01*
X129556752Y-98408882D01*
X129550724Y-98406198D01*
X129550722Y-98406197D01*
X129388319Y-98333891D01*
X129388318Y-98333891D01*
X129382288Y-98331206D01*
X129288887Y-98311353D01*
X129201944Y-98292872D01*
X129201939Y-98292872D01*
X129195487Y-98291500D01*
X129004513Y-98291500D01*
X128998061Y-98292872D01*
X128998056Y-98292872D01*
X128911113Y-98311353D01*
X128817712Y-98331206D01*
X128811682Y-98333891D01*
X128811681Y-98333891D01*
X128649278Y-98406197D01*
X128649276Y-98406198D01*
X128643248Y-98408882D01*
X128488747Y-98521134D01*
X128484326Y-98526044D01*
X128484325Y-98526045D01*
X128377572Y-98644607D01*
X128360960Y-98663056D01*
X128306830Y-98756811D01*
X128269691Y-98821139D01*
X128265473Y-98828444D01*
X128206458Y-99010072D01*
X128205768Y-99016633D01*
X128205768Y-99016635D01*
X128199320Y-99077984D01*
X128186496Y-99200000D01*
X128196529Y-99295451D01*
X128196726Y-99297329D01*
X128183954Y-99367168D01*
X128135452Y-99419014D01*
X128071416Y-99436500D01*
X126009500Y-99436500D01*
X125941379Y-99416498D01*
X125894886Y-99362842D01*
X125883500Y-99310500D01*
X125883500Y-99228498D01*
X125883115Y-99223601D01*
X125881067Y-99197579D01*
X125881066Y-99197574D01*
X125880562Y-99191169D01*
X125834145Y-99031399D01*
X125749453Y-98888193D01*
X125746771Y-98885511D01*
X125721498Y-98821139D01*
X125735400Y-98751516D01*
X125745572Y-98735688D01*
X125749453Y-98731807D01*
X125834145Y-98588601D01*
X125847740Y-98541808D01*
X125878767Y-98435008D01*
X125880562Y-98428831D01*
X125882133Y-98408882D01*
X125883307Y-98393958D01*
X125883307Y-98393950D01*
X125883500Y-98391502D01*
X125883500Y-98016345D01*
X125903502Y-97948224D01*
X125920405Y-97927250D01*
X126641459Y-97206197D01*
X127392253Y-96455403D01*
X127400539Y-96447863D01*
X127407018Y-96443751D01*
X127453644Y-96394099D01*
X127456398Y-96391258D01*
X127476135Y-96371521D01*
X127478615Y-96368324D01*
X127486320Y-96359302D01*
X127511159Y-96332851D01*
X127516586Y-96327072D01*
X127520405Y-96320126D01*
X127520407Y-96320123D01*
X127526348Y-96309317D01*
X127537199Y-96292798D01*
X127544758Y-96283052D01*
X127549614Y-96276792D01*
X127552759Y-96269523D01*
X127552762Y-96269519D01*
X127567174Y-96236214D01*
X127572391Y-96225564D01*
X127593695Y-96186811D01*
X127598733Y-96167188D01*
X127605137Y-96148485D01*
X127610033Y-96137171D01*
X127610033Y-96137170D01*
X127613181Y-96129896D01*
X127614420Y-96122073D01*
X127614423Y-96122063D01*
X127620099Y-96086227D01*
X127622505Y-96074607D01*
X127631528Y-96039462D01*
X127631528Y-96039461D01*
X127633500Y-96031781D01*
X127633500Y-96011527D01*
X127635051Y-95991816D01*
X127636980Y-95979637D01*
X127638220Y-95971808D01*
X127634059Y-95927789D01*
X127633500Y-95915932D01*
X127633500Y-93314594D01*
X127653502Y-93246473D01*
X127670405Y-93225499D01*
X128950500Y-91945405D01*
X129012812Y-91911379D01*
X129039595Y-91908500D01*
X129095487Y-91908500D01*
X129101939Y-91907128D01*
X129101944Y-91907128D01*
X129213177Y-91883484D01*
X129282288Y-91868794D01*
X129355633Y-91836139D01*
X129450722Y-91793803D01*
X129450724Y-91793802D01*
X129456752Y-91791118D01*
X129465721Y-91784602D01*
X129553071Y-91721138D01*
X129611253Y-91678866D01*
X129619650Y-91669540D01*
X129734621Y-91541852D01*
X129734622Y-91541851D01*
X129739040Y-91536944D01*
X129834527Y-91371556D01*
X129893542Y-91189928D01*
X129899052Y-91137509D01*
X129912814Y-91006565D01*
X129913504Y-91000000D01*
X129904834Y-90917512D01*
X129894232Y-90816635D01*
X129894232Y-90816633D01*
X129893542Y-90810072D01*
X129880208Y-90769033D01*
X129867017Y-90728436D01*
X129864990Y-90657468D01*
X129901652Y-90596670D01*
X129965364Y-90565345D01*
X129986850Y-90563500D01*
X130615406Y-90563500D01*
X130683527Y-90583502D01*
G37*
%TD.AperFunction*%
%TA.AperFunction,Conductor*%
G36*
X144842012Y-92746619D02*
G01*
X144848595Y-92752748D01*
X146853094Y-94757247D01*
X146860638Y-94765537D01*
X146864751Y-94772018D01*
X146870528Y-94777443D01*
X146914418Y-94818658D01*
X146917260Y-94821413D01*
X146936982Y-94841135D01*
X146940106Y-94843558D01*
X146940110Y-94843562D01*
X146940175Y-94843612D01*
X146949196Y-94851317D01*
X146981430Y-94881586D01*
X146988378Y-94885405D01*
X146988380Y-94885407D01*
X146999183Y-94891346D01*
X147015710Y-94902202D01*
X147025449Y-94909757D01*
X147025451Y-94909758D01*
X147031711Y-94914614D01*
X147072291Y-94932174D01*
X147082939Y-94937391D01*
X147101344Y-94947509D01*
X147121691Y-94958695D01*
X147129367Y-94960666D01*
X147129370Y-94960667D01*
X147141313Y-94963733D01*
X147160018Y-94970137D01*
X147178606Y-94978181D01*
X147186429Y-94979420D01*
X147186439Y-94979423D01*
X147222275Y-94985099D01*
X147233895Y-94987505D01*
X147269040Y-94996528D01*
X147276721Y-94998500D01*
X147296975Y-94998500D01*
X147316685Y-95000051D01*
X147336694Y-95003220D01*
X147344586Y-95002474D01*
X147380712Y-94999059D01*
X147392570Y-94998500D01*
X149576776Y-94998500D01*
X149644897Y-95018502D01*
X149691390Y-95072158D01*
X149701494Y-95142432D01*
X149685231Y-95188636D01*
X149665855Y-95221399D01*
X149619438Y-95381169D01*
X149618934Y-95387574D01*
X149618933Y-95387579D01*
X149616885Y-95413601D01*
X149616500Y-95418498D01*
X149616500Y-95851502D01*
X149616693Y-95853950D01*
X149616693Y-95853958D01*
X149618597Y-95878144D01*
X149619438Y-95888831D01*
X149665855Y-96048601D01*
X149669892Y-96055427D01*
X149746509Y-96184980D01*
X149746511Y-96184983D01*
X149750547Y-96191807D01*
X149868193Y-96309453D01*
X149875017Y-96313489D01*
X149875020Y-96313491D01*
X149952483Y-96359302D01*
X150011399Y-96394145D01*
X150019010Y-96396356D01*
X150019012Y-96396357D01*
X150071231Y-96411528D01*
X150171169Y-96440562D01*
X150177574Y-96441066D01*
X150177579Y-96441067D01*
X150206042Y-96443307D01*
X150206050Y-96443307D01*
X150208498Y-96443500D01*
X151740500Y-96443500D01*
X151808621Y-96463502D01*
X151855114Y-96517158D01*
X151866500Y-96569500D01*
X151866500Y-98060500D01*
X151846498Y-98128621D01*
X151792842Y-98175114D01*
X151740500Y-98186500D01*
X143509500Y-98186500D01*
X143441379Y-98166498D01*
X143394886Y-98112842D01*
X143383500Y-98060500D01*
X143383500Y-98016345D01*
X143403502Y-97948224D01*
X143420405Y-97927250D01*
X144392247Y-96955408D01*
X144400537Y-96947864D01*
X144407018Y-96943751D01*
X144427889Y-96921526D01*
X144453658Y-96894084D01*
X144456413Y-96891242D01*
X144476134Y-96871521D01*
X144478612Y-96868326D01*
X144486318Y-96859304D01*
X144511158Y-96832852D01*
X144516586Y-96827072D01*
X144526346Y-96809319D01*
X144537199Y-96792796D01*
X144544753Y-96783057D01*
X144549613Y-96776792D01*
X144567176Y-96736208D01*
X144572383Y-96725578D01*
X144593695Y-96686811D01*
X144595666Y-96679134D01*
X144595668Y-96679129D01*
X144598732Y-96667193D01*
X144605138Y-96648481D01*
X144610034Y-96637168D01*
X144613181Y-96629896D01*
X144620097Y-96586232D01*
X144622504Y-96574611D01*
X144631528Y-96539462D01*
X144631528Y-96539461D01*
X144633500Y-96531781D01*
X144633500Y-96511520D01*
X144635051Y-96491809D01*
X144636979Y-96479636D01*
X144638219Y-96471808D01*
X144634059Y-96427797D01*
X144633500Y-96415940D01*
X144633500Y-92841843D01*
X144653502Y-92773722D01*
X144707158Y-92727229D01*
X144777432Y-92717125D01*
X144842012Y-92746619D01*
G37*
%TD.AperFunction*%
%TA.AperFunction,Conductor*%
G36*
X110942012Y-68338370D02*
G01*
X110948595Y-68344499D01*
X116729595Y-74125500D01*
X116763621Y-74187812D01*
X116766500Y-74214595D01*
X116766500Y-81821233D01*
X116765973Y-81832416D01*
X116764298Y-81839909D01*
X116764547Y-81847835D01*
X116764547Y-81847836D01*
X116766438Y-81907986D01*
X116766500Y-81911945D01*
X116766500Y-81939856D01*
X116766997Y-81943790D01*
X116766997Y-81943791D01*
X116767005Y-81943856D01*
X116767938Y-81955693D01*
X116769327Y-81999889D01*
X116772400Y-82010465D01*
X116774978Y-82019339D01*
X116778987Y-82038700D01*
X116781526Y-82058797D01*
X116784445Y-82066168D01*
X116784445Y-82066170D01*
X116797804Y-82099912D01*
X116801649Y-82111142D01*
X116808459Y-82134583D01*
X116813982Y-82153593D01*
X116818015Y-82160412D01*
X116818017Y-82160417D01*
X116824293Y-82171028D01*
X116832988Y-82188776D01*
X116840448Y-82207617D01*
X116845110Y-82214033D01*
X116845110Y-82214034D01*
X116866436Y-82243387D01*
X116872952Y-82253307D01*
X116895458Y-82291362D01*
X116909779Y-82305683D01*
X116922619Y-82320716D01*
X116934528Y-82337107D01*
X116956331Y-82355144D01*
X116968605Y-82365298D01*
X116977384Y-82373288D01*
X123685500Y-89081405D01*
X123719526Y-89143717D01*
X123714461Y-89214532D01*
X123671914Y-89271368D01*
X123605394Y-89296179D01*
X123596405Y-89296500D01*
X112844594Y-89296500D01*
X112776473Y-89276498D01*
X112755499Y-89259595D01*
X110270405Y-86774500D01*
X110236379Y-86712188D01*
X110233500Y-86685405D01*
X110233500Y-81509594D01*
X110253502Y-81441473D01*
X110270405Y-81420499D01*
X111627576Y-80063328D01*
X111689888Y-80029302D01*
X111749281Y-80030716D01*
X111775312Y-80037691D01*
X111775319Y-80037692D01*
X111780629Y-80039115D01*
X112000000Y-80058307D01*
X112219371Y-80039115D01*
X112432076Y-79982120D01*
X112631654Y-79889056D01*
X112741861Y-79811888D01*
X112807527Y-79765908D01*
X112807529Y-79765906D01*
X112812038Y-79762749D01*
X112967749Y-79607038D01*
X112975524Y-79595935D01*
X113090899Y-79431162D01*
X113090900Y-79431160D01*
X113094056Y-79426653D01*
X113096379Y-79421671D01*
X113096382Y-79421666D01*
X113148436Y-79310034D01*
X113187120Y-79227076D01*
X113244115Y-79014371D01*
X113263307Y-78795000D01*
X113244115Y-78575629D01*
X113187120Y-78362924D01*
X113117921Y-78214525D01*
X113096382Y-78168334D01*
X113096379Y-78168329D01*
X113094056Y-78163347D01*
X113090899Y-78158838D01*
X112970908Y-77987473D01*
X112970906Y-77987470D01*
X112967749Y-77982962D01*
X112812038Y-77827251D01*
X112796182Y-77816148D01*
X112722458Y-77764526D01*
X112631654Y-77700944D01*
X112432076Y-77607880D01*
X112219371Y-77550885D01*
X112000000Y-77531693D01*
X111780629Y-77550885D01*
X111567924Y-77607880D01*
X111492197Y-77643192D01*
X111373328Y-77698621D01*
X111373325Y-77698623D01*
X111368347Y-77700944D01*
X111352399Y-77712111D01*
X111307266Y-77743713D01*
X111234996Y-77766500D01*
X109112570Y-77766500D01*
X109044449Y-77746498D01*
X108998375Y-77693749D01*
X108939851Y-77568242D01*
X108939848Y-77568236D01*
X108937523Y-77563251D01*
X108828731Y-77407880D01*
X108809357Y-77380211D01*
X108809355Y-77380208D01*
X108806198Y-77375700D01*
X108644300Y-77213802D01*
X108639792Y-77210645D01*
X108639789Y-77210643D01*
X108587229Y-77173840D01*
X108542901Y-77118382D01*
X108533500Y-77070627D01*
X108533500Y-76034500D01*
X108553502Y-75966379D01*
X108607158Y-75919886D01*
X108659500Y-75908500D01*
X110048134Y-75908500D01*
X110110316Y-75901745D01*
X110246705Y-75850615D01*
X110270085Y-75833093D01*
X110324435Y-75792360D01*
X110390942Y-75767512D01*
X110460324Y-75782565D01*
X110475565Y-75792360D01*
X110529915Y-75833093D01*
X110553295Y-75850615D01*
X110689684Y-75901745D01*
X110751866Y-75908500D01*
X113048134Y-75908500D01*
X113110316Y-75901745D01*
X113246705Y-75850615D01*
X113363261Y-75763261D01*
X113450615Y-75646705D01*
X113501745Y-75510316D01*
X113508500Y-75448134D01*
X113508500Y-73751866D01*
X113501745Y-73689684D01*
X113450615Y-73553295D01*
X113363261Y-73436739D01*
X113246705Y-73349385D01*
X113110316Y-73298255D01*
X113048134Y-73291500D01*
X112068045Y-73291500D01*
X111999924Y-73271498D01*
X111953431Y-73217842D01*
X111943327Y-73147568D01*
X111958926Y-73102500D01*
X112031223Y-72977279D01*
X112031224Y-72977278D01*
X112034527Y-72971556D01*
X112093542Y-72789928D01*
X112094872Y-72777279D01*
X112112814Y-72606565D01*
X112113504Y-72600000D01*
X112093542Y-72410072D01*
X112034527Y-72228444D01*
X111939040Y-72063056D01*
X111849382Y-71963480D01*
X111815675Y-71926045D01*
X111815674Y-71926044D01*
X111811253Y-71921134D01*
X111656752Y-71808882D01*
X111650724Y-71806198D01*
X111650722Y-71806197D01*
X111488319Y-71733891D01*
X111488318Y-71733891D01*
X111482288Y-71731206D01*
X111388888Y-71711353D01*
X111301944Y-71692872D01*
X111301939Y-71692872D01*
X111295487Y-71691500D01*
X111104513Y-71691500D01*
X111098061Y-71692872D01*
X111098056Y-71692872D01*
X111011112Y-71711353D01*
X110917712Y-71731206D01*
X110911682Y-71733891D01*
X110911681Y-71733891D01*
X110749278Y-71806197D01*
X110749276Y-71806198D01*
X110743248Y-71808882D01*
X110588747Y-71921134D01*
X110584326Y-71926044D01*
X110584325Y-71926045D01*
X110550619Y-71963480D01*
X110460960Y-72063056D01*
X110365473Y-72228444D01*
X110306458Y-72410072D01*
X110286496Y-72600000D01*
X110287186Y-72606565D01*
X110305129Y-72777279D01*
X110306458Y-72789928D01*
X110365473Y-72971556D01*
X110460960Y-73136944D01*
X110504076Y-73184829D01*
X110520125Y-73202653D01*
X110550842Y-73266661D01*
X110542077Y-73337114D01*
X110502051Y-73387790D01*
X110475563Y-73407641D01*
X110409057Y-73432488D01*
X110339674Y-73417434D01*
X110324435Y-73407640D01*
X110253892Y-73354771D01*
X110253890Y-73354770D01*
X110246705Y-73349385D01*
X110110316Y-73298255D01*
X110048134Y-73291500D01*
X107751866Y-73291500D01*
X107689684Y-73298255D01*
X107553295Y-73349385D01*
X107436739Y-73436739D01*
X107349385Y-73553295D01*
X107298255Y-73689684D01*
X107291500Y-73751866D01*
X107291500Y-75391370D01*
X107287329Y-75420676D01*
X107286819Y-75421855D01*
X107285579Y-75429683D01*
X107285577Y-75429690D01*
X107279901Y-75465524D01*
X107277495Y-75477144D01*
X107268979Y-75510316D01*
X107266500Y-75519970D01*
X107266500Y-75540224D01*
X107264949Y-75559934D01*
X107261780Y-75579943D01*
X107262526Y-75587835D01*
X107265941Y-75623961D01*
X107266500Y-75635819D01*
X107266500Y-76944734D01*
X107246498Y-77012855D01*
X107193750Y-77058929D01*
X107148238Y-77080151D01*
X107148233Y-77080154D01*
X107143251Y-77082477D01*
X107082852Y-77124769D01*
X106960211Y-77210643D01*
X106960208Y-77210645D01*
X106955700Y-77213802D01*
X106793802Y-77375700D01*
X106790645Y-77380208D01*
X106790643Y-77380211D01*
X106771269Y-77407880D01*
X106662477Y-77563251D01*
X106660154Y-77568233D01*
X106660151Y-77568238D01*
X106568039Y-77765775D01*
X106565716Y-77770757D01*
X106564294Y-77776065D01*
X106564293Y-77776067D01*
X106508855Y-77982962D01*
X106506457Y-77991913D01*
X106486502Y-78220000D01*
X106506457Y-78448087D01*
X106507881Y-78453400D01*
X106507881Y-78453402D01*
X106547290Y-78600475D01*
X106565716Y-78669243D01*
X106568039Y-78674224D01*
X106568039Y-78674225D01*
X106660151Y-78871762D01*
X106660154Y-78871767D01*
X106662477Y-78876749D01*
X106725968Y-78967423D01*
X106786789Y-79054284D01*
X106793802Y-79064300D01*
X106955700Y-79226198D01*
X106960208Y-79229355D01*
X106960211Y-79229357D01*
X107019875Y-79271134D01*
X107143251Y-79357523D01*
X107148233Y-79359846D01*
X107148238Y-79359849D01*
X107338357Y-79448502D01*
X107350757Y-79454284D01*
X107356065Y-79455706D01*
X107356067Y-79455707D01*
X107566598Y-79512119D01*
X107566600Y-79512119D01*
X107571913Y-79513543D01*
X107800000Y-79533498D01*
X108028087Y-79513543D01*
X108033400Y-79512119D01*
X108033402Y-79512119D01*
X108243933Y-79455707D01*
X108243935Y-79455706D01*
X108249243Y-79454284D01*
X108261643Y-79448502D01*
X108451762Y-79359849D01*
X108451767Y-79359846D01*
X108456749Y-79357523D01*
X108580125Y-79271134D01*
X108639789Y-79229357D01*
X108639792Y-79229355D01*
X108644300Y-79226198D01*
X108800093Y-79070405D01*
X108862405Y-79036379D01*
X108889188Y-79033500D01*
X110561405Y-79033500D01*
X110629526Y-79053502D01*
X110676019Y-79107158D01*
X110686123Y-79177432D01*
X110656629Y-79242012D01*
X110650500Y-79248595D01*
X109207747Y-80691348D01*
X109199461Y-80698888D01*
X109192982Y-80703000D01*
X109187557Y-80708777D01*
X109146357Y-80752651D01*
X109143602Y-80755493D01*
X109123865Y-80775230D01*
X109121385Y-80778427D01*
X109113682Y-80787447D01*
X109083414Y-80819679D01*
X109079595Y-80826625D01*
X109079593Y-80826628D01*
X109073652Y-80837434D01*
X109062801Y-80853953D01*
X109050386Y-80869959D01*
X109047241Y-80877228D01*
X109047238Y-80877232D01*
X109032826Y-80910537D01*
X109027609Y-80921187D01*
X109006305Y-80959940D01*
X109004334Y-80967615D01*
X109004334Y-80967616D01*
X109001267Y-80979562D01*
X108994863Y-80998266D01*
X108986819Y-81016855D01*
X108985580Y-81024678D01*
X108985577Y-81024688D01*
X108979901Y-81060524D01*
X108977495Y-81072144D01*
X108973681Y-81087001D01*
X108966500Y-81114970D01*
X108966500Y-81135224D01*
X108964949Y-81154934D01*
X108961780Y-81174943D01*
X108962526Y-81182835D01*
X108965941Y-81218961D01*
X108966500Y-81230819D01*
X108966500Y-86921233D01*
X108965973Y-86932416D01*
X108964298Y-86939909D01*
X108964547Y-86947835D01*
X108964547Y-86947836D01*
X108966438Y-87007986D01*
X108966500Y-87011945D01*
X108966500Y-87039856D01*
X108966997Y-87043790D01*
X108966997Y-87043791D01*
X108967005Y-87043856D01*
X108967938Y-87055693D01*
X108969327Y-87099889D01*
X108972650Y-87111326D01*
X108974978Y-87119339D01*
X108978987Y-87138700D01*
X108981526Y-87158797D01*
X108984445Y-87166168D01*
X108984445Y-87166170D01*
X108997804Y-87199912D01*
X109001649Y-87211142D01*
X109011771Y-87245983D01*
X109013982Y-87253593D01*
X109018015Y-87260412D01*
X109018017Y-87260417D01*
X109024293Y-87271028D01*
X109032988Y-87288776D01*
X109040448Y-87307617D01*
X109045110Y-87314033D01*
X109045110Y-87314034D01*
X109066436Y-87343387D01*
X109072952Y-87353307D01*
X109090653Y-87383237D01*
X109095458Y-87391362D01*
X109109779Y-87405683D01*
X109122619Y-87420716D01*
X109134528Y-87437107D01*
X109140634Y-87442158D01*
X109168605Y-87465298D01*
X109177384Y-87473288D01*
X112026348Y-90322253D01*
X112033888Y-90330539D01*
X112038000Y-90337018D01*
X112043777Y-90342443D01*
X112087651Y-90383643D01*
X112090493Y-90386398D01*
X112110230Y-90406135D01*
X112113427Y-90408615D01*
X112122447Y-90416318D01*
X112154679Y-90446586D01*
X112161625Y-90450405D01*
X112161628Y-90450407D01*
X112172434Y-90456348D01*
X112188953Y-90467199D01*
X112204959Y-90479614D01*
X112212228Y-90482759D01*
X112212232Y-90482762D01*
X112245537Y-90497174D01*
X112256187Y-90502391D01*
X112294940Y-90523695D01*
X112302615Y-90525666D01*
X112302616Y-90525666D01*
X112314562Y-90528733D01*
X112333267Y-90535137D01*
X112351855Y-90543181D01*
X112359678Y-90544420D01*
X112359688Y-90544423D01*
X112395524Y-90550099D01*
X112407144Y-90552505D01*
X112442289Y-90561528D01*
X112449970Y-90563500D01*
X112470224Y-90563500D01*
X112489934Y-90565051D01*
X112509943Y-90568220D01*
X112517835Y-90567474D01*
X112553961Y-90564059D01*
X112565819Y-90563500D01*
X115070862Y-90563500D01*
X115138983Y-90583502D01*
X115185476Y-90637158D01*
X115195580Y-90707432D01*
X115179316Y-90753637D01*
X115165855Y-90776399D01*
X115119438Y-90936169D01*
X115118934Y-90942574D01*
X115118933Y-90942579D01*
X115116885Y-90968601D01*
X115116500Y-90973498D01*
X115116500Y-91406502D01*
X115116693Y-91408950D01*
X115116693Y-91408958D01*
X115118460Y-91431402D01*
X115119438Y-91443831D01*
X115143232Y-91525731D01*
X115156285Y-91570659D01*
X115165855Y-91603601D01*
X115250547Y-91746807D01*
X115253229Y-91749489D01*
X115278502Y-91813861D01*
X115264600Y-91883484D01*
X115254428Y-91899312D01*
X115250547Y-91903193D01*
X115165855Y-92046399D01*
X115163644Y-92054010D01*
X115163643Y-92054012D01*
X115156433Y-92078831D01*
X115119438Y-92206169D01*
X115118934Y-92212574D01*
X115118933Y-92212579D01*
X115116885Y-92238601D01*
X115116500Y-92243498D01*
X115116500Y-92676502D01*
X115119438Y-92713831D01*
X115136838Y-92773722D01*
X115156629Y-92841843D01*
X115165855Y-92873601D01*
X115250547Y-93016807D01*
X115253229Y-93019489D01*
X115278502Y-93083861D01*
X115264600Y-93153484D01*
X115254428Y-93169312D01*
X115250547Y-93173193D01*
X115165855Y-93316399D01*
X115163644Y-93324010D01*
X115163643Y-93324012D01*
X115151210Y-93366808D01*
X115119438Y-93476169D01*
X115116500Y-93513498D01*
X115116500Y-93946502D01*
X115116693Y-93948950D01*
X115116693Y-93948958D01*
X115117485Y-93959012D01*
X115119438Y-93983831D01*
X115165855Y-94143601D01*
X115250547Y-94286807D01*
X115253229Y-94289489D01*
X115278502Y-94353861D01*
X115264600Y-94423484D01*
X115254428Y-94439312D01*
X115250547Y-94443193D01*
X115165855Y-94586399D01*
X115119438Y-94746169D01*
X115118934Y-94752574D01*
X115118933Y-94752579D01*
X115116885Y-94778601D01*
X115116500Y-94783498D01*
X115116500Y-95216502D01*
X115116693Y-95218950D01*
X115116693Y-95218958D01*
X115117485Y-95229012D01*
X115119438Y-95253831D01*
X115128376Y-95284596D01*
X115152589Y-95367937D01*
X115165855Y-95413601D01*
X115250547Y-95556807D01*
X115253229Y-95559489D01*
X115278502Y-95623861D01*
X115264600Y-95693484D01*
X115254428Y-95709312D01*
X115250547Y-95713193D01*
X115165855Y-95856399D01*
X115163644Y-95864010D01*
X115163643Y-95864012D01*
X115149968Y-95911084D01*
X115119438Y-96016169D01*
X115118934Y-96022574D01*
X115118933Y-96022579D01*
X115116885Y-96048601D01*
X115116500Y-96053498D01*
X115116500Y-96486502D01*
X115116693Y-96488950D01*
X115116693Y-96488958D01*
X115118913Y-96517158D01*
X115119438Y-96523831D01*
X115137567Y-96586232D01*
X115163053Y-96673955D01*
X115165855Y-96683601D01*
X115169892Y-96690427D01*
X115230449Y-96792823D01*
X115247909Y-96861639D01*
X115225392Y-96928970D01*
X115168382Y-96974113D01*
X115161993Y-96976643D01*
X115152383Y-96980448D01*
X115145968Y-96985109D01*
X115116625Y-97006427D01*
X115106707Y-97012943D01*
X115088019Y-97023995D01*
X115068637Y-97035458D01*
X115054313Y-97049782D01*
X115039281Y-97062621D01*
X115022893Y-97074528D01*
X115008853Y-97091500D01*
X114994712Y-97108593D01*
X114986722Y-97117373D01*
X114882470Y-97221625D01*
X114820158Y-97255651D01*
X114749343Y-97250586D01*
X114704280Y-97221625D01*
X111836517Y-94353861D01*
X108920405Y-91437749D01*
X108886379Y-91375437D01*
X108883500Y-91348654D01*
X108883500Y-90973498D01*
X108883115Y-90968601D01*
X108881067Y-90942579D01*
X108881066Y-90942574D01*
X108880562Y-90936169D01*
X108834145Y-90776399D01*
X108793358Y-90707432D01*
X108753491Y-90640020D01*
X108753489Y-90640017D01*
X108749453Y-90633193D01*
X108631807Y-90515547D01*
X108624983Y-90511511D01*
X108624980Y-90511509D01*
X108495427Y-90434892D01*
X108495428Y-90434892D01*
X108488601Y-90430855D01*
X108480990Y-90428644D01*
X108480988Y-90428643D01*
X108424579Y-90412255D01*
X108328831Y-90384438D01*
X108322426Y-90383934D01*
X108322421Y-90383933D01*
X108293958Y-90381693D01*
X108293950Y-90381693D01*
X108291502Y-90381500D01*
X107489595Y-90381500D01*
X107421474Y-90361498D01*
X107400499Y-90344595D01*
X106570404Y-89514499D01*
X106536379Y-89452187D01*
X106533500Y-89425404D01*
X106533500Y-87832600D01*
X106534027Y-87821417D01*
X106535702Y-87813924D01*
X106535070Y-87793803D01*
X106533562Y-87745847D01*
X106533500Y-87741888D01*
X106533500Y-87613977D01*
X106518474Y-87495036D01*
X106459552Y-87346216D01*
X106436171Y-87314034D01*
X106370131Y-87223139D01*
X106365472Y-87216726D01*
X106242144Y-87114700D01*
X106100789Y-87048183D01*
X106065342Y-87023271D01*
X105170404Y-86128332D01*
X105136379Y-86066020D01*
X105133500Y-86039237D01*
X105133500Y-74414594D01*
X105153502Y-74346473D01*
X105170405Y-74325499D01*
X110492253Y-69003652D01*
X110500539Y-68996112D01*
X110507018Y-68992000D01*
X110553644Y-68942348D01*
X110556398Y-68939507D01*
X110576135Y-68919770D01*
X110578615Y-68916573D01*
X110586320Y-68907551D01*
X110611159Y-68881100D01*
X110616586Y-68875321D01*
X110620405Y-68868375D01*
X110620407Y-68868372D01*
X110626348Y-68857566D01*
X110637199Y-68841047D01*
X110644758Y-68831301D01*
X110649614Y-68825041D01*
X110652759Y-68817772D01*
X110652762Y-68817768D01*
X110667174Y-68784463D01*
X110672391Y-68773813D01*
X110693695Y-68735060D01*
X110698733Y-68715437D01*
X110705137Y-68696734D01*
X110710033Y-68685420D01*
X110710033Y-68685419D01*
X110713181Y-68678145D01*
X110714420Y-68670322D01*
X110714423Y-68670312D01*
X110720099Y-68634476D01*
X110722505Y-68622856D01*
X110731528Y-68587711D01*
X110731528Y-68587710D01*
X110733500Y-68580030D01*
X110733500Y-68559776D01*
X110735051Y-68540065D01*
X110736980Y-68527886D01*
X110738220Y-68520057D01*
X110734059Y-68476038D01*
X110733500Y-68464181D01*
X110733500Y-68433594D01*
X110753502Y-68365473D01*
X110807158Y-68318980D01*
X110877432Y-68308876D01*
X110942012Y-68338370D01*
G37*
%TD.AperFunction*%
%TA.AperFunction,Conductor*%
G36*
X128081271Y-90583502D02*
G01*
X128127764Y-90637158D01*
X128137868Y-90707432D01*
X128132983Y-90728436D01*
X128119792Y-90769033D01*
X128106458Y-90810072D01*
X128089282Y-90973498D01*
X128089093Y-90975293D01*
X128062080Y-91040950D01*
X128052878Y-91051218D01*
X127320684Y-91783411D01*
X126607747Y-92496348D01*
X126599461Y-92503888D01*
X126592982Y-92508000D01*
X126587557Y-92513777D01*
X126546357Y-92557651D01*
X126543602Y-92560493D01*
X126523865Y-92580230D01*
X126521385Y-92583427D01*
X126513682Y-92592447D01*
X126483414Y-92624679D01*
X126479595Y-92631625D01*
X126479593Y-92631628D01*
X126473652Y-92642434D01*
X126462801Y-92658953D01*
X126450386Y-92674959D01*
X126447241Y-92682228D01*
X126447238Y-92682232D01*
X126432826Y-92715537D01*
X126427609Y-92726187D01*
X126406305Y-92764940D01*
X126404334Y-92772615D01*
X126404334Y-92772616D01*
X126401267Y-92784562D01*
X126394863Y-92803266D01*
X126386819Y-92821855D01*
X126385580Y-92829678D01*
X126385577Y-92829688D01*
X126379901Y-92865524D01*
X126377495Y-92877144D01*
X126368472Y-92912289D01*
X126366500Y-92919970D01*
X126366500Y-92940224D01*
X126364949Y-92959934D01*
X126361780Y-92979943D01*
X126362526Y-92987835D01*
X126365941Y-93023961D01*
X126366500Y-93035819D01*
X126366500Y-95637156D01*
X126346498Y-95705277D01*
X126329595Y-95726251D01*
X126097596Y-95958250D01*
X126035284Y-95992276D01*
X125964469Y-95987211D01*
X125907633Y-95944664D01*
X125882822Y-95878144D01*
X125882889Y-95859274D01*
X125883306Y-95853971D01*
X125883307Y-95853958D01*
X125883500Y-95851502D01*
X125883500Y-95418498D01*
X125883115Y-95413601D01*
X125881067Y-95387579D01*
X125881066Y-95387574D01*
X125880562Y-95381169D01*
X125834145Y-95221399D01*
X125749453Y-95078193D01*
X125746771Y-95075511D01*
X125721498Y-95011139D01*
X125735400Y-94941516D01*
X125745572Y-94925688D01*
X125749453Y-94921807D01*
X125834145Y-94778601D01*
X125837799Y-94766026D01*
X125854639Y-94708059D01*
X125880562Y-94618831D01*
X125882516Y-94594012D01*
X125883307Y-94583958D01*
X125883307Y-94583950D01*
X125883500Y-94581502D01*
X125883500Y-94148498D01*
X125883115Y-94143601D01*
X125881067Y-94117579D01*
X125881066Y-94117574D01*
X125880562Y-94111169D01*
X125834145Y-93951399D01*
X125786104Y-93870166D01*
X125753491Y-93815020D01*
X125753489Y-93815017D01*
X125749453Y-93808193D01*
X125631807Y-93690547D01*
X125624983Y-93686511D01*
X125624980Y-93686509D01*
X125495427Y-93609892D01*
X125495428Y-93609892D01*
X125488601Y-93605855D01*
X125480990Y-93603644D01*
X125480988Y-93603643D01*
X125405840Y-93581811D01*
X125328831Y-93559438D01*
X125322426Y-93558934D01*
X125322421Y-93558933D01*
X125293958Y-93556693D01*
X125293950Y-93556693D01*
X125291502Y-93556500D01*
X123408498Y-93556500D01*
X123406050Y-93556693D01*
X123406042Y-93556693D01*
X123377579Y-93558933D01*
X123377574Y-93558934D01*
X123371169Y-93559438D01*
X123294160Y-93581811D01*
X123219012Y-93603643D01*
X123219010Y-93603644D01*
X123211399Y-93605855D01*
X123204572Y-93609892D01*
X123204573Y-93609892D01*
X123075020Y-93686509D01*
X123075017Y-93686511D01*
X123068193Y-93690547D01*
X122950547Y-93808193D01*
X122946511Y-93815017D01*
X122946509Y-93815020D01*
X122913896Y-93870166D01*
X122865855Y-93951399D01*
X122819438Y-94111169D01*
X122818934Y-94117574D01*
X122818933Y-94117579D01*
X122816885Y-94143601D01*
X122816500Y-94148498D01*
X122816500Y-94581502D01*
X122816692Y-94583947D01*
X122816693Y-94583961D01*
X122818670Y-94609079D01*
X122804073Y-94678559D01*
X122754230Y-94729118D01*
X122684966Y-94744704D01*
X122618270Y-94720368D01*
X122603963Y-94708059D01*
X121885913Y-93990008D01*
X120947122Y-93051217D01*
X120913096Y-92988905D01*
X120910907Y-92975292D01*
X120894232Y-92816635D01*
X120894232Y-92816633D01*
X120893542Y-92810072D01*
X120834527Y-92628444D01*
X120739040Y-92463056D01*
X120716869Y-92438432D01*
X120615675Y-92326045D01*
X120615674Y-92326044D01*
X120611253Y-92321134D01*
X120456752Y-92208882D01*
X120450724Y-92206198D01*
X120450722Y-92206197D01*
X120288319Y-92133891D01*
X120288318Y-92133891D01*
X120282288Y-92131206D01*
X120244844Y-92123247D01*
X120182371Y-92089518D01*
X120148049Y-92027369D01*
X120152777Y-91956530D01*
X120195053Y-91899492D01*
X120244844Y-91876753D01*
X120282288Y-91868794D01*
X120355633Y-91836139D01*
X120450722Y-91793803D01*
X120450724Y-91793802D01*
X120456752Y-91791118D01*
X120465721Y-91784602D01*
X120589671Y-91694546D01*
X120611253Y-91678866D01*
X120615668Y-91673963D01*
X120620580Y-91669540D01*
X120621705Y-91670789D01*
X120675014Y-91637949D01*
X120708200Y-91633500D01*
X123826233Y-91633500D01*
X123837416Y-91634027D01*
X123844909Y-91635702D01*
X123852835Y-91635453D01*
X123852836Y-91635453D01*
X123912986Y-91633562D01*
X123916945Y-91633500D01*
X123944856Y-91633500D01*
X123948791Y-91633003D01*
X123948856Y-91632995D01*
X123960693Y-91632062D01*
X123992951Y-91631048D01*
X123996970Y-91630922D01*
X124004889Y-91630673D01*
X124024343Y-91625021D01*
X124043700Y-91621013D01*
X124055930Y-91619468D01*
X124055931Y-91619468D01*
X124063797Y-91618474D01*
X124071168Y-91615555D01*
X124071170Y-91615555D01*
X124104912Y-91602196D01*
X124116142Y-91598351D01*
X124150983Y-91588229D01*
X124150984Y-91588229D01*
X124158593Y-91586018D01*
X124165412Y-91581985D01*
X124165417Y-91581983D01*
X124176028Y-91575707D01*
X124193776Y-91567012D01*
X124212617Y-91559552D01*
X124248387Y-91533564D01*
X124258307Y-91527048D01*
X124289535Y-91508580D01*
X124289538Y-91508578D01*
X124296362Y-91504542D01*
X124310683Y-91490221D01*
X124325717Y-91477380D01*
X124335693Y-91470132D01*
X124342107Y-91465472D01*
X124370293Y-91431401D01*
X124378282Y-91422622D01*
X124400499Y-91400405D01*
X124462811Y-91366379D01*
X124489594Y-91363500D01*
X125291502Y-91363500D01*
X125293950Y-91363307D01*
X125293958Y-91363307D01*
X125322421Y-91361067D01*
X125322426Y-91361066D01*
X125328831Y-91360562D01*
X125451131Y-91325031D01*
X125480988Y-91316357D01*
X125480990Y-91316356D01*
X125488601Y-91314145D01*
X125517411Y-91297107D01*
X125624980Y-91233491D01*
X125624983Y-91233489D01*
X125631807Y-91229453D01*
X125749453Y-91111807D01*
X125753489Y-91104983D01*
X125753491Y-91104980D01*
X125830108Y-90975427D01*
X125834145Y-90968601D01*
X125850226Y-90913251D01*
X125851528Y-90908769D01*
X125880562Y-90808831D01*
X125881505Y-90796858D01*
X125883307Y-90773958D01*
X125883307Y-90773950D01*
X125883500Y-90771502D01*
X125883500Y-90689500D01*
X125903502Y-90621379D01*
X125957158Y-90574886D01*
X126009500Y-90563500D01*
X128013150Y-90563500D01*
X128081271Y-90583502D01*
G37*
%TD.AperFunction*%
%TA.AperFunction,Conductor*%
G36*
X123758621Y-53653502D02*
G01*
X123805114Y-53707158D01*
X123816500Y-53759500D01*
X123816500Y-54136502D01*
X123816693Y-54138950D01*
X123816693Y-54138958D01*
X123817779Y-54152747D01*
X123819438Y-54173831D01*
X123865855Y-54333601D01*
X123885231Y-54366363D01*
X123902689Y-54435178D01*
X123880172Y-54502509D01*
X123824827Y-54546978D01*
X123776776Y-54556500D01*
X123667679Y-54556500D01*
X123599558Y-54536498D01*
X123553065Y-54482842D01*
X123547846Y-54469436D01*
X123536569Y-54434729D01*
X123534527Y-54428444D01*
X123439040Y-54263056D01*
X123339718Y-54152747D01*
X123315675Y-54126045D01*
X123315674Y-54126044D01*
X123311253Y-54121134D01*
X123191105Y-54033841D01*
X123162094Y-54012763D01*
X123162093Y-54012762D01*
X123156752Y-54008882D01*
X123150724Y-54006198D01*
X123150722Y-54006197D01*
X122988319Y-53933891D01*
X122988318Y-53933891D01*
X122982288Y-53931206D01*
X122870883Y-53907526D01*
X122801944Y-53892872D01*
X122801939Y-53892872D01*
X122795487Y-53891500D01*
X122604513Y-53891500D01*
X122598061Y-53892872D01*
X122598056Y-53892872D01*
X122529117Y-53907526D01*
X122417712Y-53931206D01*
X122411682Y-53933891D01*
X122411681Y-53933891D01*
X122249278Y-54006197D01*
X122249276Y-54006198D01*
X122243248Y-54008882D01*
X122237907Y-54012762D01*
X122237906Y-54012763D01*
X122208895Y-54033841D01*
X122088747Y-54121134D01*
X122084326Y-54126044D01*
X122084325Y-54126045D01*
X122060283Y-54152747D01*
X121960960Y-54263056D01*
X121865473Y-54428444D01*
X121806458Y-54610072D01*
X121786496Y-54800000D01*
X121787186Y-54806565D01*
X121803996Y-54966500D01*
X121806458Y-54989928D01*
X121865473Y-55171556D01*
X121868776Y-55177278D01*
X121868777Y-55177279D01*
X121890789Y-55215405D01*
X121960960Y-55336944D01*
X121965378Y-55341851D01*
X121965379Y-55341852D01*
X122042931Y-55427982D01*
X122088747Y-55478866D01*
X122243248Y-55591118D01*
X122249276Y-55593802D01*
X122249278Y-55593803D01*
X122411681Y-55666109D01*
X122417712Y-55668794D01*
X122511113Y-55688647D01*
X122598056Y-55707128D01*
X122598061Y-55707128D01*
X122604513Y-55708500D01*
X122681709Y-55708500D01*
X122749830Y-55728502D01*
X122758549Y-55734667D01*
X122758691Y-55734751D01*
X122764959Y-55739613D01*
X122805543Y-55757176D01*
X122816173Y-55762383D01*
X122854940Y-55783695D01*
X122862617Y-55785666D01*
X122862622Y-55785668D01*
X122874558Y-55788732D01*
X122893266Y-55795137D01*
X122911855Y-55803181D01*
X122919683Y-55804421D01*
X122919690Y-55804423D01*
X122955524Y-55810099D01*
X122967144Y-55812505D01*
X123002289Y-55821528D01*
X123009970Y-55823500D01*
X123030224Y-55823500D01*
X123049934Y-55825051D01*
X123069943Y-55828220D01*
X123077835Y-55827474D01*
X123113961Y-55824059D01*
X123125819Y-55823500D01*
X123776776Y-55823500D01*
X123844897Y-55843502D01*
X123891390Y-55897158D01*
X123901494Y-55967432D01*
X123885231Y-56013636D01*
X123865855Y-56046399D01*
X123863644Y-56054010D01*
X123863643Y-56054012D01*
X123848472Y-56106231D01*
X123819438Y-56206169D01*
X123818934Y-56212574D01*
X123818933Y-56212579D01*
X123817287Y-56233500D01*
X123816500Y-56243498D01*
X123816500Y-56676502D01*
X123819438Y-56713831D01*
X123865855Y-56873601D01*
X123950547Y-57016807D01*
X123953229Y-57019489D01*
X123978502Y-57083861D01*
X123964600Y-57153484D01*
X123954428Y-57169312D01*
X123950547Y-57173193D01*
X123865855Y-57316399D01*
X123863644Y-57324010D01*
X123863643Y-57324012D01*
X123860530Y-57334729D01*
X123819438Y-57476169D01*
X123818934Y-57482574D01*
X123818933Y-57482579D01*
X123816693Y-57511042D01*
X123816500Y-57513498D01*
X123816500Y-57888654D01*
X123796498Y-57956775D01*
X123779595Y-57977749D01*
X123042749Y-58714595D01*
X122980437Y-58748621D01*
X122953654Y-58751500D01*
X120564708Y-58751500D01*
X120496587Y-58731498D01*
X120450094Y-58677842D01*
X120439990Y-58607568D01*
X120469484Y-58542988D01*
X120513460Y-58510393D01*
X120550719Y-58493805D01*
X120550726Y-58493801D01*
X120556752Y-58491118D01*
X120711253Y-58378866D01*
X120728291Y-58359943D01*
X120834621Y-58241852D01*
X120834622Y-58241851D01*
X120839040Y-58236944D01*
X120906992Y-58119248D01*
X120931223Y-58077279D01*
X120931224Y-58077278D01*
X120934527Y-58071556D01*
X120993542Y-57889928D01*
X121013504Y-57700000D01*
X121004093Y-57610458D01*
X120994232Y-57516635D01*
X120994232Y-57516633D01*
X120993542Y-57510072D01*
X120934527Y-57328444D01*
X120839040Y-57163056D01*
X120830422Y-57153484D01*
X120715675Y-57026045D01*
X120715674Y-57026044D01*
X120711253Y-57021134D01*
X120556752Y-56908882D01*
X120550724Y-56906198D01*
X120550722Y-56906197D01*
X120388319Y-56833891D01*
X120388318Y-56833891D01*
X120382288Y-56831206D01*
X120288887Y-56811353D01*
X120201944Y-56792872D01*
X120201939Y-56792872D01*
X120195487Y-56791500D01*
X120004513Y-56791500D01*
X119998061Y-56792872D01*
X119998056Y-56792872D01*
X119911113Y-56811353D01*
X119817712Y-56831206D01*
X119811682Y-56833891D01*
X119811681Y-56833891D01*
X119649278Y-56906197D01*
X119649276Y-56906198D01*
X119643248Y-56908882D01*
X119488747Y-57021134D01*
X119484332Y-57026037D01*
X119479420Y-57030460D01*
X119478295Y-57029211D01*
X119424986Y-57062051D01*
X119391800Y-57066500D01*
X119014595Y-57066500D01*
X118946474Y-57046498D01*
X118925499Y-57029595D01*
X118651019Y-56755114D01*
X118348647Y-56452742D01*
X118341112Y-56444462D01*
X118337000Y-56437982D01*
X118336065Y-56437104D01*
X118309218Y-56374583D01*
X118320922Y-56304558D01*
X118368626Y-56251976D01*
X118434312Y-56233500D01*
X118591800Y-56233500D01*
X118659921Y-56253502D01*
X118679147Y-56269843D01*
X118679420Y-56269540D01*
X118684332Y-56273963D01*
X118688747Y-56278866D01*
X118700252Y-56287225D01*
X118820490Y-56374583D01*
X118843248Y-56391118D01*
X118849276Y-56393802D01*
X118849278Y-56393803D01*
X118950820Y-56439012D01*
X119017712Y-56468794D01*
X119110430Y-56488502D01*
X119198056Y-56507128D01*
X119198061Y-56507128D01*
X119204513Y-56508500D01*
X119395487Y-56508500D01*
X119401939Y-56507128D01*
X119401944Y-56507128D01*
X119489570Y-56488502D01*
X119582288Y-56468794D01*
X119649180Y-56439012D01*
X119750722Y-56393803D01*
X119750724Y-56393802D01*
X119756752Y-56391118D01*
X119779511Y-56374583D01*
X119843056Y-56328414D01*
X119911253Y-56278866D01*
X119936069Y-56251305D01*
X120034621Y-56141852D01*
X120034622Y-56141851D01*
X120039040Y-56136944D01*
X120124686Y-55988601D01*
X120131223Y-55977279D01*
X120131224Y-55977278D01*
X120134527Y-55971556D01*
X120193542Y-55789928D01*
X120194599Y-55779876D01*
X120212814Y-55606565D01*
X120213504Y-55600000D01*
X120201181Y-55482749D01*
X120194232Y-55416635D01*
X120194232Y-55416633D01*
X120193542Y-55410072D01*
X120134527Y-55228444D01*
X120120603Y-55204326D01*
X120042341Y-55068774D01*
X120039040Y-55063056D01*
X119911253Y-54921134D01*
X119771906Y-54819892D01*
X119762094Y-54812763D01*
X119762093Y-54812762D01*
X119756752Y-54808882D01*
X119750724Y-54806198D01*
X119750722Y-54806197D01*
X119588319Y-54733891D01*
X119588318Y-54733891D01*
X119582288Y-54731206D01*
X119488888Y-54711353D01*
X119401944Y-54692872D01*
X119401939Y-54692872D01*
X119395487Y-54691500D01*
X119204513Y-54691500D01*
X119198061Y-54692872D01*
X119198056Y-54692872D01*
X119111112Y-54711353D01*
X119017712Y-54731206D01*
X119011682Y-54733891D01*
X119011681Y-54733891D01*
X118849278Y-54806197D01*
X118849276Y-54806198D01*
X118843248Y-54808882D01*
X118837907Y-54812762D01*
X118837906Y-54812763D01*
X118828094Y-54819892D01*
X118688747Y-54921134D01*
X118684332Y-54926037D01*
X118679420Y-54930460D01*
X118678295Y-54929211D01*
X118624986Y-54962051D01*
X118591800Y-54966500D01*
X118049950Y-54966500D01*
X117981829Y-54946498D01*
X117960855Y-54929595D01*
X117931807Y-54900547D01*
X117924983Y-54896511D01*
X117924980Y-54896509D01*
X117795427Y-54819892D01*
X117795428Y-54819892D01*
X117788601Y-54815855D01*
X117780990Y-54813644D01*
X117780988Y-54813643D01*
X117711430Y-54793435D01*
X117628831Y-54769438D01*
X117622426Y-54768934D01*
X117622421Y-54768933D01*
X117593958Y-54766693D01*
X117593950Y-54766693D01*
X117591502Y-54766500D01*
X115708498Y-54766500D01*
X115706050Y-54766693D01*
X115706042Y-54766693D01*
X115677579Y-54768933D01*
X115677574Y-54768934D01*
X115671169Y-54769438D01*
X115588570Y-54793435D01*
X115519012Y-54813643D01*
X115519010Y-54813644D01*
X115511399Y-54815855D01*
X115504572Y-54819892D01*
X115504573Y-54819892D01*
X115375020Y-54896509D01*
X115375017Y-54896511D01*
X115368193Y-54900547D01*
X115250547Y-55018193D01*
X115246511Y-55025017D01*
X115246509Y-55025020D01*
X115224015Y-55063056D01*
X115165855Y-55161399D01*
X115163644Y-55169010D01*
X115163643Y-55169012D01*
X115153384Y-55204326D01*
X115119438Y-55321169D01*
X115118934Y-55327574D01*
X115118933Y-55327579D01*
X115116693Y-55356042D01*
X115116500Y-55358498D01*
X115116500Y-55791502D01*
X115116693Y-55793950D01*
X115116693Y-55793958D01*
X115118037Y-55811027D01*
X115119438Y-55828831D01*
X115139289Y-55897158D01*
X115162566Y-55977279D01*
X115165855Y-55988601D01*
X115250547Y-56131807D01*
X115253229Y-56134489D01*
X115278502Y-56198861D01*
X115264600Y-56268484D01*
X115254428Y-56284312D01*
X115250547Y-56288193D01*
X115165855Y-56431399D01*
X115163644Y-56439010D01*
X115163643Y-56439012D01*
X115151768Y-56479886D01*
X115119438Y-56591169D01*
X115118934Y-56597574D01*
X115118933Y-56597579D01*
X115116693Y-56626042D01*
X115116500Y-56628498D01*
X115116500Y-57061502D01*
X115116693Y-57063950D01*
X115116693Y-57063958D01*
X115118260Y-57083861D01*
X115119438Y-57098831D01*
X115165855Y-57258601D01*
X115185231Y-57291363D01*
X115202689Y-57360178D01*
X115180172Y-57427509D01*
X115124827Y-57471978D01*
X115076776Y-57481500D01*
X113963767Y-57481500D01*
X113952584Y-57480973D01*
X113945091Y-57479298D01*
X113937165Y-57479547D01*
X113937164Y-57479547D01*
X113877014Y-57481438D01*
X113873055Y-57481500D01*
X113845144Y-57481500D01*
X113841210Y-57481997D01*
X113841209Y-57481997D01*
X113841144Y-57482005D01*
X113829307Y-57482938D01*
X113797049Y-57483952D01*
X113793030Y-57484078D01*
X113785111Y-57484327D01*
X113765657Y-57489979D01*
X113746300Y-57493987D01*
X113734070Y-57495532D01*
X113734069Y-57495532D01*
X113726203Y-57496526D01*
X113718832Y-57499445D01*
X113718830Y-57499445D01*
X113685088Y-57512804D01*
X113673858Y-57516649D01*
X113639017Y-57526771D01*
X113639016Y-57526771D01*
X113631407Y-57528982D01*
X113624588Y-57533015D01*
X113624583Y-57533017D01*
X113613972Y-57539293D01*
X113596224Y-57547988D01*
X113577383Y-57555448D01*
X113570967Y-57560110D01*
X113570966Y-57560110D01*
X113541613Y-57581436D01*
X113531693Y-57587952D01*
X113500465Y-57606420D01*
X113500462Y-57606422D01*
X113493638Y-57610458D01*
X113479317Y-57624779D01*
X113464284Y-57637619D01*
X113447893Y-57649528D01*
X113442842Y-57655633D01*
X113442837Y-57655638D01*
X113419706Y-57683598D01*
X113411719Y-57692376D01*
X113215442Y-57888654D01*
X113049501Y-58054595D01*
X112987188Y-58088620D01*
X112960405Y-58091500D01*
X112904513Y-58091500D01*
X112898061Y-58092872D01*
X112898056Y-58092872D01*
X112830848Y-58107158D01*
X112717712Y-58131206D01*
X112711682Y-58133891D01*
X112711681Y-58133891D01*
X112549278Y-58206197D01*
X112549276Y-58206198D01*
X112543248Y-58208882D01*
X112537907Y-58212762D01*
X112537906Y-58212763D01*
X112515653Y-58228931D01*
X112388747Y-58321134D01*
X112384326Y-58326044D01*
X112384325Y-58326045D01*
X112284279Y-58437158D01*
X112260960Y-58463056D01*
X112165473Y-58628444D01*
X112106458Y-58810072D01*
X112105768Y-58816633D01*
X112105768Y-58816635D01*
X112090893Y-58958167D01*
X112086496Y-59000000D01*
X112087186Y-59006565D01*
X112104206Y-59168498D01*
X112106458Y-59189928D01*
X112165473Y-59371556D01*
X112168776Y-59377278D01*
X112168777Y-59377279D01*
X112176988Y-59391500D01*
X112260960Y-59536944D01*
X112265378Y-59541851D01*
X112265379Y-59541852D01*
X112379684Y-59668801D01*
X112388747Y-59678866D01*
X112477917Y-59743652D01*
X112533011Y-59783680D01*
X112543248Y-59791118D01*
X112549276Y-59793802D01*
X112549278Y-59793803D01*
X112711681Y-59866109D01*
X112717712Y-59868794D01*
X112794336Y-59885081D01*
X112898056Y-59907128D01*
X112898061Y-59907128D01*
X112904513Y-59908500D01*
X113095487Y-59908500D01*
X113101939Y-59907128D01*
X113101944Y-59907128D01*
X113205664Y-59885081D01*
X113282288Y-59868794D01*
X113288319Y-59866109D01*
X113450722Y-59793803D01*
X113450724Y-59793802D01*
X113456752Y-59791118D01*
X113466990Y-59783680D01*
X113522083Y-59743652D01*
X113611253Y-59678866D01*
X113620316Y-59668801D01*
X113734621Y-59541852D01*
X113734622Y-59541851D01*
X113739040Y-59536944D01*
X113823012Y-59391500D01*
X113831223Y-59377279D01*
X113831224Y-59377278D01*
X113834527Y-59371556D01*
X113893542Y-59189928D01*
X113895795Y-59168498D01*
X113910907Y-59024708D01*
X113937920Y-58959051D01*
X113947122Y-58948782D01*
X114110501Y-58785404D01*
X114172813Y-58751379D01*
X114199596Y-58748500D01*
X115076776Y-58748500D01*
X115144897Y-58768502D01*
X115191390Y-58822158D01*
X115201494Y-58892432D01*
X115185231Y-58938636D01*
X115165855Y-58971399D01*
X115163644Y-58979010D01*
X115163643Y-58979012D01*
X115159453Y-58993435D01*
X115119438Y-59131169D01*
X115118934Y-59137574D01*
X115118933Y-59137579D01*
X115117435Y-59156613D01*
X115116500Y-59168498D01*
X115116500Y-59601502D01*
X115116693Y-59603950D01*
X115116693Y-59603958D01*
X115118681Y-59629211D01*
X115119438Y-59638831D01*
X115165855Y-59798601D01*
X115250547Y-59941807D01*
X115253229Y-59944489D01*
X115278502Y-60008861D01*
X115264600Y-60078484D01*
X115254428Y-60094312D01*
X115250547Y-60098193D01*
X115165855Y-60241399D01*
X115163644Y-60249010D01*
X115163643Y-60249012D01*
X115158863Y-60265465D01*
X115119438Y-60401169D01*
X115118934Y-60407574D01*
X115118933Y-60407579D01*
X115116693Y-60436042D01*
X115116500Y-60438498D01*
X115116500Y-60871502D01*
X115116693Y-60873950D01*
X115116693Y-60873958D01*
X115118260Y-60893861D01*
X115119438Y-60908831D01*
X115140761Y-60982225D01*
X115161850Y-61054814D01*
X115165855Y-61068601D01*
X115185231Y-61101363D01*
X115202689Y-61170178D01*
X115180172Y-61237509D01*
X115124827Y-61281978D01*
X115076776Y-61291500D01*
X114153768Y-61291500D01*
X114142585Y-61290973D01*
X114135092Y-61289298D01*
X114127166Y-61289547D01*
X114127165Y-61289547D01*
X114067002Y-61291438D01*
X114063044Y-61291500D01*
X114035144Y-61291500D01*
X114031154Y-61292004D01*
X114019320Y-61292936D01*
X113975111Y-61294326D01*
X113967495Y-61296539D01*
X113967493Y-61296539D01*
X113955652Y-61299979D01*
X113936293Y-61303988D01*
X113934983Y-61304154D01*
X113916203Y-61306526D01*
X113908837Y-61309442D01*
X113908831Y-61309444D01*
X113875098Y-61322800D01*
X113863868Y-61326645D01*
X113829017Y-61336770D01*
X113821407Y-61338981D01*
X113814584Y-61343016D01*
X113803966Y-61349295D01*
X113786213Y-61357992D01*
X113782862Y-61359319D01*
X113767383Y-61365448D01*
X113752510Y-61376254D01*
X113731612Y-61391437D01*
X113721695Y-61397951D01*
X113683638Y-61420458D01*
X113669317Y-61434779D01*
X113654284Y-61447619D01*
X113637893Y-61459528D01*
X113632843Y-61465632D01*
X113632838Y-61465637D01*
X113609707Y-61493598D01*
X113601717Y-61502379D01*
X113049499Y-62054596D01*
X112987187Y-62088621D01*
X112960404Y-62091500D01*
X112904513Y-62091500D01*
X112898061Y-62092872D01*
X112898056Y-62092872D01*
X112811112Y-62111353D01*
X112717712Y-62131206D01*
X112711682Y-62133891D01*
X112711681Y-62133891D01*
X112549278Y-62206197D01*
X112549276Y-62206198D01*
X112543248Y-62208882D01*
X112537907Y-62212762D01*
X112537906Y-62212763D01*
X112487843Y-62249136D01*
X112388747Y-62321134D01*
X112384326Y-62326044D01*
X112384325Y-62326045D01*
X112301918Y-62417568D01*
X112260960Y-62463056D01*
X112254077Y-62474978D01*
X112172430Y-62616395D01*
X112165473Y-62628444D01*
X112106458Y-62810072D01*
X112105768Y-62816633D01*
X112105768Y-62816635D01*
X112092679Y-62941169D01*
X112086496Y-63000000D01*
X112087186Y-63006565D01*
X112104916Y-63175253D01*
X112106458Y-63189928D01*
X112165473Y-63371556D01*
X112168776Y-63377278D01*
X112168777Y-63377279D01*
X112189954Y-63413958D01*
X112260960Y-63536944D01*
X112265378Y-63541851D01*
X112265379Y-63541852D01*
X112372185Y-63660472D01*
X112388747Y-63678866D01*
X112463421Y-63733120D01*
X112529347Y-63781018D01*
X112543248Y-63791118D01*
X112549276Y-63793802D01*
X112549278Y-63793803D01*
X112711681Y-63866109D01*
X112717712Y-63868794D01*
X112811112Y-63888647D01*
X112898056Y-63907128D01*
X112898061Y-63907128D01*
X112904513Y-63908500D01*
X113095487Y-63908500D01*
X113101939Y-63907128D01*
X113101944Y-63907128D01*
X113188888Y-63888647D01*
X113282288Y-63868794D01*
X113288319Y-63866109D01*
X113450722Y-63793803D01*
X113450724Y-63793802D01*
X113456752Y-63791118D01*
X113470654Y-63781018D01*
X113536579Y-63733120D01*
X113611253Y-63678866D01*
X113627815Y-63660472D01*
X113734621Y-63541852D01*
X113734622Y-63541851D01*
X113739040Y-63536944D01*
X113810046Y-63413958D01*
X113831223Y-63377279D01*
X113831224Y-63377278D01*
X113834527Y-63371556D01*
X113893542Y-63189928D01*
X113895085Y-63175253D01*
X113910907Y-63024707D01*
X113937920Y-62959050D01*
X113947122Y-62948782D01*
X114300499Y-62595405D01*
X114362811Y-62561379D01*
X114389594Y-62558500D01*
X115076776Y-62558500D01*
X115144897Y-62578502D01*
X115191390Y-62632158D01*
X115201494Y-62702432D01*
X115185231Y-62748636D01*
X115165855Y-62781399D01*
X115163644Y-62789010D01*
X115163643Y-62789012D01*
X115151768Y-62829886D01*
X115119438Y-62941169D01*
X115118934Y-62947574D01*
X115118933Y-62947579D01*
X115116693Y-62976042D01*
X115116500Y-62978498D01*
X115116500Y-63411502D01*
X115119438Y-63448831D01*
X115141042Y-63523193D01*
X115163249Y-63599630D01*
X115165855Y-63608601D01*
X115169892Y-63615427D01*
X115246509Y-63744980D01*
X115246511Y-63744983D01*
X115250547Y-63751807D01*
X115368193Y-63869453D01*
X115375017Y-63873489D01*
X115375020Y-63873491D01*
X115475643Y-63932999D01*
X115511399Y-63954145D01*
X115519010Y-63956356D01*
X115519012Y-63956357D01*
X115563102Y-63969166D01*
X115671169Y-64000562D01*
X115677574Y-64001066D01*
X115677579Y-64001067D01*
X115706042Y-64003307D01*
X115706050Y-64003307D01*
X115708498Y-64003500D01*
X116510405Y-64003500D01*
X116578526Y-64023502D01*
X116599501Y-64040405D01*
X116993824Y-64434729D01*
X117378104Y-64819009D01*
X117385638Y-64827288D01*
X117389751Y-64833769D01*
X117439402Y-64880394D01*
X117442244Y-64883149D01*
X117461981Y-64902886D01*
X117465178Y-64905366D01*
X117474198Y-64913069D01*
X117506430Y-64943337D01*
X117513376Y-64947156D01*
X117513379Y-64947158D01*
X117524185Y-64953099D01*
X117540704Y-64963950D01*
X117556710Y-64976365D01*
X117563979Y-64979510D01*
X117563983Y-64979513D01*
X117597288Y-64993925D01*
X117607938Y-64999142D01*
X117638740Y-65016075D01*
X117688798Y-65066420D01*
X117703348Y-65139659D01*
X117686496Y-65300000D01*
X117687186Y-65306565D01*
X117704864Y-65474759D01*
X117706458Y-65489928D01*
X117765473Y-65671556D01*
X117768776Y-65677278D01*
X117768777Y-65677279D01*
X117791855Y-65717251D01*
X117860960Y-65836944D01*
X117865378Y-65841851D01*
X117865379Y-65841852D01*
X117970138Y-65958199D01*
X117988747Y-65978866D01*
X118143248Y-66091118D01*
X118149276Y-66093802D01*
X118149278Y-66093803D01*
X118294445Y-66158435D01*
X118317712Y-66168794D01*
X118411113Y-66188647D01*
X118498056Y-66207128D01*
X118498061Y-66207128D01*
X118504513Y-66208500D01*
X118560406Y-66208500D01*
X118628527Y-66228502D01*
X118649501Y-66245405D01*
X120896038Y-68491942D01*
X120903582Y-68500232D01*
X120907695Y-68506713D01*
X120913472Y-68512138D01*
X120957362Y-68553353D01*
X120960204Y-68556108D01*
X120979926Y-68575830D01*
X120983050Y-68578253D01*
X120983054Y-68578257D01*
X120983119Y-68578307D01*
X120992140Y-68586012D01*
X121024374Y-68616281D01*
X121031322Y-68620100D01*
X121031324Y-68620102D01*
X121042127Y-68626041D01*
X121058654Y-68636897D01*
X121068393Y-68644452D01*
X121068395Y-68644453D01*
X121074655Y-68649309D01*
X121115235Y-68666869D01*
X121125883Y-68672086D01*
X121150138Y-68685420D01*
X121164635Y-68693390D01*
X121172311Y-68695361D01*
X121172314Y-68695362D01*
X121184257Y-68698428D01*
X121202961Y-68704832D01*
X121205277Y-68705834D01*
X121221550Y-68712876D01*
X121229373Y-68714115D01*
X121229383Y-68714118D01*
X121265219Y-68719794D01*
X121276839Y-68722200D01*
X121311984Y-68731223D01*
X121319665Y-68733195D01*
X121339919Y-68733195D01*
X121359629Y-68734746D01*
X121379638Y-68737915D01*
X121387530Y-68737169D01*
X121398958Y-68736089D01*
X121423657Y-68733754D01*
X121435514Y-68733195D01*
X122285101Y-68733195D01*
X122353222Y-68753197D01*
X122374196Y-68770100D01*
X125227364Y-71623268D01*
X125261390Y-71685580D01*
X125256325Y-71756395D01*
X125213778Y-71813231D01*
X125147258Y-71838042D01*
X125077884Y-71822951D01*
X125064209Y-71814300D01*
X125062738Y-71813231D01*
X125056752Y-71808882D01*
X125050724Y-71806198D01*
X125050722Y-71806197D01*
X124888319Y-71733891D01*
X124888318Y-71733891D01*
X124882288Y-71731206D01*
X124788888Y-71711353D01*
X124701944Y-71692872D01*
X124701939Y-71692872D01*
X124695487Y-71691500D01*
X124504513Y-71691500D01*
X124498061Y-71692872D01*
X124498056Y-71692872D01*
X124411112Y-71711353D01*
X124317712Y-71731206D01*
X124311682Y-71733891D01*
X124311681Y-71733891D01*
X124149278Y-71806197D01*
X124149276Y-71806198D01*
X124143248Y-71808882D01*
X123988747Y-71921134D01*
X123984326Y-71926044D01*
X123984325Y-71926045D01*
X123950619Y-71963480D01*
X123860960Y-72063056D01*
X123765473Y-72228444D01*
X123706458Y-72410072D01*
X123686496Y-72600000D01*
X123687186Y-72606565D01*
X123705129Y-72777279D01*
X123706458Y-72789928D01*
X123765473Y-72971556D01*
X123768776Y-72977278D01*
X123768777Y-72977279D01*
X123841074Y-73102500D01*
X123857812Y-73171495D01*
X123834592Y-73238587D01*
X123778785Y-73282474D01*
X123731955Y-73291500D01*
X123451866Y-73291500D01*
X123389684Y-73298255D01*
X123253295Y-73349385D01*
X123246110Y-73354770D01*
X123246108Y-73354771D01*
X123175565Y-73407640D01*
X123109058Y-73432488D01*
X123039676Y-73417435D01*
X123024435Y-73407640D01*
X122953892Y-73354771D01*
X122953890Y-73354770D01*
X122946705Y-73349385D01*
X122810316Y-73298255D01*
X122748134Y-73291500D01*
X120451866Y-73291500D01*
X120389684Y-73298255D01*
X120253295Y-73349385D01*
X120136739Y-73436739D01*
X120049385Y-73553295D01*
X119998255Y-73689684D01*
X119991500Y-73751866D01*
X119991500Y-75448134D01*
X119998255Y-75510316D01*
X120049385Y-75646705D01*
X120136739Y-75763261D01*
X120253295Y-75850615D01*
X120389684Y-75901745D01*
X120451866Y-75908500D01*
X120840500Y-75908500D01*
X120908621Y-75928502D01*
X120955114Y-75982158D01*
X120966500Y-76034500D01*
X120966500Y-76390406D01*
X120946498Y-76458527D01*
X120929595Y-76479501D01*
X120713248Y-76695848D01*
X120650936Y-76729874D01*
X120591541Y-76728459D01*
X120533409Y-76712882D01*
X120533398Y-76712880D01*
X120528087Y-76711457D01*
X120300000Y-76691502D01*
X120071913Y-76711457D01*
X120066600Y-76712881D01*
X120066598Y-76712881D01*
X119856067Y-76769293D01*
X119856065Y-76769294D01*
X119850757Y-76770716D01*
X119845776Y-76773039D01*
X119845775Y-76773039D01*
X119648238Y-76865151D01*
X119648233Y-76865154D01*
X119643251Y-76867477D01*
X119550559Y-76932381D01*
X119460211Y-76995643D01*
X119460208Y-76995645D01*
X119455700Y-76998802D01*
X119293802Y-77160700D01*
X119290645Y-77165208D01*
X119290643Y-77165211D01*
X119268384Y-77197000D01*
X119162477Y-77348251D01*
X119160154Y-77353233D01*
X119160151Y-77353238D01*
X119089803Y-77504101D01*
X119065716Y-77555757D01*
X119064294Y-77561065D01*
X119064293Y-77561067D01*
X119007883Y-77771591D01*
X119006457Y-77776913D01*
X118986502Y-78005000D01*
X119006457Y-78233087D01*
X119007881Y-78238400D01*
X119007881Y-78238402D01*
X119051676Y-78401844D01*
X119065716Y-78454243D01*
X119068039Y-78459224D01*
X119068039Y-78459225D01*
X119160151Y-78656762D01*
X119160154Y-78656767D01*
X119162477Y-78661749D01*
X119171213Y-78674225D01*
X119286812Y-78839317D01*
X119293802Y-78849300D01*
X119455700Y-79011198D01*
X119460208Y-79014355D01*
X119460211Y-79014357D01*
X119499604Y-79041940D01*
X119643251Y-79142523D01*
X119648233Y-79144846D01*
X119648238Y-79144849D01*
X119827630Y-79228500D01*
X119850757Y-79239284D01*
X119856065Y-79240706D01*
X119856067Y-79240707D01*
X120066598Y-79297119D01*
X120066600Y-79297119D01*
X120071913Y-79298543D01*
X120300000Y-79318498D01*
X120528087Y-79298543D01*
X120533398Y-79297120D01*
X120533409Y-79297118D01*
X120640967Y-79268297D01*
X120711944Y-79269986D01*
X120734278Y-79279588D01*
X120759940Y-79293695D01*
X120767617Y-79295666D01*
X120767622Y-79295668D01*
X120779558Y-79298732D01*
X120798266Y-79305137D01*
X120816855Y-79313181D01*
X120824680Y-79314420D01*
X120824682Y-79314421D01*
X120860519Y-79320097D01*
X120872140Y-79322504D01*
X120907289Y-79331528D01*
X120914970Y-79333500D01*
X120935231Y-79333500D01*
X120954940Y-79335051D01*
X120974943Y-79338219D01*
X120982835Y-79337473D01*
X120988062Y-79336979D01*
X121018954Y-79334059D01*
X121030811Y-79333500D01*
X123989230Y-79333500D01*
X124057351Y-79353502D01*
X124100045Y-79402380D01*
X124100869Y-79401904D01*
X124103287Y-79406092D01*
X124103424Y-79406249D01*
X124105944Y-79411653D01*
X124135795Y-79454284D01*
X124213955Y-79565908D01*
X124232251Y-79592038D01*
X124387962Y-79747749D01*
X124392471Y-79750906D01*
X124392473Y-79750908D01*
X124563842Y-79870903D01*
X124563848Y-79870907D01*
X124568346Y-79874056D01*
X124575951Y-79877602D01*
X124611799Y-79902703D01*
X127329595Y-82620500D01*
X127363621Y-82682812D01*
X127366500Y-82709595D01*
X127366500Y-86297476D01*
X127346498Y-86365597D01*
X127334142Y-86381779D01*
X127260960Y-86463056D01*
X127165473Y-86628444D01*
X127106458Y-86810072D01*
X127105768Y-86816633D01*
X127105768Y-86816635D01*
X127097846Y-86892009D01*
X127086496Y-87000000D01*
X127087186Y-87006565D01*
X127101421Y-87142000D01*
X127106458Y-87189928D01*
X127165473Y-87371556D01*
X127168776Y-87377278D01*
X127168777Y-87377279D01*
X127185176Y-87405683D01*
X127260960Y-87536944D01*
X127388747Y-87678866D01*
X127543248Y-87791118D01*
X127549276Y-87793802D01*
X127549278Y-87793803D01*
X127711681Y-87866109D01*
X127717712Y-87868794D01*
X127811113Y-87888647D01*
X127898056Y-87907128D01*
X127898061Y-87907128D01*
X127904513Y-87908500D01*
X128095487Y-87908500D01*
X128101939Y-87907128D01*
X128101944Y-87907128D01*
X128188887Y-87888647D01*
X128282288Y-87868794D01*
X128288319Y-87866109D01*
X128450722Y-87793803D01*
X128450724Y-87793802D01*
X128456752Y-87791118D01*
X128611253Y-87678866D01*
X128739040Y-87536944D01*
X128814824Y-87405683D01*
X128831223Y-87377279D01*
X128831224Y-87377278D01*
X128834527Y-87371556D01*
X128893542Y-87189928D01*
X128898580Y-87142000D01*
X128912814Y-87006565D01*
X128913504Y-87000000D01*
X128902154Y-86892009D01*
X128894232Y-86816635D01*
X128894232Y-86816633D01*
X128893542Y-86810072D01*
X128834527Y-86628444D01*
X128739040Y-86463056D01*
X128665863Y-86381785D01*
X128635147Y-86317779D01*
X128633500Y-86297476D01*
X128633500Y-82473767D01*
X128634027Y-82462584D01*
X128635702Y-82455091D01*
X128633562Y-82387014D01*
X128633500Y-82383055D01*
X128633500Y-82355144D01*
X128632995Y-82351144D01*
X128632062Y-82339301D01*
X128631792Y-82330694D01*
X128630673Y-82295111D01*
X128625021Y-82275657D01*
X128621013Y-82256300D01*
X128619468Y-82244070D01*
X128619468Y-82244069D01*
X128618474Y-82236203D01*
X128607156Y-82207617D01*
X128602196Y-82195088D01*
X128598351Y-82183858D01*
X128588229Y-82149017D01*
X128588229Y-82149016D01*
X128586018Y-82141407D01*
X128581985Y-82134588D01*
X128581983Y-82134583D01*
X128575707Y-82123972D01*
X128567012Y-82106224D01*
X128559552Y-82087383D01*
X128533564Y-82051613D01*
X128527048Y-82041693D01*
X128508580Y-82010465D01*
X128508578Y-82010462D01*
X128504542Y-82003638D01*
X128490221Y-81989317D01*
X128477380Y-81974283D01*
X128470131Y-81964306D01*
X128465472Y-81957893D01*
X128431395Y-81929702D01*
X128422616Y-81921712D01*
X126211701Y-79710796D01*
X126177675Y-79648484D01*
X126182740Y-79577668D01*
X126197583Y-79549430D01*
X126208739Y-79533498D01*
X126294056Y-79411653D01*
X126296379Y-79406671D01*
X126296382Y-79406666D01*
X126347464Y-79297118D01*
X126387120Y-79212076D01*
X126444115Y-78999371D01*
X126463307Y-78780000D01*
X126444115Y-78560629D01*
X126387120Y-78347924D01*
X126333571Y-78233087D01*
X126296382Y-78153334D01*
X126296379Y-78153329D01*
X126294056Y-78148347D01*
X126290899Y-78143838D01*
X126170908Y-77972473D01*
X126170906Y-77972470D01*
X126167749Y-77967962D01*
X126012038Y-77812251D01*
X125961571Y-77776913D01*
X125932759Y-77756739D01*
X125831654Y-77685944D01*
X125632076Y-77592880D01*
X125419371Y-77535885D01*
X125200000Y-77516693D01*
X124980629Y-77535885D01*
X124767924Y-77592880D01*
X124674562Y-77636415D01*
X124573334Y-77683618D01*
X124573329Y-77683621D01*
X124568347Y-77685944D01*
X124563840Y-77689100D01*
X124563838Y-77689101D01*
X124392473Y-77809092D01*
X124392470Y-77809094D01*
X124387962Y-77812251D01*
X124232251Y-77967962D01*
X124229094Y-77972470D01*
X124229092Y-77972473D01*
X124200875Y-78012771D01*
X124145417Y-78057099D01*
X124097662Y-78066500D01*
X121734337Y-78066500D01*
X121666216Y-78046498D01*
X121619723Y-77992842D01*
X121608816Y-77951482D01*
X121597947Y-77827251D01*
X121593543Y-77776913D01*
X121592119Y-77771598D01*
X121592118Y-77771591D01*
X121576541Y-77713459D01*
X121578230Y-77642483D01*
X121609152Y-77591752D01*
X121992247Y-77208657D01*
X122000537Y-77201113D01*
X122007018Y-77197000D01*
X122053659Y-77147332D01*
X122056413Y-77144491D01*
X122076135Y-77124769D01*
X122078612Y-77121576D01*
X122086317Y-77112555D01*
X122111159Y-77086100D01*
X122116586Y-77080321D01*
X122120407Y-77073371D01*
X122126346Y-77062568D01*
X122137202Y-77046041D01*
X122144757Y-77036302D01*
X122144758Y-77036300D01*
X122149614Y-77030040D01*
X122167174Y-76989460D01*
X122172391Y-76978812D01*
X122189875Y-76947009D01*
X122189876Y-76947007D01*
X122193695Y-76940060D01*
X122198733Y-76920437D01*
X122205137Y-76901734D01*
X122210033Y-76890420D01*
X122210033Y-76890419D01*
X122213181Y-76883145D01*
X122214420Y-76875322D01*
X122214423Y-76875312D01*
X122220099Y-76839476D01*
X122222505Y-76827856D01*
X122231528Y-76792711D01*
X122231528Y-76792710D01*
X122233500Y-76785030D01*
X122233500Y-76764776D01*
X122235051Y-76745065D01*
X122236980Y-76732886D01*
X122238220Y-76725057D01*
X122234059Y-76681038D01*
X122233500Y-76669181D01*
X122233500Y-76034500D01*
X122253502Y-75966379D01*
X122307158Y-75919886D01*
X122359500Y-75908500D01*
X122748134Y-75908500D01*
X122810316Y-75901745D01*
X122946705Y-75850615D01*
X122970085Y-75833093D01*
X123024435Y-75792360D01*
X123090942Y-75767512D01*
X123160324Y-75782565D01*
X123175565Y-75792360D01*
X123229915Y-75833093D01*
X123253295Y-75850615D01*
X123389684Y-75901745D01*
X123451866Y-75908500D01*
X125748134Y-75908500D01*
X125810316Y-75901745D01*
X125946705Y-75850615D01*
X126063261Y-75763261D01*
X126150615Y-75646705D01*
X126201745Y-75510316D01*
X126208500Y-75448134D01*
X126208500Y-73751866D01*
X126201745Y-73689684D01*
X126150615Y-73553295D01*
X126063261Y-73436739D01*
X125946705Y-73349385D01*
X125810316Y-73298255D01*
X125748134Y-73291500D01*
X125468045Y-73291500D01*
X125399924Y-73271498D01*
X125353431Y-73217842D01*
X125343327Y-73147568D01*
X125358926Y-73102500D01*
X125431223Y-72977279D01*
X125431224Y-72977278D01*
X125434527Y-72971556D01*
X125493542Y-72789928D01*
X125494872Y-72777279D01*
X125512814Y-72606565D01*
X125513504Y-72600000D01*
X125493542Y-72410072D01*
X125434527Y-72228444D01*
X125369362Y-72115575D01*
X125352624Y-72046580D01*
X125375844Y-71979488D01*
X125431651Y-71935601D01*
X125502327Y-71928852D01*
X125567576Y-71963480D01*
X127929595Y-74325499D01*
X127963621Y-74387811D01*
X127966500Y-74414594D01*
X127966500Y-75821233D01*
X127965973Y-75832416D01*
X127964298Y-75839909D01*
X127964547Y-75847835D01*
X127964547Y-75847836D01*
X127966438Y-75907986D01*
X127966500Y-75911945D01*
X127966500Y-75939856D01*
X127966997Y-75943790D01*
X127966997Y-75943791D01*
X127967005Y-75943856D01*
X127967938Y-75955693D01*
X127969327Y-75999889D01*
X127974978Y-76019339D01*
X127978987Y-76038700D01*
X127980316Y-76049216D01*
X127981526Y-76058797D01*
X127984445Y-76066168D01*
X127984445Y-76066170D01*
X127997804Y-76099912D01*
X128001649Y-76111142D01*
X128010098Y-76140224D01*
X128013982Y-76153593D01*
X128018015Y-76160412D01*
X128018017Y-76160417D01*
X128024293Y-76171028D01*
X128032988Y-76188776D01*
X128040448Y-76207617D01*
X128045110Y-76214033D01*
X128045110Y-76214034D01*
X128066436Y-76243387D01*
X128072952Y-76253307D01*
X128090545Y-76283054D01*
X128095458Y-76291362D01*
X128109779Y-76305683D01*
X128122619Y-76320716D01*
X128134528Y-76337107D01*
X128156315Y-76355131D01*
X128168605Y-76365298D01*
X128177384Y-76373288D01*
X136446343Y-84642247D01*
X136453887Y-84650537D01*
X136458000Y-84657018D01*
X136463777Y-84662443D01*
X136507667Y-84703658D01*
X136510509Y-84706413D01*
X136530230Y-84726134D01*
X136533425Y-84728612D01*
X136542447Y-84736318D01*
X136574679Y-84766586D01*
X136581628Y-84770406D01*
X136592432Y-84776346D01*
X136608956Y-84787199D01*
X136624959Y-84799613D01*
X136665543Y-84817176D01*
X136676173Y-84822383D01*
X136714940Y-84843695D01*
X136722617Y-84845666D01*
X136722622Y-84845668D01*
X136734558Y-84848732D01*
X136753266Y-84855137D01*
X136771855Y-84863181D01*
X136779683Y-84864421D01*
X136779690Y-84864423D01*
X136815524Y-84870099D01*
X136827144Y-84872505D01*
X136862289Y-84881528D01*
X136869970Y-84883500D01*
X136890224Y-84883500D01*
X136909934Y-84885051D01*
X136929943Y-84888220D01*
X136937835Y-84887474D01*
X136973961Y-84884059D01*
X136985819Y-84883500D01*
X137835406Y-84883500D01*
X137903527Y-84903502D01*
X137924501Y-84920405D01*
X141921346Y-88917250D01*
X141955372Y-88979562D01*
X141958251Y-89006345D01*
X141958251Y-89521233D01*
X141957724Y-89532416D01*
X141956049Y-89539909D01*
X141956298Y-89547835D01*
X141956298Y-89547836D01*
X141958189Y-89607986D01*
X141958251Y-89611945D01*
X141958251Y-89620500D01*
X141938249Y-89688621D01*
X141884593Y-89735114D01*
X141832251Y-89746500D01*
X140908498Y-89746500D01*
X140906050Y-89746693D01*
X140906042Y-89746693D01*
X140877579Y-89748933D01*
X140877574Y-89748934D01*
X140871169Y-89749438D01*
X140771231Y-89778472D01*
X140719012Y-89793643D01*
X140719010Y-89793644D01*
X140711399Y-89795855D01*
X140704572Y-89799892D01*
X140704573Y-89799892D01*
X140575020Y-89876509D01*
X140575017Y-89876511D01*
X140568193Y-89880547D01*
X140450547Y-89998193D01*
X140446511Y-90005017D01*
X140446509Y-90005020D01*
X140388359Y-90103347D01*
X140365855Y-90141399D01*
X140319438Y-90301169D01*
X140318934Y-90307574D01*
X140318933Y-90307579D01*
X140316693Y-90336042D01*
X140316500Y-90338498D01*
X140316500Y-90771502D01*
X140316693Y-90773950D01*
X140316693Y-90773958D01*
X140318496Y-90796858D01*
X140319438Y-90808831D01*
X140348472Y-90908769D01*
X140349775Y-90913251D01*
X140365855Y-90968601D01*
X140369892Y-90975427D01*
X140446509Y-91104980D01*
X140446511Y-91104983D01*
X140450547Y-91111807D01*
X140568193Y-91229453D01*
X140575017Y-91233489D01*
X140575020Y-91233491D01*
X140682589Y-91297107D01*
X140711399Y-91314145D01*
X140719010Y-91316356D01*
X140719012Y-91316357D01*
X140748869Y-91325031D01*
X140871169Y-91360562D01*
X140877574Y-91361066D01*
X140877579Y-91361067D01*
X140906042Y-91363307D01*
X140906050Y-91363307D01*
X140908498Y-91363500D01*
X142137157Y-91363500D01*
X142205278Y-91383502D01*
X142226252Y-91400405D01*
X143329595Y-92503749D01*
X143363621Y-92566061D01*
X143366500Y-92592844D01*
X143366500Y-93621050D01*
X143346498Y-93689171D01*
X143292842Y-93735664D01*
X143222568Y-93745768D01*
X143157988Y-93716274D01*
X143151405Y-93710145D01*
X143131807Y-93690547D01*
X143124983Y-93686511D01*
X143124980Y-93686509D01*
X142995427Y-93609892D01*
X142995428Y-93609892D01*
X142988601Y-93605855D01*
X142980990Y-93603644D01*
X142980988Y-93603643D01*
X142905840Y-93581811D01*
X142828831Y-93559438D01*
X142822426Y-93558934D01*
X142822421Y-93558933D01*
X142793958Y-93556693D01*
X142793950Y-93556693D01*
X142791502Y-93556500D01*
X140908498Y-93556500D01*
X140906050Y-93556693D01*
X140906042Y-93556693D01*
X140877579Y-93558933D01*
X140877574Y-93558934D01*
X140871169Y-93559438D01*
X140794160Y-93581811D01*
X140719012Y-93603643D01*
X140719010Y-93603644D01*
X140711399Y-93605855D01*
X140704572Y-93609892D01*
X140704573Y-93609892D01*
X140575020Y-93686509D01*
X140575017Y-93686511D01*
X140568193Y-93690547D01*
X140450547Y-93808193D01*
X140446511Y-93815017D01*
X140446509Y-93815020D01*
X140413896Y-93870166D01*
X140365855Y-93951399D01*
X140319438Y-94111169D01*
X140318934Y-94117574D01*
X140318933Y-94117579D01*
X140316885Y-94143601D01*
X140316500Y-94148498D01*
X140316500Y-94581502D01*
X140316693Y-94583950D01*
X140316693Y-94583958D01*
X140317485Y-94594012D01*
X140319438Y-94618831D01*
X140345361Y-94708059D01*
X140362202Y-94766026D01*
X140365855Y-94778601D01*
X140385231Y-94811363D01*
X140402689Y-94880178D01*
X140380172Y-94947509D01*
X140324827Y-94991978D01*
X140276776Y-95001500D01*
X139949594Y-95001500D01*
X139881473Y-94981498D01*
X139860499Y-94964595D01*
X137947122Y-93051217D01*
X137913096Y-92988905D01*
X137910907Y-92975292D01*
X137894232Y-92816635D01*
X137894232Y-92816633D01*
X137893542Y-92810072D01*
X137834527Y-92628444D01*
X137739040Y-92463056D01*
X137716869Y-92438432D01*
X137615675Y-92326045D01*
X137615674Y-92326044D01*
X137611253Y-92321134D01*
X137456752Y-92208882D01*
X137450724Y-92206198D01*
X137450722Y-92206197D01*
X137288319Y-92133891D01*
X137288318Y-92133891D01*
X137282288Y-92131206D01*
X137188888Y-92111353D01*
X137101944Y-92092872D01*
X137101939Y-92092872D01*
X137095487Y-92091500D01*
X136904513Y-92091500D01*
X136898061Y-92092872D01*
X136898056Y-92092872D01*
X136811112Y-92111353D01*
X136717712Y-92131206D01*
X136711682Y-92133891D01*
X136711681Y-92133891D01*
X136549278Y-92206197D01*
X136549276Y-92206198D01*
X136543248Y-92208882D01*
X136388747Y-92321134D01*
X136384326Y-92326044D01*
X136384325Y-92326045D01*
X136283132Y-92438432D01*
X136260960Y-92463056D01*
X136165473Y-92628444D01*
X136106458Y-92810072D01*
X136105768Y-92816633D01*
X136105768Y-92816635D01*
X136099063Y-92880427D01*
X136086496Y-93000000D01*
X136087186Y-93006565D01*
X136102628Y-93153484D01*
X136106458Y-93189928D01*
X136165473Y-93371556D01*
X136168776Y-93377278D01*
X136168777Y-93377279D01*
X136185792Y-93406749D01*
X136260960Y-93536944D01*
X136265378Y-93541851D01*
X136265379Y-93541852D01*
X136380350Y-93669540D01*
X136388747Y-93678866D01*
X136480829Y-93745768D01*
X136505087Y-93763392D01*
X136543248Y-93791118D01*
X136549276Y-93793802D01*
X136549278Y-93793803D01*
X136676416Y-93850408D01*
X136717712Y-93868794D01*
X136811113Y-93888647D01*
X136898056Y-93907128D01*
X136898061Y-93907128D01*
X136904513Y-93908500D01*
X136960406Y-93908500D01*
X137028527Y-93928502D01*
X137049501Y-93945405D01*
X137981748Y-94877653D01*
X138015773Y-94939963D01*
X138010708Y-95010778D01*
X137968161Y-95067614D01*
X137907243Y-95091500D01*
X137904513Y-95091500D01*
X137717712Y-95131206D01*
X137711682Y-95133891D01*
X137711681Y-95133891D01*
X137549278Y-95206197D01*
X137549276Y-95206198D01*
X137543248Y-95208882D01*
X137537907Y-95212762D01*
X137537906Y-95212763D01*
X137490204Y-95247421D01*
X137388747Y-95321134D01*
X137384326Y-95326044D01*
X137384325Y-95326045D01*
X137294468Y-95425842D01*
X137260960Y-95463056D01*
X137165473Y-95628444D01*
X137162113Y-95638786D01*
X137161258Y-95641417D01*
X137121184Y-95700023D01*
X137055787Y-95727659D01*
X136991385Y-95718117D01*
X136979158Y-95712826D01*
X136968508Y-95707609D01*
X136929755Y-95686305D01*
X136910132Y-95681267D01*
X136891429Y-95674863D01*
X136880115Y-95669967D01*
X136880114Y-95669967D01*
X136872840Y-95666819D01*
X136865017Y-95665580D01*
X136865007Y-95665577D01*
X136829171Y-95659901D01*
X136817551Y-95657495D01*
X136782406Y-95648472D01*
X136782405Y-95648472D01*
X136774725Y-95646500D01*
X136754471Y-95646500D01*
X136734760Y-95644949D01*
X136722581Y-95643020D01*
X136714752Y-95641780D01*
X136685481Y-95644547D01*
X136670734Y-95645941D01*
X136658876Y-95646500D01*
X135309500Y-95646500D01*
X135241379Y-95626498D01*
X135194886Y-95572842D01*
X135183500Y-95520500D01*
X135183500Y-95418498D01*
X135183115Y-95413601D01*
X135181067Y-95387579D01*
X135181066Y-95387574D01*
X135180562Y-95381169D01*
X135134145Y-95221399D01*
X135049453Y-95078193D01*
X135046771Y-95075511D01*
X135021498Y-95011139D01*
X135035400Y-94941516D01*
X135045572Y-94925688D01*
X135049453Y-94921807D01*
X135134145Y-94778601D01*
X135137799Y-94766026D01*
X135154639Y-94708059D01*
X135180562Y-94618831D01*
X135182516Y-94594012D01*
X135183307Y-94583958D01*
X135183307Y-94583950D01*
X135183500Y-94581502D01*
X135183500Y-94206345D01*
X135203502Y-94138224D01*
X135220405Y-94117250D01*
X135487247Y-93850408D01*
X135495537Y-93842864D01*
X135502018Y-93838751D01*
X135548659Y-93789083D01*
X135551413Y-93786242D01*
X135571135Y-93766520D01*
X135573612Y-93763327D01*
X135581317Y-93754306D01*
X135611586Y-93722072D01*
X135619785Y-93707158D01*
X135621346Y-93704319D01*
X135632202Y-93687792D01*
X135639757Y-93678053D01*
X135639758Y-93678051D01*
X135644614Y-93671791D01*
X135662174Y-93631211D01*
X135667391Y-93620563D01*
X135684875Y-93588760D01*
X135684876Y-93588758D01*
X135688695Y-93581811D01*
X135693733Y-93562188D01*
X135700137Y-93543485D01*
X135705033Y-93532171D01*
X135705033Y-93532170D01*
X135708181Y-93524896D01*
X135709420Y-93517073D01*
X135709423Y-93517063D01*
X135715099Y-93481227D01*
X135717505Y-93469607D01*
X135726528Y-93434462D01*
X135726528Y-93434461D01*
X135728500Y-93426781D01*
X135728500Y-93406527D01*
X135730051Y-93386816D01*
X135731980Y-93374637D01*
X135733220Y-93366808D01*
X135729059Y-93322789D01*
X135728500Y-93310932D01*
X135728500Y-90382017D01*
X135729027Y-90370834D01*
X135730702Y-90363341D01*
X135728988Y-90308798D01*
X135728562Y-90295241D01*
X135728500Y-90291283D01*
X135728500Y-90263393D01*
X135727996Y-90259402D01*
X135727063Y-90247560D01*
X135726858Y-90241011D01*
X135725674Y-90203360D01*
X135723461Y-90195742D01*
X135720021Y-90183901D01*
X135716012Y-90164542D01*
X135715846Y-90163232D01*
X135713474Y-90144452D01*
X135710558Y-90137086D01*
X135710556Y-90137080D01*
X135697200Y-90103347D01*
X135693355Y-90092117D01*
X135683230Y-90057266D01*
X135683230Y-90057265D01*
X135681019Y-90049656D01*
X135670705Y-90032215D01*
X135662008Y-90014462D01*
X135657472Y-90003007D01*
X135654552Y-89995632D01*
X135628563Y-89959861D01*
X135622047Y-89949941D01*
X135603578Y-89918712D01*
X135599542Y-89911887D01*
X135585221Y-89897566D01*
X135572380Y-89882532D01*
X135565131Y-89872555D01*
X135560472Y-89866142D01*
X135554367Y-89861091D01*
X135554362Y-89861086D01*
X135526396Y-89837950D01*
X135517618Y-89829962D01*
X134795403Y-89107747D01*
X134787863Y-89099461D01*
X134783751Y-89092982D01*
X134734099Y-89046356D01*
X134731258Y-89043602D01*
X134711521Y-89023865D01*
X134708324Y-89021385D01*
X134699302Y-89013680D01*
X134672851Y-88988841D01*
X134667072Y-88983414D01*
X134660126Y-88979595D01*
X134660123Y-88979593D01*
X134649317Y-88973652D01*
X134632798Y-88962801D01*
X134632334Y-88962441D01*
X134616792Y-88950386D01*
X134609523Y-88947241D01*
X134609519Y-88947238D01*
X134576214Y-88932826D01*
X134565564Y-88927609D01*
X134526811Y-88906305D01*
X134507188Y-88901267D01*
X134488485Y-88894863D01*
X134477171Y-88889967D01*
X134477170Y-88889967D01*
X134469896Y-88886819D01*
X134462073Y-88885580D01*
X134462063Y-88885577D01*
X134426227Y-88879901D01*
X134414607Y-88877495D01*
X134379462Y-88868472D01*
X134379461Y-88868472D01*
X134371781Y-88866500D01*
X134351527Y-88866500D01*
X134331816Y-88864949D01*
X134319637Y-88863020D01*
X134311808Y-88861780D01*
X134303916Y-88862526D01*
X134267790Y-88865941D01*
X134255932Y-88866500D01*
X131302441Y-88866500D01*
X131282740Y-88864950D01*
X131250861Y-88859900D01*
X131239271Y-88857500D01*
X131196426Y-88846500D01*
X131176172Y-88846500D01*
X131156461Y-88844949D01*
X131144282Y-88843020D01*
X131136453Y-88841780D01*
X131128561Y-88842526D01*
X131092435Y-88845941D01*
X131080577Y-88846500D01*
X125294594Y-88846500D01*
X125226473Y-88826498D01*
X125205499Y-88809595D01*
X118070405Y-81674500D01*
X118036379Y-81612188D01*
X118033500Y-81585405D01*
X118033500Y-73978767D01*
X118034027Y-73967584D01*
X118035702Y-73960091D01*
X118035444Y-73951866D01*
X118033562Y-73892001D01*
X118033500Y-73888043D01*
X118033500Y-73860144D01*
X118032996Y-73856153D01*
X118032063Y-73844311D01*
X118031915Y-73839581D01*
X118030674Y-73800111D01*
X118028462Y-73792497D01*
X118028461Y-73792492D01*
X118025023Y-73780659D01*
X118021012Y-73761295D01*
X118020002Y-73753295D01*
X118018474Y-73741203D01*
X118015557Y-73733836D01*
X118015556Y-73733831D01*
X118002198Y-73700092D01*
X117998354Y-73688865D01*
X117988230Y-73654022D01*
X117986018Y-73646407D01*
X117975707Y-73628972D01*
X117967012Y-73611224D01*
X117959552Y-73592383D01*
X117933564Y-73556613D01*
X117927048Y-73546693D01*
X117908580Y-73515465D01*
X117908578Y-73515462D01*
X117904542Y-73508638D01*
X117890221Y-73494317D01*
X117877380Y-73479283D01*
X117870131Y-73469306D01*
X117865472Y-73462893D01*
X117831395Y-73434702D01*
X117822616Y-73426712D01*
X111670405Y-67274500D01*
X111636379Y-67212188D01*
X111633500Y-67185405D01*
X111633500Y-58877012D01*
X111634027Y-58865828D01*
X111635701Y-58858340D01*
X111633562Y-58790281D01*
X111633500Y-58786324D01*
X111633500Y-58758393D01*
X111632994Y-58754387D01*
X111632061Y-58742541D01*
X111630922Y-58706286D01*
X111630673Y-58698359D01*
X111625022Y-58678907D01*
X111621014Y-58659555D01*
X111619468Y-58647317D01*
X111619467Y-58647315D01*
X111618474Y-58639452D01*
X111602194Y-58598335D01*
X111598359Y-58587134D01*
X111586018Y-58544655D01*
X111581985Y-58537836D01*
X111581983Y-58537831D01*
X111575707Y-58527220D01*
X111567010Y-58509470D01*
X111559552Y-58490632D01*
X111533571Y-58454872D01*
X111527053Y-58444950D01*
X111508578Y-58413709D01*
X111508574Y-58413704D01*
X111504542Y-58406886D01*
X111490218Y-58392562D01*
X111477376Y-58377527D01*
X111474103Y-58373022D01*
X111465472Y-58361142D01*
X111431406Y-58332960D01*
X111422627Y-58324971D01*
X108920405Y-55822749D01*
X108886379Y-55760437D01*
X108883500Y-55733654D01*
X108883500Y-55358498D01*
X108883307Y-55356042D01*
X108881067Y-55327579D01*
X108881066Y-55327574D01*
X108880562Y-55321169D01*
X108846616Y-55204326D01*
X108836357Y-55169012D01*
X108836356Y-55169010D01*
X108834145Y-55161399D01*
X108775985Y-55063056D01*
X108753491Y-55025020D01*
X108753489Y-55025017D01*
X108749453Y-55018193D01*
X108631807Y-54900547D01*
X108624983Y-54896511D01*
X108624980Y-54896509D01*
X108495427Y-54819892D01*
X108495428Y-54819892D01*
X108488601Y-54815855D01*
X108480990Y-54813644D01*
X108480988Y-54813643D01*
X108411430Y-54793435D01*
X108328831Y-54769438D01*
X108322426Y-54768934D01*
X108322421Y-54768933D01*
X108293958Y-54766693D01*
X108293950Y-54766693D01*
X108291502Y-54766500D01*
X106759500Y-54766500D01*
X106691379Y-54746498D01*
X106644886Y-54692842D01*
X106633500Y-54640500D01*
X106633500Y-54272844D01*
X106653502Y-54204723D01*
X106670405Y-54183748D01*
X107183750Y-53670404D01*
X107246062Y-53636379D01*
X107272845Y-53633500D01*
X123690500Y-53633500D01*
X123758621Y-53653502D01*
G37*
%TD.AperFunction*%
%TA.AperFunction,Conductor*%
G36*
X141296649Y-62193502D02*
G01*
X141317623Y-62210405D01*
X141693699Y-62586481D01*
X141727725Y-62648793D01*
X141722660Y-62719608D01*
X141680113Y-62776444D01*
X141662784Y-62787339D01*
X141601851Y-62819059D01*
X141520136Y-62861597D01*
X141516003Y-62864700D01*
X141516000Y-62864702D01*
X141332480Y-63002493D01*
X141328345Y-63005598D01*
X141162648Y-63178990D01*
X141159734Y-63183262D01*
X141159733Y-63183263D01*
X141150904Y-63196206D01*
X141027495Y-63377117D01*
X140926516Y-63594656D01*
X140892216Y-63718340D01*
X140871289Y-63793803D01*
X140862424Y-63825768D01*
X140851781Y-63925354D01*
X140841882Y-64017985D01*
X140841500Y-64021557D01*
X140841500Y-65760803D01*
X140841712Y-65763376D01*
X140841712Y-65763387D01*
X140855729Y-65933876D01*
X140855730Y-65933882D01*
X140856153Y-65939027D01*
X140873639Y-66008641D01*
X140913192Y-66166109D01*
X140914580Y-66171636D01*
X140916636Y-66176366D01*
X140916639Y-66176373D01*
X141006894Y-66383945D01*
X141010213Y-66391578D01*
X141013017Y-66395912D01*
X141013019Y-66395916D01*
X141040603Y-66438554D01*
X141140485Y-66592947D01*
X141143964Y-66596770D01*
X141143966Y-66596773D01*
X141206502Y-66665499D01*
X141301896Y-66770335D01*
X141305947Y-66773534D01*
X141305951Y-66773538D01*
X141397235Y-66845629D01*
X141490112Y-66918979D01*
X141700078Y-67034887D01*
X141819078Y-67077027D01*
X141921280Y-67113219D01*
X141921284Y-67113220D01*
X141926155Y-67114945D01*
X141931248Y-67115852D01*
X141931251Y-67115853D01*
X142157184Y-67156098D01*
X142157190Y-67156099D01*
X142162273Y-67157004D01*
X142249540Y-67158070D01*
X142396919Y-67159871D01*
X142396921Y-67159871D01*
X142402089Y-67159934D01*
X142639163Y-67123657D01*
X142867129Y-67049146D01*
X143079864Y-66938403D01*
X143083997Y-66935300D01*
X143084000Y-66935298D01*
X143267520Y-66797507D01*
X143267523Y-66797505D01*
X143271655Y-66794402D01*
X143437352Y-66621010D01*
X143572505Y-66422883D01*
X143635188Y-66287846D01*
X143671309Y-66210030D01*
X143671310Y-66210028D01*
X143673484Y-66205344D01*
X143729648Y-66002821D01*
X143736197Y-65979205D01*
X143736197Y-65979204D01*
X143737576Y-65974232D01*
X143750244Y-65855693D01*
X143758144Y-65781778D01*
X143758144Y-65781770D01*
X143758500Y-65778443D01*
X143758500Y-64955472D01*
X143778502Y-64887351D01*
X143832158Y-64840858D01*
X143902432Y-64830754D01*
X143967012Y-64860248D01*
X143973595Y-64866377D01*
X144104594Y-64997376D01*
X144138620Y-65059688D01*
X144141499Y-65086471D01*
X144141499Y-65346232D01*
X144140972Y-65357415D01*
X144139297Y-65364908D01*
X144139546Y-65372834D01*
X144139546Y-65372835D01*
X144141437Y-65432985D01*
X144141499Y-65436944D01*
X144141499Y-65464855D01*
X144141996Y-65468789D01*
X144141996Y-65468790D01*
X144142004Y-65468855D01*
X144142937Y-65480692D01*
X144144326Y-65524888D01*
X144146942Y-65533891D01*
X144149977Y-65544338D01*
X144153986Y-65563699D01*
X144156525Y-65583796D01*
X144159444Y-65591167D01*
X144159444Y-65591169D01*
X144172803Y-65624911D01*
X144176648Y-65636141D01*
X144182044Y-65654715D01*
X144188981Y-65678592D01*
X144193014Y-65685411D01*
X144193016Y-65685416D01*
X144199292Y-65696027D01*
X144207987Y-65713775D01*
X144215447Y-65732616D01*
X144220109Y-65739032D01*
X144220109Y-65739033D01*
X144241435Y-65768386D01*
X144247951Y-65778306D01*
X144264510Y-65806305D01*
X144270457Y-65816361D01*
X144284778Y-65830682D01*
X144297618Y-65845715D01*
X144309527Y-65862106D01*
X144320846Y-65871470D01*
X144343604Y-65890297D01*
X144352383Y-65898287D01*
X145904595Y-67450499D01*
X145938621Y-67512811D01*
X145941500Y-67539594D01*
X145941500Y-68948134D01*
X145948255Y-69010316D01*
X145999385Y-69146705D01*
X146086739Y-69263261D01*
X146093919Y-69268642D01*
X146093920Y-69268643D01*
X146188696Y-69339674D01*
X146231211Y-69396533D01*
X146236237Y-69467352D01*
X146202177Y-69529645D01*
X146139845Y-69563635D01*
X146113131Y-69566500D01*
X129514594Y-69566500D01*
X129446473Y-69546498D01*
X129425499Y-69529595D01*
X124999500Y-65103595D01*
X124965474Y-65041283D01*
X124970539Y-64970468D01*
X125013086Y-64913632D01*
X125079606Y-64888821D01*
X125088595Y-64888500D01*
X126291502Y-64888500D01*
X126293950Y-64888307D01*
X126293958Y-64888307D01*
X126322421Y-64886067D01*
X126322426Y-64886066D01*
X126328831Y-64885562D01*
X126428769Y-64856528D01*
X126480988Y-64841357D01*
X126480990Y-64841356D01*
X126488601Y-64839145D01*
X126543691Y-64806565D01*
X126624980Y-64758491D01*
X126624983Y-64758489D01*
X126631807Y-64754453D01*
X126639458Y-64746802D01*
X126641453Y-64745713D01*
X126643675Y-64743989D01*
X126643953Y-64744347D01*
X126701770Y-64712776D01*
X126772585Y-64717841D01*
X126817648Y-64746802D01*
X128321664Y-66250818D01*
X128355690Y-66313130D01*
X128350625Y-66383945D01*
X128340349Y-66405177D01*
X128324528Y-66431301D01*
X128273247Y-66594938D01*
X128266500Y-66668365D01*
X128266501Y-67331634D01*
X128266764Y-67334492D01*
X128266764Y-67334501D01*
X128270026Y-67370004D01*
X128273247Y-67405062D01*
X128275246Y-67411440D01*
X128275246Y-67411441D01*
X128307014Y-67512811D01*
X128324528Y-67568699D01*
X128413361Y-67715381D01*
X128534619Y-67836639D01*
X128681301Y-67925472D01*
X128688548Y-67927743D01*
X128688550Y-67927744D01*
X128754836Y-67948517D01*
X128844938Y-67976753D01*
X128918365Y-67983500D01*
X128921263Y-67983500D01*
X129175665Y-67983499D01*
X129431634Y-67983499D01*
X129434492Y-67983236D01*
X129434501Y-67983236D01*
X129470004Y-67979974D01*
X129505062Y-67976753D01*
X129511447Y-67974752D01*
X129661450Y-67927744D01*
X129661452Y-67927743D01*
X129668699Y-67925472D01*
X129815381Y-67836639D01*
X129910905Y-67741115D01*
X129973217Y-67707089D01*
X130044032Y-67712154D01*
X130089095Y-67741115D01*
X130184619Y-67836639D01*
X130331301Y-67925472D01*
X130338548Y-67927743D01*
X130338550Y-67927744D01*
X130404836Y-67948517D01*
X130494938Y-67976753D01*
X130568365Y-67983500D01*
X130571263Y-67983500D01*
X130825665Y-67983499D01*
X131081634Y-67983499D01*
X131084492Y-67983236D01*
X131084501Y-67983236D01*
X131120004Y-67979974D01*
X131155062Y-67976753D01*
X131161447Y-67974752D01*
X131311450Y-67927744D01*
X131311452Y-67927743D01*
X131318699Y-67925472D01*
X131465381Y-67836639D01*
X131586639Y-67715381D01*
X131675472Y-67568699D01*
X131726753Y-67405062D01*
X131733500Y-67331635D01*
X131733499Y-66668366D01*
X131733234Y-66665474D01*
X131727364Y-66601592D01*
X131726753Y-66594938D01*
X131675472Y-66431301D01*
X131586639Y-66284619D01*
X131495405Y-66193385D01*
X131461379Y-66131073D01*
X131458500Y-66104290D01*
X131458500Y-64489594D01*
X131478502Y-64421473D01*
X131495405Y-64400499D01*
X131599402Y-64296502D01*
X133116500Y-64296502D01*
X133116693Y-64298950D01*
X133116693Y-64298958D01*
X133118161Y-64317600D01*
X133119438Y-64333831D01*
X133165855Y-64493601D01*
X133169892Y-64500427D01*
X133246509Y-64629980D01*
X133246511Y-64629983D01*
X133250547Y-64636807D01*
X133368193Y-64754453D01*
X133375017Y-64758489D01*
X133375020Y-64758491D01*
X133456309Y-64806565D01*
X133511399Y-64839145D01*
X133519010Y-64841356D01*
X133519012Y-64841357D01*
X133571231Y-64856528D01*
X133671169Y-64885562D01*
X133677574Y-64886066D01*
X133677579Y-64886067D01*
X133706042Y-64888307D01*
X133706050Y-64888307D01*
X133708498Y-64888500D01*
X135591502Y-64888500D01*
X135593950Y-64888307D01*
X135593958Y-64888307D01*
X135622421Y-64886067D01*
X135622426Y-64886066D01*
X135628831Y-64885562D01*
X135728769Y-64856528D01*
X135780988Y-64841357D01*
X135780990Y-64841356D01*
X135788601Y-64839145D01*
X135843691Y-64806565D01*
X135924980Y-64758491D01*
X135924983Y-64758489D01*
X135931807Y-64754453D01*
X136049453Y-64636807D01*
X136053489Y-64629983D01*
X136053491Y-64629980D01*
X136130108Y-64500427D01*
X136134145Y-64493601D01*
X136180562Y-64333831D01*
X136181840Y-64317600D01*
X136183307Y-64298958D01*
X136183307Y-64298950D01*
X136183500Y-64296502D01*
X136183500Y-63863498D01*
X136183307Y-63861042D01*
X136181067Y-63832579D01*
X136181066Y-63832574D01*
X136180562Y-63826169D01*
X136143774Y-63699542D01*
X136136357Y-63674012D01*
X136136356Y-63674010D01*
X136134145Y-63666399D01*
X136060488Y-63541852D01*
X136053491Y-63530020D01*
X136053489Y-63530017D01*
X136049453Y-63523193D01*
X135931807Y-63405547D01*
X135924983Y-63401511D01*
X135924980Y-63401509D01*
X135795427Y-63324892D01*
X135795428Y-63324892D01*
X135788601Y-63320855D01*
X135780990Y-63318644D01*
X135780988Y-63318643D01*
X135728769Y-63303472D01*
X135628831Y-63274438D01*
X135622426Y-63273934D01*
X135622421Y-63273933D01*
X135593958Y-63271693D01*
X135593950Y-63271693D01*
X135591502Y-63271500D01*
X133708498Y-63271500D01*
X133706050Y-63271693D01*
X133706042Y-63271693D01*
X133677579Y-63273933D01*
X133677574Y-63273934D01*
X133671169Y-63274438D01*
X133571231Y-63303472D01*
X133519012Y-63318643D01*
X133519010Y-63318644D01*
X133511399Y-63320855D01*
X133504572Y-63324892D01*
X133504573Y-63324892D01*
X133375020Y-63401509D01*
X133375017Y-63401511D01*
X133368193Y-63405547D01*
X133250547Y-63523193D01*
X133246511Y-63530017D01*
X133246509Y-63530020D01*
X133239512Y-63541852D01*
X133165855Y-63666399D01*
X133163644Y-63674010D01*
X133163643Y-63674012D01*
X133156226Y-63699542D01*
X133119438Y-63826169D01*
X133118934Y-63832574D01*
X133118933Y-63832579D01*
X133116693Y-63861042D01*
X133116500Y-63863498D01*
X133116500Y-64296502D01*
X131599402Y-64296502D01*
X133524853Y-62371052D01*
X133587165Y-62337026D01*
X133649101Y-62339151D01*
X133657426Y-62341570D01*
X133664989Y-62343767D01*
X133664993Y-62343768D01*
X133671169Y-62345562D01*
X133677579Y-62346067D01*
X133677582Y-62346067D01*
X133706042Y-62348307D01*
X133706050Y-62348307D01*
X133708498Y-62348500D01*
X135591502Y-62348500D01*
X135593950Y-62348307D01*
X135593958Y-62348307D01*
X135622421Y-62346067D01*
X135622426Y-62346066D01*
X135628831Y-62345562D01*
X135728769Y-62316528D01*
X135780988Y-62301357D01*
X135780990Y-62301356D01*
X135788601Y-62299145D01*
X135848451Y-62263750D01*
X135924980Y-62218491D01*
X135924983Y-62218489D01*
X135931807Y-62214453D01*
X135937415Y-62208845D01*
X135943675Y-62203989D01*
X135944844Y-62205496D01*
X135998167Y-62176379D01*
X136024950Y-62173500D01*
X141228528Y-62173500D01*
X141296649Y-62193502D01*
G37*
%TD.AperFunction*%
%TD*%
M02*
