M48
; DRILL file {KiCad (6.0.7-1)-1} date 
; FORMAT={-:-/ absolute / inch / decimal}
; #@! TF.CreationDate,2022-09-10T09:57:12+09:00
; #@! TF.GenerationSoftware,Kicad,Pcbnew,(6.0.7-1)-1
; #@! TF.FileFunction,Plated,1,2,PTH
FMAT,2
INCH
; #@! TA.AperFunction,Plated,PTH,ViaDrill
T1C0.0157
; #@! TA.AperFunction,Plated,PTH,ComponentDrill
T2C0.0295
; #@! TA.AperFunction,Plated,PTH,ComponentDrill
T3C0.0315
; #@! TA.AperFunction,Plated,PTH,ComponentDrill
T4C0.0354
; #@! TA.AperFunction,Plated,PTH,ComponentDrill
T5C0.0394
; #@! TA.AperFunction,Plated,PTH,ComponentDrill
T6C0.0472
; #@! TA.AperFunction,Plated,PTH,ComponentDrill
T7C0.1260
%
G90
G05
T1
X4.0551Y-3.6614
X4.1378Y-3.5236
X4.189Y-2.5512
X4.2913Y-3.9764
X4.3156Y-3.4723
X4.3307Y-3.8189
X4.4094Y-4.0551
X4.437Y-2.6417
X4.4921Y-2.189
X4.6024Y-2.6378
X4.6811Y-2.1378
X4.6929Y-3.5787
X4.6929Y-3.6614
X4.6969Y-3.7795
X4.7283Y-2.2717
X4.752Y-3.4679
X4.8307Y-2.0276
X4.8307Y-2.2283
X4.8307Y-2.4921
X4.8346Y-2.1732
X4.9213Y-2.7756
X4.9803Y-3.815
X5.0315Y-3.3831
X5.0315Y-3.7402
X5.0433Y-2.374
X5.0827Y-3.9055
X5.1535Y-3.7874
X5.1575Y-3.6614
X5.1811Y-2.3189
X5.2598Y-3.4803
X5.4331Y-3.7795
X5.4921Y-3.7638
X5.5709Y-3.5118
X5.689Y-3.4803
X5.8268Y-3.5118
X5.8661Y-3.6614
X6.0236Y-3.815
T2
X4.2842Y-2.9284
X4.2842Y-3.2284
X4.7283Y-2.9246
X4.7283Y-3.2246
X5.2756Y-2.9285
X5.2756Y-3.2285
X5.7244Y-2.9522
X5.7244Y-3.2522
T3
X4.4495Y-2.8511
X4.4495Y-3.2511
X4.9213Y-2.8551
X4.9213Y-3.2551
X5.4409Y-2.8669
X5.4409Y-3.2669
X5.9016Y-2.8669
X5.9016Y-3.2669
T5
X5.0098Y-4.3268
X5.1083Y-4.3268
X5.2067Y-4.3268
X5.3051Y-4.3268
X5.4035Y-4.3268
X5.502Y-4.3268
T6
X6.2638Y-2.9488
X6.2638Y-3.1496
X6.2638Y-3.3425
X6.2677Y-3.5472
T7
X4.0829Y-1.7978
X4.0927Y-4.3766
X6.327Y-1.7978
X6.327Y-4.3766
T4
G00X5.6024Y-2.5866
M15
G01X5.6024Y-2.5236
M16
G05
G00X6.0512Y-2.5866
M15
G01X6.0512Y-2.5236
M16
G05
T0
M30
