%TF.GenerationSoftware,KiCad,Pcbnew,(6.0.6)*%
%TF.CreationDate,2022-09-06T17:14:10+09:00*%
%TF.ProjectId,mouse,6d6f7573-652e-46b6-9963-61645f706362,rev?*%
%TF.SameCoordinates,Original*%
%TF.FileFunction,Legend,Top*%
%TF.FilePolarity,Positive*%
%FSLAX46Y46*%
G04 Gerber Fmt 4.6, Leading zero omitted, Abs format (unit mm)*
G04 Created by KiCad (PCBNEW (6.0.6)) date 2022-09-06 17:14:10*
%MOMM*%
%LPD*%
G01*
G04 APERTURE LIST*
G04 Aperture macros list*
%AMRoundRect*
0 Rectangle with rounded corners*
0 $1 Rounding radius*
0 $2 $3 $4 $5 $6 $7 $8 $9 X,Y pos of 4 corners*
0 Add a 4 corners polygon primitive as box body*
4,1,4,$2,$3,$4,$5,$6,$7,$8,$9,$2,$3,0*
0 Add four circle primitives for the rounded corners*
1,1,$1+$1,$2,$3*
1,1,$1+$1,$4,$5*
1,1,$1+$1,$6,$7*
1,1,$1+$1,$8,$9*
0 Add four rect primitives between the rounded corners*
20,1,$1+$1,$2,$3,$4,$5,0*
20,1,$1+$1,$4,$5,$6,$7,0*
20,1,$1+$1,$6,$7,$8,$9,0*
20,1,$1+$1,$8,$9,$2,$3,0*%
G04 Aperture macros list end*
%ADD10C,0.100000*%
%ADD11C,0.150000*%
%ADD12C,0.120000*%
%ADD13C,1.524000*%
%ADD14C,2.400000*%
%ADD15R,1.500000X1.500000*%
%ADD16O,1.500000X1.500000*%
%ADD17RoundRect,0.150000X-0.875000X-0.150000X0.875000X-0.150000X0.875000X0.150000X-0.875000X0.150000X0*%
%ADD18C,1.600000*%
%ADD19O,1.600000X1.600000*%
%ADD20C,5.700000*%
%ADD21R,2.200000X1.600000*%
%ADD22RoundRect,0.200000X0.200000X0.275000X-0.200000X0.275000X-0.200000X-0.275000X0.200000X-0.275000X0*%
%ADD23C,1.100000*%
%ADD24R,1.100000X2.500000*%
%ADD25O,1.900000X3.500000*%
G04 APERTURE END LIST*
D10*
X113647619Y-48352380D02*
X113647619Y-47352380D01*
X113952380Y-47352380D01*
X114028571Y-47400000D01*
X114066666Y-47447619D01*
X114104761Y-47542857D01*
X114104761Y-47685714D01*
X114066666Y-47780952D01*
X114028571Y-47828571D01*
X113952380Y-47876190D01*
X113647619Y-47876190D01*
X114447619Y-48352380D02*
X114447619Y-47352380D01*
X114447619Y-47828571D02*
X114904761Y-47828571D01*
X114904761Y-48352380D02*
X114904761Y-47352380D01*
X115247619Y-48066666D02*
X115628571Y-48066666D01*
X115171428Y-48352380D02*
X115438095Y-47352380D01*
X115704761Y-48352380D01*
X116428571Y-48257142D02*
X116390476Y-48304761D01*
X116276190Y-48352380D01*
X116200000Y-48352380D01*
X116085714Y-48304761D01*
X116009523Y-48209523D01*
X115971428Y-48114285D01*
X115933333Y-47923809D01*
X115933333Y-47780952D01*
X115971428Y-47590476D01*
X116009523Y-47495238D01*
X116085714Y-47400000D01*
X116200000Y-47352380D01*
X116276190Y-47352380D01*
X116390476Y-47400000D01*
X116428571Y-47447619D01*
X116771428Y-47828571D02*
X117038095Y-47828571D01*
X117152380Y-48352380D02*
X116771428Y-48352380D01*
X116771428Y-47352380D01*
X117152380Y-47352380D01*
X117990476Y-47685714D02*
X118295238Y-47685714D01*
X118104761Y-47352380D02*
X118104761Y-48209523D01*
X118142857Y-48304761D01*
X118219047Y-48352380D01*
X118295238Y-48352380D01*
X118676190Y-48352380D02*
X118600000Y-48304761D01*
X118561904Y-48257142D01*
X118523809Y-48161904D01*
X118523809Y-47876190D01*
X118561904Y-47780952D01*
X118600000Y-47733333D01*
X118676190Y-47685714D01*
X118790476Y-47685714D01*
X118866666Y-47733333D01*
X118904761Y-47780952D01*
X118942857Y-47876190D01*
X118942857Y-48161904D01*
X118904761Y-48257142D01*
X118866666Y-48304761D01*
X118790476Y-48352380D01*
X118676190Y-48352380D01*
X119895238Y-47352380D02*
X119895238Y-48161904D01*
X119933333Y-48257142D01*
X119971428Y-48304761D01*
X120047619Y-48352380D01*
X120200000Y-48352380D01*
X120276190Y-48304761D01*
X120314285Y-48257142D01*
X120352380Y-48161904D01*
X120352380Y-47352380D01*
X120695238Y-48304761D02*
X120809523Y-48352380D01*
X121000000Y-48352380D01*
X121076190Y-48304761D01*
X121114285Y-48257142D01*
X121152380Y-48161904D01*
X121152380Y-48066666D01*
X121114285Y-47971428D01*
X121076190Y-47923809D01*
X121000000Y-47876190D01*
X120847619Y-47828571D01*
X120771428Y-47780952D01*
X120733333Y-47733333D01*
X120695238Y-47638095D01*
X120695238Y-47542857D01*
X120733333Y-47447619D01*
X120771428Y-47400000D01*
X120847619Y-47352380D01*
X121038095Y-47352380D01*
X121152380Y-47400000D01*
X121761904Y-47828571D02*
X121876190Y-47876190D01*
X121914285Y-47923809D01*
X121952380Y-48019047D01*
X121952380Y-48161904D01*
X121914285Y-48257142D01*
X121876190Y-48304761D01*
X121800000Y-48352380D01*
X121495238Y-48352380D01*
X121495238Y-47352380D01*
X121761904Y-47352380D01*
X121838095Y-47400000D01*
X121876190Y-47447619D01*
X121914285Y-47542857D01*
X121914285Y-47638095D01*
X121876190Y-47733333D01*
X121838095Y-47780952D01*
X121761904Y-47828571D01*
X121495238Y-47828571D01*
X123361904Y-48257142D02*
X123323809Y-48304761D01*
X123209523Y-48352380D01*
X123133333Y-48352380D01*
X123019047Y-48304761D01*
X122942857Y-48209523D01*
X122904761Y-48114285D01*
X122866666Y-47923809D01*
X122866666Y-47780952D01*
X122904761Y-47590476D01*
X122942857Y-47495238D01*
X123019047Y-47400000D01*
X123133333Y-47352380D01*
X123209523Y-47352380D01*
X123323809Y-47400000D01*
X123361904Y-47447619D01*
X123819047Y-48352380D02*
X123742857Y-48304761D01*
X123704761Y-48257142D01*
X123666666Y-48161904D01*
X123666666Y-47876190D01*
X123704761Y-47780952D01*
X123742857Y-47733333D01*
X123819047Y-47685714D01*
X123933333Y-47685714D01*
X124009523Y-47733333D01*
X124047619Y-47780952D01*
X124085714Y-47876190D01*
X124085714Y-48161904D01*
X124047619Y-48257142D01*
X124009523Y-48304761D01*
X123933333Y-48352380D01*
X123819047Y-48352380D01*
X124428571Y-47685714D02*
X124428571Y-48352380D01*
X124428571Y-47780952D02*
X124466666Y-47733333D01*
X124542857Y-47685714D01*
X124657142Y-47685714D01*
X124733333Y-47733333D01*
X124771428Y-47828571D01*
X124771428Y-48352380D01*
X125076190Y-47685714D02*
X125266666Y-48352380D01*
X125457142Y-47685714D01*
X126066666Y-48304761D02*
X125990476Y-48352380D01*
X125838095Y-48352380D01*
X125761904Y-48304761D01*
X125723809Y-48209523D01*
X125723809Y-47828571D01*
X125761904Y-47733333D01*
X125838095Y-47685714D01*
X125990476Y-47685714D01*
X126066666Y-47733333D01*
X126104761Y-47828571D01*
X126104761Y-47923809D01*
X125723809Y-48019047D01*
X126447619Y-48352380D02*
X126447619Y-47685714D01*
X126447619Y-47876190D02*
X126485714Y-47780952D01*
X126523809Y-47733333D01*
X126600000Y-47685714D01*
X126676190Y-47685714D01*
X126828571Y-47685714D02*
X127133333Y-47685714D01*
X126942857Y-47352380D02*
X126942857Y-48209523D01*
X126980952Y-48304761D01*
X127057142Y-48352380D01*
X127133333Y-48352380D01*
X127704761Y-48304761D02*
X127628571Y-48352380D01*
X127476190Y-48352380D01*
X127400000Y-48304761D01*
X127361904Y-48209523D01*
X127361904Y-47828571D01*
X127400000Y-47733333D01*
X127476190Y-47685714D01*
X127628571Y-47685714D01*
X127704761Y-47733333D01*
X127742857Y-47828571D01*
X127742857Y-47923809D01*
X127361904Y-48019047D01*
X128085714Y-48352380D02*
X128085714Y-47685714D01*
X128085714Y-47876190D02*
X128123809Y-47780952D01*
X128161904Y-47733333D01*
X128238095Y-47685714D01*
X128314285Y-47685714D01*
X129419047Y-48733333D02*
X129380952Y-48685714D01*
X129304761Y-48542857D01*
X129266666Y-48447619D01*
X129228571Y-48304761D01*
X129190476Y-48066666D01*
X129190476Y-47876190D01*
X129228571Y-47638095D01*
X129266666Y-47495238D01*
X129304761Y-47400000D01*
X129380952Y-47257142D01*
X129419047Y-47209523D01*
X129609523Y-47352380D02*
X130066666Y-47352380D01*
X129838095Y-48352380D02*
X129838095Y-47352380D01*
X130333333Y-48352380D02*
X130333333Y-47685714D01*
X130333333Y-47876190D02*
X130371428Y-47780952D01*
X130409523Y-47733333D01*
X130485714Y-47685714D01*
X130561904Y-47685714D01*
X131171428Y-48352380D02*
X131171428Y-47828571D01*
X131133333Y-47733333D01*
X131057142Y-47685714D01*
X130904761Y-47685714D01*
X130828571Y-47733333D01*
X131171428Y-48304761D02*
X131095238Y-48352380D01*
X130904761Y-48352380D01*
X130828571Y-48304761D01*
X130790476Y-48209523D01*
X130790476Y-48114285D01*
X130828571Y-48019047D01*
X130904761Y-47971428D01*
X131095238Y-47971428D01*
X131171428Y-47923809D01*
X131895238Y-48304761D02*
X131819047Y-48352380D01*
X131666666Y-48352380D01*
X131590476Y-48304761D01*
X131552380Y-48257142D01*
X131514285Y-48161904D01*
X131514285Y-47876190D01*
X131552380Y-47780952D01*
X131590476Y-47733333D01*
X131666666Y-47685714D01*
X131819047Y-47685714D01*
X131895238Y-47733333D01*
X132238095Y-48352380D02*
X132238095Y-47352380D01*
X132314285Y-47971428D02*
X132542857Y-48352380D01*
X132542857Y-47685714D02*
X132238095Y-48066666D01*
X133152380Y-47828571D02*
X133266666Y-47876190D01*
X133304761Y-47923809D01*
X133342857Y-48019047D01*
X133342857Y-48161904D01*
X133304761Y-48257142D01*
X133266666Y-48304761D01*
X133190476Y-48352380D01*
X132885714Y-48352380D01*
X132885714Y-47352380D01*
X133152380Y-47352380D01*
X133228571Y-47400000D01*
X133266666Y-47447619D01*
X133304761Y-47542857D01*
X133304761Y-47638095D01*
X133266666Y-47733333D01*
X133228571Y-47780952D01*
X133152380Y-47828571D01*
X132885714Y-47828571D01*
X134028571Y-48352380D02*
X134028571Y-47828571D01*
X133990476Y-47733333D01*
X133914285Y-47685714D01*
X133761904Y-47685714D01*
X133685714Y-47733333D01*
X134028571Y-48304761D02*
X133952380Y-48352380D01*
X133761904Y-48352380D01*
X133685714Y-48304761D01*
X133647619Y-48209523D01*
X133647619Y-48114285D01*
X133685714Y-48019047D01*
X133761904Y-47971428D01*
X133952380Y-47971428D01*
X134028571Y-47923809D01*
X134523809Y-48352380D02*
X134447619Y-48304761D01*
X134409523Y-48209523D01*
X134409523Y-47352380D01*
X134942857Y-48352380D02*
X134866666Y-48304761D01*
X134828571Y-48209523D01*
X134828571Y-47352380D01*
X135247619Y-47971428D02*
X135857142Y-47971428D01*
X136238095Y-48352380D02*
X136238095Y-47352380D01*
X136619047Y-47685714D02*
X136619047Y-48352380D01*
X136619047Y-47780952D02*
X136657142Y-47733333D01*
X136733333Y-47685714D01*
X136847619Y-47685714D01*
X136923809Y-47733333D01*
X136961904Y-47828571D01*
X136961904Y-48352380D01*
X137228571Y-47685714D02*
X137533333Y-47685714D01*
X137342857Y-47352380D02*
X137342857Y-48209523D01*
X137380952Y-48304761D01*
X137457142Y-48352380D01*
X137533333Y-48352380D01*
X138104761Y-48304761D02*
X138028571Y-48352380D01*
X137876190Y-48352380D01*
X137800000Y-48304761D01*
X137761904Y-48209523D01*
X137761904Y-47828571D01*
X137800000Y-47733333D01*
X137876190Y-47685714D01*
X138028571Y-47685714D01*
X138104761Y-47733333D01*
X138142857Y-47828571D01*
X138142857Y-47923809D01*
X137761904Y-48019047D01*
X138485714Y-48352380D02*
X138485714Y-47685714D01*
X138485714Y-47876190D02*
X138523809Y-47780952D01*
X138561904Y-47733333D01*
X138638095Y-47685714D01*
X138714285Y-47685714D01*
X139247619Y-47828571D02*
X138980952Y-47828571D01*
X138980952Y-48352380D02*
X138980952Y-47352380D01*
X139361904Y-47352380D01*
X140009523Y-48352380D02*
X140009523Y-47828571D01*
X139971428Y-47733333D01*
X139895238Y-47685714D01*
X139742857Y-47685714D01*
X139666666Y-47733333D01*
X140009523Y-48304761D02*
X139933333Y-48352380D01*
X139742857Y-48352380D01*
X139666666Y-48304761D01*
X139628571Y-48209523D01*
X139628571Y-48114285D01*
X139666666Y-48019047D01*
X139742857Y-47971428D01*
X139933333Y-47971428D01*
X140009523Y-47923809D01*
X140733333Y-48304761D02*
X140657142Y-48352380D01*
X140504761Y-48352380D01*
X140428571Y-48304761D01*
X140390476Y-48257142D01*
X140352380Y-48161904D01*
X140352380Y-47876190D01*
X140390476Y-47780952D01*
X140428571Y-47733333D01*
X140504761Y-47685714D01*
X140657142Y-47685714D01*
X140733333Y-47733333D01*
X141380952Y-48304761D02*
X141304761Y-48352380D01*
X141152380Y-48352380D01*
X141076190Y-48304761D01*
X141038095Y-48209523D01*
X141038095Y-47828571D01*
X141076190Y-47733333D01*
X141152380Y-47685714D01*
X141304761Y-47685714D01*
X141380952Y-47733333D01*
X141419047Y-47828571D01*
X141419047Y-47923809D01*
X141038095Y-48019047D01*
X142371428Y-48352380D02*
X142371428Y-47685714D01*
X142371428Y-47780952D02*
X142409523Y-47733333D01*
X142485714Y-47685714D01*
X142600000Y-47685714D01*
X142676190Y-47733333D01*
X142714285Y-47828571D01*
X142714285Y-48352380D01*
X142714285Y-47828571D02*
X142752380Y-47733333D01*
X142828571Y-47685714D01*
X142942857Y-47685714D01*
X143019047Y-47733333D01*
X143057142Y-47828571D01*
X143057142Y-48352380D01*
X143780952Y-48352380D02*
X143780952Y-47828571D01*
X143742857Y-47733333D01*
X143666666Y-47685714D01*
X143514285Y-47685714D01*
X143438095Y-47733333D01*
X143780952Y-48304761D02*
X143704761Y-48352380D01*
X143514285Y-48352380D01*
X143438095Y-48304761D01*
X143400000Y-48209523D01*
X143400000Y-48114285D01*
X143438095Y-48019047D01*
X143514285Y-47971428D01*
X143704761Y-47971428D01*
X143780952Y-47923809D01*
X144504761Y-48352380D02*
X144504761Y-47352380D01*
X144504761Y-48304761D02*
X144428571Y-48352380D01*
X144276190Y-48352380D01*
X144200000Y-48304761D01*
X144161904Y-48257142D01*
X144123809Y-48161904D01*
X144123809Y-47876190D01*
X144161904Y-47780952D01*
X144200000Y-47733333D01*
X144276190Y-47685714D01*
X144428571Y-47685714D01*
X144504761Y-47733333D01*
X145190476Y-48304761D02*
X145114285Y-48352380D01*
X144961904Y-48352380D01*
X144885714Y-48304761D01*
X144847619Y-48209523D01*
X144847619Y-47828571D01*
X144885714Y-47733333D01*
X144961904Y-47685714D01*
X145114285Y-47685714D01*
X145190476Y-47733333D01*
X145228571Y-47828571D01*
X145228571Y-47923809D01*
X144847619Y-48019047D01*
X146180952Y-48352380D02*
X146180952Y-47685714D01*
X146180952Y-47352380D02*
X146142857Y-47400000D01*
X146180952Y-47447619D01*
X146219047Y-47400000D01*
X146180952Y-47352380D01*
X146180952Y-47447619D01*
X146561904Y-47685714D02*
X146561904Y-48352380D01*
X146561904Y-47780952D02*
X146600000Y-47733333D01*
X146676190Y-47685714D01*
X146790476Y-47685714D01*
X146866666Y-47733333D01*
X146904761Y-47828571D01*
X146904761Y-48352380D01*
X147857142Y-48304761D02*
X147971428Y-48352380D01*
X148161904Y-48352380D01*
X148238095Y-48304761D01*
X148276190Y-48257142D01*
X148314285Y-48161904D01*
X148314285Y-48066666D01*
X148276190Y-47971428D01*
X148238095Y-47923809D01*
X148161904Y-47876190D01*
X148009523Y-47828571D01*
X147933333Y-47780952D01*
X147895238Y-47733333D01*
X147857142Y-47638095D01*
X147857142Y-47542857D01*
X147895238Y-47447619D01*
X147933333Y-47400000D01*
X148009523Y-47352380D01*
X148200000Y-47352380D01*
X148314285Y-47400000D01*
X149000000Y-47685714D02*
X149000000Y-48352380D01*
X148657142Y-47685714D02*
X148657142Y-48209523D01*
X148695238Y-48304761D01*
X148771428Y-48352380D01*
X148885714Y-48352380D01*
X148961904Y-48304761D01*
X149000000Y-48257142D01*
X149380952Y-48352380D02*
X149380952Y-47685714D01*
X149380952Y-47780952D02*
X149419047Y-47733333D01*
X149495238Y-47685714D01*
X149609523Y-47685714D01*
X149685714Y-47733333D01*
X149723809Y-47828571D01*
X149723809Y-48352380D01*
X149723809Y-47828571D02*
X149761904Y-47733333D01*
X149838095Y-47685714D01*
X149952380Y-47685714D01*
X150028571Y-47733333D01*
X150066666Y-47828571D01*
X150066666Y-48352380D01*
X150447619Y-48352380D02*
X150447619Y-47685714D01*
X150447619Y-47352380D02*
X150409523Y-47400000D01*
X150447619Y-47447619D01*
X150485714Y-47400000D01*
X150447619Y-47352380D01*
X150447619Y-47447619D01*
X150714285Y-47685714D02*
X151019047Y-47685714D01*
X150828571Y-47352380D02*
X150828571Y-48209523D01*
X150866666Y-48304761D01*
X150942857Y-48352380D01*
X151019047Y-48352380D01*
X151400000Y-48352380D02*
X151323809Y-48304761D01*
X151285714Y-48257142D01*
X151247619Y-48161904D01*
X151247619Y-47876190D01*
X151285714Y-47780952D01*
X151323809Y-47733333D01*
X151400000Y-47685714D01*
X151514285Y-47685714D01*
X151590476Y-47733333D01*
X151628571Y-47780952D01*
X151666666Y-47876190D01*
X151666666Y-48161904D01*
X151628571Y-48257142D01*
X151590476Y-48304761D01*
X151514285Y-48352380D01*
X151400000Y-48352380D01*
X152009523Y-48352380D02*
X152009523Y-47685714D01*
X152009523Y-47780952D02*
X152047619Y-47733333D01*
X152123809Y-47685714D01*
X152238095Y-47685714D01*
X152314285Y-47733333D01*
X152352380Y-47828571D01*
X152352380Y-48352380D01*
X152352380Y-47828571D02*
X152390476Y-47733333D01*
X152466666Y-47685714D01*
X152580952Y-47685714D01*
X152657142Y-47733333D01*
X152695238Y-47828571D01*
X152695238Y-48352380D01*
X153190476Y-48352380D02*
X153114285Y-48304761D01*
X153076190Y-48257142D01*
X153038095Y-48161904D01*
X153038095Y-47876190D01*
X153076190Y-47780952D01*
X153114285Y-47733333D01*
X153190476Y-47685714D01*
X153304761Y-47685714D01*
X153380952Y-47733333D01*
X153419047Y-47780952D01*
X153457142Y-47876190D01*
X153457142Y-48161904D01*
X153419047Y-48257142D01*
X153380952Y-48304761D01*
X153304761Y-48352380D01*
X153190476Y-48352380D01*
X153723809Y-48733333D02*
X153761904Y-48685714D01*
X153838095Y-48542857D01*
X153876190Y-48447619D01*
X153914285Y-48304761D01*
X153952380Y-48066666D01*
X153952380Y-47876190D01*
X153914285Y-47638095D01*
X153876190Y-47495238D01*
X153838095Y-47400000D01*
X153761904Y-47257142D01*
X153723809Y-47209523D01*
D11*
%TO.C,J1*%
X131916666Y-101852380D02*
X131916666Y-102566666D01*
X131869047Y-102709523D01*
X131773809Y-102804761D01*
X131630952Y-102852380D01*
X131535714Y-102852380D01*
X132916666Y-102852380D02*
X132345238Y-102852380D01*
X132630952Y-102852380D02*
X132630952Y-101852380D01*
X132535714Y-101995238D01*
X132440476Y-102090476D01*
X132345238Y-102138095D01*
%TO.C,CP1*%
X158533333Y-88457142D02*
X158485714Y-88504761D01*
X158342857Y-88552380D01*
X158247619Y-88552380D01*
X158104761Y-88504761D01*
X158009523Y-88409523D01*
X157961904Y-88314285D01*
X157914285Y-88123809D01*
X157914285Y-87980952D01*
X157961904Y-87790476D01*
X158009523Y-87695238D01*
X158104761Y-87600000D01*
X158247619Y-87552380D01*
X158342857Y-87552380D01*
X158485714Y-87600000D01*
X158533333Y-87647619D01*
X158961904Y-88552380D02*
X158961904Y-87552380D01*
X159342857Y-87552380D01*
X159438095Y-87600000D01*
X159485714Y-87647619D01*
X159533333Y-87742857D01*
X159533333Y-87885714D01*
X159485714Y-87980952D01*
X159438095Y-88028571D01*
X159342857Y-88076190D01*
X158961904Y-88076190D01*
X160485714Y-88552380D02*
X159914285Y-88552380D01*
X160200000Y-88552380D02*
X160200000Y-87552380D01*
X160104761Y-87695238D01*
X160009523Y-87790476D01*
X159914285Y-87838095D01*
%TO.C,D4*%
X148532380Y-83143095D02*
X147532380Y-83143095D01*
X147532380Y-82905000D01*
X147580000Y-82762142D01*
X147675238Y-82666904D01*
X147770476Y-82619285D01*
X147960952Y-82571666D01*
X148103809Y-82571666D01*
X148294285Y-82619285D01*
X148389523Y-82666904D01*
X148484761Y-82762142D01*
X148532380Y-82905000D01*
X148532380Y-83143095D01*
X147865714Y-81714523D02*
X148532380Y-81714523D01*
X147484761Y-81952619D02*
X148199047Y-82190714D01*
X148199047Y-81571666D01*
X148702380Y-86476904D02*
X147702380Y-86476904D01*
X148702380Y-85905476D02*
X148130952Y-86334047D01*
X147702380Y-85905476D02*
X148273809Y-86476904D01*
%TO.C,U4*%
X111138095Y-51352380D02*
X111138095Y-52161904D01*
X111185714Y-52257142D01*
X111233333Y-52304761D01*
X111328571Y-52352380D01*
X111519047Y-52352380D01*
X111614285Y-52304761D01*
X111661904Y-52257142D01*
X111709523Y-52161904D01*
X111709523Y-51352380D01*
X112614285Y-51685714D02*
X112614285Y-52352380D01*
X112376190Y-51304761D02*
X112138095Y-52019047D01*
X112757142Y-52019047D01*
%TO.C,R3*%
X132082380Y-83066666D02*
X131606190Y-83400000D01*
X132082380Y-83638095D02*
X131082380Y-83638095D01*
X131082380Y-83257142D01*
X131130000Y-83161904D01*
X131177619Y-83114285D01*
X131272857Y-83066666D01*
X131415714Y-83066666D01*
X131510952Y-83114285D01*
X131558571Y-83161904D01*
X131606190Y-83257142D01*
X131606190Y-83638095D01*
X131082380Y-82733333D02*
X131082380Y-82114285D01*
X131463333Y-82447619D01*
X131463333Y-82304761D01*
X131510952Y-82209523D01*
X131558571Y-82161904D01*
X131653809Y-82114285D01*
X131891904Y-82114285D01*
X131987142Y-82161904D01*
X132034761Y-82209523D01*
X132082380Y-82304761D01*
X132082380Y-82590476D01*
X132034761Y-82685714D01*
X131987142Y-82733333D01*
%TO.C,Cp3*%
X158480952Y-78257142D02*
X158433333Y-78304761D01*
X158290476Y-78352380D01*
X158195238Y-78352380D01*
X158052380Y-78304761D01*
X157957142Y-78209523D01*
X157909523Y-78114285D01*
X157861904Y-77923809D01*
X157861904Y-77780952D01*
X157909523Y-77590476D01*
X157957142Y-77495238D01*
X158052380Y-77400000D01*
X158195238Y-77352380D01*
X158290476Y-77352380D01*
X158433333Y-77400000D01*
X158480952Y-77447619D01*
X158909523Y-77685714D02*
X158909523Y-78685714D01*
X158909523Y-77733333D02*
X159004761Y-77685714D01*
X159195238Y-77685714D01*
X159290476Y-77733333D01*
X159338095Y-77780952D01*
X159385714Y-77876190D01*
X159385714Y-78161904D01*
X159338095Y-78257142D01*
X159290476Y-78304761D01*
X159195238Y-78352380D01*
X159004761Y-78352380D01*
X158909523Y-78304761D01*
X159719047Y-77352380D02*
X160338095Y-77352380D01*
X160004761Y-77733333D01*
X160147619Y-77733333D01*
X160242857Y-77780952D01*
X160290476Y-77828571D01*
X160338095Y-77923809D01*
X160338095Y-78161904D01*
X160290476Y-78257142D01*
X160242857Y-78304761D01*
X160147619Y-78352380D01*
X159861904Y-78352380D01*
X159766666Y-78304761D01*
X159719047Y-78257142D01*
%TO.C,R1*%
X105882380Y-83466666D02*
X105406190Y-83800000D01*
X105882380Y-84038095D02*
X104882380Y-84038095D01*
X104882380Y-83657142D01*
X104930000Y-83561904D01*
X104977619Y-83514285D01*
X105072857Y-83466666D01*
X105215714Y-83466666D01*
X105310952Y-83514285D01*
X105358571Y-83561904D01*
X105406190Y-83657142D01*
X105406190Y-84038095D01*
X105882380Y-82514285D02*
X105882380Y-83085714D01*
X105882380Y-82800000D02*
X104882380Y-82800000D01*
X105025238Y-82895238D01*
X105120476Y-82990476D01*
X105168095Y-83085714D01*
%TO.C,REF1*%
X108257622Y-112212861D02*
X107781432Y-112546194D01*
X108257622Y-112784289D02*
X107257622Y-112784289D01*
X107257622Y-112403337D01*
X107305242Y-112308099D01*
X107352861Y-112260480D01*
X107448099Y-112212861D01*
X107590956Y-112212861D01*
X107686194Y-112260480D01*
X107733813Y-112308099D01*
X107781432Y-112403337D01*
X107781432Y-112784289D01*
X107733813Y-111784289D02*
X107733813Y-111450956D01*
X108257622Y-111308099D02*
X108257622Y-111784289D01*
X107257622Y-111784289D01*
X107257622Y-111308099D01*
X107733813Y-110546194D02*
X107733813Y-110879527D01*
X108257622Y-110879527D02*
X107257622Y-110879527D01*
X107257622Y-110403337D01*
X108257622Y-109498575D02*
X108257622Y-110070003D01*
X108257622Y-109784289D02*
X107257622Y-109784289D01*
X107400480Y-109879527D01*
X107495718Y-109974765D01*
X107543337Y-110070003D01*
%TO.C,C3*%
X136933333Y-72257142D02*
X136885714Y-72304761D01*
X136742857Y-72352380D01*
X136647619Y-72352380D01*
X136504761Y-72304761D01*
X136409523Y-72209523D01*
X136361904Y-72114285D01*
X136314285Y-71923809D01*
X136314285Y-71780952D01*
X136361904Y-71590476D01*
X136409523Y-71495238D01*
X136504761Y-71400000D01*
X136647619Y-71352380D01*
X136742857Y-71352380D01*
X136885714Y-71400000D01*
X136933333Y-71447619D01*
X137266666Y-71352380D02*
X137885714Y-71352380D01*
X137552380Y-71733333D01*
X137695238Y-71733333D01*
X137790476Y-71780952D01*
X137838095Y-71828571D01*
X137885714Y-71923809D01*
X137885714Y-72161904D01*
X137838095Y-72257142D01*
X137790476Y-72304761D01*
X137695238Y-72352380D01*
X137409523Y-72352380D01*
X137314285Y-72304761D01*
X137266666Y-72257142D01*
%TO.C,R5*%
X129833333Y-68882380D02*
X129500000Y-68406190D01*
X129261904Y-68882380D02*
X129261904Y-67882380D01*
X129642857Y-67882380D01*
X129738095Y-67930000D01*
X129785714Y-67977619D01*
X129833333Y-68072857D01*
X129833333Y-68215714D01*
X129785714Y-68310952D01*
X129738095Y-68358571D01*
X129642857Y-68406190D01*
X129261904Y-68406190D01*
X130738095Y-67882380D02*
X130261904Y-67882380D01*
X130214285Y-68358571D01*
X130261904Y-68310952D01*
X130357142Y-68263333D01*
X130595238Y-68263333D01*
X130690476Y-68310952D01*
X130738095Y-68358571D01*
X130785714Y-68453809D01*
X130785714Y-68691904D01*
X130738095Y-68787142D01*
X130690476Y-68834761D01*
X130595238Y-68882380D01*
X130357142Y-68882380D01*
X130261904Y-68834761D01*
X130214285Y-68787142D01*
%TO.C,U3*%
X142038095Y-88052380D02*
X142038095Y-88861904D01*
X142085714Y-88957142D01*
X142133333Y-89004761D01*
X142228571Y-89052380D01*
X142419047Y-89052380D01*
X142514285Y-89004761D01*
X142561904Y-88957142D01*
X142609523Y-88861904D01*
X142609523Y-88052380D01*
X142990476Y-88052380D02*
X143609523Y-88052380D01*
X143276190Y-88433333D01*
X143419047Y-88433333D01*
X143514285Y-88480952D01*
X143561904Y-88528571D01*
X143609523Y-88623809D01*
X143609523Y-88861904D01*
X143561904Y-88957142D01*
X143514285Y-89004761D01*
X143419047Y-89052380D01*
X143133333Y-89052380D01*
X143038095Y-89004761D01*
X142990476Y-88957142D01*
%TO.C,C2*%
X122833333Y-72057142D02*
X122785714Y-72104761D01*
X122642857Y-72152380D01*
X122547619Y-72152380D01*
X122404761Y-72104761D01*
X122309523Y-72009523D01*
X122261904Y-71914285D01*
X122214285Y-71723809D01*
X122214285Y-71580952D01*
X122261904Y-71390476D01*
X122309523Y-71295238D01*
X122404761Y-71200000D01*
X122547619Y-71152380D01*
X122642857Y-71152380D01*
X122785714Y-71200000D01*
X122833333Y-71247619D01*
X123214285Y-71247619D02*
X123261904Y-71200000D01*
X123357142Y-71152380D01*
X123595238Y-71152380D01*
X123690476Y-71200000D01*
X123738095Y-71247619D01*
X123785714Y-71342857D01*
X123785714Y-71438095D01*
X123738095Y-71580952D01*
X123166666Y-72152380D01*
X123785714Y-72152380D01*
%TO.C,U2*%
X128238095Y-87702380D02*
X128238095Y-88511904D01*
X128285714Y-88607142D01*
X128333333Y-88654761D01*
X128428571Y-88702380D01*
X128619047Y-88702380D01*
X128714285Y-88654761D01*
X128761904Y-88607142D01*
X128809523Y-88511904D01*
X128809523Y-87702380D01*
X129238095Y-87797619D02*
X129285714Y-87750000D01*
X129380952Y-87702380D01*
X129619047Y-87702380D01*
X129714285Y-87750000D01*
X129761904Y-87797619D01*
X129809523Y-87892857D01*
X129809523Y-87988095D01*
X129761904Y-88130952D01*
X129190476Y-88702380D01*
X129809523Y-88702380D01*
%TO.C,R2*%
X118382380Y-83251666D02*
X117906190Y-83585000D01*
X118382380Y-83823095D02*
X117382380Y-83823095D01*
X117382380Y-83442142D01*
X117430000Y-83346904D01*
X117477619Y-83299285D01*
X117572857Y-83251666D01*
X117715714Y-83251666D01*
X117810952Y-83299285D01*
X117858571Y-83346904D01*
X117906190Y-83442142D01*
X117906190Y-83823095D01*
X117477619Y-82870714D02*
X117430000Y-82823095D01*
X117382380Y-82727857D01*
X117382380Y-82489761D01*
X117430000Y-82394523D01*
X117477619Y-82346904D01*
X117572857Y-82299285D01*
X117668095Y-82299285D01*
X117810952Y-82346904D01*
X118382380Y-82918333D01*
X118382380Y-82299285D01*
%TO.C,D3*%
X136732380Y-83343095D02*
X135732380Y-83343095D01*
X135732380Y-83105000D01*
X135780000Y-82962142D01*
X135875238Y-82866904D01*
X135970476Y-82819285D01*
X136160952Y-82771666D01*
X136303809Y-82771666D01*
X136494285Y-82819285D01*
X136589523Y-82866904D01*
X136684761Y-82962142D01*
X136732380Y-83105000D01*
X136732380Y-83343095D01*
X135732380Y-82438333D02*
X135732380Y-81819285D01*
X136113333Y-82152619D01*
X136113333Y-82009761D01*
X136160952Y-81914523D01*
X136208571Y-81866904D01*
X136303809Y-81819285D01*
X136541904Y-81819285D01*
X136637142Y-81866904D01*
X136684761Y-81914523D01*
X136732380Y-82009761D01*
X136732380Y-82295476D01*
X136684761Y-82390714D01*
X136637142Y-82438333D01*
X136902380Y-86676904D02*
X135902380Y-86676904D01*
X136902380Y-86105476D02*
X136330952Y-86534047D01*
X135902380Y-86105476D02*
X136473809Y-86676904D01*
%TO.C,R4*%
X143582380Y-83466666D02*
X143106190Y-83800000D01*
X143582380Y-84038095D02*
X142582380Y-84038095D01*
X142582380Y-83657142D01*
X142630000Y-83561904D01*
X142677619Y-83514285D01*
X142772857Y-83466666D01*
X142915714Y-83466666D01*
X143010952Y-83514285D01*
X143058571Y-83561904D01*
X143106190Y-83657142D01*
X143106190Y-84038095D01*
X142915714Y-82609523D02*
X143582380Y-82609523D01*
X142534761Y-82847619D02*
X143249047Y-83085714D01*
X143249047Y-82466666D01*
%TO.C,CP2*%
X158233333Y-83257142D02*
X158185714Y-83304761D01*
X158042857Y-83352380D01*
X157947619Y-83352380D01*
X157804761Y-83304761D01*
X157709523Y-83209523D01*
X157661904Y-83114285D01*
X157614285Y-82923809D01*
X157614285Y-82780952D01*
X157661904Y-82590476D01*
X157709523Y-82495238D01*
X157804761Y-82400000D01*
X157947619Y-82352380D01*
X158042857Y-82352380D01*
X158185714Y-82400000D01*
X158233333Y-82447619D01*
X158661904Y-83352380D02*
X158661904Y-82352380D01*
X159042857Y-82352380D01*
X159138095Y-82400000D01*
X159185714Y-82447619D01*
X159233333Y-82542857D01*
X159233333Y-82685714D01*
X159185714Y-82780952D01*
X159138095Y-82828571D01*
X159042857Y-82876190D01*
X158661904Y-82876190D01*
X159614285Y-82447619D02*
X159661904Y-82400000D01*
X159757142Y-82352380D01*
X159995238Y-82352380D01*
X160090476Y-82400000D01*
X160138095Y-82447619D01*
X160185714Y-82542857D01*
X160185714Y-82638095D01*
X160138095Y-82780952D01*
X159566666Y-83352380D01*
X160185714Y-83352380D01*
%TO.C,REF2*%
X102952380Y-50452380D02*
X102619047Y-49976190D01*
X102380952Y-50452380D02*
X102380952Y-49452380D01*
X102761904Y-49452380D01*
X102857142Y-49500000D01*
X102904761Y-49547619D01*
X102952380Y-49642857D01*
X102952380Y-49785714D01*
X102904761Y-49880952D01*
X102857142Y-49928571D01*
X102761904Y-49976190D01*
X102380952Y-49976190D01*
X103380952Y-49928571D02*
X103714285Y-49928571D01*
X103857142Y-50452380D02*
X103380952Y-50452380D01*
X103380952Y-49452380D01*
X103857142Y-49452380D01*
X104619047Y-49928571D02*
X104285714Y-49928571D01*
X104285714Y-50452380D02*
X104285714Y-49452380D01*
X104761904Y-49452380D01*
X105095238Y-49547619D02*
X105142857Y-49500000D01*
X105238095Y-49452380D01*
X105476190Y-49452380D01*
X105571428Y-49500000D01*
X105619047Y-49547619D01*
X105666666Y-49642857D01*
X105666666Y-49738095D01*
X105619047Y-49880952D01*
X105047619Y-50452380D01*
X105666666Y-50452380D01*
%TO.C,REF3*%
X157307622Y-112212861D02*
X156831432Y-112546194D01*
X157307622Y-112784289D02*
X156307622Y-112784289D01*
X156307622Y-112403337D01*
X156355242Y-112308099D01*
X156402861Y-112260480D01*
X156498099Y-112212861D01*
X156640956Y-112212861D01*
X156736194Y-112260480D01*
X156783813Y-112308099D01*
X156831432Y-112403337D01*
X156831432Y-112784289D01*
X156783813Y-111784289D02*
X156783813Y-111450956D01*
X157307622Y-111308099D02*
X157307622Y-111784289D01*
X156307622Y-111784289D01*
X156307622Y-111308099D01*
X156783813Y-110546194D02*
X156783813Y-110879527D01*
X157307622Y-110879527D02*
X156307622Y-110879527D01*
X156307622Y-110403337D01*
X156307622Y-110117622D02*
X156307622Y-109498575D01*
X156688575Y-109831908D01*
X156688575Y-109689051D01*
X156736194Y-109593813D01*
X156783813Y-109546194D01*
X156879051Y-109498575D01*
X157117146Y-109498575D01*
X157212384Y-109546194D01*
X157260003Y-109593813D01*
X157307622Y-109689051D01*
X157307622Y-109974765D01*
X157260003Y-110070003D01*
X157212384Y-110117622D01*
%TO.C,CP4*%
X158233333Y-73057142D02*
X158185714Y-73104761D01*
X158042857Y-73152380D01*
X157947619Y-73152380D01*
X157804761Y-73104761D01*
X157709523Y-73009523D01*
X157661904Y-72914285D01*
X157614285Y-72723809D01*
X157614285Y-72580952D01*
X157661904Y-72390476D01*
X157709523Y-72295238D01*
X157804761Y-72200000D01*
X157947619Y-72152380D01*
X158042857Y-72152380D01*
X158185714Y-72200000D01*
X158233333Y-72247619D01*
X158661904Y-73152380D02*
X158661904Y-72152380D01*
X159042857Y-72152380D01*
X159138095Y-72200000D01*
X159185714Y-72247619D01*
X159233333Y-72342857D01*
X159233333Y-72485714D01*
X159185714Y-72580952D01*
X159138095Y-72628571D01*
X159042857Y-72676190D01*
X158661904Y-72676190D01*
X160090476Y-72485714D02*
X160090476Y-73152380D01*
X159852380Y-72104761D02*
X159614285Y-72819047D01*
X160233333Y-72819047D01*
%TO.C,USB-A1*%
X156614285Y-57252380D02*
X156614285Y-58061904D01*
X156661904Y-58157142D01*
X156709523Y-58204761D01*
X156804761Y-58252380D01*
X156995238Y-58252380D01*
X157090476Y-58204761D01*
X157138095Y-58157142D01*
X157185714Y-58061904D01*
X157185714Y-57252380D01*
X157614285Y-58204761D02*
X157757142Y-58252380D01*
X157995238Y-58252380D01*
X158090476Y-58204761D01*
X158138095Y-58157142D01*
X158185714Y-58061904D01*
X158185714Y-57966666D01*
X158138095Y-57871428D01*
X158090476Y-57823809D01*
X157995238Y-57776190D01*
X157804761Y-57728571D01*
X157709523Y-57680952D01*
X157661904Y-57633333D01*
X157614285Y-57538095D01*
X157614285Y-57442857D01*
X157661904Y-57347619D01*
X157709523Y-57300000D01*
X157804761Y-57252380D01*
X158042857Y-57252380D01*
X158185714Y-57300000D01*
X158947619Y-57728571D02*
X159090476Y-57776190D01*
X159138095Y-57823809D01*
X159185714Y-57919047D01*
X159185714Y-58061904D01*
X159138095Y-58157142D01*
X159090476Y-58204761D01*
X158995238Y-58252380D01*
X158614285Y-58252380D01*
X158614285Y-57252380D01*
X158947619Y-57252380D01*
X159042857Y-57300000D01*
X159090476Y-57347619D01*
X159138095Y-57442857D01*
X159138095Y-57538095D01*
X159090476Y-57633333D01*
X159042857Y-57680952D01*
X158947619Y-57728571D01*
X158614285Y-57728571D01*
X159614285Y-57871428D02*
X160376190Y-57871428D01*
X160804761Y-57966666D02*
X161280952Y-57966666D01*
X160709523Y-58252380D02*
X161042857Y-57252380D01*
X161376190Y-58252380D01*
X162233333Y-58252380D02*
X161661904Y-58252380D01*
X161947619Y-58252380D02*
X161947619Y-57252380D01*
X161852380Y-57395238D01*
X161757142Y-57490476D01*
X161661904Y-57538095D01*
%TO.C,C1*%
X109633333Y-72057142D02*
X109585714Y-72104761D01*
X109442857Y-72152380D01*
X109347619Y-72152380D01*
X109204761Y-72104761D01*
X109109523Y-72009523D01*
X109061904Y-71914285D01*
X109014285Y-71723809D01*
X109014285Y-71580952D01*
X109061904Y-71390476D01*
X109109523Y-71295238D01*
X109204761Y-71200000D01*
X109347619Y-71152380D01*
X109442857Y-71152380D01*
X109585714Y-71200000D01*
X109633333Y-71247619D01*
X110585714Y-72152380D02*
X110014285Y-72152380D01*
X110300000Y-72152380D02*
X110300000Y-71152380D01*
X110204761Y-71295238D01*
X110109523Y-71390476D01*
X110014285Y-71438095D01*
%TO.C,U5*%
X129238095Y-51252380D02*
X129238095Y-52061904D01*
X129285714Y-52157142D01*
X129333333Y-52204761D01*
X129428571Y-52252380D01*
X129619047Y-52252380D01*
X129714285Y-52204761D01*
X129761904Y-52157142D01*
X129809523Y-52061904D01*
X129809523Y-51252380D01*
X130761904Y-51252380D02*
X130285714Y-51252380D01*
X130238095Y-51728571D01*
X130285714Y-51680952D01*
X130380952Y-51633333D01*
X130619047Y-51633333D01*
X130714285Y-51680952D01*
X130761904Y-51728571D01*
X130809523Y-51823809D01*
X130809523Y-52061904D01*
X130761904Y-52157142D01*
X130714285Y-52204761D01*
X130619047Y-52252380D01*
X130380952Y-52252380D01*
X130285714Y-52204761D01*
X130238095Y-52157142D01*
%TO.C,D2*%
X123732380Y-83328095D02*
X122732380Y-83328095D01*
X122732380Y-83090000D01*
X122780000Y-82947142D01*
X122875238Y-82851904D01*
X122970476Y-82804285D01*
X123160952Y-82756666D01*
X123303809Y-82756666D01*
X123494285Y-82804285D01*
X123589523Y-82851904D01*
X123684761Y-82947142D01*
X123732380Y-83090000D01*
X123732380Y-83328095D01*
X122827619Y-82375714D02*
X122780000Y-82328095D01*
X122732380Y-82232857D01*
X122732380Y-81994761D01*
X122780000Y-81899523D01*
X122827619Y-81851904D01*
X122922857Y-81804285D01*
X123018095Y-81804285D01*
X123160952Y-81851904D01*
X123732380Y-82423333D01*
X123732380Y-81804285D01*
X123902380Y-86661904D02*
X122902380Y-86661904D01*
X123902380Y-86090476D02*
X123330952Y-86519047D01*
X122902380Y-86090476D02*
X123473809Y-86661904D01*
%TO.C,REF4*%
X157307622Y-46712861D02*
X156831432Y-47046194D01*
X157307622Y-47284289D02*
X156307622Y-47284289D01*
X156307622Y-46903337D01*
X156355242Y-46808099D01*
X156402861Y-46760480D01*
X156498099Y-46712861D01*
X156640956Y-46712861D01*
X156736194Y-46760480D01*
X156783813Y-46808099D01*
X156831432Y-46903337D01*
X156831432Y-47284289D01*
X156783813Y-46284289D02*
X156783813Y-45950956D01*
X157307622Y-45808099D02*
X157307622Y-46284289D01*
X156307622Y-46284289D01*
X156307622Y-45808099D01*
X156783813Y-45046194D02*
X156783813Y-45379527D01*
X157307622Y-45379527D02*
X156307622Y-45379527D01*
X156307622Y-44903337D01*
X156640956Y-44093813D02*
X157307622Y-44093813D01*
X156260003Y-44331908D02*
X156974289Y-44570003D01*
X156974289Y-43950956D01*
%TO.C,U1*%
X110938095Y-88252380D02*
X110938095Y-89061904D01*
X110985714Y-89157142D01*
X111033333Y-89204761D01*
X111128571Y-89252380D01*
X111319047Y-89252380D01*
X111414285Y-89204761D01*
X111461904Y-89157142D01*
X111509523Y-89061904D01*
X111509523Y-88252380D01*
X112509523Y-89252380D02*
X111938095Y-89252380D01*
X112223809Y-89252380D02*
X112223809Y-88252380D01*
X112128571Y-88395238D01*
X112033333Y-88490476D01*
X111938095Y-88538095D01*
%TO.C,C4*%
X149133333Y-72457142D02*
X149085714Y-72504761D01*
X148942857Y-72552380D01*
X148847619Y-72552380D01*
X148704761Y-72504761D01*
X148609523Y-72409523D01*
X148561904Y-72314285D01*
X148514285Y-72123809D01*
X148514285Y-71980952D01*
X148561904Y-71790476D01*
X148609523Y-71695238D01*
X148704761Y-71600000D01*
X148847619Y-71552380D01*
X148942857Y-71552380D01*
X149085714Y-71600000D01*
X149133333Y-71647619D01*
X149990476Y-71885714D02*
X149990476Y-72552380D01*
X149752380Y-71504761D02*
X149514285Y-72219047D01*
X150133333Y-72219047D01*
%TO.C,D1*%
X110532380Y-83343095D02*
X109532380Y-83343095D01*
X109532380Y-83105000D01*
X109580000Y-82962142D01*
X109675238Y-82866904D01*
X109770476Y-82819285D01*
X109960952Y-82771666D01*
X110103809Y-82771666D01*
X110294285Y-82819285D01*
X110389523Y-82866904D01*
X110484761Y-82962142D01*
X110532380Y-83105000D01*
X110532380Y-83343095D01*
X110532380Y-81819285D02*
X110532380Y-82390714D01*
X110532380Y-82105000D02*
X109532380Y-82105000D01*
X109675238Y-82200238D01*
X109770476Y-82295476D01*
X109818095Y-82390714D01*
X110452380Y-86676904D02*
X109452380Y-86676904D01*
X110452380Y-86105476D02*
X109880952Y-86534047D01*
X109452380Y-86105476D02*
X110023809Y-86676904D01*
%TO.C,*%
G36*
X112513413Y-44787510D02*
G01*
X112536999Y-44805342D01*
X112550901Y-44820642D01*
X112560764Y-44836528D01*
X112565912Y-44855070D01*
X112565664Y-44878332D01*
X112559345Y-44908384D01*
X112546276Y-44947292D01*
X112525778Y-44997124D01*
X112497175Y-45059946D01*
X112459787Y-45137827D01*
X112412937Y-45232833D01*
X112365846Y-45327244D01*
X112319866Y-45418551D01*
X112276000Y-45504447D01*
X112235608Y-45582358D01*
X112200052Y-45649706D01*
X112170694Y-45703915D01*
X112148894Y-45742410D01*
X112136013Y-45762614D01*
X112135379Y-45763400D01*
X112088015Y-45806974D01*
X112037002Y-45831581D01*
X111986212Y-45835805D01*
X111958064Y-45828224D01*
X111926773Y-45811482D01*
X111910815Y-45790120D01*
X111905630Y-45756375D01*
X111905533Y-45738825D01*
X111908697Y-45716827D01*
X111918399Y-45686057D01*
X111935719Y-45644032D01*
X111961736Y-45588269D01*
X111997528Y-45516287D01*
X112028994Y-45454890D01*
X112071063Y-45373289D01*
X112115645Y-45286456D01*
X112159486Y-45200753D01*
X112199331Y-45122545D01*
X112231927Y-45058192D01*
X112234692Y-45052707D01*
X112278466Y-44967521D01*
X112314856Y-44901539D01*
X112345860Y-44852411D01*
X112373479Y-44817786D01*
X112399711Y-44795315D01*
X112426558Y-44782649D01*
X112456019Y-44777437D01*
X112469414Y-44776908D01*
X112513413Y-44787510D01*
G37*
G36*
X118807126Y-43389542D02*
G01*
X118807126Y-46222212D01*
X108804628Y-46222212D01*
X108804628Y-46013974D01*
X108970935Y-46013974D01*
X108971353Y-46019335D01*
X108984791Y-46048573D01*
X109011829Y-46070012D01*
X109043351Y-46077215D01*
X109051458Y-46075882D01*
X109072579Y-46071897D01*
X109107776Y-46066812D01*
X109133734Y-46063582D01*
X109182613Y-46057472D01*
X109251806Y-46048212D01*
X109338390Y-46036213D01*
X109439445Y-46021886D01*
X109552048Y-46005644D01*
X109673278Y-45987898D01*
X109719934Y-45981003D01*
X109824332Y-45963899D01*
X109908882Y-45945234D01*
X109977228Y-45922631D01*
X110033018Y-45893712D01*
X110079894Y-45856101D01*
X110121504Y-45807418D01*
X110161492Y-45745287D01*
X110203504Y-45667330D01*
X110204825Y-45664738D01*
X110248673Y-45579909D01*
X110284356Y-45514386D01*
X110313477Y-45466094D01*
X110337642Y-45432956D01*
X110358455Y-45412897D01*
X110377520Y-45403842D01*
X110396442Y-45403715D01*
X110404931Y-45405888D01*
X110417477Y-45412354D01*
X110429780Y-45425207D01*
X110443028Y-45447063D01*
X110458407Y-45480541D01*
X110477103Y-45528257D01*
X110500303Y-45592830D01*
X110529194Y-45676876D01*
X110533430Y-45689372D01*
X110573644Y-45801384D01*
X110611139Y-45891481D01*
X110646578Y-45961012D01*
X110680625Y-46011325D01*
X110704089Y-46035921D01*
X110738966Y-46056779D01*
X110787143Y-46069295D01*
X110850129Y-46073413D01*
X110929435Y-46069074D01*
X111026570Y-46056221D01*
X111143045Y-46034797D01*
X111231791Y-46015812D01*
X111318470Y-45996537D01*
X111385557Y-45982207D01*
X111436399Y-45972634D01*
X111474343Y-45967631D01*
X111502740Y-45967011D01*
X111524935Y-45970587D01*
X111544276Y-45978170D01*
X111564113Y-45989575D01*
X111575188Y-45996603D01*
X111619235Y-46020500D01*
X111667200Y-46040353D01*
X111688083Y-46046707D01*
X111756877Y-46056095D01*
X111837610Y-46054811D01*
X111921694Y-46043634D01*
X112000537Y-46023346D01*
X112019297Y-46016606D01*
X112076723Y-45995222D01*
X112117930Y-45982809D01*
X112148335Y-45979155D01*
X112173360Y-45984048D01*
X112198422Y-45997277D01*
X112215475Y-46008945D01*
X112282261Y-46045101D01*
X112356118Y-46062245D01*
X112440976Y-46061148D01*
X112465259Y-46057980D01*
X112530001Y-46045068D01*
X112587737Y-46025682D01*
X112642702Y-45997259D01*
X112699132Y-45957236D01*
X112761260Y-45903048D01*
X112826022Y-45839568D01*
X112877028Y-45788375D01*
X112934359Y-45731862D01*
X112995641Y-45672267D01*
X113058500Y-45611828D01*
X113120563Y-45552781D01*
X113179455Y-45497363D01*
X113232804Y-45447811D01*
X113278234Y-45406364D01*
X113313374Y-45375257D01*
X113335848Y-45356728D01*
X113342911Y-45352429D01*
X113346709Y-45354153D01*
X113347142Y-45360722D01*
X113343267Y-45374233D01*
X113334143Y-45396781D01*
X113318827Y-45430462D01*
X113296378Y-45477373D01*
X113265855Y-45539610D01*
X113226315Y-45619268D01*
X113193008Y-45686036D01*
X113151120Y-45770246D01*
X113118885Y-45836134D01*
X113095244Y-45886303D01*
X113079137Y-45923358D01*
X113069508Y-45949902D01*
X113065297Y-45968539D01*
X113065447Y-45981873D01*
X113068651Y-45991972D01*
X113089361Y-46017133D01*
X113112185Y-46029270D01*
X113133015Y-46030011D01*
X113172279Y-46027597D01*
X113225202Y-46022617D01*
X113287011Y-46015657D01*
X113352931Y-46007306D01*
X113418190Y-45998152D01*
X113478011Y-45988783D01*
X113527623Y-45979788D01*
X113546383Y-45975781D01*
X113568397Y-45970303D01*
X113587889Y-45963540D01*
X113606086Y-45953678D01*
X113624212Y-45938900D01*
X113643493Y-45917390D01*
X113665154Y-45887333D01*
X113690421Y-45846914D01*
X113720518Y-45794316D01*
X113756672Y-45727723D01*
X113800108Y-45645321D01*
X113852050Y-45545294D01*
X113901374Y-45449768D01*
X113939692Y-45376272D01*
X113976612Y-45306892D01*
X114010101Y-45245344D01*
X114038125Y-45195342D01*
X114058647Y-45160598D01*
X114065864Y-45149531D01*
X114092467Y-45119909D01*
X114132845Y-45084325D01*
X114181315Y-45046845D01*
X114232196Y-45011535D01*
X114279805Y-44982462D01*
X114318461Y-44963691D01*
X114331010Y-44959778D01*
X114364707Y-44961445D01*
X114388238Y-44979389D01*
X114395963Y-45008405D01*
X114394405Y-45018296D01*
X114387659Y-45035395D01*
X114371859Y-45070690D01*
X114348361Y-45121300D01*
X114318521Y-45184345D01*
X114283694Y-45256944D01*
X114245235Y-45336216D01*
X114233419Y-45360406D01*
X114178443Y-45473041D01*
X114133120Y-45566785D01*
X114096611Y-45643784D01*
X114068077Y-45706182D01*
X114046679Y-45756126D01*
X114031578Y-45795760D01*
X114021935Y-45827230D01*
X114016913Y-45852682D01*
X114015671Y-45874261D01*
X114017372Y-45894113D01*
X114019669Y-45907160D01*
X114040581Y-45954337D01*
X114081079Y-45992675D01*
X114138538Y-46021032D01*
X114210333Y-46038264D01*
X114293838Y-46043228D01*
X114328531Y-46041628D01*
X114373849Y-46037654D01*
X114415642Y-46032212D01*
X114457479Y-46024300D01*
X114502928Y-46012916D01*
X114555557Y-45997059D01*
X114618934Y-45975726D01*
X114696629Y-45947917D01*
X114792208Y-45912629D01*
X114804951Y-45907880D01*
X114869111Y-45884162D01*
X114927331Y-45863021D01*
X114975300Y-45845993D01*
X115008708Y-45834614D01*
X115021359Y-45830773D01*
X115048504Y-45828997D01*
X115077008Y-45839007D01*
X115111312Y-45863154D01*
X115151689Y-45899758D01*
X115229825Y-45959379D01*
X115319718Y-45998847D01*
X115421876Y-46018377D01*
X115433535Y-46019294D01*
X115509683Y-46020618D01*
X115577297Y-46011921D01*
X115644930Y-45991320D01*
X115721137Y-45956935D01*
X115724401Y-45955288D01*
X115809329Y-45912310D01*
X115871323Y-45954933D01*
X115914156Y-45980367D01*
X115959260Y-46001030D01*
X115986210Y-46009689D01*
X116017902Y-46016386D01*
X116047468Y-46020672D01*
X116077268Y-46021923D01*
X116109658Y-46019513D01*
X116146995Y-46012818D01*
X116191639Y-46001212D01*
X116245947Y-45984070D01*
X116312275Y-45960767D01*
X116392982Y-45930679D01*
X116490426Y-45893179D01*
X116606963Y-45847644D01*
X116626793Y-45839864D01*
X116680747Y-45818993D01*
X116718717Y-45807212D01*
X116746763Y-45805449D01*
X116770947Y-45814633D01*
X116797329Y-45835692D01*
X116831971Y-45869554D01*
X116834038Y-45871609D01*
X116891411Y-45922623D01*
X116947511Y-45957708D01*
X117009406Y-45979915D01*
X117084165Y-45992297D01*
X117120454Y-45995259D01*
X117234718Y-45992198D01*
X117345046Y-45969113D01*
X117431644Y-45934388D01*
X117466445Y-45917977D01*
X117493813Y-45907255D01*
X117504140Y-45904858D01*
X117520786Y-45911139D01*
X117549629Y-45927453D01*
X117578147Y-45946034D01*
X117632242Y-45976194D01*
X117690628Y-45997819D01*
X117704223Y-46001113D01*
X117739703Y-46007294D01*
X117771064Y-46008607D01*
X117806231Y-46004500D01*
X117853131Y-45994417D01*
X117874498Y-45989197D01*
X117925405Y-45973806D01*
X117986643Y-45951023D01*
X118053880Y-45922929D01*
X118122785Y-45891605D01*
X118189029Y-45859132D01*
X118248280Y-45827592D01*
X118296207Y-45799066D01*
X118328480Y-45775635D01*
X118337080Y-45766885D01*
X118356082Y-45728718D01*
X118354022Y-45692920D01*
X118331496Y-45664147D01*
X118323231Y-45658871D01*
X118305687Y-45650791D01*
X118287154Y-45648210D01*
X118261500Y-45651608D01*
X118222590Y-45661466D01*
X118196905Y-45668778D01*
X118139839Y-45683036D01*
X118101125Y-45686675D01*
X118077918Y-45679239D01*
X118067374Y-45660271D01*
X118065999Y-45647774D01*
X118071033Y-45633688D01*
X118085705Y-45600808D01*
X118108972Y-45551284D01*
X118139792Y-45487264D01*
X118177122Y-45410895D01*
X118219920Y-45324327D01*
X118267144Y-45229707D01*
X118314834Y-45134956D01*
X118375334Y-45015080D01*
X118425823Y-44914373D01*
X118466948Y-44831045D01*
X118499350Y-44763311D01*
X118523676Y-44709383D01*
X118540570Y-44667473D01*
X118550675Y-44635795D01*
X118554636Y-44612562D01*
X118553097Y-44595986D01*
X118546703Y-44584280D01*
X118536098Y-44575658D01*
X118521927Y-44568331D01*
X118519521Y-44567227D01*
X118505156Y-44563394D01*
X118482962Y-44562295D01*
X118450696Y-44564229D01*
X118406116Y-44569495D01*
X118346981Y-44578390D01*
X118271047Y-44591211D01*
X118176072Y-44608257D01*
X118087879Y-44624575D01*
X118044530Y-44631882D01*
X118014148Y-44633222D01*
X117986705Y-44627509D01*
X117952173Y-44613657D01*
X117940956Y-44608661D01*
X117841490Y-44572989D01*
X117739825Y-44555336D01*
X117631076Y-44555261D01*
X117519160Y-44570608D01*
X117401869Y-44604145D01*
X117285610Y-44658392D01*
X117174129Y-44730711D01*
X117071173Y-44818462D01*
X116980489Y-44919005D01*
X116934964Y-44982184D01*
X116868336Y-45089530D01*
X116817208Y-45186924D01*
X116779362Y-45279865D01*
X116752582Y-45373854D01*
X116734653Y-45474390D01*
X116733684Y-45481718D01*
X116725883Y-45533107D01*
X116717154Y-45576690D01*
X116708803Y-45606500D01*
X116704450Y-45615375D01*
X116686908Y-45626495D01*
X116652331Y-45641477D01*
X116606482Y-45658440D01*
X116555120Y-45675504D01*
X116504007Y-45690788D01*
X116458903Y-45702411D01*
X116425571Y-45708491D01*
X116417826Y-45708962D01*
X116383825Y-45700854D01*
X116367501Y-45677777D01*
X116368453Y-45648667D01*
X116374683Y-45633691D01*
X116390529Y-45599524D01*
X116415097Y-45548005D01*
X116447490Y-45480968D01*
X116486813Y-45400251D01*
X116532170Y-45307690D01*
X116582666Y-45205120D01*
X116637405Y-45094380D01*
X116695491Y-44977304D01*
X116715722Y-44936626D01*
X116774849Y-44817394D01*
X116830928Y-44703500D01*
X116883056Y-44596826D01*
X116930333Y-44499256D01*
X116971856Y-44412673D01*
X117006725Y-44338961D01*
X117034038Y-44280003D01*
X117052893Y-44237682D01*
X117062389Y-44213882D01*
X117063304Y-44210481D01*
X117061959Y-44169663D01*
X117042162Y-44143250D01*
X117003688Y-44131013D01*
X116984354Y-44130032D01*
X116948408Y-44131914D01*
X116897156Y-44137035D01*
X116835853Y-44144610D01*
X116769755Y-44153853D01*
X116704115Y-44163977D01*
X116644189Y-44174195D01*
X116595232Y-44183723D01*
X116562500Y-44191774D01*
X116555704Y-44194157D01*
X116529184Y-44208894D01*
X116503181Y-44232019D01*
X116475664Y-44266320D01*
X116444600Y-44314583D01*
X116407958Y-44379596D01*
X116375165Y-44441857D01*
X116346013Y-44496589D01*
X116319038Y-44544146D01*
X116296714Y-44580381D01*
X116281519Y-44601146D01*
X116278370Y-44603974D01*
X116259244Y-44608557D01*
X116229437Y-44602183D01*
X116196094Y-44589290D01*
X116135719Y-44570184D01*
X116060474Y-44558844D01*
X116026517Y-44556327D01*
X115888248Y-44559726D01*
X115755005Y-44585809D01*
X115627614Y-44634129D01*
X115506903Y-44704240D01*
X115393700Y-44795696D01*
X115288833Y-44908051D01*
X115229887Y-44985838D01*
X115170852Y-45076308D01*
X115124376Y-45163533D01*
X115088473Y-45253120D01*
X115061158Y-45350676D01*
X115040446Y-45461807D01*
X115028303Y-45555189D01*
X115021368Y-45595127D01*
X115011510Y-45626775D01*
X115004114Y-45639371D01*
X114984845Y-45650937D01*
X114949032Y-45666376D01*
X114902871Y-45683598D01*
X114852558Y-45700515D01*
X114804288Y-45715037D01*
X114764258Y-45725073D01*
X114739689Y-45728551D01*
X114711208Y-45723314D01*
X114695641Y-45714447D01*
X114687363Y-45704172D01*
X114682549Y-45691540D01*
X114681941Y-45674553D01*
X114686284Y-45651212D01*
X114696322Y-45619520D01*
X114712799Y-45577480D01*
X114736459Y-45523093D01*
X114768046Y-45454362D01*
X114808303Y-45369290D01*
X114857975Y-45265878D01*
X114878614Y-45223137D01*
X114927827Y-45121185D01*
X114967767Y-45038006D01*
X114999458Y-44971242D01*
X115023924Y-44918533D01*
X115042188Y-44877520D01*
X115055274Y-44845845D01*
X115064206Y-44821148D01*
X115070007Y-44801070D01*
X115073701Y-44783252D01*
X115075897Y-44768520D01*
X115075258Y-44702825D01*
X115054321Y-44648934D01*
X115013057Y-44606809D01*
X114951437Y-44576415D01*
X114907260Y-44564340D01*
X114837223Y-44559206D01*
X114754797Y-44571407D01*
X114659370Y-44601140D01*
X114550329Y-44648603D01*
X114427062Y-44713993D01*
X114406737Y-44725690D01*
X114356738Y-44754031D01*
X114313186Y-44777391D01*
X114280543Y-44793468D01*
X114263268Y-44799963D01*
X114262695Y-44800000D01*
X114253164Y-44793323D01*
X114248586Y-44770762D01*
X114248078Y-44731490D01*
X114244280Y-44671586D01*
X114228281Y-44627605D01*
X114197823Y-44597716D01*
X114150645Y-44580089D01*
X114084487Y-44572894D01*
X114051804Y-44572530D01*
X113946508Y-44579616D01*
X113853110Y-44600170D01*
X113763035Y-44636114D01*
X113758862Y-44638154D01*
X113732449Y-44653411D01*
X113700876Y-44676088D01*
X113662959Y-44707343D01*
X113617513Y-44748328D01*
X113563353Y-44800201D01*
X113499297Y-44864115D01*
X113424159Y-44941227D01*
X113336756Y-45032692D01*
X113235904Y-45139663D01*
X113143909Y-45238077D01*
X113084935Y-45300954D01*
X113030894Y-45357812D01*
X112983913Y-45406471D01*
X112946121Y-45444754D01*
X112919646Y-45470481D01*
X112906617Y-45481474D01*
X112905894Y-45481721D01*
X112899297Y-45479240D01*
X112897200Y-45470613D01*
X112900368Y-45454067D01*
X112909568Y-45427825D01*
X112925563Y-45390114D01*
X112949120Y-45339159D01*
X112981003Y-45273185D01*
X113021979Y-45190418D01*
X113072812Y-45089082D01*
X113089484Y-45056013D01*
X113140049Y-44955650D01*
X113180877Y-44874070D01*
X113212896Y-44809107D01*
X113237034Y-44758596D01*
X113254221Y-44720372D01*
X113265385Y-44692268D01*
X113271454Y-44672119D01*
X113273358Y-44657760D01*
X113272025Y-44647026D01*
X113268636Y-44638276D01*
X113255201Y-44617739D01*
X113235138Y-44607251D01*
X113200227Y-44602644D01*
X113198063Y-44602501D01*
X113167138Y-44603220D01*
X113118671Y-44607570D01*
X113058235Y-44614912D01*
X112991406Y-44624606D01*
X112958177Y-44629994D01*
X112877979Y-44642904D01*
X112815783Y-44651008D01*
X112766559Y-44654214D01*
X112725276Y-44652427D01*
X112686906Y-44645554D01*
X112646418Y-44633499D01*
X112618741Y-44623638D01*
X112577198Y-44610482D01*
X112534430Y-44602433D01*
X112482689Y-44598446D01*
X112424803Y-44597469D01*
X112365761Y-44598768D01*
X112308584Y-44602374D01*
X112261714Y-44607654D01*
X112243049Y-44611121D01*
X112108335Y-44654591D01*
X111977644Y-44719250D01*
X111853725Y-44802816D01*
X111739330Y-44903006D01*
X111637208Y-45017536D01*
X111550110Y-45144123D01*
X111507978Y-45221327D01*
X111470601Y-45303325D01*
X111445002Y-45377887D01*
X111428950Y-45453964D01*
X111420214Y-45540509D01*
X111418209Y-45581628D01*
X111415692Y-45639148D01*
X111412829Y-45689924D01*
X111409981Y-45728269D01*
X111407629Y-45747946D01*
X111392028Y-45770393D01*
X111360066Y-45787238D01*
X111318505Y-45797115D01*
X111274106Y-45798657D01*
X111233631Y-45790499D01*
X111222203Y-45785400D01*
X111204915Y-45774689D01*
X111190322Y-45760661D01*
X111176498Y-45739678D01*
X111161515Y-45708100D01*
X111143449Y-45662288D01*
X111120373Y-45598601D01*
X111114361Y-45581628D01*
X111088306Y-45508099D01*
X111059051Y-45425868D01*
X111030463Y-45345786D01*
X111009672Y-45287783D01*
X110972001Y-45182733D01*
X110941731Y-45097531D01*
X110918205Y-45029946D01*
X110900762Y-44977743D01*
X110888744Y-44938689D01*
X110881493Y-44910550D01*
X110878348Y-44891095D01*
X110878651Y-44878089D01*
X110881743Y-44869298D01*
X110884869Y-44864867D01*
X110904592Y-44849440D01*
X110943836Y-44826089D01*
X111000393Y-44795859D01*
X111072056Y-44759797D01*
X111156616Y-44718948D01*
X111251865Y-44674359D01*
X111355596Y-44627074D01*
X111465601Y-44578140D01*
X111579672Y-44528602D01*
X111695600Y-44479507D01*
X111719574Y-44469517D01*
X111792741Y-44439086D01*
X111859644Y-44411197D01*
X111916888Y-44387274D01*
X111961073Y-44368736D01*
X111988802Y-44357005D01*
X111995789Y-44353978D01*
X112017073Y-44345570D01*
X112056468Y-44331044D01*
X112109830Y-44311850D01*
X112173017Y-44289440D01*
X112241883Y-44265265D01*
X112312284Y-44240776D01*
X112380077Y-44217423D01*
X112441117Y-44196659D01*
X112491261Y-44179933D01*
X112512957Y-44172897D01*
X112773711Y-44095546D01*
X113033274Y-44029937D01*
X113288482Y-43976629D01*
X113536167Y-43936184D01*
X113773162Y-43909163D01*
X113996302Y-43896128D01*
X114080845Y-43894956D01*
X114280034Y-43902270D01*
X114470560Y-43924836D01*
X114655172Y-43963589D01*
X114836617Y-44019463D01*
X115017643Y-44093393D01*
X115200998Y-44186315D01*
X115389429Y-44299162D01*
X115514614Y-44382726D01*
X115574808Y-44422836D01*
X115625947Y-44451703D01*
X115672931Y-44469965D01*
X115720663Y-44478259D01*
X115774044Y-44477221D01*
X115837976Y-44467488D01*
X115917360Y-44449697D01*
X115956083Y-44440077D01*
X116018528Y-44423872D01*
X116061836Y-44410967D01*
X116089788Y-44399444D01*
X116106170Y-44387386D01*
X116114763Y-44372877D01*
X116118671Y-44357701D01*
X116120616Y-44321861D01*
X116110110Y-44288962D01*
X116084727Y-44255412D01*
X116042042Y-44217620D01*
X116005616Y-44190334D01*
X115783170Y-44044383D01*
X115550335Y-43918778D01*
X115308936Y-43814409D01*
X115075289Y-43736302D01*
X114960022Y-43706670D01*
X114827068Y-43678582D01*
X114682240Y-43652935D01*
X114531351Y-43630625D01*
X114380212Y-43612549D01*
X114234636Y-43599601D01*
X114158491Y-43594964D01*
X114017611Y-43592628D01*
X113861274Y-43598122D01*
X113695181Y-43610729D01*
X113525035Y-43629734D01*
X113356538Y-43654420D01*
X113195392Y-43684072D01*
X113047298Y-43717974D01*
X112941971Y-43747699D01*
X112688384Y-43827876D01*
X112454975Y-43903674D01*
X112239034Y-43976080D01*
X112037851Y-44046078D01*
X111848716Y-44114654D01*
X111668919Y-44182793D01*
X111495750Y-44251481D01*
X111326500Y-44321702D01*
X111158458Y-44394441D01*
X111137459Y-44403735D01*
X111064388Y-44435767D01*
X111009180Y-44458869D01*
X110968454Y-44474179D01*
X110938830Y-44482833D01*
X110916928Y-44485970D01*
X110899368Y-44484728D01*
X110897769Y-44484416D01*
X110873855Y-44478129D01*
X110857407Y-44468894D01*
X110848916Y-44454287D01*
X110848876Y-44431884D01*
X110857778Y-44399262D01*
X110876116Y-44353997D01*
X110904382Y-44293665D01*
X110943069Y-44215844D01*
X110958586Y-44185162D01*
X111007026Y-44090487D01*
X111048190Y-44014024D01*
X111085152Y-43952878D01*
X111120985Y-43904154D01*
X111158760Y-43864959D01*
X111201552Y-43832396D01*
X111252432Y-43803570D01*
X111314475Y-43775587D01*
X111390753Y-43745552D01*
X111448007Y-43724084D01*
X111492615Y-43705771D01*
X111530615Y-43687120D01*
X111554724Y-43671758D01*
X111556730Y-43669924D01*
X111575872Y-43636873D01*
X111576841Y-43600172D01*
X111560227Y-43568225D01*
X111548914Y-43558740D01*
X111539738Y-43552798D01*
X111530652Y-43548291D01*
X111519189Y-43545452D01*
X111502883Y-43544519D01*
X111479268Y-43545726D01*
X111445877Y-43549308D01*
X111400244Y-43555502D01*
X111339903Y-43564541D01*
X111262387Y-43576663D01*
X111165231Y-43592102D01*
X111114253Y-43600225D01*
X111021821Y-43614936D01*
X110927556Y-43629914D01*
X110836878Y-43644300D01*
X110755207Y-43657235D01*
X110687963Y-43667857D01*
X110655854Y-43672912D01*
X110546960Y-43690418D01*
X110437883Y-43708693D01*
X110331275Y-43727232D01*
X110229786Y-43745529D01*
X110136067Y-43763081D01*
X110052768Y-43779383D01*
X109982541Y-43793928D01*
X109928036Y-43806211D01*
X109891904Y-43815729D01*
X109877789Y-43821152D01*
X109850223Y-43849962D01*
X109841387Y-43883310D01*
X109850132Y-43914919D01*
X109875307Y-43938514D01*
X109900814Y-43946717D01*
X109928043Y-43949620D01*
X109972134Y-43952999D01*
X110026458Y-43956387D01*
X110071969Y-43958751D01*
X110146150Y-43963735D01*
X110200291Y-43971387D01*
X110237811Y-43982835D01*
X110262127Y-43999205D01*
X110276657Y-44021622D01*
X110278665Y-44026861D01*
X110282596Y-44046160D01*
X110279545Y-44068545D01*
X110267924Y-44099561D01*
X110246146Y-44144753D01*
X110243357Y-44150248D01*
X110230069Y-44176498D01*
X110207255Y-44221732D01*
X110175934Y-44283923D01*
X110137124Y-44361046D01*
X110091844Y-44451075D01*
X110041114Y-44551984D01*
X109985952Y-44661747D01*
X109927377Y-44778338D01*
X109866408Y-44899730D01*
X109842708Y-44946927D01*
X109762737Y-45105726D01*
X109692521Y-45244129D01*
X109631640Y-45362930D01*
X109579672Y-45462925D01*
X109536198Y-45544908D01*
X109500796Y-45609675D01*
X109473046Y-45658019D01*
X109452527Y-45690736D01*
X109440642Y-45706644D01*
X109397298Y-45750285D01*
X109347507Y-45788448D01*
X109286681Y-45823949D01*
X109210227Y-45859605D01*
X109153620Y-45882767D01*
X109080796Y-45913272D01*
X109028454Y-45939892D01*
X108994256Y-45964381D01*
X108975863Y-45988491D01*
X108970935Y-46013974D01*
X108804628Y-46013974D01*
X108804628Y-43389542D01*
X118807126Y-43389542D01*
G37*
G36*
X117818170Y-44745162D02*
G01*
X117848643Y-44770992D01*
X117860393Y-44797489D01*
X117862372Y-44811172D01*
X117861880Y-44826793D01*
X117858069Y-44846286D01*
X117850095Y-44871585D01*
X117837112Y-44904622D01*
X117818273Y-44947331D01*
X117792733Y-45001646D01*
X117759647Y-45069500D01*
X117718169Y-45152826D01*
X117667452Y-45253559D01*
X117619283Y-45348720D01*
X117561896Y-45461455D01*
X117513602Y-45554870D01*
X117473163Y-45630759D01*
X117439340Y-45690919D01*
X117410897Y-45737145D01*
X117386595Y-45771234D01*
X117365197Y-45794979D01*
X117345465Y-45810178D01*
X117326161Y-45818626D01*
X117306047Y-45822118D01*
X117292642Y-45822582D01*
X117244226Y-45813739D01*
X117216069Y-45798221D01*
X117202846Y-45786713D01*
X117193282Y-45774240D01*
X117188056Y-45758888D01*
X117187844Y-45738744D01*
X117193325Y-45711893D01*
X117205176Y-45676422D01*
X117224075Y-45630418D01*
X117250700Y-45571966D01*
X117285727Y-45499153D01*
X117329834Y-45410066D01*
X117383700Y-45302789D01*
X117409814Y-45251023D01*
X117458372Y-45155330D01*
X117504471Y-45065437D01*
X117546873Y-44983686D01*
X117584345Y-44912415D01*
X117615650Y-44853965D01*
X117639554Y-44810676D01*
X117654821Y-44784887D01*
X117658878Y-44779233D01*
X117686625Y-44758040D01*
X117722905Y-44740837D01*
X117728417Y-44739050D01*
X117776211Y-44733681D01*
X117818170Y-44745162D01*
G37*
G36*
X116076941Y-44731419D02*
G01*
X116120727Y-44748197D01*
X116135095Y-44759755D01*
X116154536Y-44783602D01*
X116161337Y-44808896D01*
X116159635Y-44840942D01*
X116152752Y-44865189D01*
X116136285Y-44907287D01*
X116111645Y-44964387D01*
X116080244Y-45033636D01*
X116043493Y-45112184D01*
X116002805Y-45197180D01*
X115959590Y-45285773D01*
X115915261Y-45375112D01*
X115871229Y-45462346D01*
X115828906Y-45544624D01*
X115789704Y-45619095D01*
X115755034Y-45682907D01*
X115726308Y-45733211D01*
X115704937Y-45767154D01*
X115694568Y-45780178D01*
X115649186Y-45809575D01*
X115598275Y-45821928D01*
X115548590Y-45816677D01*
X115509395Y-45795497D01*
X115493521Y-45780498D01*
X115482016Y-45764839D01*
X115475524Y-45746470D01*
X115474687Y-45723342D01*
X115480148Y-45693403D01*
X115492548Y-45654605D01*
X115512530Y-45604896D01*
X115540737Y-45542226D01*
X115577811Y-45464545D01*
X115624393Y-45369803D01*
X115673943Y-45270328D01*
X115732692Y-45153091D01*
X115782240Y-45055171D01*
X115823647Y-44974734D01*
X115857970Y-44909947D01*
X115886268Y-44858974D01*
X115909600Y-44819983D01*
X115929024Y-44791139D01*
X115945598Y-44770608D01*
X115960382Y-44756557D01*
X115974433Y-44747152D01*
X115976556Y-44746022D01*
X116026228Y-44730464D01*
X116076941Y-44731419D01*
G37*
G36*
X146513224Y-111879829D02*
G01*
X146514149Y-111823884D01*
X146521226Y-111700379D01*
X146543221Y-111585749D01*
X146581823Y-111474709D01*
X146638721Y-111361973D01*
X146686178Y-111285491D01*
X146777165Y-111166122D01*
X146883223Y-111058894D01*
X147000957Y-110966277D01*
X147126972Y-110890745D01*
X147257873Y-110834771D01*
X147336742Y-110811747D01*
X147404097Y-110800708D01*
X147481996Y-110796019D01*
X147562721Y-110797447D01*
X147638559Y-110804759D01*
X147701792Y-110817722D01*
X147718741Y-110823261D01*
X147763286Y-110838931D01*
X147800963Y-110849064D01*
X147837458Y-110853891D01*
X147878456Y-110853642D01*
X147929642Y-110848549D01*
X147996701Y-110838842D01*
X148018464Y-110835429D01*
X148105468Y-110821734D01*
X148172383Y-110811434D01*
X148222329Y-110804168D01*
X148258421Y-110799576D01*
X148283779Y-110797298D01*
X148301519Y-110796973D01*
X148314759Y-110798243D01*
X148324063Y-110800130D01*
X148350624Y-110815473D01*
X148368653Y-110838614D01*
X148372313Y-110848344D01*
X148373368Y-110859828D01*
X148370846Y-110875391D01*
X148363775Y-110897357D01*
X148351181Y-110928050D01*
X148332093Y-110969793D01*
X148305539Y-111024912D01*
X148270545Y-111095729D01*
X148226140Y-111184570D01*
X148212713Y-111211348D01*
X148170210Y-111295827D01*
X148130105Y-111375069D01*
X148093859Y-111446222D01*
X148062936Y-111506429D01*
X148038799Y-111552836D01*
X148022910Y-111582589D01*
X148018306Y-111590677D01*
X148002967Y-111623117D01*
X147995633Y-111653521D01*
X147997217Y-111675184D01*
X148005907Y-111681721D01*
X148016544Y-111673440D01*
X148040840Y-111650122D01*
X148076560Y-111614050D01*
X148121471Y-111567511D01*
X148173340Y-111512788D01*
X148223922Y-111458650D01*
X148348740Y-111324990D01*
X148459013Y-111208657D01*
X148555377Y-111109030D01*
X148638468Y-111025487D01*
X148708922Y-110957407D01*
X148767376Y-110904169D01*
X148814465Y-110865151D01*
X148850826Y-110839732D01*
X148866094Y-110831502D01*
X148942041Y-110801426D01*
X149018025Y-110782940D01*
X149103209Y-110774126D01*
X149146830Y-110772807D01*
X149222289Y-110775719D01*
X149277772Y-110787921D01*
X149315597Y-110811241D01*
X149338081Y-110847503D01*
X149347538Y-110898536D01*
X149348078Y-110931490D01*
X149348726Y-110972521D01*
X149353562Y-110994086D01*
X149362695Y-111000000D01*
X149378599Y-110994376D01*
X149410241Y-110979033D01*
X149453150Y-110956264D01*
X149502856Y-110928361D01*
X149506737Y-110926123D01*
X149619409Y-110863850D01*
X149717006Y-110816505D01*
X149802094Y-110783474D01*
X149877235Y-110764145D01*
X149944995Y-110757904D01*
X150007938Y-110764138D01*
X150068627Y-110782235D01*
X150083206Y-110788303D01*
X150133911Y-110821900D01*
X150166270Y-110869200D01*
X150179488Y-110928270D01*
X150172771Y-110997175D01*
X150171375Y-111002951D01*
X150162807Y-111027261D01*
X150145372Y-111069166D01*
X150120627Y-111125196D01*
X150090132Y-111191877D01*
X150055444Y-111265736D01*
X150024846Y-111329464D01*
X149965805Y-111451393D01*
X149916409Y-111554021D01*
X149875949Y-111639156D01*
X149843719Y-111708601D01*
X149819012Y-111764163D01*
X149801119Y-111807648D01*
X149789334Y-111840860D01*
X149782948Y-111865606D01*
X149781255Y-111883691D01*
X149783547Y-111896920D01*
X149789116Y-111907100D01*
X149795641Y-111914447D01*
X149817708Y-111925395D01*
X149839689Y-111928551D01*
X149846298Y-111927570D01*
X150574269Y-111927570D01*
X150576122Y-111949657D01*
X150583624Y-111967149D01*
X150596138Y-111982085D01*
X150610180Y-111994247D01*
X150657296Y-112017811D01*
X150709988Y-112020596D01*
X150754748Y-112006068D01*
X150786898Y-111984614D01*
X150812341Y-111961865D01*
X150822169Y-111947466D01*
X152287878Y-111947466D01*
X152292190Y-111967811D01*
X152303322Y-111984066D01*
X152315564Y-111995114D01*
X152363280Y-112018690D01*
X152395642Y-112022523D01*
X152427165Y-112019319D01*
X152452834Y-112006430D01*
X152481895Y-111979090D01*
X152483796Y-111977049D01*
X152497975Y-111956937D01*
X152520919Y-111918554D01*
X152551190Y-111864719D01*
X152587350Y-111798246D01*
X152627961Y-111721952D01*
X152671585Y-111638652D01*
X152716784Y-111551163D01*
X152762119Y-111462299D01*
X152806153Y-111374878D01*
X152847448Y-111291714D01*
X152884566Y-111215625D01*
X152916069Y-111149424D01*
X152940518Y-111095930D01*
X152956477Y-111057957D01*
X152962267Y-111040117D01*
X152959423Y-110998664D01*
X152937689Y-110964634D01*
X152901519Y-110942665D01*
X152863229Y-110936927D01*
X152843673Y-110937950D01*
X152825772Y-110940900D01*
X152808617Y-110947230D01*
X152791299Y-110958389D01*
X152772907Y-110975831D01*
X152752533Y-111001005D01*
X152729268Y-111035363D01*
X152702201Y-111080356D01*
X152670424Y-111137435D01*
X152633027Y-111208052D01*
X152589100Y-111293658D01*
X152537736Y-111395703D01*
X152478023Y-111515640D01*
X152409052Y-111654919D01*
X152393131Y-111687117D01*
X152352840Y-111769600D01*
X152322869Y-111834097D01*
X152302518Y-111883388D01*
X152291088Y-111920251D01*
X152287878Y-111947466D01*
X150822169Y-111947466D01*
X150825395Y-111942740D01*
X150846812Y-111905280D01*
X150875214Y-111852319D01*
X150909225Y-111786693D01*
X150947466Y-111711236D01*
X150988562Y-111628784D01*
X151031134Y-111542172D01*
X151073806Y-111454236D01*
X151115201Y-111367810D01*
X151153942Y-111285729D01*
X151188650Y-111210829D01*
X151217950Y-111145945D01*
X151240464Y-111093912D01*
X151254816Y-111057565D01*
X151259565Y-111041138D01*
X151255159Y-110992511D01*
X151231804Y-110955751D01*
X151192391Y-110934033D01*
X151157847Y-110929477D01*
X151132377Y-110930160D01*
X151109687Y-110933338D01*
X151088581Y-110940704D01*
X151067859Y-110953949D01*
X151046324Y-110974766D01*
X151022776Y-111004847D01*
X150996017Y-111045884D01*
X150964850Y-111099570D01*
X150928075Y-111167597D01*
X150884494Y-111251658D01*
X150832909Y-111353444D01*
X150772948Y-111472995D01*
X150717431Y-111584348D01*
X150672020Y-111676831D01*
X150636078Y-111752483D01*
X150608969Y-111813344D01*
X150590056Y-111861452D01*
X150578701Y-111898848D01*
X150574269Y-111927570D01*
X149846298Y-111927570D01*
X149865647Y-111924698D01*
X149905766Y-111914509D01*
X149953877Y-111900045D01*
X150003813Y-111883363D01*
X150049404Y-111866523D01*
X150084482Y-111851583D01*
X150102725Y-111840760D01*
X150110236Y-111823638D01*
X150119358Y-111788369D01*
X150128925Y-111740147D01*
X150137535Y-111685843D01*
X150161301Y-111552647D01*
X150194156Y-111435985D01*
X150238837Y-111329816D01*
X150298086Y-111228100D01*
X150374642Y-111124796D01*
X150412586Y-111079517D01*
X150518396Y-110972851D01*
X150633560Y-110886648D01*
X150756759Y-110821505D01*
X150886675Y-110778022D01*
X151021989Y-110756795D01*
X151126517Y-110755855D01*
X151202659Y-110763086D01*
X151263075Y-110776530D01*
X151296189Y-110788759D01*
X151337815Y-110804427D01*
X151364749Y-110808292D01*
X151378466Y-110803940D01*
X151390459Y-110789654D01*
X151410629Y-110758379D01*
X151436577Y-110714123D01*
X151465906Y-110660893D01*
X151479963Y-110634323D01*
X151509921Y-110577118D01*
X151537030Y-110525656D01*
X151558962Y-110484337D01*
X151573387Y-110457558D01*
X151576733Y-110451557D01*
X151599719Y-110426492D01*
X151638995Y-110404655D01*
X151696427Y-110385400D01*
X151773886Y-110368079D01*
X151857611Y-110354285D01*
X151953089Y-110341252D01*
X152027765Y-110333558D01*
X152083822Y-110331605D01*
X152123441Y-110335795D01*
X152148806Y-110346531D01*
X152162097Y-110364215D01*
X152165497Y-110389249D01*
X152163278Y-110410644D01*
X152156929Y-110428372D01*
X152140958Y-110465146D01*
X152116299Y-110519011D01*
X152083885Y-110588010D01*
X152044651Y-110670185D01*
X151999532Y-110763581D01*
X151949462Y-110866240D01*
X151895374Y-110976206D01*
X151838204Y-111091522D01*
X151837340Y-111093258D01*
X151779525Y-111209471D01*
X151724137Y-111320931D01*
X151672187Y-111425594D01*
X151624684Y-111521419D01*
X151582640Y-111606365D01*
X151547066Y-111678388D01*
X151518971Y-111735448D01*
X151499368Y-111775502D01*
X151489394Y-111796231D01*
X151470778Y-111847217D01*
X151469711Y-111882745D01*
X151486214Y-111903026D01*
X151501088Y-111907519D01*
X151524430Y-111905858D01*
X151563756Y-111897953D01*
X151612932Y-111885532D01*
X151665828Y-111870325D01*
X151716311Y-111854058D01*
X151758250Y-111838462D01*
X151778258Y-111829382D01*
X151794678Y-111820132D01*
X151806492Y-111809435D01*
X151815136Y-111793083D01*
X151822049Y-111766864D01*
X151828671Y-111726569D01*
X151836440Y-111667987D01*
X151838241Y-111653836D01*
X151864109Y-111528959D01*
X151910629Y-111401245D01*
X151978424Y-111269244D01*
X152055489Y-111149374D01*
X152096820Y-111094695D01*
X152141971Y-111044972D01*
X152195859Y-110995456D01*
X152263400Y-110941398D01*
X152296853Y-110916323D01*
X152414219Y-110842156D01*
X152535379Y-110790781D01*
X152662227Y-110761560D01*
X152778760Y-110753661D01*
X152865613Y-110757934D01*
X152941585Y-110772166D01*
X153018051Y-110798745D01*
X153041219Y-110808779D01*
X153109741Y-110839497D01*
X153317434Y-110800390D01*
X153410877Y-110783257D01*
X153484092Y-110771094D01*
X153539791Y-110763746D01*
X153580689Y-110761059D01*
X153609498Y-110762880D01*
X153628933Y-110769053D01*
X153641707Y-110779426D01*
X153643608Y-110781862D01*
X153657005Y-110809068D01*
X153660296Y-110826599D01*
X153655139Y-110841287D01*
X153640368Y-110874749D01*
X153617032Y-110924812D01*
X153586179Y-110989299D01*
X153548859Y-111066036D01*
X153506122Y-111152848D01*
X153459015Y-111247560D01*
X153413466Y-111338324D01*
X153363331Y-111438215D01*
X153316611Y-111532084D01*
X153274354Y-111617770D01*
X153237608Y-111693110D01*
X153207419Y-111755944D01*
X153184837Y-111804111D01*
X153170908Y-111835449D01*
X153166636Y-111847516D01*
X153172354Y-111872435D01*
X153191137Y-111884447D01*
X153225431Y-111884041D01*
X153277678Y-111871706D01*
X153281668Y-111870528D01*
X153341604Y-111854430D01*
X153384363Y-111847758D01*
X153414268Y-111850438D01*
X153435644Y-111862396D01*
X153441029Y-111867769D01*
X153459254Y-111902635D01*
X153455092Y-111939814D01*
X153429041Y-111976254D01*
X153422281Y-111982317D01*
X153387266Y-112006752D01*
X153335217Y-112036508D01*
X153271307Y-112069199D01*
X153200710Y-112102437D01*
X153128600Y-112133835D01*
X153060150Y-112161008D01*
X153000534Y-112181566D01*
X152974498Y-112188912D01*
X152921520Y-112201418D01*
X152883151Y-112207722D01*
X152851488Y-112208390D01*
X152818628Y-112203989D01*
X152804223Y-112201113D01*
X152747307Y-112182776D01*
X152690599Y-112154119D01*
X152678147Y-112146034D01*
X152645392Y-112124377D01*
X152620329Y-112109462D01*
X152609655Y-112104858D01*
X152595108Y-112109413D01*
X152566067Y-112121254D01*
X152535053Y-112134999D01*
X152438218Y-112172458D01*
X152346429Y-112192446D01*
X152251100Y-112196643D01*
X152226330Y-112195462D01*
X152145010Y-112187150D01*
X152080279Y-112172003D01*
X152025580Y-112147271D01*
X151974351Y-112110207D01*
X151934965Y-112073370D01*
X151900818Y-112040259D01*
X151872227Y-112014746D01*
X151853589Y-112000662D01*
X151849673Y-111999074D01*
X151835898Y-112003114D01*
X151803405Y-112014448D01*
X151755403Y-112031902D01*
X151695103Y-112054299D01*
X151625715Y-112080463D01*
X151580860Y-112097555D01*
X151482512Y-112134894D01*
X151402885Y-112164265D01*
X151338891Y-112186481D01*
X151287445Y-112202354D01*
X151245460Y-112212697D01*
X151209850Y-112218321D01*
X151177529Y-112220040D01*
X151145411Y-112218665D01*
X151127309Y-112216949D01*
X151078599Y-112209057D01*
X151037658Y-112194615D01*
X150993432Y-112169398D01*
X150980342Y-112160765D01*
X150908679Y-112112644D01*
X150824076Y-112155456D01*
X150747310Y-112190409D01*
X150679382Y-112211466D01*
X150611708Y-112220515D01*
X150535704Y-112219440D01*
X150533535Y-112219294D01*
X150433539Y-112202950D01*
X150345188Y-112167394D01*
X150264303Y-112110798D01*
X150244354Y-112092765D01*
X150211904Y-112063808D01*
X150184548Y-112042495D01*
X150167853Y-112033135D01*
X150167177Y-112033035D01*
X150144447Y-112032802D01*
X150117524Y-112036472D01*
X150082823Y-112045056D01*
X150036754Y-112059570D01*
X149975732Y-112081027D01*
X149905069Y-112107108D01*
X149819302Y-112139089D01*
X149751885Y-112163936D01*
X149699189Y-112182850D01*
X149657584Y-112197030D01*
X149623438Y-112207676D01*
X149593122Y-112215988D01*
X149563005Y-112223166D01*
X149536510Y-112228921D01*
X149439873Y-112243242D01*
X149351319Y-112244352D01*
X149273370Y-112232950D01*
X149208548Y-112209737D01*
X149159372Y-112175411D01*
X149128366Y-112130674D01*
X149122622Y-112114012D01*
X149118336Y-112092591D01*
X149117497Y-112069466D01*
X149120927Y-112042445D01*
X149129450Y-112009335D01*
X149143887Y-111967944D01*
X149165062Y-111916078D01*
X149193797Y-111851546D01*
X149230914Y-111772154D01*
X149277236Y-111675709D01*
X149320097Y-111587623D01*
X149360607Y-111504191D01*
X149397965Y-111426351D01*
X149430849Y-111356928D01*
X149457936Y-111298748D01*
X149477905Y-111254637D01*
X149489432Y-111227419D01*
X149491583Y-111221169D01*
X149490975Y-111186723D01*
X149472458Y-111164299D01*
X149440352Y-111158276D01*
X149431010Y-111159778D01*
X149399505Y-111172310D01*
X149356264Y-111196677D01*
X149306934Y-111228887D01*
X149257161Y-111264950D01*
X149212590Y-111300875D01*
X149178869Y-111332669D01*
X149167773Y-111345863D01*
X149149051Y-111374843D01*
X149123370Y-111419139D01*
X149094005Y-111472905D01*
X149064230Y-111530294D01*
X149061963Y-111534798D01*
X149026506Y-111604707D01*
X148987383Y-111680655D01*
X148946347Y-111759352D01*
X148905154Y-111837510D01*
X148865556Y-111911840D01*
X148829308Y-111979052D01*
X148798165Y-112035859D01*
X148773879Y-112078971D01*
X148758205Y-112105099D01*
X148756274Y-112107974D01*
X148728725Y-112137342D01*
X148698683Y-112158528D01*
X148677106Y-112165438D01*
X148637018Y-112174558D01*
X148583225Y-112185098D01*
X148520531Y-112196269D01*
X148453740Y-112207282D01*
X148387659Y-112217349D01*
X148327092Y-112225681D01*
X148276843Y-112231488D01*
X148241719Y-112233982D01*
X148238848Y-112234021D01*
X148202232Y-112225056D01*
X148175344Y-112201854D01*
X148163738Y-112170436D01*
X148165217Y-112154240D01*
X148172537Y-112135353D01*
X148188951Y-112098816D01*
X148212892Y-112047928D01*
X148242792Y-111985989D01*
X148277082Y-111916299D01*
X148302171Y-111866039D01*
X148347266Y-111776026D01*
X148382647Y-111704815D01*
X148409279Y-111650268D01*
X148428127Y-111610244D01*
X148440154Y-111582603D01*
X148446326Y-111565206D01*
X148447606Y-111555913D01*
X148444960Y-111552585D01*
X148443531Y-111552429D01*
X148430160Y-111560533D01*
X148402054Y-111583748D01*
X148360963Y-111620426D01*
X148308637Y-111668920D01*
X148246828Y-111727582D01*
X148177286Y-111794766D01*
X148101760Y-111868823D01*
X148022002Y-111948107D01*
X148005548Y-111964595D01*
X147936811Y-112033042D01*
X147881546Y-112086674D01*
X147837106Y-112127782D01*
X147800841Y-112158658D01*
X147770101Y-112181593D01*
X147742238Y-112198880D01*
X147723457Y-112208640D01*
X147627515Y-112245604D01*
X147534497Y-112262899D01*
X147447052Y-112260520D01*
X147367828Y-112238465D01*
X147315475Y-112209064D01*
X147290793Y-112192417D01*
X147269315Y-112182463D01*
X147246237Y-112179478D01*
X147216756Y-112183742D01*
X147176067Y-112195531D01*
X147119365Y-112215125D01*
X147101666Y-112221440D01*
X146996620Y-112249571D01*
X146895050Y-112258475D01*
X146800034Y-112248341D01*
X146714647Y-112219361D01*
X146671842Y-112194740D01*
X146645449Y-112178563D01*
X146620247Y-112168878D01*
X146591373Y-112165635D01*
X146553964Y-112168781D01*
X146503155Y-112178263D01*
X146441556Y-112192265D01*
X146322520Y-112219529D01*
X146222663Y-112240549D01*
X146138663Y-112255893D01*
X146067198Y-112266127D01*
X146004947Y-112271815D01*
X145965357Y-112273391D01*
X145911779Y-112273600D01*
X145875575Y-112271307D01*
X145850661Y-112265528D01*
X145830954Y-112255278D01*
X145824312Y-112250565D01*
X145788697Y-112218414D01*
X145755761Y-112175831D01*
X145723848Y-112119820D01*
X145691303Y-112047384D01*
X145656472Y-111955529D01*
X145647947Y-111931295D01*
X145615699Y-111839055D01*
X145589868Y-111766640D01*
X145569428Y-111711576D01*
X145553353Y-111671389D01*
X145540618Y-111643606D01*
X145530196Y-111625753D01*
X145521062Y-111615358D01*
X145515271Y-111611397D01*
X145495329Y-111604076D01*
X145475916Y-111605533D01*
X145455510Y-111617635D01*
X145432588Y-111642253D01*
X145405629Y-111681256D01*
X145373111Y-111736513D01*
X145333511Y-111809893D01*
X145298290Y-111877864D01*
X145249379Y-111965021D01*
X145200425Y-112032264D01*
X145147128Y-112082798D01*
X145085188Y-112119829D01*
X145010305Y-112146563D01*
X144918180Y-112166204D01*
X144909579Y-112167623D01*
X144832037Y-112179884D01*
X144742109Y-112193612D01*
X144645430Y-112207990D01*
X144547635Y-112222202D01*
X144454355Y-112235433D01*
X144371226Y-112246867D01*
X144303882Y-112255688D01*
X144286627Y-112257820D01*
X144236579Y-112264151D01*
X144193380Y-112270106D01*
X144163878Y-112274724D01*
X144157335Y-112276006D01*
X144129403Y-112274850D01*
X144104442Y-112266316D01*
X144079274Y-112242459D01*
X144071422Y-112213942D01*
X144072087Y-112188311D01*
X144083624Y-112169197D01*
X144111093Y-112148416D01*
X144112560Y-112147457D01*
X144143299Y-112130351D01*
X144188629Y-112108663D01*
X144241060Y-112085880D01*
X144268996Y-112074620D01*
X144365538Y-112032909D01*
X144442434Y-111990361D01*
X144503493Y-111944609D01*
X144543829Y-111903723D01*
X144559074Y-111881378D01*
X144584162Y-111838522D01*
X144618740Y-111775828D01*
X144662454Y-111693966D01*
X144714951Y-111593607D01*
X144775878Y-111475422D01*
X144844882Y-111340083D01*
X144921609Y-111188261D01*
X144948306Y-111135169D01*
X145010231Y-111011896D01*
X145069986Y-110892977D01*
X145126583Y-110780374D01*
X145179034Y-110676052D01*
X145226350Y-110581975D01*
X145267545Y-110500108D01*
X145301630Y-110432414D01*
X145327618Y-110380857D01*
X145344519Y-110347402D01*
X145349113Y-110338353D01*
X145370255Y-110294386D01*
X145380780Y-110264312D01*
X145382318Y-110241958D01*
X145378615Y-110226719D01*
X145365991Y-110203432D01*
X145344636Y-110186157D01*
X145311224Y-110173853D01*
X145262426Y-110165483D01*
X145194914Y-110160006D01*
X145159491Y-110158290D01*
X145101290Y-110155518D01*
X145049735Y-110152452D01*
X145010464Y-110149469D01*
X144989256Y-110146970D01*
X144959887Y-110131203D01*
X144944721Y-110103082D01*
X144944277Y-110069367D01*
X144959074Y-110036817D01*
X144979355Y-110017964D01*
X145003657Y-110007615D01*
X145043952Y-109996072D01*
X145092943Y-109985322D01*
X145111399Y-109982013D01*
X145165909Y-109972744D01*
X145218555Y-109963601D01*
X145259953Y-109956219D01*
X145268070Y-109954724D01*
X145303977Y-109948335D01*
X145359758Y-109938795D01*
X145432073Y-109926653D01*
X145517581Y-109912455D01*
X145612941Y-109896748D01*
X145714814Y-109880080D01*
X145819858Y-109862998D01*
X145924732Y-109846049D01*
X146026097Y-109829781D01*
X146120612Y-109814741D01*
X146173114Y-109806460D01*
X146286069Y-109788694D01*
X146378089Y-109774258D01*
X146451477Y-109762917D01*
X146508536Y-109754436D01*
X146551566Y-109748582D01*
X146582869Y-109745118D01*
X146604748Y-109743812D01*
X146619505Y-109744428D01*
X146629441Y-109746731D01*
X146636858Y-109750488D01*
X146644059Y-109755464D01*
X146647907Y-109758080D01*
X146672959Y-109786482D01*
X146678548Y-109822052D01*
X146664595Y-109858657D01*
X146649431Y-109876215D01*
X146625925Y-109891431D01*
X146586347Y-109910441D01*
X146537153Y-109930318D01*
X146505446Y-109941528D01*
X146419389Y-109972457D01*
X146351965Y-110002277D01*
X146298592Y-110033570D01*
X146254688Y-110068916D01*
X146225691Y-110099095D01*
X146204033Y-110128203D01*
X146176177Y-110172108D01*
X146143942Y-110227259D01*
X146109143Y-110290101D01*
X146073597Y-110357083D01*
X146039121Y-110424651D01*
X146007532Y-110489253D01*
X145980645Y-110547337D01*
X145960279Y-110595348D01*
X145948248Y-110629735D01*
X145946030Y-110646023D01*
X145963379Y-110668427D01*
X145993181Y-110681768D01*
X146010679Y-110685241D01*
X146029514Y-110684842D01*
X146053625Y-110679378D01*
X146086952Y-110667652D01*
X146133435Y-110648468D01*
X146197013Y-110620632D01*
X146202137Y-110618358D01*
X146359799Y-110549277D01*
X146510408Y-110485285D01*
X146657663Y-110424991D01*
X146805261Y-110367006D01*
X146956900Y-110309940D01*
X147116277Y-110252402D01*
X147287090Y-110193002D01*
X147473037Y-110130351D01*
X147677815Y-110063058D01*
X147687998Y-110059746D01*
X147835468Y-110012506D01*
X147964775Y-109972712D01*
X148079698Y-109939380D01*
X148184017Y-109911525D01*
X148281514Y-109888165D01*
X148375968Y-109868314D01*
X148471160Y-109850989D01*
X148521442Y-109842771D01*
X148745085Y-109813219D01*
X148961751Y-109796892D01*
X149176793Y-109793864D01*
X149395561Y-109804207D01*
X149623407Y-109827992D01*
X149837966Y-109860491D01*
X150101103Y-109916978D01*
X150355111Y-109994809D01*
X150599225Y-110093660D01*
X150832680Y-110213208D01*
X151054711Y-110353133D01*
X151123383Y-110402277D01*
X151174697Y-110444562D01*
X151206149Y-110482413D01*
X151219962Y-110519454D01*
X151218671Y-110557701D01*
X151213667Y-110575715D01*
X151204013Y-110589649D01*
X151185873Y-110601495D01*
X151155405Y-110613244D01*
X151108770Y-110626890D01*
X151060913Y-110639557D01*
X150971995Y-110661331D01*
X150900328Y-110674676D01*
X150840989Y-110678965D01*
X150789053Y-110673571D01*
X150739597Y-110657867D01*
X150687697Y-110631225D01*
X150628429Y-110593019D01*
X150613248Y-110582538D01*
X150413247Y-110452133D01*
X150218531Y-110343358D01*
X150027252Y-110255446D01*
X149837562Y-110187626D01*
X149647610Y-110139132D01*
X149481814Y-110112197D01*
X149309126Y-110098585D01*
X149119201Y-110096990D01*
X148914852Y-110107154D01*
X148698894Y-110128823D01*
X148474139Y-110161741D01*
X148243400Y-110205651D01*
X148100740Y-110237766D01*
X148009196Y-110260888D01*
X147904938Y-110289428D01*
X147791792Y-110322160D01*
X147673581Y-110357859D01*
X147554130Y-110395298D01*
X147437265Y-110433251D01*
X147326810Y-110470492D01*
X147226590Y-110505795D01*
X147140430Y-110537933D01*
X147072154Y-110565682D01*
X147057268Y-110572268D01*
X147022720Y-110587448D01*
X146997506Y-110597652D01*
X146988717Y-110600370D01*
X146974344Y-110604916D01*
X146941709Y-110617639D01*
X146894027Y-110637162D01*
X146834517Y-110662112D01*
X146766395Y-110691113D01*
X146692877Y-110722790D01*
X146617182Y-110755769D01*
X146542526Y-110788673D01*
X146472125Y-110820129D01*
X146431698Y-110838450D01*
X146310672Y-110894200D01*
X146207814Y-110942715D01*
X146123845Y-110983638D01*
X146059484Y-111016611D01*
X146015452Y-111041275D01*
X145993423Y-111056402D01*
X145984602Y-111065559D01*
X145979459Y-111076609D01*
X145978660Y-111092585D01*
X145982873Y-111116521D01*
X145992767Y-111151453D01*
X146009010Y-111200415D01*
X146032269Y-111266441D01*
X146051374Y-111319691D01*
X146077700Y-111393344D01*
X146108712Y-111480893D01*
X146141472Y-111573999D01*
X146173043Y-111664322D01*
X146191324Y-111716982D01*
X146222508Y-111805195D01*
X146248741Y-111873329D01*
X146271869Y-111923811D01*
X146293735Y-111959068D01*
X146316183Y-111981525D01*
X146341058Y-111993608D01*
X146370204Y-111997745D01*
X146403792Y-111996502D01*
X146447746Y-111990949D01*
X146478239Y-111980302D01*
X146497699Y-111960763D01*
X146505202Y-111938484D01*
X147007635Y-111938484D01*
X147016274Y-111986632D01*
X147040803Y-112018586D01*
X147079141Y-112033306D01*
X147129207Y-112029752D01*
X147165961Y-112017609D01*
X147196669Y-111997954D01*
X147229029Y-111967121D01*
X147242556Y-111950408D01*
X147256207Y-111928319D01*
X147278804Y-111887896D01*
X147308900Y-111831891D01*
X147345050Y-111763056D01*
X147385807Y-111684142D01*
X147429725Y-111597903D01*
X147472484Y-111512844D01*
X147526837Y-111403650D01*
X147571156Y-111313275D01*
X147606122Y-111239613D01*
X147632419Y-111180562D01*
X147650729Y-111134015D01*
X147661733Y-111097870D01*
X147666114Y-111070021D01*
X147664554Y-111048364D01*
X147657735Y-111030795D01*
X147646340Y-111015209D01*
X147636999Y-111005342D01*
X147597969Y-110981215D01*
X147553007Y-110977025D01*
X147507173Y-110991929D01*
X147465529Y-111025086D01*
X147457033Y-111035261D01*
X147444553Y-111054815D01*
X147423565Y-111091457D01*
X147396196Y-111141313D01*
X147364574Y-111200506D01*
X147331189Y-111264461D01*
X147290050Y-111344127D01*
X147242495Y-111436134D01*
X147192932Y-111531957D01*
X147145771Y-111623071D01*
X147117855Y-111676962D01*
X147078126Y-111754630D01*
X147048663Y-111814880D01*
X147028179Y-111860765D01*
X147015387Y-111895339D01*
X147009000Y-111921656D01*
X147007635Y-111938484D01*
X146505202Y-111938484D01*
X146508551Y-111928538D01*
X146513224Y-111879829D01*
G37*
D12*
%TO.C,J1*%
X142250000Y-112400000D02*
X124750000Y-112400000D01*
X124750000Y-112400000D02*
X124750000Y-107400000D01*
X124750000Y-107400000D02*
X142250000Y-107400000D01*
X142250000Y-107400000D02*
X142250000Y-112400000D01*
%TO.C,D4*%
X150920000Y-84045000D02*
X150920000Y-80765000D01*
X149080000Y-83589000D02*
X150920000Y-83589000D01*
X150920000Y-80765000D02*
X149080000Y-80765000D01*
X149080000Y-83349000D02*
X150920000Y-83349000D01*
X149080000Y-84045000D02*
X150920000Y-84045000D01*
X149080000Y-83469000D02*
X150920000Y-83469000D01*
X149080000Y-80765000D02*
X149080000Y-84045000D01*
X150000000Y-85225000D02*
X150000000Y-84045000D01*
X150000000Y-79585000D02*
X150000000Y-80765000D01*
%TO.C,U4*%
X112000000Y-64010000D02*
X115860000Y-64010000D01*
X112000000Y-53490000D02*
X115860000Y-53490000D01*
X108140000Y-64010000D02*
X108140000Y-63755000D01*
X112000000Y-53490000D02*
X108140000Y-53490000D01*
X115860000Y-64010000D02*
X115860000Y-63755000D01*
X108140000Y-53745000D02*
X106325000Y-53745000D01*
X115860000Y-53490000D02*
X115860000Y-53745000D01*
X108140000Y-53490000D02*
X108140000Y-53745000D01*
X112000000Y-64010000D02*
X108140000Y-64010000D01*
%TO.C,R3*%
X134000000Y-78860000D02*
X134000000Y-79630000D01*
X135370000Y-86170000D02*
X135370000Y-79630000D01*
X132630000Y-86170000D02*
X135370000Y-86170000D01*
X132630000Y-79630000D02*
X132630000Y-86170000D01*
X134000000Y-86940000D02*
X134000000Y-86170000D01*
X135370000Y-79630000D02*
X132630000Y-79630000D01*
%TO.C,R1*%
X106430000Y-86570000D02*
X109170000Y-86570000D01*
X109170000Y-80030000D02*
X106430000Y-80030000D01*
X109170000Y-86570000D02*
X109170000Y-80030000D01*
X107800000Y-79260000D02*
X107800000Y-80030000D01*
X106430000Y-80030000D02*
X106430000Y-86570000D01*
X107800000Y-87340000D02*
X107800000Y-86570000D01*
%TO.C,C3*%
X138860000Y-76360000D02*
X138860000Y-75660000D01*
X135529437Y-73540000D02*
X136229437Y-72840000D01*
X135529437Y-75660000D02*
X136229437Y-76360000D01*
X136229437Y-72840000D02*
X138860000Y-72840000D01*
X134725000Y-73165000D02*
X135100000Y-73165000D01*
X134912500Y-72977500D02*
X134912500Y-73352500D01*
X136229437Y-76360000D02*
X138860000Y-76360000D01*
X138860000Y-72840000D02*
X138860000Y-73540000D01*
%TO.C,R5*%
X130237258Y-66477500D02*
X129762742Y-66477500D01*
X130237258Y-67522500D02*
X129762742Y-67522500D01*
%TO.C,U3*%
X146500000Y-89740000D02*
X150360000Y-89740000D01*
X146500000Y-89740000D02*
X142640000Y-89740000D01*
X142640000Y-100260000D02*
X142640000Y-100005000D01*
X150360000Y-89740000D02*
X150360000Y-89995000D01*
X150360000Y-100260000D02*
X150360000Y-100005000D01*
X146500000Y-100260000D02*
X142640000Y-100260000D01*
X142640000Y-89740000D02*
X142640000Y-89995000D01*
X146500000Y-100260000D02*
X150360000Y-100260000D01*
X142640000Y-89995000D02*
X140825000Y-89995000D01*
%TO.C,C2*%
X122229437Y-76360000D02*
X124860000Y-76360000D01*
X120912500Y-72977500D02*
X120912500Y-73352500D01*
X122229437Y-72840000D02*
X124860000Y-72840000D01*
X124860000Y-72840000D02*
X124860000Y-73540000D01*
X120725000Y-73165000D02*
X121100000Y-73165000D01*
X121529437Y-73540000D02*
X122229437Y-72840000D01*
X121529437Y-75660000D02*
X122229437Y-76360000D01*
X124860000Y-76360000D02*
X124860000Y-75660000D01*
%TO.C,U2*%
X132860000Y-89740000D02*
X132860000Y-89995000D01*
X125140000Y-89740000D02*
X125140000Y-89995000D01*
X129000000Y-100260000D02*
X132860000Y-100260000D01*
X129000000Y-89740000D02*
X125140000Y-89740000D01*
X129000000Y-89740000D02*
X132860000Y-89740000D01*
X129000000Y-100260000D02*
X125140000Y-100260000D01*
X132860000Y-100260000D02*
X132860000Y-100005000D01*
X125140000Y-89995000D02*
X123325000Y-89995000D01*
X125140000Y-100260000D02*
X125140000Y-100005000D01*
%TO.C,R2*%
X118930000Y-79815000D02*
X118930000Y-86355000D01*
X120300000Y-87125000D02*
X120300000Y-86355000D01*
X121670000Y-79815000D02*
X118930000Y-79815000D01*
X120300000Y-79045000D02*
X120300000Y-79815000D01*
X118930000Y-86355000D02*
X121670000Y-86355000D01*
X121670000Y-86355000D02*
X121670000Y-79815000D01*
%TO.C,D3*%
X137280000Y-83669000D02*
X139120000Y-83669000D01*
X137280000Y-83549000D02*
X139120000Y-83549000D01*
X137280000Y-83789000D02*
X139120000Y-83789000D01*
X137280000Y-84245000D02*
X139120000Y-84245000D01*
X138200000Y-79785000D02*
X138200000Y-80965000D01*
X139120000Y-80965000D02*
X137280000Y-80965000D01*
X139120000Y-84245000D02*
X139120000Y-80965000D01*
X138200000Y-85425000D02*
X138200000Y-84245000D01*
X137280000Y-80965000D02*
X137280000Y-84245000D01*
%TO.C,R4*%
X144130000Y-86570000D02*
X146870000Y-86570000D01*
X145500000Y-87340000D02*
X145500000Y-86570000D01*
X146870000Y-86570000D02*
X146870000Y-80030000D01*
X144130000Y-80030000D02*
X144130000Y-86570000D01*
X145500000Y-79260000D02*
X145500000Y-80030000D01*
X146870000Y-80030000D02*
X144130000Y-80030000D01*
%TO.C,USB-A1*%
X143600000Y-66020000D02*
X152400000Y-66020000D01*
X143600000Y-66020000D02*
X143600000Y-66775000D01*
X154145000Y-62850000D02*
X154145000Y-61800000D01*
X141855000Y-62850000D02*
X141855000Y-61800000D01*
%TO.C,C1*%
X112160000Y-76360000D02*
X112160000Y-75660000D01*
X108829437Y-75660000D02*
X109529437Y-76360000D01*
X108025000Y-73165000D02*
X108400000Y-73165000D01*
X108829437Y-73540000D02*
X109529437Y-72840000D01*
X109529437Y-72840000D02*
X112160000Y-72840000D01*
X108212500Y-72977500D02*
X108212500Y-73352500D01*
X109529437Y-76360000D02*
X112160000Y-76360000D01*
X112160000Y-72840000D02*
X112160000Y-73540000D01*
%TO.C,U5*%
X133860000Y-53115000D02*
X133860000Y-53360000D01*
X130000000Y-64885000D02*
X126140000Y-64885000D01*
X130000000Y-53115000D02*
X133860000Y-53115000D01*
X126140000Y-53360000D02*
X124325000Y-53360000D01*
X133860000Y-64885000D02*
X133860000Y-64640000D01*
X130000000Y-64885000D02*
X133860000Y-64885000D01*
X130000000Y-53115000D02*
X126140000Y-53115000D01*
X126140000Y-53115000D02*
X126140000Y-53360000D01*
X126140000Y-64885000D02*
X126140000Y-64640000D01*
%TO.C,D2*%
X124280000Y-80950000D02*
X124280000Y-84230000D01*
X124280000Y-83534000D02*
X126120000Y-83534000D01*
X125200000Y-79770000D02*
X125200000Y-80950000D01*
X126120000Y-80950000D02*
X124280000Y-80950000D01*
X126120000Y-84230000D02*
X126120000Y-80950000D01*
X124280000Y-83774000D02*
X126120000Y-83774000D01*
X125200000Y-85410000D02*
X125200000Y-84230000D01*
X124280000Y-83654000D02*
X126120000Y-83654000D01*
X124280000Y-84230000D02*
X126120000Y-84230000D01*
%TO.C,U1*%
X108140000Y-99610000D02*
X108140000Y-99370000D01*
X115860000Y-90390000D02*
X115860000Y-90630000D01*
X112000000Y-90390000D02*
X115860000Y-90390000D01*
X115860000Y-99610000D02*
X115860000Y-99370000D01*
X108140000Y-90630000D02*
X106325000Y-90630000D01*
X112000000Y-99610000D02*
X108140000Y-99610000D01*
X108140000Y-90390000D02*
X108140000Y-90630000D01*
X112000000Y-90390000D02*
X108140000Y-90390000D01*
X112000000Y-99610000D02*
X115860000Y-99610000D01*
%TO.C,C4*%
X148429437Y-76560000D02*
X151060000Y-76560000D01*
X151060000Y-73040000D02*
X151060000Y-73740000D01*
X147112500Y-73177500D02*
X147112500Y-73552500D01*
X147729437Y-73740000D02*
X148429437Y-73040000D01*
X151060000Y-76560000D02*
X151060000Y-75860000D01*
X147729437Y-75860000D02*
X148429437Y-76560000D01*
X148429437Y-73040000D02*
X151060000Y-73040000D01*
X146925000Y-73365000D02*
X147300000Y-73365000D01*
%TO.C,D1*%
X112000000Y-79785000D02*
X112000000Y-80965000D01*
X111080000Y-83669000D02*
X112920000Y-83669000D01*
X112000000Y-85425000D02*
X112000000Y-84245000D01*
X111080000Y-84245000D02*
X112920000Y-84245000D01*
X112920000Y-84245000D02*
X112920000Y-80965000D01*
X111080000Y-80965000D02*
X111080000Y-84245000D01*
X111080000Y-83789000D02*
X112920000Y-83789000D01*
X112920000Y-80965000D02*
X111080000Y-80965000D01*
X111080000Y-83549000D02*
X112920000Y-83549000D01*
%TD*%
%LPC*%
D13*
%TO.C,J1*%
X127250000Y-109900000D03*
X129750000Y-109900000D03*
X132250000Y-109900000D03*
X134750000Y-109900000D03*
X137250000Y-109900000D03*
X139750000Y-109900000D03*
%TD*%
D14*
%TO.C,CP1*%
X159200000Y-90100000D03*
%TD*%
D15*
%TO.C,D4*%
X150000000Y-86215000D03*
D16*
X150000000Y-78595000D03*
%TD*%
D17*
%TO.C,U4*%
X107350000Y-54305000D03*
X107350000Y-55575000D03*
X107350000Y-56845000D03*
X107350000Y-58115000D03*
X107350000Y-59385000D03*
X107350000Y-60655000D03*
X107350000Y-61925000D03*
X107350000Y-63195000D03*
X116650000Y-63195000D03*
X116650000Y-61925000D03*
X116650000Y-60655000D03*
X116650000Y-59385000D03*
X116650000Y-58115000D03*
X116650000Y-56845000D03*
X116650000Y-55575000D03*
X116650000Y-54305000D03*
%TD*%
D18*
%TO.C,R3*%
X134000000Y-87980000D03*
D19*
X134000000Y-77820000D03*
%TD*%
D14*
%TO.C,Cp3*%
X159100000Y-80000000D03*
%TD*%
D18*
%TO.C,R1*%
X107800000Y-88380000D03*
D19*
X107800000Y-78220000D03*
%TD*%
D20*
%TO.C,REF1*%
X103955242Y-111165242D03*
%TD*%
D21*
%TO.C,C3*%
X135600000Y-74600000D03*
X138600000Y-74600000D03*
%TD*%
D22*
%TO.C,R5*%
X130825000Y-67000000D03*
X129175000Y-67000000D03*
%TD*%
D17*
%TO.C,U3*%
X141850000Y-90555000D03*
X141850000Y-91825000D03*
X141850000Y-93095000D03*
X141850000Y-94365000D03*
X141850000Y-95635000D03*
X141850000Y-96905000D03*
X141850000Y-98175000D03*
X141850000Y-99445000D03*
X151150000Y-99445000D03*
X151150000Y-98175000D03*
X151150000Y-96905000D03*
X151150000Y-95635000D03*
X151150000Y-94365000D03*
X151150000Y-93095000D03*
X151150000Y-91825000D03*
X151150000Y-90555000D03*
%TD*%
D21*
%TO.C,C2*%
X121600000Y-74600000D03*
X124600000Y-74600000D03*
%TD*%
D17*
%TO.C,U2*%
X124350000Y-90555000D03*
X124350000Y-91825000D03*
X124350000Y-93095000D03*
X124350000Y-94365000D03*
X124350000Y-95635000D03*
X124350000Y-96905000D03*
X124350000Y-98175000D03*
X124350000Y-99445000D03*
X133650000Y-99445000D03*
X133650000Y-98175000D03*
X133650000Y-96905000D03*
X133650000Y-95635000D03*
X133650000Y-94365000D03*
X133650000Y-93095000D03*
X133650000Y-91825000D03*
X133650000Y-90555000D03*
%TD*%
D18*
%TO.C,R2*%
X120300000Y-88165000D03*
D19*
X120300000Y-78005000D03*
%TD*%
D15*
%TO.C,D3*%
X138200000Y-86415000D03*
D16*
X138200000Y-78795000D03*
%TD*%
D18*
%TO.C,R4*%
X145500000Y-88380000D03*
D19*
X145500000Y-78220000D03*
%TD*%
D14*
%TO.C,CP2*%
X159100000Y-84900000D03*
%TD*%
D20*
%TO.C,REF2*%
X103705242Y-45665242D03*
%TD*%
%TO.C,REF3*%
X160705242Y-111165242D03*
%TD*%
D14*
%TO.C,CP4*%
X159100000Y-74900000D03*
%TD*%
D23*
%TO.C,USB-A1*%
X150300000Y-64900000D03*
X145700000Y-64900000D03*
D24*
X144500000Y-67650000D03*
X147000000Y-67650000D03*
X149000000Y-67650000D03*
X151500000Y-67650000D03*
D25*
X153700000Y-64900000D03*
X142300000Y-64900000D03*
%TD*%
D21*
%TO.C,C1*%
X108900000Y-74600000D03*
X111900000Y-74600000D03*
%TD*%
D17*
%TO.C,U5*%
X125350000Y-53920000D03*
X125350000Y-55190000D03*
X125350000Y-56460000D03*
X125350000Y-57730000D03*
X125350000Y-59000000D03*
X125350000Y-60270000D03*
X125350000Y-61540000D03*
X125350000Y-62810000D03*
X125350000Y-64080000D03*
X134650000Y-64080000D03*
X134650000Y-62810000D03*
X134650000Y-61540000D03*
X134650000Y-60270000D03*
X134650000Y-59000000D03*
X134650000Y-57730000D03*
X134650000Y-56460000D03*
X134650000Y-55190000D03*
X134650000Y-53920000D03*
%TD*%
D15*
%TO.C,D2*%
X125200000Y-86400000D03*
D16*
X125200000Y-78780000D03*
%TD*%
D20*
%TO.C,REF4*%
X160705242Y-45665242D03*
%TD*%
D17*
%TO.C,U1*%
X107350000Y-91190000D03*
X107350000Y-92460000D03*
X107350000Y-93730000D03*
X107350000Y-95000000D03*
X107350000Y-96270000D03*
X107350000Y-97540000D03*
X107350000Y-98810000D03*
X116650000Y-98810000D03*
X116650000Y-97540000D03*
X116650000Y-96270000D03*
X116650000Y-95000000D03*
X116650000Y-93730000D03*
X116650000Y-92460000D03*
X116650000Y-91190000D03*
%TD*%
D21*
%TO.C,C4*%
X147800000Y-74800000D03*
X150800000Y-74800000D03*
%TD*%
D15*
%TO.C,D1*%
X112000000Y-86415000D03*
D16*
X112000000Y-78795000D03*
%TD*%
M02*
