M48
; DRILL file {KiCad (6.0.6)} date Mon Sep 12 12:50:50 2022
; FORMAT={-:-/ absolute / metric / decimal}
; #@! TF.CreationDate,2022-09-12T12:50:50+09:00
; #@! TF.GenerationSoftware,Kicad,Pcbnew,(6.0.6)
; #@! TF.FileFunction,MixedPlating,1,2
FMAT,2
METRIC
; #@! TA.AperFunction,Plated,PTH,ViaDrill
T1C0.400
; #@! TA.AperFunction,Plated,PTH,ComponentDrill
T2C0.750
; #@! TA.AperFunction,Plated,PTH,ComponentDrill
T3C0.800
; #@! TA.AperFunction,Plated,PTH,ComponentDrill
T4C0.900
; #@! TA.AperFunction,Plated,PTH,ComponentDrill
T5C1.000
; #@! TA.AperFunction,Plated,PTH,ComponentDrill
T6C1.200
; #@! TA.AperFunction,Plated,PTH,ComponentDrill
T7C3.200
; #@! TA.AperFunction,NonPlated,NPTH,ComponentDrill
T8C1.100
%
G90
G05
T1
X103.0Y-93.0
X105.1Y-89.5
X106.4Y-64.8
X109.0Y-101.0
X109.617Y-88.197
X110.0Y-97.0
X112.0Y-103.0
X112.7Y-67.1
X114.1Y-55.6
X116.9Y-67.0
X118.9Y-54.3
X118.9Y-65.4
X119.2Y-90.9
X119.2Y-93.0
X119.3Y-96.0
X120.1Y-57.7
X120.7Y-88.085
X122.7Y-51.5
X122.7Y-56.6
X122.7Y-63.3
X122.8Y-55.2
X126.5Y-96.9
X127.8Y-85.93
X127.8Y-95.0
X128.1Y-60.3
X129.1Y-99.2
X130.8Y-95.2
X131.0Y-93.0
X131.6Y-58.9
X133.6Y-88.4
X138.0Y-96.0
X139.5Y-95.6
X141.5Y-89.2
X144.5Y-88.4
X148.0Y-89.2
X149.0Y-93.0
X153.0Y-96.9
T2
X108.817Y-74.382
X108.817Y-82.002
X120.1Y-74.285
X120.1Y-81.905
X134.0Y-74.385
X134.0Y-82.005
X145.4Y-74.985
X145.4Y-82.605
T3
X113.017Y-72.417
X113.017Y-82.578
X125.0Y-72.52
X125.0Y-82.68
X138.2Y-72.82
X138.2Y-82.98
X149.9Y-72.82
X149.9Y-82.98
T5
X127.25Y-109.9
X129.75Y-109.9
X132.25Y-109.9
X134.75Y-109.9
X137.25Y-109.9
X139.75Y-109.9
T6
X159.1Y-74.9
X159.1Y-80.0
X159.1Y-84.9
X159.2Y-90.1
T7
X103.705Y-45.665
X103.955Y-111.165
X160.705Y-45.665
X160.705Y-111.165
T8
X145.7Y-64.9
X150.3Y-64.9
T4
G00X142.3Y-65.7
M15
G01X142.3Y-64.1
M16
G05
G00X153.7Y-65.7
M15
G01X153.7Y-64.1
M16
G05
T0
M30
