%TF.GenerationSoftware,KiCad,Pcbnew,(6.0.6)*%
%TF.CreationDate,2022-09-12T12:50:46+09:00*%
%TF.ProjectId,mouse,6d6f7573-652e-46b6-9963-61645f706362,rev?*%
%TF.SameCoordinates,Original*%
%TF.FileFunction,Copper,L2,Bot*%
%TF.FilePolarity,Positive*%
%FSLAX46Y46*%
G04 Gerber Fmt 4.6, Leading zero omitted, Abs format (unit mm)*
G04 Created by KiCad (PCBNEW (6.0.6)) date 2022-09-12 12:50:46*
%MOMM*%
%LPD*%
G01*
G04 APERTURE LIST*
%TA.AperFunction,ComponentPad*%
%ADD10C,2.400000*%
%TD*%
%TA.AperFunction,ComponentPad*%
%ADD11R,1.500000X1.500000*%
%TD*%
%TA.AperFunction,ComponentPad*%
%ADD12O,1.500000X1.500000*%
%TD*%
%TA.AperFunction,ComponentPad*%
%ADD13C,1.600000*%
%TD*%
%TA.AperFunction,ComponentPad*%
%ADD14O,1.600000X1.600000*%
%TD*%
%TA.AperFunction,ComponentPad*%
%ADD15C,5.700000*%
%TD*%
%TA.AperFunction,ComponentPad*%
%ADD16O,1.900000X3.500000*%
%TD*%
%TA.AperFunction,ComponentPad*%
%ADD17C,1.524000*%
%TD*%
%TA.AperFunction,ViaPad*%
%ADD18C,0.800000*%
%TD*%
%TA.AperFunction,Conductor*%
%ADD19C,0.250000*%
%TD*%
%TA.AperFunction,Conductor*%
%ADD20C,0.500000*%
%TD*%
G04 APERTURE END LIST*
D10*
%TO.P,CP1,1,Pin_1*%
%TO.N,Net-(CP1-Pad1)*%
X159200000Y-90100000D03*
%TD*%
D11*
%TO.P,D4,1,K*%
%TO.N,VCC*%
X145400000Y-74985000D03*
D12*
%TO.P,D4,2,A*%
%TO.N,Net-(C4-Pad1)*%
X145400000Y-82605000D03*
%TD*%
D13*
%TO.P,R3,1*%
%TO.N,VCC*%
X138200000Y-72820000D03*
D14*
%TO.P,R3,2*%
%TO.N,Net-(C3-Pad1)*%
X138200000Y-82980000D03*
%TD*%
D10*
%TO.P,Cp3,1,Pin_1*%
%TO.N,Net-(Cp3-Pad1)*%
X159100000Y-80000000D03*
%TD*%
D13*
%TO.P,R1,1*%
%TO.N,VCC*%
X113017500Y-72417500D03*
D14*
%TO.P,R1,2*%
%TO.N,Net-(C1-Pad1)*%
X113017500Y-82577500D03*
%TD*%
D15*
%TO.P,REF1,1*%
%TO.N,GND*%
X103955242Y-111165242D03*
%TD*%
D13*
%TO.P,R2,1*%
%TO.N,VCC*%
X125000000Y-72520000D03*
D14*
%TO.P,R2,2*%
%TO.N,Net-(C2-Pad1)*%
X125000000Y-82680000D03*
%TD*%
D11*
%TO.P,D3,1,K*%
%TO.N,VCC*%
X134000000Y-74385000D03*
D12*
%TO.P,D3,2,A*%
%TO.N,Net-(C3-Pad1)*%
X134000000Y-82005000D03*
%TD*%
D13*
%TO.P,R4,1*%
%TO.N,VCC*%
X149900000Y-72820000D03*
D14*
%TO.P,R4,2*%
%TO.N,Net-(C4-Pad1)*%
X149900000Y-82980000D03*
%TD*%
D10*
%TO.P,CP2,1,Pin_1*%
%TO.N,Net-(CP2-Pad1)*%
X159100000Y-84900000D03*
%TD*%
D15*
%TO.P,REF2,1*%
%TO.N,GND*%
X103705242Y-45665242D03*
%TD*%
%TO.P,REF3,1*%
%TO.N,GND*%
X160705242Y-111165242D03*
%TD*%
D10*
%TO.P,CP4,1,Pin_1*%
%TO.N,Net-(CP4-Pad1)*%
X159100000Y-74900000D03*
%TD*%
D16*
%TO.P,USB-A1,5,Shield*%
%TO.N,GND*%
X153700000Y-64900000D03*
X142300000Y-64900000D03*
%TD*%
D11*
%TO.P,D2,1,K*%
%TO.N,VCC*%
X120100000Y-74285000D03*
D12*
%TO.P,D2,2,A*%
%TO.N,Net-(C2-Pad1)*%
X120100000Y-81905000D03*
%TD*%
D15*
%TO.P,REF4,1*%
%TO.N,GND*%
X160705242Y-45665242D03*
%TD*%
D17*
%TO.P,J1,1,Pin_1*%
%TO.N,unconnected-(J1-Pad1)*%
X127250000Y-109900000D03*
%TO.P,J1,2,Pin_2*%
%TO.N,unconnected-(J1-Pad2)*%
X129750000Y-109900000D03*
%TO.P,J1,3,Pin_3*%
%TO.N,Net-(J1-Pad3)*%
X132250000Y-109900000D03*
%TO.P,J1,4,Pin_4*%
%TO.N,Net-(U1-Pad3)*%
X134750000Y-109900000D03*
%TO.P,J1,5,Pin_5*%
%TO.N,Net-(U1-Pad5)*%
X137250000Y-109900000D03*
%TO.P,J1,6,Pin_6*%
%TO.N,Net-(U1-Pad9)*%
X139750000Y-109900000D03*
%TD*%
D11*
%TO.P,D1,1,K*%
%TO.N,VCC*%
X108817500Y-74382500D03*
D12*
%TO.P,D1,2,A*%
%TO.N,Net-(C1-Pad1)*%
X108817500Y-82002500D03*
%TD*%
D18*
%TO.N,VCC*%
X118900000Y-65400000D03*
X153000000Y-96900000D03*
X118900000Y-54300000D03*
%TO.N,Net-(C2-Pad1)*%
X127800000Y-85930000D03*
X127800000Y-95000000D03*
%TO.N,Net-(C3-Pad1)*%
X141500000Y-89200000D03*
X148000000Y-89200000D03*
%TO.N,GND*%
X120700000Y-88085000D03*
X138000000Y-96000000D03*
X126500000Y-96900000D03*
X149000000Y-93000000D03*
X131600000Y-58900000D03*
X144500000Y-88400000D03*
X131000000Y-93000000D03*
X106400000Y-64800000D03*
X114100000Y-55600000D03*
X133600000Y-88400000D03*
X109617500Y-88197500D03*
X128100000Y-60300000D03*
%TO.N,Net-(U1-Pad4)*%
X129100000Y-99200000D03*
X112000000Y-103000000D03*
%TO.N,Net-(U1-Pad6)*%
X130800000Y-95200000D03*
X109000000Y-101000000D03*
%TO.N,Net-(U1-Pad2)*%
X119200000Y-90900000D03*
X105100000Y-89500000D03*
%TO.N,Net-(U2-Pad5)*%
X103000000Y-93000000D03*
X119200000Y-93000000D03*
%TO.N,Net-(U3-Pad5)*%
X120100000Y-57700000D03*
X139500000Y-95600000D03*
%TO.N,Net-(CP2-Pad1)*%
X122800000Y-55200000D03*
X122700000Y-51500000D03*
%TO.N,Net-(Cp3-Pad1)*%
X122700000Y-63300000D03*
X122700000Y-56600000D03*
%TO.N,Net-(U1-Pad5)*%
X110000000Y-97000000D03*
X116900000Y-67000000D03*
%TO.N,Net-(U1-Pad9)*%
X112700000Y-67100000D03*
X119300000Y-96000000D03*
%TD*%
D19*
%TO.N,Net-(U1-Pad6)*%
X125000000Y-101000000D02*
X109000000Y-101000000D01*
X130800000Y-95200000D02*
X125000000Y-101000000D01*
D20*
%TO.N,VCC*%
X118900000Y-65400000D02*
X118900000Y-54300000D01*
X153000000Y-96900000D02*
X153000000Y-75920000D01*
X153000000Y-75920000D02*
X149900000Y-72820000D01*
D19*
%TO.N,Net-(C2-Pad1)*%
X127800000Y-85930000D02*
X127800000Y-95000000D01*
%TO.N,Net-(C3-Pad1)*%
X148000000Y-89200000D02*
X141500000Y-89200000D01*
%TO.N,Net-(U1-Pad4)*%
X125950000Y-103000000D02*
X112000000Y-103000000D01*
X129100000Y-99200000D02*
X129100000Y-99850000D01*
X129100000Y-99850000D02*
X125950000Y-103000000D01*
%TO.N,Net-(U1-Pad2)*%
X119200000Y-90900000D02*
X117800000Y-89500000D01*
X117800000Y-89500000D02*
X105100000Y-89500000D01*
%TO.N,Net-(U2-Pad5)*%
X119200000Y-93000000D02*
X103000000Y-93000000D01*
%TO.N,Net-(U3-Pad5)*%
X139500000Y-95600000D02*
X139500000Y-87925305D01*
X120100000Y-62700000D02*
X120100000Y-57700000D01*
X139500000Y-87925305D02*
X140500000Y-86925305D01*
X140500000Y-83100001D02*
X120100000Y-62700000D01*
X140500000Y-86925305D02*
X140500000Y-83100001D01*
%TO.N,Net-(CP2-Pad1)*%
X122800000Y-55200000D02*
X122700000Y-55100000D01*
X122700000Y-55100000D02*
X122700000Y-52000000D01*
%TO.N,Net-(Cp3-Pad1)*%
X122700000Y-63300000D02*
X122700000Y-56600000D01*
%TO.N,Net-(U1-Pad5)*%
X118600000Y-68600000D02*
X118600000Y-87010305D01*
X122100000Y-95925305D02*
X121025305Y-97000000D01*
X122100000Y-90510305D02*
X122100000Y-95925305D01*
X116900000Y-67000000D02*
X117000000Y-67000000D01*
X117000000Y-67000000D02*
X118600000Y-68600000D01*
X118600000Y-87010305D02*
X122100000Y-90510305D01*
X121025305Y-97000000D02*
X110000000Y-97000000D01*
%TO.N,Net-(U1-Pad9)*%
X117100000Y-86700000D02*
X117100000Y-68500000D01*
X115700000Y-67100000D02*
X112700000Y-67100000D01*
X121200000Y-90800000D02*
X117100000Y-86700000D01*
X121200000Y-94100000D02*
X121200000Y-90800000D01*
X117100000Y-68500000D02*
X115700000Y-67100000D01*
X119300000Y-96000000D02*
X121200000Y-94100000D01*
%TD*%
%TA.AperFunction,Conductor*%
%TO.N,GND*%
G36*
X101786430Y-42693744D02*
G01*
X101832923Y-42747400D01*
X101843027Y-42817674D01*
X101813533Y-42882254D01*
X101794313Y-42900237D01*
X101537336Y-43094588D01*
X101532133Y-43098984D01*
X101527843Y-43103027D01*
X101519822Y-43116734D01*
X101519857Y-43117575D01*
X101524909Y-43125699D01*
X103692430Y-45293220D01*
X103706374Y-45300834D01*
X103708207Y-45300703D01*
X103714822Y-45296452D01*
X105883408Y-43127866D01*
X105891022Y-43113922D01*
X105890954Y-43112965D01*
X105886013Y-43105493D01*
X105882121Y-43102181D01*
X105616684Y-42899972D01*
X105574617Y-42842780D01*
X105570148Y-42771924D01*
X105604696Y-42709900D01*
X105667292Y-42676401D01*
X105693039Y-42673742D01*
X158718309Y-42673742D01*
X158786430Y-42693744D01*
X158832923Y-42747400D01*
X158843027Y-42817674D01*
X158813533Y-42882254D01*
X158794313Y-42900237D01*
X158537336Y-43094588D01*
X158532133Y-43098984D01*
X158527843Y-43103027D01*
X158519822Y-43116734D01*
X158519857Y-43117575D01*
X158524909Y-43125699D01*
X160692430Y-45293220D01*
X160706374Y-45300834D01*
X160708207Y-45300703D01*
X160714822Y-45296452D01*
X162883408Y-43127866D01*
X162891022Y-43113922D01*
X162890954Y-43112965D01*
X162886013Y-43105493D01*
X162882121Y-43102181D01*
X162616684Y-42899972D01*
X162574617Y-42842780D01*
X162570148Y-42771924D01*
X162604696Y-42709900D01*
X162667292Y-42676401D01*
X162693039Y-42673742D01*
X163545785Y-42673742D01*
X163613906Y-42693744D01*
X163660399Y-42747400D01*
X163671785Y-42799654D01*
X163672366Y-43629412D01*
X163672378Y-43647137D01*
X163652424Y-43715272D01*
X163598800Y-43761802D01*
X163528534Y-43771955D01*
X163463932Y-43742507D01*
X163442042Y-43717865D01*
X163385830Y-43634840D01*
X163381709Y-43629412D01*
X163264283Y-43490946D01*
X163251457Y-43482509D01*
X163241132Y-43488562D01*
X161077264Y-45652430D01*
X161069650Y-45666374D01*
X161069781Y-45668207D01*
X161074032Y-45674822D01*
X163239705Y-47840495D01*
X163253302Y-47847920D01*
X163262911Y-47841223D01*
X163367439Y-47719699D01*
X163371588Y-47714311D01*
X163445357Y-47606976D01*
X163500425Y-47562165D01*
X163570978Y-47554240D01*
X163634616Y-47585717D01*
X163671133Y-47646601D01*
X163675197Y-47678255D01*
X163706343Y-92208882D01*
X163718076Y-108982587D01*
X163718238Y-109214872D01*
X163698284Y-109283007D01*
X163644660Y-109329537D01*
X163574394Y-109339690D01*
X163509792Y-109310242D01*
X163487902Y-109285600D01*
X163385830Y-109134840D01*
X163381709Y-109129412D01*
X163264283Y-108990946D01*
X163251457Y-108982509D01*
X163241132Y-108988562D01*
X161077264Y-111152430D01*
X161069650Y-111166374D01*
X161069781Y-111168207D01*
X161074032Y-111174822D01*
X163239705Y-113340495D01*
X163253302Y-113347920D01*
X163262911Y-113341223D01*
X163367439Y-113219699D01*
X163371588Y-113214311D01*
X163491123Y-113040386D01*
X163546191Y-112995575D01*
X163616744Y-112987650D01*
X163680382Y-113019127D01*
X163716899Y-113080012D01*
X163720963Y-113111665D01*
X163721391Y-113722890D01*
X163721687Y-114145212D01*
X163721699Y-114163056D01*
X163701745Y-114231191D01*
X163648122Y-114277721D01*
X163595699Y-114289144D01*
X162480327Y-114289144D01*
X162412206Y-114269142D01*
X162365713Y-114215486D01*
X162355609Y-114145212D01*
X162385103Y-114080632D01*
X162415999Y-114054803D01*
X162573081Y-113961535D01*
X162578762Y-113957732D01*
X162864160Y-113743449D01*
X162869387Y-113739063D01*
X162882230Y-113727045D01*
X162890299Y-113713365D01*
X162890271Y-113712640D01*
X162885129Y-113704339D01*
X160718054Y-111537264D01*
X160704110Y-111529650D01*
X160702277Y-111529781D01*
X160695662Y-111534032D01*
X158526651Y-113703043D01*
X158519037Y-113716987D01*
X158519113Y-113718057D01*
X158522297Y-113722890D01*
X158802584Y-113937962D01*
X158808214Y-113941817D01*
X158995160Y-114055482D01*
X159042975Y-114107963D01*
X159054826Y-114177964D01*
X159026951Y-114243259D01*
X158968200Y-114283118D01*
X158929701Y-114289144D01*
X105730327Y-114289144D01*
X105662206Y-114269142D01*
X105615713Y-114215486D01*
X105605609Y-114145212D01*
X105635103Y-114080632D01*
X105665999Y-114054803D01*
X105823081Y-113961535D01*
X105828762Y-113957732D01*
X106114160Y-113743449D01*
X106119387Y-113739063D01*
X106132230Y-113727045D01*
X106140299Y-113713365D01*
X106140271Y-113712640D01*
X106135129Y-113704339D01*
X103968054Y-111537264D01*
X103954110Y-111529650D01*
X103952277Y-111529781D01*
X103945662Y-111534032D01*
X101776651Y-113703043D01*
X101769037Y-113716987D01*
X101769113Y-113718057D01*
X101772297Y-113722890D01*
X102052584Y-113937962D01*
X102058214Y-113941817D01*
X102245160Y-114055482D01*
X102292975Y-114107963D01*
X102304826Y-114177964D01*
X102276951Y-114243259D01*
X102218200Y-114283118D01*
X102179701Y-114289144D01*
X100864536Y-114289144D01*
X100796415Y-114269142D01*
X100749922Y-114215486D01*
X100738536Y-114163144D01*
X100738536Y-112773358D01*
X100758538Y-112705237D01*
X100812194Y-112658744D01*
X100882468Y-112648640D01*
X100947048Y-112678134D01*
X100976096Y-112714788D01*
X101065034Y-112884191D01*
X101068517Y-112890033D01*
X101267582Y-113186273D01*
X101271684Y-113191717D01*
X101396184Y-113339564D01*
X101408922Y-113348006D01*
X101419366Y-113341908D01*
X103583220Y-111178054D01*
X103589598Y-111166374D01*
X104319650Y-111166374D01*
X104319781Y-111168207D01*
X104324032Y-111174822D01*
X106489705Y-113340495D01*
X106503302Y-113347920D01*
X106512911Y-113341223D01*
X106617439Y-113219699D01*
X106621588Y-113214311D01*
X106823745Y-112920171D01*
X106827292Y-112914360D01*
X106996492Y-112600121D01*
X106999399Y-112593943D01*
X107133677Y-112263258D01*
X107135891Y-112256828D01*
X107233669Y-111913573D01*
X107235176Y-111906943D01*
X107295315Y-111555115D01*
X107296095Y-111548375D01*
X107317982Y-111190517D01*
X107318098Y-111186915D01*
X107318168Y-111167062D01*
X107318076Y-111163435D01*
X107298688Y-110805450D01*
X107297953Y-110798684D01*
X107240276Y-110446475D01*
X107238809Y-110439803D01*
X107143436Y-110095897D01*
X107141262Y-110089434D01*
X107065877Y-109900000D01*
X125974647Y-109900000D01*
X125994022Y-110121463D01*
X126051560Y-110336196D01*
X126053882Y-110341177D01*
X126053883Y-110341178D01*
X126143186Y-110532689D01*
X126143189Y-110532694D01*
X126145512Y-110537676D01*
X126273023Y-110719781D01*
X126430219Y-110876977D01*
X126434727Y-110880134D01*
X126434730Y-110880136D01*
X126510495Y-110933187D01*
X126612323Y-111004488D01*
X126617305Y-111006811D01*
X126617310Y-111006814D01*
X126808822Y-111096117D01*
X126813804Y-111098440D01*
X126819112Y-111099862D01*
X126819114Y-111099863D01*
X126884949Y-111117503D01*
X127028537Y-111155978D01*
X127250000Y-111175353D01*
X127471463Y-111155978D01*
X127615051Y-111117503D01*
X127680886Y-111099863D01*
X127680888Y-111099862D01*
X127686196Y-111098440D01*
X127691178Y-111096117D01*
X127882690Y-111006814D01*
X127882695Y-111006811D01*
X127887677Y-111004488D01*
X127989505Y-110933187D01*
X128065270Y-110880136D01*
X128065273Y-110880134D01*
X128069781Y-110876977D01*
X128226977Y-110719781D01*
X128354488Y-110537676D01*
X128356811Y-110532694D01*
X128356814Y-110532689D01*
X128385805Y-110470517D01*
X128432723Y-110417232D01*
X128501000Y-110397771D01*
X128568960Y-110418313D01*
X128614195Y-110470517D01*
X128643186Y-110532689D01*
X128643189Y-110532694D01*
X128645512Y-110537676D01*
X128773023Y-110719781D01*
X128930219Y-110876977D01*
X128934727Y-110880134D01*
X128934730Y-110880136D01*
X129010495Y-110933187D01*
X129112323Y-111004488D01*
X129117305Y-111006811D01*
X129117310Y-111006814D01*
X129308822Y-111096117D01*
X129313804Y-111098440D01*
X129319112Y-111099862D01*
X129319114Y-111099863D01*
X129384949Y-111117503D01*
X129528537Y-111155978D01*
X129750000Y-111175353D01*
X129971463Y-111155978D01*
X130115051Y-111117503D01*
X130180886Y-111099863D01*
X130180888Y-111099862D01*
X130186196Y-111098440D01*
X130191178Y-111096117D01*
X130382690Y-111006814D01*
X130382695Y-111006811D01*
X130387677Y-111004488D01*
X130489505Y-110933187D01*
X130565270Y-110880136D01*
X130565273Y-110880134D01*
X130569781Y-110876977D01*
X130726977Y-110719781D01*
X130854488Y-110537676D01*
X130856811Y-110532694D01*
X130856814Y-110532689D01*
X130885805Y-110470517D01*
X130932723Y-110417232D01*
X131001000Y-110397771D01*
X131068960Y-110418313D01*
X131114195Y-110470517D01*
X131143186Y-110532689D01*
X131143189Y-110532694D01*
X131145512Y-110537676D01*
X131273023Y-110719781D01*
X131430219Y-110876977D01*
X131434727Y-110880134D01*
X131434730Y-110880136D01*
X131510495Y-110933187D01*
X131612323Y-111004488D01*
X131617305Y-111006811D01*
X131617310Y-111006814D01*
X131808822Y-111096117D01*
X131813804Y-111098440D01*
X131819112Y-111099862D01*
X131819114Y-111099863D01*
X131884949Y-111117503D01*
X132028537Y-111155978D01*
X132250000Y-111175353D01*
X132471463Y-111155978D01*
X132615051Y-111117503D01*
X132680886Y-111099863D01*
X132680888Y-111099862D01*
X132686196Y-111098440D01*
X132691178Y-111096117D01*
X132882690Y-111006814D01*
X132882695Y-111006811D01*
X132887677Y-111004488D01*
X132989505Y-110933187D01*
X133065270Y-110880136D01*
X133065273Y-110880134D01*
X133069781Y-110876977D01*
X133226977Y-110719781D01*
X133354488Y-110537676D01*
X133356811Y-110532694D01*
X133356814Y-110532689D01*
X133385805Y-110470517D01*
X133432723Y-110417232D01*
X133501000Y-110397771D01*
X133568960Y-110418313D01*
X133614195Y-110470517D01*
X133643186Y-110532689D01*
X133643189Y-110532694D01*
X133645512Y-110537676D01*
X133773023Y-110719781D01*
X133930219Y-110876977D01*
X133934727Y-110880134D01*
X133934730Y-110880136D01*
X134010495Y-110933187D01*
X134112323Y-111004488D01*
X134117305Y-111006811D01*
X134117310Y-111006814D01*
X134308822Y-111096117D01*
X134313804Y-111098440D01*
X134319112Y-111099862D01*
X134319114Y-111099863D01*
X134384949Y-111117503D01*
X134528537Y-111155978D01*
X134750000Y-111175353D01*
X134971463Y-111155978D01*
X135115051Y-111117503D01*
X135180886Y-111099863D01*
X135180888Y-111099862D01*
X135186196Y-111098440D01*
X135191178Y-111096117D01*
X135382690Y-111006814D01*
X135382695Y-111006811D01*
X135387677Y-111004488D01*
X135489505Y-110933187D01*
X135565270Y-110880136D01*
X135565273Y-110880134D01*
X135569781Y-110876977D01*
X135726977Y-110719781D01*
X135854488Y-110537676D01*
X135856811Y-110532694D01*
X135856814Y-110532689D01*
X135885805Y-110470517D01*
X135932723Y-110417232D01*
X136001000Y-110397771D01*
X136068960Y-110418313D01*
X136114195Y-110470517D01*
X136143186Y-110532689D01*
X136143189Y-110532694D01*
X136145512Y-110537676D01*
X136273023Y-110719781D01*
X136430219Y-110876977D01*
X136434727Y-110880134D01*
X136434730Y-110880136D01*
X136510495Y-110933187D01*
X136612323Y-111004488D01*
X136617305Y-111006811D01*
X136617310Y-111006814D01*
X136808822Y-111096117D01*
X136813804Y-111098440D01*
X136819112Y-111099862D01*
X136819114Y-111099863D01*
X136884949Y-111117503D01*
X137028537Y-111155978D01*
X137250000Y-111175353D01*
X137471463Y-111155978D01*
X137615051Y-111117503D01*
X137680886Y-111099863D01*
X137680888Y-111099862D01*
X137686196Y-111098440D01*
X137691178Y-111096117D01*
X137882690Y-111006814D01*
X137882695Y-111006811D01*
X137887677Y-111004488D01*
X137989505Y-110933187D01*
X138065270Y-110880136D01*
X138065273Y-110880134D01*
X138069781Y-110876977D01*
X138226977Y-110719781D01*
X138354488Y-110537676D01*
X138356811Y-110532694D01*
X138356814Y-110532689D01*
X138385805Y-110470517D01*
X138432723Y-110417232D01*
X138501000Y-110397771D01*
X138568960Y-110418313D01*
X138614195Y-110470517D01*
X138643186Y-110532689D01*
X138643189Y-110532694D01*
X138645512Y-110537676D01*
X138773023Y-110719781D01*
X138930219Y-110876977D01*
X138934727Y-110880134D01*
X138934730Y-110880136D01*
X139010495Y-110933187D01*
X139112323Y-111004488D01*
X139117305Y-111006811D01*
X139117310Y-111006814D01*
X139308822Y-111096117D01*
X139313804Y-111098440D01*
X139319112Y-111099862D01*
X139319114Y-111099863D01*
X139384949Y-111117503D01*
X139528537Y-111155978D01*
X139750000Y-111175353D01*
X139960936Y-111156899D01*
X157342502Y-111156899D01*
X157360560Y-111513369D01*
X157361270Y-111520125D01*
X157417720Y-111872547D01*
X157419159Y-111879202D01*
X157513336Y-112223457D01*
X157515485Y-112229918D01*
X157646295Y-112561998D01*
X157649126Y-112568181D01*
X157815034Y-112884191D01*
X157818517Y-112890033D01*
X158017582Y-113186273D01*
X158021684Y-113191717D01*
X158146184Y-113339564D01*
X158158922Y-113348006D01*
X158169366Y-113341908D01*
X160333220Y-111178054D01*
X160340834Y-111164110D01*
X160340703Y-111162277D01*
X160336452Y-111155662D01*
X158170769Y-108989979D01*
X158157232Y-108982587D01*
X158147531Y-108989374D01*
X158035891Y-109120089D01*
X158031757Y-109125497D01*
X157830636Y-109420328D01*
X157827101Y-109426165D01*
X157658996Y-109740999D01*
X157656120Y-109747168D01*
X157522996Y-110078323D01*
X157520803Y-110084763D01*
X157424221Y-110428363D01*
X157422738Y-110434998D01*
X157363831Y-110787015D01*
X157363072Y-110793787D01*
X157342526Y-111150104D01*
X157342502Y-111156899D01*
X139960936Y-111156899D01*
X139971463Y-111155978D01*
X140115051Y-111117503D01*
X140180886Y-111099863D01*
X140180888Y-111099862D01*
X140186196Y-111098440D01*
X140191178Y-111096117D01*
X140382690Y-111006814D01*
X140382695Y-111006811D01*
X140387677Y-111004488D01*
X140489505Y-110933187D01*
X140565270Y-110880136D01*
X140565273Y-110880134D01*
X140569781Y-110876977D01*
X140726977Y-110719781D01*
X140854488Y-110537676D01*
X140856811Y-110532694D01*
X140856814Y-110532689D01*
X140946117Y-110341178D01*
X140946118Y-110341177D01*
X140948440Y-110336196D01*
X141005978Y-110121463D01*
X141025353Y-109900000D01*
X141005978Y-109678537D01*
X140948440Y-109463804D01*
X140910148Y-109381687D01*
X140856814Y-109267311D01*
X140856811Y-109267306D01*
X140854488Y-109262324D01*
X140765223Y-109134840D01*
X140730136Y-109084730D01*
X140730134Y-109084727D01*
X140726977Y-109080219D01*
X140569781Y-108923023D01*
X140565273Y-108919866D01*
X140565270Y-108919864D01*
X140489505Y-108866813D01*
X140387677Y-108795512D01*
X140382695Y-108793189D01*
X140382690Y-108793186D01*
X140191178Y-108703883D01*
X140191177Y-108703882D01*
X140186196Y-108701560D01*
X140180888Y-108700138D01*
X140180886Y-108700137D01*
X140115051Y-108682497D01*
X139971463Y-108644022D01*
X139750000Y-108624647D01*
X139528537Y-108644022D01*
X139384949Y-108682497D01*
X139319114Y-108700137D01*
X139319112Y-108700138D01*
X139313804Y-108701560D01*
X139308823Y-108703882D01*
X139308822Y-108703883D01*
X139117311Y-108793186D01*
X139117306Y-108793189D01*
X139112324Y-108795512D01*
X139107817Y-108798668D01*
X139107815Y-108798669D01*
X138934730Y-108919864D01*
X138934727Y-108919866D01*
X138930219Y-108923023D01*
X138773023Y-109080219D01*
X138769866Y-109084727D01*
X138769864Y-109084730D01*
X138734777Y-109134840D01*
X138645512Y-109262324D01*
X138643189Y-109267306D01*
X138643186Y-109267311D01*
X138614195Y-109329483D01*
X138567277Y-109382768D01*
X138499000Y-109402229D01*
X138431040Y-109381687D01*
X138385805Y-109329483D01*
X138356814Y-109267311D01*
X138356811Y-109267306D01*
X138354488Y-109262324D01*
X138265223Y-109134840D01*
X138230136Y-109084730D01*
X138230134Y-109084727D01*
X138226977Y-109080219D01*
X138069781Y-108923023D01*
X138065273Y-108919866D01*
X138065270Y-108919864D01*
X137989505Y-108866813D01*
X137887677Y-108795512D01*
X137882695Y-108793189D01*
X137882690Y-108793186D01*
X137691178Y-108703883D01*
X137691177Y-108703882D01*
X137686196Y-108701560D01*
X137680888Y-108700138D01*
X137680886Y-108700137D01*
X137615051Y-108682497D01*
X137471463Y-108644022D01*
X137250000Y-108624647D01*
X137028537Y-108644022D01*
X136884949Y-108682497D01*
X136819114Y-108700137D01*
X136819112Y-108700138D01*
X136813804Y-108701560D01*
X136808823Y-108703882D01*
X136808822Y-108703883D01*
X136617311Y-108793186D01*
X136617306Y-108793189D01*
X136612324Y-108795512D01*
X136607817Y-108798668D01*
X136607815Y-108798669D01*
X136434730Y-108919864D01*
X136434727Y-108919866D01*
X136430219Y-108923023D01*
X136273023Y-109080219D01*
X136269866Y-109084727D01*
X136269864Y-109084730D01*
X136234777Y-109134840D01*
X136145512Y-109262324D01*
X136143189Y-109267306D01*
X136143186Y-109267311D01*
X136114195Y-109329483D01*
X136067277Y-109382768D01*
X135999000Y-109402229D01*
X135931040Y-109381687D01*
X135885805Y-109329483D01*
X135856814Y-109267311D01*
X135856811Y-109267306D01*
X135854488Y-109262324D01*
X135765223Y-109134840D01*
X135730136Y-109084730D01*
X135730134Y-109084727D01*
X135726977Y-109080219D01*
X135569781Y-108923023D01*
X135565273Y-108919866D01*
X135565270Y-108919864D01*
X135489505Y-108866813D01*
X135387677Y-108795512D01*
X135382695Y-108793189D01*
X135382690Y-108793186D01*
X135191178Y-108703883D01*
X135191177Y-108703882D01*
X135186196Y-108701560D01*
X135180888Y-108700138D01*
X135180886Y-108700137D01*
X135115051Y-108682497D01*
X134971463Y-108644022D01*
X134750000Y-108624647D01*
X134528537Y-108644022D01*
X134384949Y-108682497D01*
X134319114Y-108700137D01*
X134319112Y-108700138D01*
X134313804Y-108701560D01*
X134308823Y-108703882D01*
X134308822Y-108703883D01*
X134117311Y-108793186D01*
X134117306Y-108793189D01*
X134112324Y-108795512D01*
X134107817Y-108798668D01*
X134107815Y-108798669D01*
X133934730Y-108919864D01*
X133934727Y-108919866D01*
X133930219Y-108923023D01*
X133773023Y-109080219D01*
X133769866Y-109084727D01*
X133769864Y-109084730D01*
X133734777Y-109134840D01*
X133645512Y-109262324D01*
X133643189Y-109267306D01*
X133643186Y-109267311D01*
X133614195Y-109329483D01*
X133567277Y-109382768D01*
X133499000Y-109402229D01*
X133431040Y-109381687D01*
X133385805Y-109329483D01*
X133356814Y-109267311D01*
X133356811Y-109267306D01*
X133354488Y-109262324D01*
X133265223Y-109134840D01*
X133230136Y-109084730D01*
X133230134Y-109084727D01*
X133226977Y-109080219D01*
X133069781Y-108923023D01*
X133065273Y-108919866D01*
X133065270Y-108919864D01*
X132989505Y-108866813D01*
X132887677Y-108795512D01*
X132882695Y-108793189D01*
X132882690Y-108793186D01*
X132691178Y-108703883D01*
X132691177Y-108703882D01*
X132686196Y-108701560D01*
X132680888Y-108700138D01*
X132680886Y-108700137D01*
X132615051Y-108682497D01*
X132471463Y-108644022D01*
X132250000Y-108624647D01*
X132028537Y-108644022D01*
X131884949Y-108682497D01*
X131819114Y-108700137D01*
X131819112Y-108700138D01*
X131813804Y-108701560D01*
X131808823Y-108703882D01*
X131808822Y-108703883D01*
X131617311Y-108793186D01*
X131617306Y-108793189D01*
X131612324Y-108795512D01*
X131607817Y-108798668D01*
X131607815Y-108798669D01*
X131434730Y-108919864D01*
X131434727Y-108919866D01*
X131430219Y-108923023D01*
X131273023Y-109080219D01*
X131269866Y-109084727D01*
X131269864Y-109084730D01*
X131234777Y-109134840D01*
X131145512Y-109262324D01*
X131143189Y-109267306D01*
X131143186Y-109267311D01*
X131114195Y-109329483D01*
X131067277Y-109382768D01*
X130999000Y-109402229D01*
X130931040Y-109381687D01*
X130885805Y-109329483D01*
X130856814Y-109267311D01*
X130856811Y-109267306D01*
X130854488Y-109262324D01*
X130765223Y-109134840D01*
X130730136Y-109084730D01*
X130730134Y-109084727D01*
X130726977Y-109080219D01*
X130569781Y-108923023D01*
X130565273Y-108919866D01*
X130565270Y-108919864D01*
X130489505Y-108866813D01*
X130387677Y-108795512D01*
X130382695Y-108793189D01*
X130382690Y-108793186D01*
X130191178Y-108703883D01*
X130191177Y-108703882D01*
X130186196Y-108701560D01*
X130180888Y-108700138D01*
X130180886Y-108700137D01*
X130115051Y-108682497D01*
X129971463Y-108644022D01*
X129750000Y-108624647D01*
X129528537Y-108644022D01*
X129384949Y-108682497D01*
X129319114Y-108700137D01*
X129319112Y-108700138D01*
X129313804Y-108701560D01*
X129308823Y-108703882D01*
X129308822Y-108703883D01*
X129117311Y-108793186D01*
X129117306Y-108793189D01*
X129112324Y-108795512D01*
X129107817Y-108798668D01*
X129107815Y-108798669D01*
X128934730Y-108919864D01*
X128934727Y-108919866D01*
X128930219Y-108923023D01*
X128773023Y-109080219D01*
X128769866Y-109084727D01*
X128769864Y-109084730D01*
X128734777Y-109134840D01*
X128645512Y-109262324D01*
X128643189Y-109267306D01*
X128643186Y-109267311D01*
X128614195Y-109329483D01*
X128567277Y-109382768D01*
X128499000Y-109402229D01*
X128431040Y-109381687D01*
X128385805Y-109329483D01*
X128356814Y-109267311D01*
X128356811Y-109267306D01*
X128354488Y-109262324D01*
X128265223Y-109134840D01*
X128230136Y-109084730D01*
X128230134Y-109084727D01*
X128226977Y-109080219D01*
X128069781Y-108923023D01*
X128065273Y-108919866D01*
X128065270Y-108919864D01*
X127989505Y-108866813D01*
X127887677Y-108795512D01*
X127882695Y-108793189D01*
X127882690Y-108793186D01*
X127691178Y-108703883D01*
X127691177Y-108703882D01*
X127686196Y-108701560D01*
X127680888Y-108700138D01*
X127680886Y-108700137D01*
X127615051Y-108682497D01*
X127471463Y-108644022D01*
X127250000Y-108624647D01*
X127028537Y-108644022D01*
X126884949Y-108682497D01*
X126819114Y-108700137D01*
X126819112Y-108700138D01*
X126813804Y-108701560D01*
X126808823Y-108703882D01*
X126808822Y-108703883D01*
X126617311Y-108793186D01*
X126617306Y-108793189D01*
X126612324Y-108795512D01*
X126607817Y-108798668D01*
X126607815Y-108798669D01*
X126434730Y-108919864D01*
X126434727Y-108919866D01*
X126430219Y-108923023D01*
X126273023Y-109080219D01*
X126269866Y-109084727D01*
X126269864Y-109084730D01*
X126234777Y-109134840D01*
X126145512Y-109262324D01*
X126143189Y-109267306D01*
X126143186Y-109267311D01*
X126089852Y-109381687D01*
X126051560Y-109463804D01*
X125994022Y-109678537D01*
X125974647Y-109900000D01*
X107065877Y-109900000D01*
X107009295Y-109757817D01*
X107006439Y-109751637D01*
X106839436Y-109436223D01*
X106835924Y-109430379D01*
X106635830Y-109134840D01*
X106631709Y-109129412D01*
X106514283Y-108990946D01*
X106501457Y-108982509D01*
X106491132Y-108988562D01*
X104327264Y-111152430D01*
X104319650Y-111166374D01*
X103589598Y-111166374D01*
X103590834Y-111164110D01*
X103590703Y-111162277D01*
X103586452Y-111155662D01*
X101420769Y-108989979D01*
X101407232Y-108982587D01*
X101397531Y-108989374D01*
X101285891Y-109120089D01*
X101281757Y-109125497D01*
X101080636Y-109420328D01*
X101077101Y-109426165D01*
X100975684Y-109616104D01*
X100925954Y-109666774D01*
X100856725Y-109682515D01*
X100789975Y-109658328D01*
X100746898Y-109601893D01*
X100738536Y-109556757D01*
X100738536Y-108616734D01*
X101769822Y-108616734D01*
X101769857Y-108617575D01*
X101774909Y-108625699D01*
X103942430Y-110793220D01*
X103956374Y-110800834D01*
X103958207Y-110800703D01*
X103964822Y-110796452D01*
X106133408Y-108627866D01*
X106139487Y-108616734D01*
X158519822Y-108616734D01*
X158519857Y-108617575D01*
X158524909Y-108625699D01*
X160692430Y-110793220D01*
X160706374Y-110800834D01*
X160708207Y-110800703D01*
X160714822Y-110796452D01*
X162883408Y-108627866D01*
X162891022Y-108613922D01*
X162890954Y-108612965D01*
X162886013Y-108605493D01*
X162882112Y-108602173D01*
X162598200Y-108385891D01*
X162592574Y-108382067D01*
X162286964Y-108197711D01*
X162280952Y-108194514D01*
X161957208Y-108044237D01*
X161950908Y-108041717D01*
X161612837Y-107927287D01*
X161606259Y-107925451D01*
X161257834Y-107848207D01*
X161251099Y-107847092D01*
X160896348Y-107807927D01*
X160889566Y-107807548D01*
X160532637Y-107806925D01*
X160525864Y-107807280D01*
X160170956Y-107845208D01*
X160164247Y-107846295D01*
X159815531Y-107922328D01*
X159808956Y-107924139D01*
X159470492Y-108037387D01*
X159464170Y-108039890D01*
X159139922Y-108189027D01*
X159133879Y-108192213D01*
X158827646Y-108375490D01*
X158821986Y-108379308D01*
X158537336Y-108594588D01*
X158532133Y-108598984D01*
X158527843Y-108603027D01*
X158519822Y-108616734D01*
X106139487Y-108616734D01*
X106141022Y-108613922D01*
X106140954Y-108612965D01*
X106136013Y-108605493D01*
X106132112Y-108602173D01*
X105848200Y-108385891D01*
X105842574Y-108382067D01*
X105536964Y-108197711D01*
X105530952Y-108194514D01*
X105207208Y-108044237D01*
X105200908Y-108041717D01*
X104862837Y-107927287D01*
X104856259Y-107925451D01*
X104507834Y-107848207D01*
X104501099Y-107847092D01*
X104146348Y-107807927D01*
X104139566Y-107807548D01*
X103782637Y-107806925D01*
X103775864Y-107807280D01*
X103420956Y-107845208D01*
X103414247Y-107846295D01*
X103065531Y-107922328D01*
X103058956Y-107924139D01*
X102720492Y-108037387D01*
X102714170Y-108039890D01*
X102389922Y-108189027D01*
X102383879Y-108192213D01*
X102077646Y-108375490D01*
X102071986Y-108379308D01*
X101787336Y-108594588D01*
X101782133Y-108598984D01*
X101777843Y-108603027D01*
X101769822Y-108616734D01*
X100738536Y-108616734D01*
X100738536Y-101000000D01*
X108086496Y-101000000D01*
X108106458Y-101189928D01*
X108165473Y-101371556D01*
X108260960Y-101536944D01*
X108265378Y-101541851D01*
X108265379Y-101541852D01*
X108347452Y-101633003D01*
X108388747Y-101678866D01*
X108543248Y-101791118D01*
X108549276Y-101793802D01*
X108549278Y-101793803D01*
X108711681Y-101866109D01*
X108717712Y-101868794D01*
X108811112Y-101888647D01*
X108898056Y-101907128D01*
X108898061Y-101907128D01*
X108904513Y-101908500D01*
X109095487Y-101908500D01*
X109101939Y-101907128D01*
X109101944Y-101907128D01*
X109188888Y-101888647D01*
X109282288Y-101868794D01*
X109288319Y-101866109D01*
X109450722Y-101793803D01*
X109450724Y-101793802D01*
X109456752Y-101791118D01*
X109611253Y-101678866D01*
X109615668Y-101673963D01*
X109620580Y-101669540D01*
X109621705Y-101670789D01*
X109675014Y-101637949D01*
X109708200Y-101633500D01*
X124921233Y-101633500D01*
X124932416Y-101634027D01*
X124939909Y-101635702D01*
X124947835Y-101635453D01*
X124947836Y-101635453D01*
X125007986Y-101633562D01*
X125011945Y-101633500D01*
X125039856Y-101633500D01*
X125043791Y-101633003D01*
X125043856Y-101632995D01*
X125055693Y-101632062D01*
X125087951Y-101631048D01*
X125091970Y-101630922D01*
X125099889Y-101630673D01*
X125119343Y-101625021D01*
X125138700Y-101621013D01*
X125150930Y-101619468D01*
X125150931Y-101619468D01*
X125158797Y-101618474D01*
X125166168Y-101615555D01*
X125166170Y-101615555D01*
X125199912Y-101602196D01*
X125211142Y-101598351D01*
X125245983Y-101588229D01*
X125245984Y-101588229D01*
X125253593Y-101586018D01*
X125260412Y-101581985D01*
X125260417Y-101581983D01*
X125271028Y-101575707D01*
X125288776Y-101567012D01*
X125307617Y-101559552D01*
X125343387Y-101533564D01*
X125353307Y-101527048D01*
X125384535Y-101508580D01*
X125384538Y-101508578D01*
X125391362Y-101504542D01*
X125405683Y-101490221D01*
X125420717Y-101477380D01*
X125430694Y-101470131D01*
X125437107Y-101465472D01*
X125465298Y-101431395D01*
X125473288Y-101422616D01*
X127993121Y-98902783D01*
X128055433Y-98868757D01*
X128126248Y-98873822D01*
X128183084Y-98916369D01*
X128207895Y-98982889D01*
X128206019Y-99010026D01*
X128206458Y-99010072D01*
X128186496Y-99200000D01*
X128206458Y-99389928D01*
X128265473Y-99571556D01*
X128296585Y-99625443D01*
X128313322Y-99694435D01*
X128290102Y-99761527D01*
X128276560Y-99777536D01*
X125724500Y-102329595D01*
X125662188Y-102363621D01*
X125635405Y-102366500D01*
X112708200Y-102366500D01*
X112640079Y-102346498D01*
X112620853Y-102330157D01*
X112620580Y-102330460D01*
X112615668Y-102326037D01*
X112611253Y-102321134D01*
X112456752Y-102208882D01*
X112450724Y-102206198D01*
X112450722Y-102206197D01*
X112288319Y-102133891D01*
X112288318Y-102133891D01*
X112282288Y-102131206D01*
X112188887Y-102111353D01*
X112101944Y-102092872D01*
X112101939Y-102092872D01*
X112095487Y-102091500D01*
X111904513Y-102091500D01*
X111898061Y-102092872D01*
X111898056Y-102092872D01*
X111811112Y-102111353D01*
X111717712Y-102131206D01*
X111711682Y-102133891D01*
X111711681Y-102133891D01*
X111549278Y-102206197D01*
X111549276Y-102206198D01*
X111543248Y-102208882D01*
X111388747Y-102321134D01*
X111384326Y-102326044D01*
X111384325Y-102326045D01*
X111350492Y-102363621D01*
X111260960Y-102463056D01*
X111165473Y-102628444D01*
X111106458Y-102810072D01*
X111086496Y-103000000D01*
X111106458Y-103189928D01*
X111165473Y-103371556D01*
X111260960Y-103536944D01*
X111265378Y-103541851D01*
X111265379Y-103541852D01*
X111347452Y-103633003D01*
X111388747Y-103678866D01*
X111543248Y-103791118D01*
X111549276Y-103793802D01*
X111549278Y-103793803D01*
X111711681Y-103866109D01*
X111717712Y-103868794D01*
X111811112Y-103888647D01*
X111898056Y-103907128D01*
X111898061Y-103907128D01*
X111904513Y-103908500D01*
X112095487Y-103908500D01*
X112101939Y-103907128D01*
X112101944Y-103907128D01*
X112188887Y-103888647D01*
X112282288Y-103868794D01*
X112288319Y-103866109D01*
X112450722Y-103793803D01*
X112450724Y-103793802D01*
X112456752Y-103791118D01*
X112611253Y-103678866D01*
X112615668Y-103673963D01*
X112620580Y-103669540D01*
X112621705Y-103670789D01*
X112675014Y-103637949D01*
X112708200Y-103633500D01*
X125871233Y-103633500D01*
X125882416Y-103634027D01*
X125889909Y-103635702D01*
X125897835Y-103635453D01*
X125897836Y-103635453D01*
X125957986Y-103633562D01*
X125961945Y-103633500D01*
X125989856Y-103633500D01*
X125993791Y-103633003D01*
X125993856Y-103632995D01*
X126005693Y-103632062D01*
X126037951Y-103631048D01*
X126041970Y-103630922D01*
X126049889Y-103630673D01*
X126069343Y-103625021D01*
X126088700Y-103621013D01*
X126100930Y-103619468D01*
X126100931Y-103619468D01*
X126108797Y-103618474D01*
X126116168Y-103615555D01*
X126116170Y-103615555D01*
X126149912Y-103602196D01*
X126161142Y-103598351D01*
X126195983Y-103588229D01*
X126195984Y-103588229D01*
X126203593Y-103586018D01*
X126210412Y-103581985D01*
X126210417Y-103581983D01*
X126221028Y-103575707D01*
X126238776Y-103567012D01*
X126257617Y-103559552D01*
X126293387Y-103533564D01*
X126303307Y-103527048D01*
X126334535Y-103508580D01*
X126334538Y-103508578D01*
X126341362Y-103504542D01*
X126355683Y-103490221D01*
X126370717Y-103477380D01*
X126380694Y-103470131D01*
X126387107Y-103465472D01*
X126415298Y-103431395D01*
X126423288Y-103422616D01*
X129492253Y-100353652D01*
X129500539Y-100346112D01*
X129507018Y-100342000D01*
X129553644Y-100292348D01*
X129556398Y-100289507D01*
X129576135Y-100269770D01*
X129578615Y-100266573D01*
X129586320Y-100257551D01*
X129611159Y-100231100D01*
X129616586Y-100225321D01*
X129620405Y-100218375D01*
X129620407Y-100218372D01*
X129626348Y-100207566D01*
X129637199Y-100191047D01*
X129644758Y-100181301D01*
X129649614Y-100175041D01*
X129652759Y-100167772D01*
X129652762Y-100167768D01*
X129667174Y-100134463D01*
X129672391Y-100123813D01*
X129693695Y-100085060D01*
X129698733Y-100065437D01*
X129705137Y-100046734D01*
X129710033Y-100035420D01*
X129710033Y-100035419D01*
X129713181Y-100028145D01*
X129714420Y-100020322D01*
X129714423Y-100020312D01*
X129720099Y-99984476D01*
X129722505Y-99972856D01*
X129731528Y-99937711D01*
X129731528Y-99937710D01*
X129733500Y-99930030D01*
X129733500Y-99909776D01*
X129735052Y-99890062D01*
X129736446Y-99881262D01*
X129767258Y-99816666D01*
X129834621Y-99741852D01*
X129834622Y-99741851D01*
X129839040Y-99736944D01*
X129934527Y-99571556D01*
X129993542Y-99389928D01*
X130013504Y-99200000D01*
X129993542Y-99010072D01*
X129934527Y-98828444D01*
X129839040Y-98663056D01*
X129711253Y-98521134D01*
X129556752Y-98408882D01*
X129550724Y-98406198D01*
X129550722Y-98406197D01*
X129388319Y-98333891D01*
X129388318Y-98333891D01*
X129382288Y-98331206D01*
X129287523Y-98311063D01*
X129201944Y-98292872D01*
X129201939Y-98292872D01*
X129195487Y-98291500D01*
X129004513Y-98291500D01*
X128998061Y-98292872D01*
X128998056Y-98292872D01*
X128912475Y-98311063D01*
X128841684Y-98305661D01*
X128785051Y-98262844D01*
X128760558Y-98196206D01*
X128775979Y-98126905D01*
X128797183Y-98098721D01*
X130750499Y-96145405D01*
X130812811Y-96111379D01*
X130839594Y-96108500D01*
X130895487Y-96108500D01*
X130901939Y-96107128D01*
X130901944Y-96107128D01*
X130988887Y-96088647D01*
X131082288Y-96068794D01*
X131181310Y-96024707D01*
X131250722Y-95993803D01*
X131250724Y-95993802D01*
X131256752Y-95991118D01*
X131411253Y-95878866D01*
X131420322Y-95868794D01*
X131534621Y-95741852D01*
X131534622Y-95741851D01*
X131539040Y-95736944D01*
X131634527Y-95571556D01*
X131693542Y-95389928D01*
X131694872Y-95377279D01*
X131712814Y-95206565D01*
X131713504Y-95200000D01*
X131699111Y-95063056D01*
X131694232Y-95016635D01*
X131694232Y-95016633D01*
X131693542Y-95010072D01*
X131634527Y-94828444D01*
X131539040Y-94663056D01*
X131411253Y-94521134D01*
X131256752Y-94408882D01*
X131250724Y-94406198D01*
X131250722Y-94406197D01*
X131088319Y-94333891D01*
X131088318Y-94333891D01*
X131082288Y-94331206D01*
X130988887Y-94311353D01*
X130901944Y-94292872D01*
X130901939Y-94292872D01*
X130895487Y-94291500D01*
X130704513Y-94291500D01*
X130698061Y-94292872D01*
X130698056Y-94292872D01*
X130611112Y-94311353D01*
X130517712Y-94331206D01*
X130511682Y-94333891D01*
X130511681Y-94333891D01*
X130349278Y-94406197D01*
X130349276Y-94406198D01*
X130343248Y-94408882D01*
X130188747Y-94521134D01*
X130060960Y-94663056D01*
X129965473Y-94828444D01*
X129906458Y-95010072D01*
X129905768Y-95016633D01*
X129905768Y-95016635D01*
X129900889Y-95063056D01*
X129893727Y-95131206D01*
X129889093Y-95175293D01*
X129862080Y-95240950D01*
X129852878Y-95251218D01*
X124774500Y-100329595D01*
X124712188Y-100363621D01*
X124685405Y-100366500D01*
X109708200Y-100366500D01*
X109640079Y-100346498D01*
X109620853Y-100330157D01*
X109620580Y-100330460D01*
X109615668Y-100326037D01*
X109611253Y-100321134D01*
X109523739Y-100257551D01*
X109462094Y-100212763D01*
X109462093Y-100212762D01*
X109456752Y-100208882D01*
X109450724Y-100206198D01*
X109450722Y-100206197D01*
X109288319Y-100133891D01*
X109288318Y-100133891D01*
X109282288Y-100131206D01*
X109188887Y-100111353D01*
X109101944Y-100092872D01*
X109101939Y-100092872D01*
X109095487Y-100091500D01*
X108904513Y-100091500D01*
X108898061Y-100092872D01*
X108898056Y-100092872D01*
X108811113Y-100111353D01*
X108717712Y-100131206D01*
X108711682Y-100133891D01*
X108711681Y-100133891D01*
X108549278Y-100206197D01*
X108549276Y-100206198D01*
X108543248Y-100208882D01*
X108388747Y-100321134D01*
X108384326Y-100326044D01*
X108384325Y-100326045D01*
X108350492Y-100363621D01*
X108260960Y-100463056D01*
X108165473Y-100628444D01*
X108106458Y-100810072D01*
X108086496Y-101000000D01*
X100738536Y-101000000D01*
X100738536Y-93000000D01*
X102086496Y-93000000D01*
X102106458Y-93189928D01*
X102165473Y-93371556D01*
X102260960Y-93536944D01*
X102388747Y-93678866D01*
X102543248Y-93791118D01*
X102549276Y-93793802D01*
X102549278Y-93793803D01*
X102711681Y-93866109D01*
X102717712Y-93868794D01*
X102811113Y-93888647D01*
X102898056Y-93907128D01*
X102898061Y-93907128D01*
X102904513Y-93908500D01*
X103095487Y-93908500D01*
X103101939Y-93907128D01*
X103101944Y-93907128D01*
X103188887Y-93888647D01*
X103282288Y-93868794D01*
X103288319Y-93866109D01*
X103450722Y-93793803D01*
X103450724Y-93793802D01*
X103456752Y-93791118D01*
X103611253Y-93678866D01*
X103615668Y-93673963D01*
X103620580Y-93669540D01*
X103621705Y-93670789D01*
X103675014Y-93637949D01*
X103708200Y-93633500D01*
X118491800Y-93633500D01*
X118559921Y-93653502D01*
X118579147Y-93669843D01*
X118579420Y-93669540D01*
X118584332Y-93673963D01*
X118588747Y-93678866D01*
X118743248Y-93791118D01*
X118749276Y-93793802D01*
X118749278Y-93793803D01*
X118911681Y-93866109D01*
X118917712Y-93868794D01*
X119011113Y-93888647D01*
X119098056Y-93907128D01*
X119098061Y-93907128D01*
X119104513Y-93908500D01*
X119295487Y-93908500D01*
X119301939Y-93907128D01*
X119301944Y-93907128D01*
X119388887Y-93888647D01*
X119482288Y-93868794D01*
X119488319Y-93866109D01*
X119650722Y-93793803D01*
X119650724Y-93793802D01*
X119656752Y-93791118D01*
X119811253Y-93678866D01*
X119939040Y-93536944D01*
X120034527Y-93371556D01*
X120093542Y-93189928D01*
X120113504Y-93000000D01*
X120093542Y-92810072D01*
X120034527Y-92628444D01*
X119939040Y-92463056D01*
X119811253Y-92321134D01*
X119656752Y-92208882D01*
X119650724Y-92206198D01*
X119650722Y-92206197D01*
X119488319Y-92133891D01*
X119488318Y-92133891D01*
X119482288Y-92131206D01*
X119388888Y-92111353D01*
X119301944Y-92092872D01*
X119301939Y-92092872D01*
X119295487Y-92091500D01*
X119104513Y-92091500D01*
X119098061Y-92092872D01*
X119098056Y-92092872D01*
X119011112Y-92111353D01*
X118917712Y-92131206D01*
X118911682Y-92133891D01*
X118911681Y-92133891D01*
X118749278Y-92206197D01*
X118749276Y-92206198D01*
X118743248Y-92208882D01*
X118588747Y-92321134D01*
X118584332Y-92326037D01*
X118579420Y-92330460D01*
X118578295Y-92329211D01*
X118524986Y-92362051D01*
X118491800Y-92366500D01*
X103708200Y-92366500D01*
X103640079Y-92346498D01*
X103620853Y-92330157D01*
X103620580Y-92330460D01*
X103615668Y-92326037D01*
X103611253Y-92321134D01*
X103456752Y-92208882D01*
X103450724Y-92206198D01*
X103450722Y-92206197D01*
X103288319Y-92133891D01*
X103288318Y-92133891D01*
X103282288Y-92131206D01*
X103188888Y-92111353D01*
X103101944Y-92092872D01*
X103101939Y-92092872D01*
X103095487Y-92091500D01*
X102904513Y-92091500D01*
X102898061Y-92092872D01*
X102898056Y-92092872D01*
X102811112Y-92111353D01*
X102717712Y-92131206D01*
X102711682Y-92133891D01*
X102711681Y-92133891D01*
X102549278Y-92206197D01*
X102549276Y-92206198D01*
X102543248Y-92208882D01*
X102388747Y-92321134D01*
X102260960Y-92463056D01*
X102165473Y-92628444D01*
X102106458Y-92810072D01*
X102086496Y-93000000D01*
X100738536Y-93000000D01*
X100738536Y-89500000D01*
X104186496Y-89500000D01*
X104206458Y-89689928D01*
X104265473Y-89871556D01*
X104360960Y-90036944D01*
X104365378Y-90041851D01*
X104365379Y-90041852D01*
X104434791Y-90118942D01*
X104488747Y-90178866D01*
X104643248Y-90291118D01*
X104649276Y-90293802D01*
X104649278Y-90293803D01*
X104796552Y-90359373D01*
X104817712Y-90368794D01*
X104911113Y-90388647D01*
X104998056Y-90407128D01*
X104998061Y-90407128D01*
X105004513Y-90408500D01*
X105195487Y-90408500D01*
X105201939Y-90407128D01*
X105201944Y-90407128D01*
X105288887Y-90388647D01*
X105382288Y-90368794D01*
X105403448Y-90359373D01*
X105550722Y-90293803D01*
X105550724Y-90293802D01*
X105556752Y-90291118D01*
X105613502Y-90249887D01*
X105700732Y-90186510D01*
X105711253Y-90178866D01*
X105715668Y-90173963D01*
X105720580Y-90169540D01*
X105721705Y-90170789D01*
X105775014Y-90137949D01*
X105808200Y-90133500D01*
X117485406Y-90133500D01*
X117553527Y-90153502D01*
X117574501Y-90170405D01*
X118252878Y-90848782D01*
X118286904Y-90911094D01*
X118289092Y-90924703D01*
X118306458Y-91089928D01*
X118365473Y-91271556D01*
X118460960Y-91436944D01*
X118465378Y-91441851D01*
X118465379Y-91441852D01*
X118505204Y-91486082D01*
X118588747Y-91578866D01*
X118743248Y-91691118D01*
X118749276Y-91693802D01*
X118749278Y-91693803D01*
X118810674Y-91721138D01*
X118917712Y-91768794D01*
X118994482Y-91785112D01*
X119098056Y-91807128D01*
X119098061Y-91807128D01*
X119104513Y-91808500D01*
X119295487Y-91808500D01*
X119301939Y-91807128D01*
X119301944Y-91807128D01*
X119405518Y-91785112D01*
X119482288Y-91768794D01*
X119589326Y-91721138D01*
X119650722Y-91693803D01*
X119650724Y-91693802D01*
X119656752Y-91691118D01*
X119811253Y-91578866D01*
X119894796Y-91486082D01*
X119934621Y-91441852D01*
X119934622Y-91441851D01*
X119939040Y-91436944D01*
X120034527Y-91271556D01*
X120093542Y-91089928D01*
X120113504Y-90900000D01*
X120116511Y-90900316D01*
X120132816Y-90844787D01*
X120186472Y-90798294D01*
X120256746Y-90788190D01*
X120321326Y-90817684D01*
X120327909Y-90823813D01*
X120529595Y-91025499D01*
X120563621Y-91087811D01*
X120566500Y-91114594D01*
X120566500Y-93785406D01*
X120546498Y-93853527D01*
X120529595Y-93874501D01*
X119349500Y-95054595D01*
X119287188Y-95088621D01*
X119260405Y-95091500D01*
X119204513Y-95091500D01*
X119198061Y-95092872D01*
X119198056Y-95092872D01*
X119111112Y-95111353D01*
X119017712Y-95131206D01*
X119011682Y-95133891D01*
X119011681Y-95133891D01*
X118849278Y-95206197D01*
X118849276Y-95206198D01*
X118843248Y-95208882D01*
X118688747Y-95321134D01*
X118684326Y-95326044D01*
X118684325Y-95326045D01*
X118602758Y-95416635D01*
X118560960Y-95463056D01*
X118465473Y-95628444D01*
X118406458Y-95810072D01*
X118405768Y-95816633D01*
X118405768Y-95816635D01*
X118398819Y-95882749D01*
X118386496Y-96000000D01*
X118406458Y-96189928D01*
X118408497Y-96196203D01*
X118408498Y-96196208D01*
X118410238Y-96201562D01*
X118412267Y-96272529D01*
X118375606Y-96333328D01*
X118311894Y-96364654D01*
X118290406Y-96366500D01*
X110708200Y-96366500D01*
X110640079Y-96346498D01*
X110620853Y-96330157D01*
X110620580Y-96330460D01*
X110615668Y-96326037D01*
X110611253Y-96321134D01*
X110572313Y-96292842D01*
X110462094Y-96212763D01*
X110462093Y-96212762D01*
X110456752Y-96208882D01*
X110450724Y-96206198D01*
X110450722Y-96206197D01*
X110288319Y-96133891D01*
X110288318Y-96133891D01*
X110282288Y-96131206D01*
X110185928Y-96110724D01*
X110101944Y-96092872D01*
X110101939Y-96092872D01*
X110095487Y-96091500D01*
X109904513Y-96091500D01*
X109898061Y-96092872D01*
X109898056Y-96092872D01*
X109814072Y-96110724D01*
X109717712Y-96131206D01*
X109711682Y-96133891D01*
X109711681Y-96133891D01*
X109549278Y-96206197D01*
X109549276Y-96206198D01*
X109543248Y-96208882D01*
X109388747Y-96321134D01*
X109384326Y-96326044D01*
X109384325Y-96326045D01*
X109298852Y-96420973D01*
X109260960Y-96463056D01*
X109165473Y-96628444D01*
X109106458Y-96810072D01*
X109086496Y-97000000D01*
X109087186Y-97006565D01*
X109096608Y-97096206D01*
X109106458Y-97189928D01*
X109165473Y-97371556D01*
X109260960Y-97536944D01*
X109265378Y-97541851D01*
X109265379Y-97541852D01*
X109347452Y-97633003D01*
X109388747Y-97678866D01*
X109543248Y-97791118D01*
X109549276Y-97793802D01*
X109549278Y-97793803D01*
X109711681Y-97866109D01*
X109717712Y-97868794D01*
X109811112Y-97888647D01*
X109898056Y-97907128D01*
X109898061Y-97907128D01*
X109904513Y-97908500D01*
X110095487Y-97908500D01*
X110101939Y-97907128D01*
X110101944Y-97907128D01*
X110188888Y-97888647D01*
X110282288Y-97868794D01*
X110288319Y-97866109D01*
X110450722Y-97793803D01*
X110450724Y-97793802D01*
X110456752Y-97791118D01*
X110611253Y-97678866D01*
X110615668Y-97673963D01*
X110620580Y-97669540D01*
X110621705Y-97670789D01*
X110675014Y-97637949D01*
X110708200Y-97633500D01*
X120946538Y-97633500D01*
X120957721Y-97634027D01*
X120965214Y-97635702D01*
X120973140Y-97635453D01*
X120973141Y-97635453D01*
X121033291Y-97633562D01*
X121037250Y-97633500D01*
X121065161Y-97633500D01*
X121069096Y-97633003D01*
X121069161Y-97632995D01*
X121080998Y-97632062D01*
X121113256Y-97631048D01*
X121117275Y-97630922D01*
X121125194Y-97630673D01*
X121144648Y-97625021D01*
X121164005Y-97621013D01*
X121176235Y-97619468D01*
X121176236Y-97619468D01*
X121184102Y-97618474D01*
X121191473Y-97615555D01*
X121191475Y-97615555D01*
X121225217Y-97602196D01*
X121236447Y-97598351D01*
X121271288Y-97588229D01*
X121271289Y-97588229D01*
X121278898Y-97586018D01*
X121285717Y-97581985D01*
X121285722Y-97581983D01*
X121296333Y-97575707D01*
X121314081Y-97567012D01*
X121332922Y-97559552D01*
X121368692Y-97533564D01*
X121378612Y-97527048D01*
X121409840Y-97508580D01*
X121409843Y-97508578D01*
X121416667Y-97504542D01*
X121430988Y-97490221D01*
X121446022Y-97477380D01*
X121455999Y-97470131D01*
X121462412Y-97465472D01*
X121490603Y-97431395D01*
X121498593Y-97422616D01*
X122492247Y-96428962D01*
X122500537Y-96421418D01*
X122507018Y-96417305D01*
X122535254Y-96387237D01*
X122553658Y-96367638D01*
X122556413Y-96364796D01*
X122576134Y-96345075D01*
X122578612Y-96341880D01*
X122586318Y-96332858D01*
X122611158Y-96306406D01*
X122616586Y-96300626D01*
X122626346Y-96282873D01*
X122637199Y-96266350D01*
X122644753Y-96256611D01*
X122649613Y-96250346D01*
X122667176Y-96209762D01*
X122672383Y-96199132D01*
X122693695Y-96160365D01*
X122695666Y-96152688D01*
X122695668Y-96152683D01*
X122698732Y-96140747D01*
X122705138Y-96122035D01*
X122710033Y-96110724D01*
X122713181Y-96103450D01*
X122714421Y-96095622D01*
X122714423Y-96095615D01*
X122720099Y-96059781D01*
X122722505Y-96048161D01*
X122731528Y-96013016D01*
X122731528Y-96013015D01*
X122733500Y-96005335D01*
X122733500Y-95985081D01*
X122735051Y-95965370D01*
X122736980Y-95953191D01*
X122738220Y-95945362D01*
X122734059Y-95901343D01*
X122733500Y-95889486D01*
X122733500Y-95000000D01*
X126886496Y-95000000D01*
X126906458Y-95189928D01*
X126965473Y-95371556D01*
X127060960Y-95536944D01*
X127188747Y-95678866D01*
X127343248Y-95791118D01*
X127349276Y-95793802D01*
X127349278Y-95793803D01*
X127400560Y-95816635D01*
X127517712Y-95868794D01*
X127583365Y-95882749D01*
X127698056Y-95907128D01*
X127698061Y-95907128D01*
X127704513Y-95908500D01*
X127895487Y-95908500D01*
X127901939Y-95907128D01*
X127901944Y-95907128D01*
X128016635Y-95882749D01*
X128082288Y-95868794D01*
X128199440Y-95816635D01*
X128250722Y-95793803D01*
X128250724Y-95793802D01*
X128256752Y-95791118D01*
X128411253Y-95678866D01*
X128539040Y-95536944D01*
X128634527Y-95371556D01*
X128693542Y-95189928D01*
X128713504Y-95000000D01*
X128704095Y-94910474D01*
X128694232Y-94816635D01*
X128694232Y-94816633D01*
X128693542Y-94810072D01*
X128634527Y-94628444D01*
X128539040Y-94463056D01*
X128465863Y-94381785D01*
X128435147Y-94317779D01*
X128433500Y-94297476D01*
X128433500Y-86632524D01*
X128453502Y-86564403D01*
X128465858Y-86548221D01*
X128539040Y-86466944D01*
X128634527Y-86301556D01*
X128693542Y-86119928D01*
X128713504Y-85930000D01*
X128693542Y-85740072D01*
X128634527Y-85558444D01*
X128539040Y-85393056D01*
X128411253Y-85251134D01*
X128256752Y-85138882D01*
X128250724Y-85136198D01*
X128250722Y-85136197D01*
X128088319Y-85063891D01*
X128088318Y-85063891D01*
X128082288Y-85061206D01*
X127988888Y-85041353D01*
X127901944Y-85022872D01*
X127901939Y-85022872D01*
X127895487Y-85021500D01*
X127704513Y-85021500D01*
X127698061Y-85022872D01*
X127698056Y-85022872D01*
X127611112Y-85041353D01*
X127517712Y-85061206D01*
X127511682Y-85063891D01*
X127511681Y-85063891D01*
X127349278Y-85136197D01*
X127349276Y-85136198D01*
X127343248Y-85138882D01*
X127188747Y-85251134D01*
X127060960Y-85393056D01*
X126965473Y-85558444D01*
X126906458Y-85740072D01*
X126886496Y-85930000D01*
X126906458Y-86119928D01*
X126965473Y-86301556D01*
X127060960Y-86466944D01*
X127134137Y-86548215D01*
X127164853Y-86612221D01*
X127166500Y-86632524D01*
X127166500Y-94297476D01*
X127146498Y-94365597D01*
X127134142Y-94381779D01*
X127060960Y-94463056D01*
X126965473Y-94628444D01*
X126906458Y-94810072D01*
X126905768Y-94816633D01*
X126905768Y-94816635D01*
X126895905Y-94910474D01*
X126886496Y-95000000D01*
X122733500Y-95000000D01*
X122733500Y-90589068D01*
X122734027Y-90577884D01*
X122735701Y-90570396D01*
X122733562Y-90502337D01*
X122733500Y-90498380D01*
X122733500Y-90470449D01*
X122732994Y-90466443D01*
X122732061Y-90454597D01*
X122731507Y-90436944D01*
X122730673Y-90410415D01*
X122725022Y-90390963D01*
X122721014Y-90371611D01*
X122719468Y-90359373D01*
X122719467Y-90359371D01*
X122718474Y-90351508D01*
X122702194Y-90310391D01*
X122698359Y-90299190D01*
X122686018Y-90256711D01*
X122681985Y-90249892D01*
X122681983Y-90249887D01*
X122675707Y-90239276D01*
X122667010Y-90221526D01*
X122659552Y-90202688D01*
X122652367Y-90192798D01*
X122633572Y-90166930D01*
X122627053Y-90157006D01*
X122608578Y-90125765D01*
X122608574Y-90125760D01*
X122604542Y-90118942D01*
X122590218Y-90104618D01*
X122577376Y-90089583D01*
X122565472Y-90073198D01*
X122531406Y-90045016D01*
X122522627Y-90037027D01*
X119270405Y-86784805D01*
X119236379Y-86722493D01*
X119233500Y-86695710D01*
X119233500Y-83076659D01*
X119253502Y-83008538D01*
X119307158Y-82962045D01*
X119377432Y-82951941D01*
X119431770Y-82973446D01*
X119463832Y-82995896D01*
X119463837Y-82995899D01*
X119468346Y-82999056D01*
X119667924Y-83092120D01*
X119880629Y-83149115D01*
X120100000Y-83168307D01*
X120319371Y-83149115D01*
X120532076Y-83092120D01*
X120731654Y-82999056D01*
X120853980Y-82913402D01*
X120907527Y-82875908D01*
X120907529Y-82875906D01*
X120912038Y-82872749D01*
X121067749Y-82717038D01*
X121093684Y-82680000D01*
X123686502Y-82680000D01*
X123706457Y-82908087D01*
X123707881Y-82913400D01*
X123707881Y-82913402D01*
X123756112Y-83093399D01*
X123765716Y-83129243D01*
X123768039Y-83134224D01*
X123768039Y-83134225D01*
X123860151Y-83331762D01*
X123860154Y-83331767D01*
X123862477Y-83336749D01*
X123993802Y-83524300D01*
X124155700Y-83686198D01*
X124160208Y-83689355D01*
X124160211Y-83689357D01*
X124194615Y-83713447D01*
X124343251Y-83817523D01*
X124348233Y-83819846D01*
X124348238Y-83819849D01*
X124539605Y-83909084D01*
X124550757Y-83914284D01*
X124556065Y-83915706D01*
X124556067Y-83915707D01*
X124766598Y-83972119D01*
X124766600Y-83972119D01*
X124771913Y-83973543D01*
X125000000Y-83993498D01*
X125228087Y-83973543D01*
X125233400Y-83972119D01*
X125233402Y-83972119D01*
X125443933Y-83915707D01*
X125443935Y-83915706D01*
X125449243Y-83914284D01*
X125460395Y-83909084D01*
X125651762Y-83819849D01*
X125651767Y-83819846D01*
X125656749Y-83817523D01*
X125805385Y-83713447D01*
X125839789Y-83689357D01*
X125839792Y-83689355D01*
X125844300Y-83686198D01*
X126006198Y-83524300D01*
X126137523Y-83336749D01*
X126139846Y-83331767D01*
X126139849Y-83331762D01*
X126231961Y-83134225D01*
X126231961Y-83134224D01*
X126234284Y-83129243D01*
X126243889Y-83093399D01*
X126292119Y-82913402D01*
X126292119Y-82913400D01*
X126293543Y-82908087D01*
X126313498Y-82680000D01*
X126293543Y-82451913D01*
X126290233Y-82439561D01*
X126235707Y-82236067D01*
X126235706Y-82236065D01*
X126234284Y-82230757D01*
X126231306Y-82224371D01*
X126139849Y-82028238D01*
X126139846Y-82028233D01*
X126137523Y-82023251D01*
X126124743Y-82005000D01*
X132736693Y-82005000D01*
X132755885Y-82224371D01*
X132812880Y-82437076D01*
X132819799Y-82451913D01*
X132903618Y-82631666D01*
X132903621Y-82631671D01*
X132905944Y-82636653D01*
X132909100Y-82641160D01*
X132909101Y-82641162D01*
X133027955Y-82810902D01*
X133032251Y-82817038D01*
X133187962Y-82972749D01*
X133192471Y-82975906D01*
X133192473Y-82975908D01*
X133265073Y-83026743D01*
X133368346Y-83099056D01*
X133567924Y-83192120D01*
X133780629Y-83249115D01*
X134000000Y-83268307D01*
X134219371Y-83249115D01*
X134432076Y-83192120D01*
X134631654Y-83099056D01*
X134734927Y-83026743D01*
X134807527Y-82975908D01*
X134807529Y-82975906D01*
X134812038Y-82972749D01*
X134967749Y-82817038D01*
X134972046Y-82810902D01*
X135090899Y-82641162D01*
X135090900Y-82641160D01*
X135094056Y-82636653D01*
X135096379Y-82631671D01*
X135096382Y-82631666D01*
X135180201Y-82451913D01*
X135187120Y-82437076D01*
X135244115Y-82224371D01*
X135263307Y-82005000D01*
X135244115Y-81785629D01*
X135187120Y-81572924D01*
X135138165Y-81467939D01*
X135096382Y-81378334D01*
X135096379Y-81378329D01*
X135094056Y-81373347D01*
X135090899Y-81368838D01*
X134970908Y-81197473D01*
X134970906Y-81197470D01*
X134967749Y-81192962D01*
X134812038Y-81037251D01*
X134803957Y-81031592D01*
X134732759Y-80981739D01*
X134631654Y-80910944D01*
X134432076Y-80817880D01*
X134219371Y-80760885D01*
X134000000Y-80741693D01*
X133780629Y-80760885D01*
X133567924Y-80817880D01*
X133474562Y-80861415D01*
X133373334Y-80908618D01*
X133373329Y-80908621D01*
X133368347Y-80910944D01*
X133363840Y-80914100D01*
X133363838Y-80914101D01*
X133192473Y-81034092D01*
X133192470Y-81034094D01*
X133187962Y-81037251D01*
X133032251Y-81192962D01*
X133029094Y-81197470D01*
X133029092Y-81197473D01*
X132909101Y-81368838D01*
X132905944Y-81373347D01*
X132903621Y-81378329D01*
X132903618Y-81378334D01*
X132861835Y-81467939D01*
X132812880Y-81572924D01*
X132755885Y-81785629D01*
X132736693Y-82005000D01*
X126124743Y-82005000D01*
X126013154Y-81845634D01*
X126009357Y-81840211D01*
X126009355Y-81840208D01*
X126006198Y-81835700D01*
X125844300Y-81673802D01*
X125839792Y-81670645D01*
X125839789Y-81670643D01*
X125761611Y-81615902D01*
X125656749Y-81542477D01*
X125651767Y-81540154D01*
X125651762Y-81540151D01*
X125454225Y-81448039D01*
X125454224Y-81448039D01*
X125449243Y-81445716D01*
X125443935Y-81444294D01*
X125443933Y-81444293D01*
X125233402Y-81387881D01*
X125233400Y-81387881D01*
X125228087Y-81386457D01*
X125000000Y-81366502D01*
X124771913Y-81386457D01*
X124766600Y-81387881D01*
X124766598Y-81387881D01*
X124556067Y-81444293D01*
X124556065Y-81444294D01*
X124550757Y-81445716D01*
X124545776Y-81448039D01*
X124545775Y-81448039D01*
X124348238Y-81540151D01*
X124348233Y-81540154D01*
X124343251Y-81542477D01*
X124238389Y-81615902D01*
X124160211Y-81670643D01*
X124160208Y-81670645D01*
X124155700Y-81673802D01*
X123993802Y-81835700D01*
X123990645Y-81840208D01*
X123990643Y-81840211D01*
X123986846Y-81845634D01*
X123862477Y-82023251D01*
X123860154Y-82028233D01*
X123860151Y-82028238D01*
X123768694Y-82224371D01*
X123765716Y-82230757D01*
X123764294Y-82236065D01*
X123764293Y-82236067D01*
X123709767Y-82439561D01*
X123706457Y-82451913D01*
X123686502Y-82680000D01*
X121093684Y-82680000D01*
X121190899Y-82541162D01*
X121190900Y-82541160D01*
X121194056Y-82536653D01*
X121196379Y-82531671D01*
X121196382Y-82531666D01*
X121264479Y-82385629D01*
X121287120Y-82337076D01*
X121344115Y-82124371D01*
X121363307Y-81905000D01*
X121344115Y-81685629D01*
X121287120Y-81472924D01*
X121227720Y-81345539D01*
X121196382Y-81278334D01*
X121196379Y-81278329D01*
X121194056Y-81273347D01*
X121158107Y-81222006D01*
X121070908Y-81097473D01*
X121070906Y-81097470D01*
X121067749Y-81092962D01*
X120912038Y-80937251D01*
X120875407Y-80911601D01*
X120832759Y-80881739D01*
X120731654Y-80810944D01*
X120532076Y-80717880D01*
X120319371Y-80660885D01*
X120100000Y-80641693D01*
X119880629Y-80660885D01*
X119667924Y-80717880D01*
X119578009Y-80759808D01*
X119473334Y-80808618D01*
X119473329Y-80808621D01*
X119468347Y-80810944D01*
X119431771Y-80836555D01*
X119364497Y-80859243D01*
X119295637Y-80841958D01*
X119247052Y-80790189D01*
X119233500Y-80733342D01*
X119233500Y-75669500D01*
X119253502Y-75601379D01*
X119307158Y-75554886D01*
X119359500Y-75543500D01*
X120898134Y-75543500D01*
X120960316Y-75536745D01*
X121096705Y-75485615D01*
X121213261Y-75398261D01*
X121300615Y-75281705D01*
X121351745Y-75145316D01*
X121358500Y-75083134D01*
X121358500Y-73486866D01*
X121351745Y-73424684D01*
X121300615Y-73288295D01*
X121213261Y-73171739D01*
X121096705Y-73084385D01*
X120960316Y-73033255D01*
X120898134Y-73026500D01*
X119359500Y-73026500D01*
X119291379Y-73006498D01*
X119244886Y-72952842D01*
X119233500Y-72900500D01*
X119233500Y-72520000D01*
X123686502Y-72520000D01*
X123706457Y-72748087D01*
X123765716Y-72969243D01*
X123768039Y-72974224D01*
X123768039Y-72974225D01*
X123860151Y-73171762D01*
X123860154Y-73171767D01*
X123862477Y-73176749D01*
X123993802Y-73364300D01*
X124155700Y-73526198D01*
X124160208Y-73529355D01*
X124160211Y-73529357D01*
X124196866Y-73555023D01*
X124343251Y-73657523D01*
X124348233Y-73659846D01*
X124348238Y-73659849D01*
X124545775Y-73751961D01*
X124550757Y-73754284D01*
X124556065Y-73755706D01*
X124556067Y-73755707D01*
X124766598Y-73812119D01*
X124766600Y-73812119D01*
X124771913Y-73813543D01*
X125000000Y-73833498D01*
X125228087Y-73813543D01*
X125233400Y-73812119D01*
X125233402Y-73812119D01*
X125443933Y-73755707D01*
X125443935Y-73755706D01*
X125449243Y-73754284D01*
X125454225Y-73751961D01*
X125651762Y-73659849D01*
X125651767Y-73659846D01*
X125656749Y-73657523D01*
X125803134Y-73555023D01*
X125839789Y-73529357D01*
X125839792Y-73529355D01*
X125844300Y-73526198D01*
X126006198Y-73364300D01*
X126137523Y-73176749D01*
X126139846Y-73171767D01*
X126139849Y-73171762D01*
X126231961Y-72974225D01*
X126231961Y-72974224D01*
X126234284Y-72969243D01*
X126293543Y-72748087D01*
X126313498Y-72520000D01*
X126293543Y-72291913D01*
X126292119Y-72286598D01*
X126235707Y-72076067D01*
X126235706Y-72076065D01*
X126234284Y-72070757D01*
X126192062Y-71980211D01*
X126139849Y-71868238D01*
X126139846Y-71868233D01*
X126137523Y-71863251D01*
X126013154Y-71685634D01*
X126009357Y-71680211D01*
X126009355Y-71680208D01*
X126006198Y-71675700D01*
X125844300Y-71513802D01*
X125839792Y-71510645D01*
X125839789Y-71510643D01*
X125761611Y-71455902D01*
X125656749Y-71382477D01*
X125651767Y-71380154D01*
X125651762Y-71380151D01*
X125454225Y-71288039D01*
X125454224Y-71288039D01*
X125449243Y-71285716D01*
X125443935Y-71284294D01*
X125443933Y-71284293D01*
X125233402Y-71227881D01*
X125233400Y-71227881D01*
X125228087Y-71226457D01*
X125000000Y-71206502D01*
X124771913Y-71226457D01*
X124766600Y-71227881D01*
X124766598Y-71227881D01*
X124556067Y-71284293D01*
X124556065Y-71284294D01*
X124550757Y-71285716D01*
X124545776Y-71288039D01*
X124545775Y-71288039D01*
X124348238Y-71380151D01*
X124348233Y-71380154D01*
X124343251Y-71382477D01*
X124238389Y-71455902D01*
X124160211Y-71510643D01*
X124160208Y-71510645D01*
X124155700Y-71513802D01*
X123993802Y-71675700D01*
X123990645Y-71680208D01*
X123990643Y-71680211D01*
X123986846Y-71685634D01*
X123862477Y-71863251D01*
X123860154Y-71868233D01*
X123860151Y-71868238D01*
X123807938Y-71980211D01*
X123765716Y-72070757D01*
X123764294Y-72076065D01*
X123764293Y-72076067D01*
X123707881Y-72286598D01*
X123706457Y-72291913D01*
X123686502Y-72520000D01*
X119233500Y-72520000D01*
X119233500Y-68678768D01*
X119234027Y-68667585D01*
X119235702Y-68660092D01*
X119233562Y-68592001D01*
X119233500Y-68588044D01*
X119233500Y-68560144D01*
X119232996Y-68556153D01*
X119232063Y-68544311D01*
X119230923Y-68508036D01*
X119230674Y-68500111D01*
X119228462Y-68492497D01*
X119228461Y-68492492D01*
X119225023Y-68480659D01*
X119221012Y-68461295D01*
X119219467Y-68449064D01*
X119218474Y-68441203D01*
X119215557Y-68433836D01*
X119215556Y-68433831D01*
X119202198Y-68400092D01*
X119198354Y-68388865D01*
X119188230Y-68354022D01*
X119186018Y-68346407D01*
X119175707Y-68328972D01*
X119167012Y-68311224D01*
X119159552Y-68292383D01*
X119133564Y-68256613D01*
X119127048Y-68246693D01*
X119108580Y-68215465D01*
X119108578Y-68215462D01*
X119104542Y-68208638D01*
X119090221Y-68194317D01*
X119077380Y-68179283D01*
X119070131Y-68169306D01*
X119065472Y-68162893D01*
X119031395Y-68134702D01*
X119022616Y-68126712D01*
X117835377Y-66939473D01*
X117801351Y-66877161D01*
X117799162Y-66863547D01*
X117794232Y-66816636D01*
X117794232Y-66816635D01*
X117793542Y-66810072D01*
X117734527Y-66628444D01*
X117639040Y-66463056D01*
X117609691Y-66430460D01*
X117515675Y-66326045D01*
X117515674Y-66326044D01*
X117511253Y-66321134D01*
X117356752Y-66208882D01*
X117350724Y-66206198D01*
X117350722Y-66206197D01*
X117188319Y-66133891D01*
X117188318Y-66133891D01*
X117182288Y-66131206D01*
X117088888Y-66111353D01*
X117001944Y-66092872D01*
X117001939Y-66092872D01*
X116995487Y-66091500D01*
X116804513Y-66091500D01*
X116798061Y-66092872D01*
X116798056Y-66092872D01*
X116711112Y-66111353D01*
X116617712Y-66131206D01*
X116611682Y-66133891D01*
X116611681Y-66133891D01*
X116449278Y-66206197D01*
X116449276Y-66206198D01*
X116443248Y-66208882D01*
X116288747Y-66321134D01*
X116284326Y-66326044D01*
X116284325Y-66326045D01*
X116190310Y-66430460D01*
X116160960Y-66463056D01*
X116149580Y-66482767D01*
X116098198Y-66531760D01*
X116028485Y-66545197D01*
X115990425Y-66535406D01*
X115984467Y-66532828D01*
X115973813Y-66527609D01*
X115935060Y-66506305D01*
X115915437Y-66501267D01*
X115896734Y-66494863D01*
X115885420Y-66489967D01*
X115885419Y-66489967D01*
X115878145Y-66486819D01*
X115870322Y-66485580D01*
X115870312Y-66485577D01*
X115834476Y-66479901D01*
X115822856Y-66477495D01*
X115787711Y-66468472D01*
X115787710Y-66468472D01*
X115780030Y-66466500D01*
X115759776Y-66466500D01*
X115740065Y-66464949D01*
X115727886Y-66463020D01*
X115720057Y-66461780D01*
X115712165Y-66462526D01*
X115676039Y-66465941D01*
X115664181Y-66466500D01*
X113408200Y-66466500D01*
X113340079Y-66446498D01*
X113320853Y-66430157D01*
X113320580Y-66430460D01*
X113315668Y-66426037D01*
X113311253Y-66421134D01*
X113276230Y-66395688D01*
X113162094Y-66312763D01*
X113162093Y-66312762D01*
X113156752Y-66308882D01*
X113150724Y-66306198D01*
X113150722Y-66306197D01*
X112988319Y-66233891D01*
X112988318Y-66233891D01*
X112982288Y-66231206D01*
X112881840Y-66209855D01*
X112801944Y-66192872D01*
X112801939Y-66192872D01*
X112795487Y-66191500D01*
X112604513Y-66191500D01*
X112598061Y-66192872D01*
X112598056Y-66192872D01*
X112518160Y-66209855D01*
X112417712Y-66231206D01*
X112411682Y-66233891D01*
X112411681Y-66233891D01*
X112249278Y-66306197D01*
X112249276Y-66306198D01*
X112243248Y-66308882D01*
X112237907Y-66312762D01*
X112237906Y-66312763D01*
X112219625Y-66326045D01*
X112088747Y-66421134D01*
X112084326Y-66426044D01*
X112084325Y-66426045D01*
X112026770Y-66489967D01*
X111960960Y-66563056D01*
X111865473Y-66728444D01*
X111806458Y-66910072D01*
X111786496Y-67100000D01*
X111806458Y-67289928D01*
X111865473Y-67471556D01*
X111960960Y-67636944D01*
X112088747Y-67778866D01*
X112243248Y-67891118D01*
X112249276Y-67893802D01*
X112249278Y-67893803D01*
X112411681Y-67966109D01*
X112417712Y-67968794D01*
X112511112Y-67988647D01*
X112598056Y-68007128D01*
X112598061Y-68007128D01*
X112604513Y-68008500D01*
X112795487Y-68008500D01*
X112801939Y-68007128D01*
X112801944Y-68007128D01*
X112888888Y-67988647D01*
X112982288Y-67968794D01*
X112988319Y-67966109D01*
X113150722Y-67893803D01*
X113150724Y-67893802D01*
X113156752Y-67891118D01*
X113311253Y-67778866D01*
X113315668Y-67773963D01*
X113320580Y-67769540D01*
X113321705Y-67770789D01*
X113375014Y-67737949D01*
X113408200Y-67733500D01*
X115385406Y-67733500D01*
X115453527Y-67753502D01*
X115474497Y-67770401D01*
X116429597Y-68725502D01*
X116463621Y-68787812D01*
X116466500Y-68814595D01*
X116466500Y-86621233D01*
X116465973Y-86632416D01*
X116464298Y-86639909D01*
X116464547Y-86647835D01*
X116464547Y-86647836D01*
X116466438Y-86707986D01*
X116466500Y-86711945D01*
X116466500Y-86739856D01*
X116466997Y-86743790D01*
X116466997Y-86743791D01*
X116467005Y-86743856D01*
X116467938Y-86755693D01*
X116469327Y-86799889D01*
X116474978Y-86819339D01*
X116478987Y-86838700D01*
X116481526Y-86858797D01*
X116484445Y-86866168D01*
X116484445Y-86866170D01*
X116497804Y-86899912D01*
X116501649Y-86911142D01*
X116513982Y-86953593D01*
X116518015Y-86960412D01*
X116518017Y-86960417D01*
X116524293Y-86971028D01*
X116532988Y-86988776D01*
X116540448Y-87007617D01*
X116545110Y-87014033D01*
X116545110Y-87014034D01*
X116566436Y-87043387D01*
X116572952Y-87053307D01*
X116595458Y-87091362D01*
X116609779Y-87105683D01*
X116622619Y-87120716D01*
X116634528Y-87137107D01*
X116640634Y-87142158D01*
X116668605Y-87165298D01*
X116677384Y-87173288D01*
X118238744Y-88734648D01*
X118272770Y-88796960D01*
X118267705Y-88867775D01*
X118225158Y-88924611D01*
X118158638Y-88949422D01*
X118099610Y-88939381D01*
X118099462Y-88939317D01*
X118084459Y-88932825D01*
X118073813Y-88927609D01*
X118035060Y-88906305D01*
X118015437Y-88901267D01*
X117996734Y-88894863D01*
X117985420Y-88889967D01*
X117985419Y-88889967D01*
X117978145Y-88886819D01*
X117970322Y-88885580D01*
X117970312Y-88885577D01*
X117934476Y-88879901D01*
X117922856Y-88877495D01*
X117887711Y-88868472D01*
X117887710Y-88868472D01*
X117880030Y-88866500D01*
X117859776Y-88866500D01*
X117840065Y-88864949D01*
X117827886Y-88863020D01*
X117820057Y-88861780D01*
X117812165Y-88862526D01*
X117776039Y-88865941D01*
X117764181Y-88866500D01*
X105808200Y-88866500D01*
X105740079Y-88846498D01*
X105720853Y-88830157D01*
X105720580Y-88830460D01*
X105715668Y-88826037D01*
X105711253Y-88821134D01*
X105689671Y-88805454D01*
X105562094Y-88712763D01*
X105562093Y-88712762D01*
X105556752Y-88708882D01*
X105550724Y-88706198D01*
X105550722Y-88706197D01*
X105388319Y-88633891D01*
X105388318Y-88633891D01*
X105382288Y-88631206D01*
X105288887Y-88611353D01*
X105201944Y-88592872D01*
X105201939Y-88592872D01*
X105195487Y-88591500D01*
X105004513Y-88591500D01*
X104998061Y-88592872D01*
X104998056Y-88592872D01*
X104911113Y-88611353D01*
X104817712Y-88631206D01*
X104811682Y-88633891D01*
X104811681Y-88633891D01*
X104649278Y-88706197D01*
X104649276Y-88706198D01*
X104643248Y-88708882D01*
X104637907Y-88712762D01*
X104637906Y-88712763D01*
X104599379Y-88740755D01*
X104488747Y-88821134D01*
X104484326Y-88826044D01*
X104484325Y-88826045D01*
X104382335Y-88939317D01*
X104360960Y-88963056D01*
X104337440Y-89003794D01*
X104276651Y-89109084D01*
X104265473Y-89128444D01*
X104206458Y-89310072D01*
X104205768Y-89316633D01*
X104205768Y-89316635D01*
X104200957Y-89362409D01*
X104186496Y-89500000D01*
X100738536Y-89500000D01*
X100738536Y-82002500D01*
X107554193Y-82002500D01*
X107573385Y-82221871D01*
X107630380Y-82434576D01*
X107641020Y-82457393D01*
X107721118Y-82629166D01*
X107721121Y-82629171D01*
X107723444Y-82634153D01*
X107726600Y-82638660D01*
X107726601Y-82638662D01*
X107834239Y-82792384D01*
X107849751Y-82814538D01*
X108005462Y-82970249D01*
X108009971Y-82973406D01*
X108009973Y-82973408D01*
X108046602Y-82999056D01*
X108185846Y-83096556D01*
X108385424Y-83189620D01*
X108598129Y-83246615D01*
X108817500Y-83265807D01*
X109036871Y-83246615D01*
X109249576Y-83189620D01*
X109449154Y-83096556D01*
X109588398Y-82999056D01*
X109625027Y-82973408D01*
X109625029Y-82973406D01*
X109629538Y-82970249D01*
X109785249Y-82814538D01*
X109800762Y-82792384D01*
X109908399Y-82638662D01*
X109908400Y-82638660D01*
X109911556Y-82634153D01*
X109913879Y-82629171D01*
X109913882Y-82629166D01*
X109937974Y-82577500D01*
X111704002Y-82577500D01*
X111723957Y-82805587D01*
X111725381Y-82810900D01*
X111725381Y-82810902D01*
X111774951Y-82995896D01*
X111783216Y-83026743D01*
X111785539Y-83031724D01*
X111785539Y-83031725D01*
X111877651Y-83229262D01*
X111877654Y-83229267D01*
X111879977Y-83234249D01*
X111903825Y-83268307D01*
X112007968Y-83417038D01*
X112011302Y-83421800D01*
X112173200Y-83583698D01*
X112177708Y-83586855D01*
X112177711Y-83586857D01*
X112241842Y-83631762D01*
X112360751Y-83715023D01*
X112365733Y-83717346D01*
X112365738Y-83717349D01*
X112563275Y-83809461D01*
X112568257Y-83811784D01*
X112573565Y-83813206D01*
X112573567Y-83813207D01*
X112784098Y-83869619D01*
X112784100Y-83869619D01*
X112789413Y-83871043D01*
X113017500Y-83890998D01*
X113245587Y-83871043D01*
X113250900Y-83869619D01*
X113250902Y-83869619D01*
X113461433Y-83813207D01*
X113461435Y-83813206D01*
X113466743Y-83811784D01*
X113471725Y-83809461D01*
X113669262Y-83717349D01*
X113669267Y-83717346D01*
X113674249Y-83715023D01*
X113793158Y-83631762D01*
X113857289Y-83586857D01*
X113857292Y-83586855D01*
X113861800Y-83583698D01*
X114023698Y-83421800D01*
X114027033Y-83417038D01*
X114131175Y-83268307D01*
X114155023Y-83234249D01*
X114157346Y-83229267D01*
X114157349Y-83229262D01*
X114249461Y-83031725D01*
X114249461Y-83031724D01*
X114251784Y-83026743D01*
X114260050Y-82995896D01*
X114309619Y-82810902D01*
X114309619Y-82810900D01*
X114311043Y-82805587D01*
X114330998Y-82577500D01*
X114311043Y-82349413D01*
X114276070Y-82218894D01*
X114253207Y-82133567D01*
X114253206Y-82133565D01*
X114251784Y-82128257D01*
X114205145Y-82028238D01*
X114157349Y-81925738D01*
X114157346Y-81925733D01*
X114155023Y-81920751D01*
X114054941Y-81777819D01*
X114026857Y-81737711D01*
X114026855Y-81737708D01*
X114023698Y-81733200D01*
X113861800Y-81571302D01*
X113857292Y-81568145D01*
X113857289Y-81568143D01*
X113772278Y-81508618D01*
X113674249Y-81439977D01*
X113669267Y-81437654D01*
X113669262Y-81437651D01*
X113471725Y-81345539D01*
X113471724Y-81345539D01*
X113466743Y-81343216D01*
X113461435Y-81341794D01*
X113461433Y-81341793D01*
X113250902Y-81285381D01*
X113250900Y-81285381D01*
X113245587Y-81283957D01*
X113017500Y-81264002D01*
X112789413Y-81283957D01*
X112784100Y-81285381D01*
X112784098Y-81285381D01*
X112573567Y-81341793D01*
X112573565Y-81341794D01*
X112568257Y-81343216D01*
X112563276Y-81345539D01*
X112563275Y-81345539D01*
X112365738Y-81437651D01*
X112365733Y-81437654D01*
X112360751Y-81439977D01*
X112262722Y-81508618D01*
X112177711Y-81568143D01*
X112177708Y-81568145D01*
X112173200Y-81571302D01*
X112011302Y-81733200D01*
X112008145Y-81737708D01*
X112008143Y-81737711D01*
X111980059Y-81777819D01*
X111879977Y-81920751D01*
X111877654Y-81925733D01*
X111877651Y-81925738D01*
X111829855Y-82028238D01*
X111783216Y-82128257D01*
X111781794Y-82133565D01*
X111781793Y-82133567D01*
X111758930Y-82218894D01*
X111723957Y-82349413D01*
X111704002Y-82577500D01*
X109937974Y-82577500D01*
X109993980Y-82457393D01*
X110004620Y-82434576D01*
X110061615Y-82221871D01*
X110080807Y-82002500D01*
X110061615Y-81783129D01*
X110004620Y-81570424D01*
X109933488Y-81417880D01*
X109913882Y-81375834D01*
X109913879Y-81375829D01*
X109911556Y-81370847D01*
X109843286Y-81273347D01*
X109788408Y-81194973D01*
X109788406Y-81194970D01*
X109785249Y-81190462D01*
X109629538Y-81034751D01*
X109624302Y-81031084D01*
X109490294Y-80937251D01*
X109449154Y-80908444D01*
X109249576Y-80815380D01*
X109036871Y-80758385D01*
X108817500Y-80739193D01*
X108598129Y-80758385D01*
X108385424Y-80815380D01*
X108292062Y-80858915D01*
X108190834Y-80906118D01*
X108190829Y-80906121D01*
X108185847Y-80908444D01*
X108181340Y-80911600D01*
X108181338Y-80911601D01*
X108009973Y-81031592D01*
X108009970Y-81031594D01*
X108005462Y-81034751D01*
X107849751Y-81190462D01*
X107846594Y-81194970D01*
X107846592Y-81194973D01*
X107791714Y-81273347D01*
X107723444Y-81370847D01*
X107721121Y-81375829D01*
X107721118Y-81375834D01*
X107701512Y-81417880D01*
X107630380Y-81570424D01*
X107573385Y-81783129D01*
X107554193Y-82002500D01*
X100738536Y-82002500D01*
X100738536Y-75180634D01*
X107559000Y-75180634D01*
X107565755Y-75242816D01*
X107616885Y-75379205D01*
X107704239Y-75495761D01*
X107820795Y-75583115D01*
X107957184Y-75634245D01*
X108019366Y-75641000D01*
X109615634Y-75641000D01*
X109677816Y-75634245D01*
X109814205Y-75583115D01*
X109930761Y-75495761D01*
X110018115Y-75379205D01*
X110069245Y-75242816D01*
X110076000Y-75180634D01*
X110076000Y-73584366D01*
X110069245Y-73522184D01*
X110018115Y-73385795D01*
X109930761Y-73269239D01*
X109814205Y-73181885D01*
X109677816Y-73130755D01*
X109615634Y-73124000D01*
X108019366Y-73124000D01*
X107957184Y-73130755D01*
X107820795Y-73181885D01*
X107704239Y-73269239D01*
X107616885Y-73385795D01*
X107565755Y-73522184D01*
X107559000Y-73584366D01*
X107559000Y-75180634D01*
X100738536Y-75180634D01*
X100738536Y-72417500D01*
X111704002Y-72417500D01*
X111723957Y-72645587D01*
X111725381Y-72650900D01*
X111725381Y-72650902D01*
X111749954Y-72742607D01*
X111783216Y-72866743D01*
X111785539Y-72871724D01*
X111785539Y-72871725D01*
X111877651Y-73069262D01*
X111877654Y-73069267D01*
X111879977Y-73074249D01*
X112011302Y-73261800D01*
X112173200Y-73423698D01*
X112177708Y-73426855D01*
X112177711Y-73426857D01*
X112241842Y-73471762D01*
X112360751Y-73555023D01*
X112365733Y-73557346D01*
X112365738Y-73557349D01*
X112563275Y-73649461D01*
X112568257Y-73651784D01*
X112573565Y-73653206D01*
X112573567Y-73653207D01*
X112784098Y-73709619D01*
X112784100Y-73709619D01*
X112789413Y-73711043D01*
X113017500Y-73730998D01*
X113245587Y-73711043D01*
X113250900Y-73709619D01*
X113250902Y-73709619D01*
X113461433Y-73653207D01*
X113461435Y-73653206D01*
X113466743Y-73651784D01*
X113471725Y-73649461D01*
X113669262Y-73557349D01*
X113669267Y-73557346D01*
X113674249Y-73555023D01*
X113793158Y-73471762D01*
X113857289Y-73426857D01*
X113857292Y-73426855D01*
X113861800Y-73423698D01*
X114023698Y-73261800D01*
X114155023Y-73074249D01*
X114157346Y-73069267D01*
X114157349Y-73069262D01*
X114249461Y-72871725D01*
X114249461Y-72871724D01*
X114251784Y-72866743D01*
X114285047Y-72742607D01*
X114309619Y-72650902D01*
X114309619Y-72650900D01*
X114311043Y-72645587D01*
X114330998Y-72417500D01*
X114311043Y-72189413D01*
X114254987Y-71980211D01*
X114253207Y-71973567D01*
X114253206Y-71973565D01*
X114251784Y-71968257D01*
X114205145Y-71868238D01*
X114157349Y-71765738D01*
X114157346Y-71765733D01*
X114155023Y-71760751D01*
X114081598Y-71655889D01*
X114026857Y-71577711D01*
X114026855Y-71577708D01*
X114023698Y-71573200D01*
X113861800Y-71411302D01*
X113857292Y-71408145D01*
X113857289Y-71408143D01*
X113779111Y-71353402D01*
X113674249Y-71279977D01*
X113669267Y-71277654D01*
X113669262Y-71277651D01*
X113471725Y-71185539D01*
X113471724Y-71185539D01*
X113466743Y-71183216D01*
X113461435Y-71181794D01*
X113461433Y-71181793D01*
X113250902Y-71125381D01*
X113250900Y-71125381D01*
X113245587Y-71123957D01*
X113017500Y-71104002D01*
X112789413Y-71123957D01*
X112784100Y-71125381D01*
X112784098Y-71125381D01*
X112573567Y-71181793D01*
X112573565Y-71181794D01*
X112568257Y-71183216D01*
X112563276Y-71185539D01*
X112563275Y-71185539D01*
X112365738Y-71277651D01*
X112365733Y-71277654D01*
X112360751Y-71279977D01*
X112255889Y-71353402D01*
X112177711Y-71408143D01*
X112177708Y-71408145D01*
X112173200Y-71411302D01*
X112011302Y-71573200D01*
X112008145Y-71577708D01*
X112008143Y-71577711D01*
X111953402Y-71655889D01*
X111879977Y-71760751D01*
X111877654Y-71765733D01*
X111877651Y-71765738D01*
X111829855Y-71868238D01*
X111783216Y-71968257D01*
X111781794Y-71973565D01*
X111781793Y-71973567D01*
X111780013Y-71980211D01*
X111723957Y-72189413D01*
X111704002Y-72417500D01*
X100738536Y-72417500D01*
X100738536Y-65400000D01*
X117986496Y-65400000D01*
X118006458Y-65589928D01*
X118065473Y-65771556D01*
X118068776Y-65777278D01*
X118068777Y-65777279D01*
X118073762Y-65785913D01*
X118160960Y-65936944D01*
X118165378Y-65941851D01*
X118165379Y-65941852D01*
X118180015Y-65958107D01*
X118288747Y-66078866D01*
X118443248Y-66191118D01*
X118449276Y-66193802D01*
X118449278Y-66193803D01*
X118539318Y-66233891D01*
X118617712Y-66268794D01*
X118711113Y-66288647D01*
X118798056Y-66307128D01*
X118798061Y-66307128D01*
X118804513Y-66308500D01*
X118995487Y-66308500D01*
X119001939Y-66307128D01*
X119001944Y-66307128D01*
X119088887Y-66288647D01*
X119182288Y-66268794D01*
X119260682Y-66233891D01*
X119350722Y-66193803D01*
X119350724Y-66193802D01*
X119356752Y-66191118D01*
X119511253Y-66078866D01*
X119619985Y-65958107D01*
X119634621Y-65941852D01*
X119634622Y-65941851D01*
X119639040Y-65936944D01*
X119726238Y-65785913D01*
X119731223Y-65777279D01*
X119731224Y-65777278D01*
X119734527Y-65771556D01*
X119793542Y-65589928D01*
X119813504Y-65400000D01*
X119812814Y-65393435D01*
X119794232Y-65216635D01*
X119794232Y-65216633D01*
X119793542Y-65210072D01*
X119734527Y-65028444D01*
X119675381Y-64926000D01*
X119658500Y-64863001D01*
X119658500Y-63458594D01*
X119678502Y-63390473D01*
X119732158Y-63343980D01*
X119802432Y-63333876D01*
X119867012Y-63363370D01*
X119873595Y-63369499D01*
X137990031Y-81485935D01*
X138024057Y-81548247D01*
X138018992Y-81619062D01*
X137976445Y-81675898D01*
X137933548Y-81696737D01*
X137750757Y-81745716D01*
X137745776Y-81748039D01*
X137745775Y-81748039D01*
X137548238Y-81840151D01*
X137548233Y-81840154D01*
X137543251Y-81842477D01*
X137461778Y-81899525D01*
X137360211Y-81970643D01*
X137360208Y-81970645D01*
X137355700Y-81973802D01*
X137193802Y-82135700D01*
X137190645Y-82140208D01*
X137190643Y-82140211D01*
X137137299Y-82216394D01*
X137062477Y-82323251D01*
X137060154Y-82328233D01*
X137060151Y-82328238D01*
X137002481Y-82451913D01*
X136965716Y-82530757D01*
X136964294Y-82536065D01*
X136964293Y-82536067D01*
X136907881Y-82746598D01*
X136906457Y-82751913D01*
X136886502Y-82980000D01*
X136906457Y-83208087D01*
X136907881Y-83213400D01*
X136907881Y-83213402D01*
X136963722Y-83421800D01*
X136965716Y-83429243D01*
X136968039Y-83434224D01*
X136968039Y-83434225D01*
X137060151Y-83631762D01*
X137060154Y-83631767D01*
X137062477Y-83636749D01*
X137106105Y-83699056D01*
X137189057Y-83817523D01*
X137193802Y-83824300D01*
X137355700Y-83986198D01*
X137360208Y-83989355D01*
X137360211Y-83989357D01*
X137365441Y-83993019D01*
X137543251Y-84117523D01*
X137548233Y-84119846D01*
X137548238Y-84119849D01*
X137745775Y-84211961D01*
X137750757Y-84214284D01*
X137756065Y-84215706D01*
X137756067Y-84215707D01*
X137966598Y-84272119D01*
X137966600Y-84272119D01*
X137971913Y-84273543D01*
X138200000Y-84293498D01*
X138428087Y-84273543D01*
X138433400Y-84272119D01*
X138433402Y-84272119D01*
X138643933Y-84215707D01*
X138643935Y-84215706D01*
X138649243Y-84214284D01*
X138654225Y-84211961D01*
X138851762Y-84119849D01*
X138851767Y-84119846D01*
X138856749Y-84117523D01*
X139034559Y-83993019D01*
X139039789Y-83989357D01*
X139039792Y-83989355D01*
X139044300Y-83986198D01*
X139206198Y-83824300D01*
X139210944Y-83817523D01*
X139293895Y-83699056D01*
X139337523Y-83636749D01*
X139339846Y-83631767D01*
X139339849Y-83631762D01*
X139431961Y-83434225D01*
X139431961Y-83434224D01*
X139434284Y-83429243D01*
X139442236Y-83399565D01*
X139483263Y-83246453D01*
X139520215Y-83185831D01*
X139584076Y-83154809D01*
X139654570Y-83163238D01*
X139694065Y-83189970D01*
X139829595Y-83325500D01*
X139863621Y-83387812D01*
X139866500Y-83414595D01*
X139866500Y-86610710D01*
X139846498Y-86678831D01*
X139829595Y-86699806D01*
X139444865Y-87084535D01*
X139107742Y-87421658D01*
X139099463Y-87429192D01*
X139092982Y-87433305D01*
X139046357Y-87482956D01*
X139043602Y-87485798D01*
X139023865Y-87505535D01*
X139021385Y-87508732D01*
X139013682Y-87517752D01*
X138983414Y-87549984D01*
X138979595Y-87556930D01*
X138979593Y-87556933D01*
X138973652Y-87567739D01*
X138962801Y-87584258D01*
X138950386Y-87600264D01*
X138947241Y-87607533D01*
X138947238Y-87607537D01*
X138932826Y-87640842D01*
X138927609Y-87651492D01*
X138906305Y-87690245D01*
X138904334Y-87697920D01*
X138904334Y-87697921D01*
X138901267Y-87709867D01*
X138894863Y-87728571D01*
X138886819Y-87747160D01*
X138885580Y-87754983D01*
X138885577Y-87754993D01*
X138879901Y-87790829D01*
X138877495Y-87802449D01*
X138866500Y-87845275D01*
X138866500Y-87865529D01*
X138864949Y-87885239D01*
X138861780Y-87905248D01*
X138862526Y-87913140D01*
X138865941Y-87949266D01*
X138866500Y-87961124D01*
X138866500Y-94897476D01*
X138846498Y-94965597D01*
X138834142Y-94981779D01*
X138760960Y-95063056D01*
X138665473Y-95228444D01*
X138606458Y-95410072D01*
X138605768Y-95416633D01*
X138605768Y-95416635D01*
X138590146Y-95565271D01*
X138586496Y-95600000D01*
X138606458Y-95789928D01*
X138665473Y-95971556D01*
X138668776Y-95977278D01*
X138668777Y-95977279D01*
X138681895Y-96000000D01*
X138760960Y-96136944D01*
X138765378Y-96141851D01*
X138765379Y-96141852D01*
X138883041Y-96272529D01*
X138888747Y-96278866D01*
X138941579Y-96317251D01*
X139006824Y-96364654D01*
X139043248Y-96391118D01*
X139049276Y-96393802D01*
X139049278Y-96393803D01*
X139204824Y-96463056D01*
X139217712Y-96468794D01*
X139311113Y-96488647D01*
X139398056Y-96507128D01*
X139398061Y-96507128D01*
X139404513Y-96508500D01*
X139595487Y-96508500D01*
X139601939Y-96507128D01*
X139601944Y-96507128D01*
X139688887Y-96488647D01*
X139782288Y-96468794D01*
X139795176Y-96463056D01*
X139950722Y-96393803D01*
X139950724Y-96393802D01*
X139956752Y-96391118D01*
X139993177Y-96364654D01*
X140058421Y-96317251D01*
X140111253Y-96278866D01*
X140116959Y-96272529D01*
X140234621Y-96141852D01*
X140234622Y-96141851D01*
X140239040Y-96136944D01*
X140318105Y-96000000D01*
X140331223Y-95977279D01*
X140331224Y-95977278D01*
X140334527Y-95971556D01*
X140393542Y-95789928D01*
X140413504Y-95600000D01*
X140409854Y-95565271D01*
X140394232Y-95416635D01*
X140394232Y-95416633D01*
X140393542Y-95410072D01*
X140334527Y-95228444D01*
X140239040Y-95063056D01*
X140165863Y-94981785D01*
X140135147Y-94917779D01*
X140133500Y-94897476D01*
X140133500Y-89200000D01*
X140586496Y-89200000D01*
X140587186Y-89206565D01*
X140603566Y-89362409D01*
X140606458Y-89389928D01*
X140665473Y-89571556D01*
X140760960Y-89736944D01*
X140888747Y-89878866D01*
X141043248Y-89991118D01*
X141049276Y-89993802D01*
X141049278Y-89993803D01*
X141176616Y-90050497D01*
X141217712Y-90068794D01*
X141311112Y-90088647D01*
X141398056Y-90107128D01*
X141398061Y-90107128D01*
X141404513Y-90108500D01*
X141595487Y-90108500D01*
X141601939Y-90107128D01*
X141601944Y-90107128D01*
X141688887Y-90088647D01*
X141782288Y-90068794D01*
X141823384Y-90050497D01*
X141950722Y-89993803D01*
X141950724Y-89993802D01*
X141956752Y-89991118D01*
X142111253Y-89878866D01*
X142115668Y-89873963D01*
X142120580Y-89869540D01*
X142121705Y-89870789D01*
X142175014Y-89837949D01*
X142208200Y-89833500D01*
X147291800Y-89833500D01*
X147359921Y-89853502D01*
X147379147Y-89869843D01*
X147379420Y-89869540D01*
X147384332Y-89873963D01*
X147388747Y-89878866D01*
X147543248Y-89991118D01*
X147549276Y-89993802D01*
X147549278Y-89993803D01*
X147676616Y-90050497D01*
X147717712Y-90068794D01*
X147811112Y-90088647D01*
X147898056Y-90107128D01*
X147898061Y-90107128D01*
X147904513Y-90108500D01*
X148095487Y-90108500D01*
X148101939Y-90107128D01*
X148101944Y-90107128D01*
X148188887Y-90088647D01*
X148282288Y-90068794D01*
X148323384Y-90050497D01*
X148450722Y-89993803D01*
X148450724Y-89993802D01*
X148456752Y-89991118D01*
X148611253Y-89878866D01*
X148739040Y-89736944D01*
X148834527Y-89571556D01*
X148893542Y-89389928D01*
X148896435Y-89362409D01*
X148912814Y-89206565D01*
X148913504Y-89200000D01*
X148905382Y-89122721D01*
X148894232Y-89016635D01*
X148894232Y-89016633D01*
X148893542Y-89010072D01*
X148834527Y-88828444D01*
X148739040Y-88663056D01*
X148701817Y-88621715D01*
X148615675Y-88526045D01*
X148615674Y-88526044D01*
X148611253Y-88521134D01*
X148490356Y-88433297D01*
X148462094Y-88412763D01*
X148462093Y-88412762D01*
X148456752Y-88408882D01*
X148450724Y-88406198D01*
X148450722Y-88406197D01*
X148288319Y-88333891D01*
X148288318Y-88333891D01*
X148282288Y-88331206D01*
X148188887Y-88311353D01*
X148101944Y-88292872D01*
X148101939Y-88292872D01*
X148095487Y-88291500D01*
X147904513Y-88291500D01*
X147898061Y-88292872D01*
X147898056Y-88292872D01*
X147811112Y-88311353D01*
X147717712Y-88331206D01*
X147711682Y-88333891D01*
X147711681Y-88333891D01*
X147549278Y-88406197D01*
X147549276Y-88406198D01*
X147543248Y-88408882D01*
X147537907Y-88412762D01*
X147537906Y-88412763D01*
X147509644Y-88433297D01*
X147388747Y-88521134D01*
X147384332Y-88526037D01*
X147379420Y-88530460D01*
X147378295Y-88529211D01*
X147324986Y-88562051D01*
X147291800Y-88566500D01*
X142208200Y-88566500D01*
X142140079Y-88546498D01*
X142120853Y-88530157D01*
X142120580Y-88530460D01*
X142115668Y-88526037D01*
X142111253Y-88521134D01*
X141990356Y-88433297D01*
X141962094Y-88412763D01*
X141962093Y-88412762D01*
X141956752Y-88408882D01*
X141950724Y-88406198D01*
X141950722Y-88406197D01*
X141788319Y-88333891D01*
X141788318Y-88333891D01*
X141782288Y-88331206D01*
X141688887Y-88311353D01*
X141601944Y-88292872D01*
X141601939Y-88292872D01*
X141595487Y-88291500D01*
X141404513Y-88291500D01*
X141398061Y-88292872D01*
X141398056Y-88292872D01*
X141311112Y-88311353D01*
X141217712Y-88331206D01*
X141211682Y-88333891D01*
X141211681Y-88333891D01*
X141049278Y-88406197D01*
X141049276Y-88406198D01*
X141043248Y-88408882D01*
X141037907Y-88412762D01*
X141037906Y-88412763D01*
X141009644Y-88433297D01*
X140888747Y-88521134D01*
X140884326Y-88526044D01*
X140884325Y-88526045D01*
X140798184Y-88621715D01*
X140760960Y-88663056D01*
X140665473Y-88828444D01*
X140606458Y-89010072D01*
X140605768Y-89016633D01*
X140605768Y-89016635D01*
X140594618Y-89122721D01*
X140586496Y-89200000D01*
X140133500Y-89200000D01*
X140133500Y-88239899D01*
X140153502Y-88171778D01*
X140170405Y-88150804D01*
X140892247Y-87428962D01*
X140900537Y-87421418D01*
X140907018Y-87417305D01*
X140953659Y-87367637D01*
X140956413Y-87364796D01*
X140976135Y-87345074D01*
X140978612Y-87341881D01*
X140986317Y-87332860D01*
X141011159Y-87306405D01*
X141016586Y-87300626D01*
X141020407Y-87293676D01*
X141026346Y-87282873D01*
X141037202Y-87266346D01*
X141044757Y-87256607D01*
X141044758Y-87256605D01*
X141049614Y-87250345D01*
X141067174Y-87209765D01*
X141072391Y-87199117D01*
X141089875Y-87167314D01*
X141089876Y-87167312D01*
X141093695Y-87160365D01*
X141098733Y-87140742D01*
X141105137Y-87122039D01*
X141110033Y-87110725D01*
X141110033Y-87110724D01*
X141113181Y-87103450D01*
X141114420Y-87095627D01*
X141114423Y-87095617D01*
X141120099Y-87059781D01*
X141122505Y-87048161D01*
X141131528Y-87013016D01*
X141131528Y-87013015D01*
X141133500Y-87005335D01*
X141133500Y-86985081D01*
X141135051Y-86965370D01*
X141135836Y-86960417D01*
X141138220Y-86945362D01*
X141134059Y-86901343D01*
X141133500Y-86889486D01*
X141133500Y-83178764D01*
X141134027Y-83167580D01*
X141135701Y-83160092D01*
X141133562Y-83092033D01*
X141133500Y-83088076D01*
X141133500Y-83060145D01*
X141132994Y-83056139D01*
X141132061Y-83044293D01*
X141131668Y-83031765D01*
X141130673Y-83000111D01*
X141125022Y-82980659D01*
X141121014Y-82961307D01*
X141119467Y-82949064D01*
X141118474Y-82941204D01*
X141107467Y-82913402D01*
X141102200Y-82900098D01*
X141098355Y-82888871D01*
X141093671Y-82872749D01*
X141086018Y-82846408D01*
X141081984Y-82839586D01*
X141081981Y-82839580D01*
X141075706Y-82828969D01*
X141067010Y-82811219D01*
X141062472Y-82799757D01*
X141062469Y-82799752D01*
X141059552Y-82792384D01*
X141033573Y-82756626D01*
X141027057Y-82746708D01*
X141011814Y-82720935D01*
X141004542Y-82708638D01*
X140990218Y-82694314D01*
X140977376Y-82679279D01*
X140973922Y-82674525D01*
X140965472Y-82662894D01*
X140931406Y-82634712D01*
X140922627Y-82626723D01*
X140900904Y-82605000D01*
X144136693Y-82605000D01*
X144155885Y-82824371D01*
X144212880Y-83037076D01*
X144239144Y-83093399D01*
X144303618Y-83231666D01*
X144303621Y-83231671D01*
X144305944Y-83236653D01*
X144309100Y-83241160D01*
X144309101Y-83241162D01*
X144421387Y-83401522D01*
X144432251Y-83417038D01*
X144587962Y-83572749D01*
X144592471Y-83575906D01*
X144592473Y-83575908D01*
X144608110Y-83586857D01*
X144768346Y-83699056D01*
X144967924Y-83792120D01*
X145180629Y-83849115D01*
X145400000Y-83868307D01*
X145619371Y-83849115D01*
X145832076Y-83792120D01*
X146031654Y-83699056D01*
X146191890Y-83586857D01*
X146207527Y-83575908D01*
X146207529Y-83575906D01*
X146212038Y-83572749D01*
X146367749Y-83417038D01*
X146378614Y-83401522D01*
X146490899Y-83241162D01*
X146490900Y-83241160D01*
X146494056Y-83236653D01*
X146496379Y-83231671D01*
X146496382Y-83231666D01*
X146560856Y-83093399D01*
X146587120Y-83037076D01*
X146602414Y-82980000D01*
X148586502Y-82980000D01*
X148606457Y-83208087D01*
X148607881Y-83213400D01*
X148607881Y-83213402D01*
X148663722Y-83421800D01*
X148665716Y-83429243D01*
X148668039Y-83434224D01*
X148668039Y-83434225D01*
X148760151Y-83631762D01*
X148760154Y-83631767D01*
X148762477Y-83636749D01*
X148806105Y-83699056D01*
X148889057Y-83817523D01*
X148893802Y-83824300D01*
X149055700Y-83986198D01*
X149060208Y-83989355D01*
X149060211Y-83989357D01*
X149065441Y-83993019D01*
X149243251Y-84117523D01*
X149248233Y-84119846D01*
X149248238Y-84119849D01*
X149445775Y-84211961D01*
X149450757Y-84214284D01*
X149456065Y-84215706D01*
X149456067Y-84215707D01*
X149666598Y-84272119D01*
X149666600Y-84272119D01*
X149671913Y-84273543D01*
X149900000Y-84293498D01*
X150128087Y-84273543D01*
X150133400Y-84272119D01*
X150133402Y-84272119D01*
X150343933Y-84215707D01*
X150343935Y-84215706D01*
X150349243Y-84214284D01*
X150354225Y-84211961D01*
X150551762Y-84119849D01*
X150551767Y-84119846D01*
X150556749Y-84117523D01*
X150734559Y-83993019D01*
X150739789Y-83989357D01*
X150739792Y-83989355D01*
X150744300Y-83986198D01*
X150906198Y-83824300D01*
X150910944Y-83817523D01*
X150993895Y-83699056D01*
X151037523Y-83636749D01*
X151039846Y-83631767D01*
X151039849Y-83631762D01*
X151131961Y-83434225D01*
X151131961Y-83434224D01*
X151134284Y-83429243D01*
X151136279Y-83421800D01*
X151192119Y-83213402D01*
X151192119Y-83213400D01*
X151193543Y-83208087D01*
X151213498Y-82980000D01*
X151193543Y-82751913D01*
X151192119Y-82746598D01*
X151135707Y-82536067D01*
X151135706Y-82536065D01*
X151134284Y-82530757D01*
X151097519Y-82451913D01*
X151039849Y-82328238D01*
X151039846Y-82328233D01*
X151037523Y-82323251D01*
X150962701Y-82216394D01*
X150909357Y-82140211D01*
X150909355Y-82140208D01*
X150906198Y-82135700D01*
X150744300Y-81973802D01*
X150739792Y-81970645D01*
X150739789Y-81970643D01*
X150638222Y-81899525D01*
X150556749Y-81842477D01*
X150551767Y-81840154D01*
X150551762Y-81840151D01*
X150354225Y-81748039D01*
X150354224Y-81748039D01*
X150349243Y-81745716D01*
X150343935Y-81744294D01*
X150343933Y-81744293D01*
X150133402Y-81687881D01*
X150133400Y-81687881D01*
X150128087Y-81686457D01*
X149900000Y-81666502D01*
X149671913Y-81686457D01*
X149666600Y-81687881D01*
X149666598Y-81687881D01*
X149456067Y-81744293D01*
X149456065Y-81744294D01*
X149450757Y-81745716D01*
X149445776Y-81748039D01*
X149445775Y-81748039D01*
X149248238Y-81840151D01*
X149248233Y-81840154D01*
X149243251Y-81842477D01*
X149161778Y-81899525D01*
X149060211Y-81970643D01*
X149060208Y-81970645D01*
X149055700Y-81973802D01*
X148893802Y-82135700D01*
X148890645Y-82140208D01*
X148890643Y-82140211D01*
X148837299Y-82216394D01*
X148762477Y-82323251D01*
X148760154Y-82328233D01*
X148760151Y-82328238D01*
X148702481Y-82451913D01*
X148665716Y-82530757D01*
X148664294Y-82536065D01*
X148664293Y-82536067D01*
X148607881Y-82746598D01*
X148606457Y-82751913D01*
X148586502Y-82980000D01*
X146602414Y-82980000D01*
X146644115Y-82824371D01*
X146663307Y-82605000D01*
X146644115Y-82385629D01*
X146587120Y-82172924D01*
X146517327Y-82023251D01*
X146496382Y-81978334D01*
X146496379Y-81978329D01*
X146494056Y-81973347D01*
X146457228Y-81920751D01*
X146370908Y-81797473D01*
X146370906Y-81797470D01*
X146367749Y-81792962D01*
X146212038Y-81637251D01*
X146189027Y-81621138D01*
X146081196Y-81545634D01*
X146031654Y-81510944D01*
X145832076Y-81417880D01*
X145619371Y-81360885D01*
X145400000Y-81341693D01*
X145180629Y-81360885D01*
X144967924Y-81417880D01*
X144888039Y-81455131D01*
X144773334Y-81508618D01*
X144773329Y-81508621D01*
X144768347Y-81510944D01*
X144763840Y-81514100D01*
X144763838Y-81514101D01*
X144592473Y-81634092D01*
X144592470Y-81634094D01*
X144587962Y-81637251D01*
X144432251Y-81792962D01*
X144429094Y-81797470D01*
X144429092Y-81797473D01*
X144342772Y-81920751D01*
X144305944Y-81973347D01*
X144303621Y-81978329D01*
X144303618Y-81978334D01*
X144282673Y-82023251D01*
X144212880Y-82172924D01*
X144155885Y-82385629D01*
X144136693Y-82605000D01*
X140900904Y-82605000D01*
X134154499Y-75858595D01*
X134120473Y-75796283D01*
X134121413Y-75783134D01*
X144141500Y-75783134D01*
X144148255Y-75845316D01*
X144199385Y-75981705D01*
X144286739Y-76098261D01*
X144403295Y-76185615D01*
X144539684Y-76236745D01*
X144601866Y-76243500D01*
X146198134Y-76243500D01*
X146260316Y-76236745D01*
X146396705Y-76185615D01*
X146513261Y-76098261D01*
X146600615Y-75981705D01*
X146651745Y-75845316D01*
X146658500Y-75783134D01*
X146658500Y-74186866D01*
X146651745Y-74124684D01*
X146600615Y-73988295D01*
X146513261Y-73871739D01*
X146396705Y-73784385D01*
X146260316Y-73733255D01*
X146198134Y-73726500D01*
X144601866Y-73726500D01*
X144539684Y-73733255D01*
X144403295Y-73784385D01*
X144286739Y-73871739D01*
X144199385Y-73988295D01*
X144148255Y-74124684D01*
X144141500Y-74186866D01*
X144141500Y-75783134D01*
X134121413Y-75783134D01*
X134125538Y-75725468D01*
X134168085Y-75668632D01*
X134234605Y-75643821D01*
X134243594Y-75643500D01*
X134798134Y-75643500D01*
X134860316Y-75636745D01*
X134996705Y-75585615D01*
X135113261Y-75498261D01*
X135200615Y-75381705D01*
X135251745Y-75245316D01*
X135258500Y-75183134D01*
X135258500Y-73586866D01*
X135251745Y-73524684D01*
X135200615Y-73388295D01*
X135113261Y-73271739D01*
X134996705Y-73184385D01*
X134860316Y-73133255D01*
X134798134Y-73126500D01*
X133201866Y-73126500D01*
X133139684Y-73133255D01*
X133003295Y-73184385D01*
X132886739Y-73271739D01*
X132799385Y-73388295D01*
X132748255Y-73524684D01*
X132741500Y-73586866D01*
X132741500Y-74141406D01*
X132721498Y-74209527D01*
X132667842Y-74256020D01*
X132597568Y-74266124D01*
X132532988Y-74236630D01*
X132526405Y-74230501D01*
X131115904Y-72820000D01*
X136886502Y-72820000D01*
X136906457Y-73048087D01*
X136907881Y-73053400D01*
X136907881Y-73053402D01*
X136963722Y-73261800D01*
X136965716Y-73269243D01*
X136968039Y-73274224D01*
X136968039Y-73274225D01*
X137060151Y-73471762D01*
X137060154Y-73471767D01*
X137062477Y-73476749D01*
X137105498Y-73538189D01*
X137189057Y-73657523D01*
X137193802Y-73664300D01*
X137355700Y-73826198D01*
X137360208Y-73829355D01*
X137360211Y-73829357D01*
X137365441Y-73833019D01*
X137543251Y-73957523D01*
X137548233Y-73959846D01*
X137548238Y-73959849D01*
X137627273Y-73996703D01*
X137750757Y-74054284D01*
X137756065Y-74055706D01*
X137756067Y-74055707D01*
X137966598Y-74112119D01*
X137966600Y-74112119D01*
X137971913Y-74113543D01*
X138200000Y-74133498D01*
X138428087Y-74113543D01*
X138433400Y-74112119D01*
X138433402Y-74112119D01*
X138643933Y-74055707D01*
X138643935Y-74055706D01*
X138649243Y-74054284D01*
X138772727Y-73996703D01*
X138851762Y-73959849D01*
X138851767Y-73959846D01*
X138856749Y-73957523D01*
X139034559Y-73833019D01*
X139039789Y-73829357D01*
X139039792Y-73829355D01*
X139044300Y-73826198D01*
X139206198Y-73664300D01*
X139210944Y-73657523D01*
X139294502Y-73538189D01*
X139337523Y-73476749D01*
X139339846Y-73471767D01*
X139339849Y-73471762D01*
X139431961Y-73274225D01*
X139431961Y-73274224D01*
X139434284Y-73269243D01*
X139436279Y-73261800D01*
X139492119Y-73053402D01*
X139492119Y-73053400D01*
X139493543Y-73048087D01*
X139513498Y-72820000D01*
X148586502Y-72820000D01*
X148606457Y-73048087D01*
X148607881Y-73053400D01*
X148607881Y-73053402D01*
X148663722Y-73261800D01*
X148665716Y-73269243D01*
X148668039Y-73274224D01*
X148668039Y-73274225D01*
X148760151Y-73471762D01*
X148760154Y-73471767D01*
X148762477Y-73476749D01*
X148805498Y-73538189D01*
X148889057Y-73657523D01*
X148893802Y-73664300D01*
X149055700Y-73826198D01*
X149060208Y-73829355D01*
X149060211Y-73829357D01*
X149065441Y-73833019D01*
X149243251Y-73957523D01*
X149248233Y-73959846D01*
X149248238Y-73959849D01*
X149327273Y-73996703D01*
X149450757Y-74054284D01*
X149456065Y-74055706D01*
X149456067Y-74055707D01*
X149666598Y-74112119D01*
X149666600Y-74112119D01*
X149671913Y-74113543D01*
X149900000Y-74133498D01*
X149905475Y-74133019D01*
X150062913Y-74119245D01*
X150132518Y-74133234D01*
X150162990Y-74155671D01*
X152204595Y-76197276D01*
X152238621Y-76259588D01*
X152241500Y-76286371D01*
X152241500Y-96363001D01*
X152224619Y-96426000D01*
X152165473Y-96528444D01*
X152106458Y-96710072D01*
X152105768Y-96716633D01*
X152105768Y-96716635D01*
X152095948Y-96810072D01*
X152086496Y-96900000D01*
X152106458Y-97089928D01*
X152165473Y-97271556D01*
X152260960Y-97436944D01*
X152265378Y-97441851D01*
X152265379Y-97441852D01*
X152373983Y-97562469D01*
X152388747Y-97578866D01*
X152487843Y-97650864D01*
X152531724Y-97682745D01*
X152543248Y-97691118D01*
X152549276Y-97693802D01*
X152549278Y-97693803D01*
X152711681Y-97766109D01*
X152717712Y-97768794D01*
X152804479Y-97787237D01*
X152898056Y-97807128D01*
X152898061Y-97807128D01*
X152904513Y-97808500D01*
X153095487Y-97808500D01*
X153101939Y-97807128D01*
X153101944Y-97807128D01*
X153195521Y-97787237D01*
X153282288Y-97768794D01*
X153288319Y-97766109D01*
X153450722Y-97693803D01*
X153450724Y-97693802D01*
X153456752Y-97691118D01*
X153468277Y-97682745D01*
X153512157Y-97650864D01*
X153611253Y-97578866D01*
X153626017Y-97562469D01*
X153734621Y-97441852D01*
X153734622Y-97441851D01*
X153739040Y-97436944D01*
X153834527Y-97271556D01*
X153893542Y-97089928D01*
X153913504Y-96900000D01*
X153904052Y-96810072D01*
X153894232Y-96716635D01*
X153894232Y-96716633D01*
X153893542Y-96710072D01*
X153834527Y-96528444D01*
X153775381Y-96426000D01*
X153758500Y-96363001D01*
X153758500Y-90055151D01*
X157487296Y-90055151D01*
X157487520Y-90059817D01*
X157487520Y-90059822D01*
X157491273Y-90137949D01*
X157499480Y-90308798D01*
X157513930Y-90381442D01*
X157543756Y-90531387D01*
X157549021Y-90557857D01*
X157550600Y-90562255D01*
X157550602Y-90562262D01*
X157631719Y-90788190D01*
X157634831Y-90796858D01*
X157755025Y-91020551D01*
X157757820Y-91024294D01*
X157757822Y-91024297D01*
X157904171Y-91220282D01*
X157904176Y-91220288D01*
X157906963Y-91224020D01*
X157910272Y-91227300D01*
X157910277Y-91227306D01*
X158008859Y-91325031D01*
X158087307Y-91402797D01*
X158091069Y-91405555D01*
X158091072Y-91405558D01*
X158140571Y-91441852D01*
X158292094Y-91552953D01*
X158296229Y-91555129D01*
X158296233Y-91555131D01*
X158414289Y-91617243D01*
X158516827Y-91671191D01*
X158756568Y-91754912D01*
X159006050Y-91802278D01*
X159126532Y-91807011D01*
X159255125Y-91812064D01*
X159255130Y-91812064D01*
X159259793Y-91812247D01*
X159358774Y-91801407D01*
X159507569Y-91785112D01*
X159507575Y-91785111D01*
X159512222Y-91784602D01*
X159567054Y-91770166D01*
X159753273Y-91721138D01*
X159757793Y-91719948D01*
X159876353Y-91669011D01*
X159986807Y-91621557D01*
X159986810Y-91621555D01*
X159991110Y-91619708D01*
X159995090Y-91617245D01*
X159995094Y-91617243D01*
X160203064Y-91488547D01*
X160203066Y-91488545D01*
X160207047Y-91486082D01*
X160259294Y-91441852D01*
X160397289Y-91325031D01*
X160397291Y-91325029D01*
X160400862Y-91322006D01*
X160568295Y-91131084D01*
X160590730Y-91096206D01*
X160703141Y-90921442D01*
X160705669Y-90917512D01*
X160809967Y-90685980D01*
X160878896Y-90441575D01*
X160889115Y-90361252D01*
X160910545Y-90192798D01*
X160910545Y-90192792D01*
X160910943Y-90189667D01*
X160911125Y-90182745D01*
X160913208Y-90103160D01*
X160913291Y-90100000D01*
X160910924Y-90068145D01*
X160894818Y-89851411D01*
X160894817Y-89851407D01*
X160894472Y-89846759D01*
X160892479Y-89837949D01*
X160839459Y-89603639D01*
X160838428Y-89599082D01*
X160757093Y-89389928D01*
X160748084Y-89366762D01*
X160748083Y-89366760D01*
X160746391Y-89362409D01*
X160725866Y-89326498D01*
X160622702Y-89145997D01*
X160622700Y-89145995D01*
X160620383Y-89141940D01*
X160463171Y-88942517D01*
X160361099Y-88846498D01*
X160281610Y-88771722D01*
X160281608Y-88771720D01*
X160278209Y-88768523D01*
X160119104Y-88658148D01*
X160073393Y-88626437D01*
X160073390Y-88626435D01*
X160069561Y-88623779D01*
X160065384Y-88621719D01*
X160065377Y-88621715D01*
X159845996Y-88513528D01*
X159845992Y-88513527D01*
X159841810Y-88511464D01*
X159599960Y-88434047D01*
X159595355Y-88433297D01*
X159353935Y-88393980D01*
X159353934Y-88393980D01*
X159349323Y-88393229D01*
X159222364Y-88391567D01*
X159100083Y-88389966D01*
X159100080Y-88389966D01*
X159095406Y-88389905D01*
X158843787Y-88424149D01*
X158599993Y-88495208D01*
X158369380Y-88601522D01*
X158365471Y-88604085D01*
X158160928Y-88738189D01*
X158160923Y-88738193D01*
X158157015Y-88740755D01*
X158094043Y-88796960D01*
X157971532Y-88906305D01*
X157967562Y-88909848D01*
X157805183Y-89105087D01*
X157673447Y-89322182D01*
X157671638Y-89326496D01*
X157671637Y-89326498D01*
X157596129Y-89506565D01*
X157575246Y-89556365D01*
X157574095Y-89560897D01*
X157574094Y-89560900D01*
X157565503Y-89594728D01*
X157512738Y-89802490D01*
X157487296Y-90055151D01*
X153758500Y-90055151D01*
X153758500Y-84855151D01*
X157387296Y-84855151D01*
X157399480Y-85108798D01*
X157449021Y-85357857D01*
X157450600Y-85362255D01*
X157450602Y-85362262D01*
X157533248Y-85592449D01*
X157534831Y-85596858D01*
X157655025Y-85820551D01*
X157657820Y-85824294D01*
X157657822Y-85824297D01*
X157804171Y-86020282D01*
X157804176Y-86020288D01*
X157806963Y-86024020D01*
X157810272Y-86027300D01*
X157810277Y-86027306D01*
X157983990Y-86199509D01*
X157987307Y-86202797D01*
X157991069Y-86205555D01*
X157991072Y-86205558D01*
X158188323Y-86350188D01*
X158192094Y-86352953D01*
X158196229Y-86355129D01*
X158196233Y-86355131D01*
X158314289Y-86417243D01*
X158416827Y-86471191D01*
X158656568Y-86554912D01*
X158906050Y-86602278D01*
X159026532Y-86607011D01*
X159155125Y-86612064D01*
X159155130Y-86612064D01*
X159159793Y-86612247D01*
X159258774Y-86601407D01*
X159407569Y-86585112D01*
X159407575Y-86585111D01*
X159412222Y-86584602D01*
X159521680Y-86555784D01*
X159653273Y-86521138D01*
X159657793Y-86519948D01*
X159849477Y-86437595D01*
X159886807Y-86421557D01*
X159886810Y-86421555D01*
X159891110Y-86419708D01*
X159895090Y-86417245D01*
X159895094Y-86417243D01*
X160103064Y-86288547D01*
X160103066Y-86288545D01*
X160107047Y-86286082D01*
X160205428Y-86202797D01*
X160297289Y-86125031D01*
X160297291Y-86125029D01*
X160300862Y-86122006D01*
X160468295Y-85931084D01*
X160605669Y-85717512D01*
X160709967Y-85485980D01*
X160778896Y-85241575D01*
X160796382Y-85104126D01*
X160810545Y-84992798D01*
X160810545Y-84992792D01*
X160810943Y-84989667D01*
X160813291Y-84900000D01*
X160794472Y-84646759D01*
X160738428Y-84399082D01*
X160697369Y-84293498D01*
X160648084Y-84166762D01*
X160648083Y-84166760D01*
X160646391Y-84162409D01*
X160625866Y-84126498D01*
X160522702Y-83945997D01*
X160522700Y-83945995D01*
X160520383Y-83941940D01*
X160363171Y-83742517D01*
X160186060Y-83575908D01*
X160181610Y-83571722D01*
X160181608Y-83571720D01*
X160178209Y-83568523D01*
X159984619Y-83434225D01*
X159973393Y-83426437D01*
X159973390Y-83426435D01*
X159969561Y-83423779D01*
X159965384Y-83421719D01*
X159965377Y-83421715D01*
X159745996Y-83313528D01*
X159745992Y-83313527D01*
X159741810Y-83311464D01*
X159499960Y-83234047D01*
X159485340Y-83231666D01*
X159253935Y-83193980D01*
X159253934Y-83193980D01*
X159249323Y-83193229D01*
X159122365Y-83191567D01*
X159000083Y-83189966D01*
X159000080Y-83189966D01*
X158995406Y-83189905D01*
X158743787Y-83224149D01*
X158499993Y-83295208D01*
X158269380Y-83401522D01*
X158239770Y-83420935D01*
X158060928Y-83538189D01*
X158060923Y-83538193D01*
X158057015Y-83540755D01*
X158005362Y-83586857D01*
X157883191Y-83695899D01*
X157867562Y-83709848D01*
X157705183Y-83905087D01*
X157573447Y-84122182D01*
X157571638Y-84126496D01*
X157571637Y-84126498D01*
X157534229Y-84215707D01*
X157475246Y-84356365D01*
X157412738Y-84602490D01*
X157387296Y-84855151D01*
X153758500Y-84855151D01*
X153758500Y-79955151D01*
X157387296Y-79955151D01*
X157399480Y-80208798D01*
X157449021Y-80457857D01*
X157450600Y-80462255D01*
X157450602Y-80462262D01*
X157495022Y-80585980D01*
X157534831Y-80696858D01*
X157537048Y-80700984D01*
X157648614Y-80908619D01*
X157655025Y-80920551D01*
X157657820Y-80924294D01*
X157657822Y-80924297D01*
X157804171Y-81120282D01*
X157804176Y-81120288D01*
X157806963Y-81124020D01*
X157810272Y-81127300D01*
X157810277Y-81127306D01*
X157968302Y-81283957D01*
X157987307Y-81302797D01*
X157991069Y-81305555D01*
X157991072Y-81305558D01*
X158100893Y-81386082D01*
X158192094Y-81452953D01*
X158196229Y-81455129D01*
X158196233Y-81455131D01*
X158308317Y-81514101D01*
X158416827Y-81571191D01*
X158656568Y-81654912D01*
X158906050Y-81702278D01*
X159026532Y-81707011D01*
X159155125Y-81712064D01*
X159155130Y-81712064D01*
X159159793Y-81712247D01*
X159258774Y-81701407D01*
X159407569Y-81685112D01*
X159407575Y-81685111D01*
X159412222Y-81684602D01*
X159521680Y-81655784D01*
X159653273Y-81621138D01*
X159657793Y-81619948D01*
X159830765Y-81545634D01*
X159886807Y-81521557D01*
X159886810Y-81521555D01*
X159891110Y-81519708D01*
X159895090Y-81517245D01*
X159895094Y-81517243D01*
X160103064Y-81388547D01*
X160103066Y-81388545D01*
X160107047Y-81386082D01*
X160110624Y-81383054D01*
X160297289Y-81225031D01*
X160297291Y-81225029D01*
X160300862Y-81222006D01*
X160468295Y-81031084D01*
X160493620Y-80991713D01*
X160603141Y-80821442D01*
X160605669Y-80817512D01*
X160709967Y-80585980D01*
X160778896Y-80341575D01*
X160810943Y-80089667D01*
X160813291Y-80000000D01*
X160794472Y-79746759D01*
X160738428Y-79499082D01*
X160646391Y-79262409D01*
X160625866Y-79226498D01*
X160522702Y-79045997D01*
X160522700Y-79045995D01*
X160520383Y-79041940D01*
X160363171Y-78842517D01*
X160178209Y-78668523D01*
X160134483Y-78638189D01*
X159973393Y-78526437D01*
X159973390Y-78526435D01*
X159969561Y-78523779D01*
X159965384Y-78521719D01*
X159965377Y-78521715D01*
X159745996Y-78413528D01*
X159745992Y-78413527D01*
X159741810Y-78411464D01*
X159499960Y-78334047D01*
X159495355Y-78333297D01*
X159253935Y-78293980D01*
X159253934Y-78293980D01*
X159249323Y-78293229D01*
X159122364Y-78291567D01*
X159000083Y-78289966D01*
X159000080Y-78289966D01*
X158995406Y-78289905D01*
X158743787Y-78324149D01*
X158499993Y-78395208D01*
X158269380Y-78501522D01*
X158265471Y-78504085D01*
X158060928Y-78638189D01*
X158060923Y-78638193D01*
X158057015Y-78640755D01*
X157867562Y-78809848D01*
X157705183Y-79005087D01*
X157573447Y-79222182D01*
X157475246Y-79456365D01*
X157412738Y-79702490D01*
X157387296Y-79955151D01*
X153758500Y-79955151D01*
X153758500Y-75987070D01*
X153759933Y-75968120D01*
X153762099Y-75953885D01*
X153762099Y-75953881D01*
X153763199Y-75946651D01*
X153761614Y-75927156D01*
X153758915Y-75893982D01*
X153758500Y-75883767D01*
X153758500Y-75875707D01*
X153755211Y-75847493D01*
X153754778Y-75843118D01*
X153749454Y-75777661D01*
X153749453Y-75777658D01*
X153748860Y-75770363D01*
X153746604Y-75763399D01*
X153745413Y-75757440D01*
X153744029Y-75751585D01*
X153743182Y-75744319D01*
X153718265Y-75675673D01*
X153716848Y-75671545D01*
X153696607Y-75609064D01*
X153696606Y-75609062D01*
X153694351Y-75602101D01*
X153690555Y-75595846D01*
X153688049Y-75590372D01*
X153685330Y-75584942D01*
X153682833Y-75578063D01*
X153678820Y-75571942D01*
X153642814Y-75517024D01*
X153640467Y-75513305D01*
X153602595Y-75450893D01*
X153595197Y-75442516D01*
X153595224Y-75442492D01*
X153592571Y-75439500D01*
X153589868Y-75436267D01*
X153585856Y-75430148D01*
X153529617Y-75376872D01*
X153527175Y-75374494D01*
X153007832Y-74855151D01*
X157387296Y-74855151D01*
X157399480Y-75108798D01*
X157414445Y-75184031D01*
X157425073Y-75237460D01*
X157449021Y-75357857D01*
X157450600Y-75362255D01*
X157450602Y-75362262D01*
X157525885Y-75571942D01*
X157534831Y-75596858D01*
X157655025Y-75820551D01*
X157657820Y-75824294D01*
X157657822Y-75824297D01*
X157804171Y-76020282D01*
X157804176Y-76020288D01*
X157806963Y-76024020D01*
X157810272Y-76027300D01*
X157810277Y-76027306D01*
X157983990Y-76199509D01*
X157987307Y-76202797D01*
X157991069Y-76205555D01*
X157991072Y-76205558D01*
X158104255Y-76288547D01*
X158192094Y-76352953D01*
X158196229Y-76355129D01*
X158196233Y-76355131D01*
X158314289Y-76417243D01*
X158416827Y-76471191D01*
X158656568Y-76554912D01*
X158906050Y-76602278D01*
X159026532Y-76607011D01*
X159155125Y-76612064D01*
X159155130Y-76612064D01*
X159159793Y-76612247D01*
X159258774Y-76601407D01*
X159407569Y-76585112D01*
X159407575Y-76585111D01*
X159412222Y-76584602D01*
X159521680Y-76555784D01*
X159653273Y-76521138D01*
X159657793Y-76519948D01*
X159776353Y-76469011D01*
X159886807Y-76421557D01*
X159886810Y-76421555D01*
X159891110Y-76419708D01*
X159895090Y-76417245D01*
X159895094Y-76417243D01*
X160103064Y-76288547D01*
X160103066Y-76288545D01*
X160107047Y-76286082D01*
X160164319Y-76237598D01*
X160297289Y-76125031D01*
X160297291Y-76125029D01*
X160300862Y-76122006D01*
X160468295Y-75931084D01*
X160495442Y-75888880D01*
X160592846Y-75737447D01*
X160605669Y-75717512D01*
X160709967Y-75485980D01*
X160778896Y-75241575D01*
X160798620Y-75086531D01*
X160810545Y-74992798D01*
X160810545Y-74992792D01*
X160810943Y-74989667D01*
X160813291Y-74900000D01*
X160794472Y-74646759D01*
X160738428Y-74399082D01*
X160646391Y-74162409D01*
X160625866Y-74126498D01*
X160522702Y-73945997D01*
X160522700Y-73945995D01*
X160520383Y-73941940D01*
X160363171Y-73742517D01*
X160268231Y-73653207D01*
X160181610Y-73571722D01*
X160181608Y-73571720D01*
X160178209Y-73568523D01*
X160111580Y-73522301D01*
X159973393Y-73426437D01*
X159973390Y-73426435D01*
X159969561Y-73423779D01*
X159965384Y-73421719D01*
X159965377Y-73421715D01*
X159745996Y-73313528D01*
X159745992Y-73313527D01*
X159741810Y-73311464D01*
X159499960Y-73234047D01*
X159495355Y-73233297D01*
X159253935Y-73193980D01*
X159253934Y-73193980D01*
X159249323Y-73193229D01*
X159122364Y-73191567D01*
X159000083Y-73189966D01*
X159000080Y-73189966D01*
X158995406Y-73189905D01*
X158743787Y-73224149D01*
X158499993Y-73295208D01*
X158269380Y-73401522D01*
X158241500Y-73419801D01*
X158060928Y-73538189D01*
X158060923Y-73538193D01*
X158057015Y-73540755D01*
X157867562Y-73709848D01*
X157705183Y-73905087D01*
X157573447Y-74122182D01*
X157571638Y-74126496D01*
X157571637Y-74126498D01*
X157568813Y-74133234D01*
X157475246Y-74356365D01*
X157412738Y-74602490D01*
X157387296Y-74855151D01*
X153007832Y-74855151D01*
X151235671Y-73082990D01*
X151201645Y-73020678D01*
X151199245Y-72982913D01*
X151213019Y-72825475D01*
X151213498Y-72820000D01*
X151193543Y-72591913D01*
X151134284Y-72370757D01*
X151097519Y-72291913D01*
X151039849Y-72168238D01*
X151039846Y-72168233D01*
X151037523Y-72163251D01*
X150906198Y-71975700D01*
X150744300Y-71813802D01*
X150739792Y-71810645D01*
X150739789Y-71810643D01*
X150661611Y-71755902D01*
X150556749Y-71682477D01*
X150551767Y-71680154D01*
X150551762Y-71680151D01*
X150354225Y-71588039D01*
X150354224Y-71588039D01*
X150349243Y-71585716D01*
X150343935Y-71584294D01*
X150343933Y-71584293D01*
X150133402Y-71527881D01*
X150133400Y-71527881D01*
X150128087Y-71526457D01*
X149900000Y-71506502D01*
X149671913Y-71526457D01*
X149666600Y-71527881D01*
X149666598Y-71527881D01*
X149456067Y-71584293D01*
X149456065Y-71584294D01*
X149450757Y-71585716D01*
X149445776Y-71588039D01*
X149445775Y-71588039D01*
X149248238Y-71680151D01*
X149248233Y-71680154D01*
X149243251Y-71682477D01*
X149138389Y-71755902D01*
X149060211Y-71810643D01*
X149060208Y-71810645D01*
X149055700Y-71813802D01*
X148893802Y-71975700D01*
X148762477Y-72163251D01*
X148760154Y-72168233D01*
X148760151Y-72168238D01*
X148702481Y-72291913D01*
X148665716Y-72370757D01*
X148606457Y-72591913D01*
X148586502Y-72820000D01*
X139513498Y-72820000D01*
X139493543Y-72591913D01*
X139434284Y-72370757D01*
X139397519Y-72291913D01*
X139339849Y-72168238D01*
X139339846Y-72168233D01*
X139337523Y-72163251D01*
X139206198Y-71975700D01*
X139044300Y-71813802D01*
X139039792Y-71810645D01*
X139039789Y-71810643D01*
X138961611Y-71755902D01*
X138856749Y-71682477D01*
X138851767Y-71680154D01*
X138851762Y-71680151D01*
X138654225Y-71588039D01*
X138654224Y-71588039D01*
X138649243Y-71585716D01*
X138643935Y-71584294D01*
X138643933Y-71584293D01*
X138433402Y-71527881D01*
X138433400Y-71527881D01*
X138428087Y-71526457D01*
X138200000Y-71506502D01*
X137971913Y-71526457D01*
X137966600Y-71527881D01*
X137966598Y-71527881D01*
X137756067Y-71584293D01*
X137756065Y-71584294D01*
X137750757Y-71585716D01*
X137745776Y-71588039D01*
X137745775Y-71588039D01*
X137548238Y-71680151D01*
X137548233Y-71680154D01*
X137543251Y-71682477D01*
X137438389Y-71755902D01*
X137360211Y-71810643D01*
X137360208Y-71810645D01*
X137355700Y-71813802D01*
X137193802Y-71975700D01*
X137062477Y-72163251D01*
X137060154Y-72168233D01*
X137060151Y-72168238D01*
X137002481Y-72291913D01*
X136965716Y-72370757D01*
X136906457Y-72591913D01*
X136886502Y-72820000D01*
X131115904Y-72820000D01*
X124054095Y-65758190D01*
X140842000Y-65758190D01*
X140842212Y-65763363D01*
X140856224Y-65933794D01*
X140857907Y-65943956D01*
X140913796Y-66166461D01*
X140917117Y-66176216D01*
X141008591Y-66386590D01*
X141013469Y-66395688D01*
X141138075Y-66588301D01*
X141144359Y-66596461D01*
X141298763Y-66766149D01*
X141306293Y-66773170D01*
X141486332Y-66915356D01*
X141494919Y-66921061D01*
X141695750Y-67031926D01*
X141705162Y-67036156D01*
X141921416Y-67112736D01*
X141931366Y-67115365D01*
X142028164Y-67132607D01*
X142041460Y-67131148D01*
X142045540Y-67118067D01*
X142554000Y-67118067D01*
X142557918Y-67131411D01*
X142572194Y-67133398D01*
X142633933Y-67123950D01*
X142643961Y-67121561D01*
X142862016Y-67050290D01*
X142871525Y-67046293D01*
X143075007Y-66940367D01*
X143083732Y-66934873D01*
X143267187Y-66797131D01*
X143274894Y-66790288D01*
X143433391Y-66624431D01*
X143439874Y-66616425D01*
X143569155Y-66426906D01*
X143574244Y-66417947D01*
X143670837Y-66209855D01*
X143674394Y-66200187D01*
X143735701Y-65979121D01*
X143737632Y-65969001D01*
X143757644Y-65781748D01*
X143758000Y-65775056D01*
X143758000Y-65172115D01*
X143753525Y-65156876D01*
X143752135Y-65155671D01*
X143744452Y-65154000D01*
X142572115Y-65154000D01*
X142556876Y-65158475D01*
X142555671Y-65159865D01*
X142554000Y-65167548D01*
X142554000Y-67118067D01*
X142045540Y-67118067D01*
X142046000Y-67116592D01*
X142046000Y-65172115D01*
X142041525Y-65156876D01*
X142040135Y-65155671D01*
X142032452Y-65154000D01*
X140860115Y-65154000D01*
X140844876Y-65158475D01*
X140843671Y-65159865D01*
X140842000Y-65167548D01*
X140842000Y-65758190D01*
X124054095Y-65758190D01*
X123188480Y-64892575D01*
X144636404Y-64892575D01*
X144655218Y-65099303D01*
X144656956Y-65105209D01*
X144656957Y-65105213D01*
X144700473Y-65253068D01*
X144713827Y-65298440D01*
X144809999Y-65482400D01*
X144940071Y-65644177D01*
X144944788Y-65648135D01*
X144944790Y-65648137D01*
X145048681Y-65735312D01*
X145099089Y-65777609D01*
X145104481Y-65780573D01*
X145104485Y-65780576D01*
X145275598Y-65874646D01*
X145280995Y-65877613D01*
X145478861Y-65940379D01*
X145484978Y-65941065D01*
X145484982Y-65941066D01*
X145561598Y-65949659D01*
X145640413Y-65958500D01*
X145752237Y-65958500D01*
X145755293Y-65958200D01*
X145755300Y-65958200D01*
X145900466Y-65943966D01*
X145900469Y-65943965D01*
X145906592Y-65943365D01*
X146038546Y-65903526D01*
X146099407Y-65885152D01*
X146099410Y-65885151D01*
X146105315Y-65883368D01*
X146112635Y-65879476D01*
X146283153Y-65788809D01*
X146283155Y-65788808D01*
X146288599Y-65785913D01*
X146348471Y-65737083D01*
X146444689Y-65658610D01*
X146444692Y-65658607D01*
X146449464Y-65654715D01*
X146581783Y-65494770D01*
X146585876Y-65487201D01*
X146677584Y-65317590D01*
X146677586Y-65317585D01*
X146680514Y-65312170D01*
X146741898Y-65113871D01*
X146743429Y-65099303D01*
X146762952Y-64913554D01*
X146762952Y-64913552D01*
X146763596Y-64907425D01*
X146762245Y-64892575D01*
X149236404Y-64892575D01*
X149255218Y-65099303D01*
X149256956Y-65105209D01*
X149256957Y-65105213D01*
X149300473Y-65253068D01*
X149313827Y-65298440D01*
X149409999Y-65482400D01*
X149540071Y-65644177D01*
X149544788Y-65648135D01*
X149544790Y-65648137D01*
X149648681Y-65735312D01*
X149699089Y-65777609D01*
X149704481Y-65780573D01*
X149704485Y-65780576D01*
X149875598Y-65874646D01*
X149880995Y-65877613D01*
X150078861Y-65940379D01*
X150084978Y-65941065D01*
X150084982Y-65941066D01*
X150161598Y-65949659D01*
X150240413Y-65958500D01*
X150352237Y-65958500D01*
X150355293Y-65958200D01*
X150355300Y-65958200D01*
X150500466Y-65943966D01*
X150500469Y-65943965D01*
X150506592Y-65943365D01*
X150638546Y-65903526D01*
X150699407Y-65885152D01*
X150699410Y-65885151D01*
X150705315Y-65883368D01*
X150712635Y-65879476D01*
X150883153Y-65788809D01*
X150883155Y-65788808D01*
X150888599Y-65785913D01*
X150922591Y-65758190D01*
X152242000Y-65758190D01*
X152242212Y-65763363D01*
X152256224Y-65933794D01*
X152257907Y-65943956D01*
X152313796Y-66166461D01*
X152317117Y-66176216D01*
X152408591Y-66386590D01*
X152413469Y-66395688D01*
X152538075Y-66588301D01*
X152544359Y-66596461D01*
X152698763Y-66766149D01*
X152706293Y-66773170D01*
X152886332Y-66915356D01*
X152894919Y-66921061D01*
X153095750Y-67031926D01*
X153105162Y-67036156D01*
X153321416Y-67112736D01*
X153331366Y-67115365D01*
X153428164Y-67132607D01*
X153441460Y-67131148D01*
X153445540Y-67118067D01*
X153954000Y-67118067D01*
X153957918Y-67131411D01*
X153972194Y-67133398D01*
X154033933Y-67123950D01*
X154043961Y-67121561D01*
X154262016Y-67050290D01*
X154271525Y-67046293D01*
X154475007Y-66940367D01*
X154483732Y-66934873D01*
X154667187Y-66797131D01*
X154674894Y-66790288D01*
X154833391Y-66624431D01*
X154839874Y-66616425D01*
X154969155Y-66426906D01*
X154974244Y-66417947D01*
X155070837Y-66209855D01*
X155074394Y-66200187D01*
X155135701Y-65979121D01*
X155137632Y-65969001D01*
X155157644Y-65781748D01*
X155158000Y-65775056D01*
X155158000Y-65172115D01*
X155153525Y-65156876D01*
X155152135Y-65155671D01*
X155144452Y-65154000D01*
X153972115Y-65154000D01*
X153956876Y-65158475D01*
X153955671Y-65159865D01*
X153954000Y-65167548D01*
X153954000Y-67118067D01*
X153445540Y-67118067D01*
X153446000Y-67116592D01*
X153446000Y-65172115D01*
X153441525Y-65156876D01*
X153440135Y-65155671D01*
X153432452Y-65154000D01*
X152260115Y-65154000D01*
X152244876Y-65158475D01*
X152243671Y-65159865D01*
X152242000Y-65167548D01*
X152242000Y-65758190D01*
X150922591Y-65758190D01*
X150948471Y-65737083D01*
X151044689Y-65658610D01*
X151044692Y-65658607D01*
X151049464Y-65654715D01*
X151181783Y-65494770D01*
X151185876Y-65487201D01*
X151277584Y-65317590D01*
X151277586Y-65317585D01*
X151280514Y-65312170D01*
X151341898Y-65113871D01*
X151343429Y-65099303D01*
X151362952Y-64913554D01*
X151362952Y-64913552D01*
X151363596Y-64907425D01*
X151344782Y-64700697D01*
X151342298Y-64692255D01*
X151323353Y-64627885D01*
X152242000Y-64627885D01*
X152246475Y-64643124D01*
X152247865Y-64644329D01*
X152255548Y-64646000D01*
X153427885Y-64646000D01*
X153443124Y-64641525D01*
X153444329Y-64640135D01*
X153446000Y-64632452D01*
X153446000Y-64627885D01*
X153954000Y-64627885D01*
X153958475Y-64643124D01*
X153959865Y-64644329D01*
X153967548Y-64646000D01*
X155139885Y-64646000D01*
X155155124Y-64641525D01*
X155156329Y-64640135D01*
X155158000Y-64632452D01*
X155158000Y-64041810D01*
X155157788Y-64036637D01*
X155143776Y-63866206D01*
X155142093Y-63856044D01*
X155086204Y-63633539D01*
X155082883Y-63623784D01*
X154991409Y-63413410D01*
X154986531Y-63404312D01*
X154861925Y-63211699D01*
X154855641Y-63203539D01*
X154701237Y-63033851D01*
X154693707Y-63026830D01*
X154513668Y-62884644D01*
X154505081Y-62878939D01*
X154304250Y-62768074D01*
X154294838Y-62763844D01*
X154078584Y-62687264D01*
X154068634Y-62684635D01*
X153971836Y-62667393D01*
X153958540Y-62668852D01*
X153954000Y-62683408D01*
X153954000Y-64627885D01*
X153446000Y-64627885D01*
X153446000Y-62681933D01*
X153442082Y-62668589D01*
X153427806Y-62666602D01*
X153366067Y-62676050D01*
X153356039Y-62678439D01*
X153137984Y-62749710D01*
X153128475Y-62753707D01*
X152924993Y-62859633D01*
X152916268Y-62865127D01*
X152732813Y-63002869D01*
X152725106Y-63009712D01*
X152566609Y-63175569D01*
X152560126Y-63183575D01*
X152430845Y-63373094D01*
X152425756Y-63382053D01*
X152329163Y-63590145D01*
X152325606Y-63599813D01*
X152264299Y-63820879D01*
X152262368Y-63830999D01*
X152242356Y-64018252D01*
X152242000Y-64024944D01*
X152242000Y-64627885D01*
X151323353Y-64627885D01*
X151287912Y-64507469D01*
X151286173Y-64501560D01*
X151190001Y-64317600D01*
X151059929Y-64155823D01*
X151047371Y-64145285D01*
X150905629Y-64026350D01*
X150900911Y-64022391D01*
X150895519Y-64019427D01*
X150895515Y-64019424D01*
X150724402Y-63925354D01*
X150719005Y-63922387D01*
X150521139Y-63859621D01*
X150515022Y-63858935D01*
X150515018Y-63858934D01*
X150438402Y-63850341D01*
X150359587Y-63841500D01*
X150247763Y-63841500D01*
X150244707Y-63841800D01*
X150244700Y-63841800D01*
X150099534Y-63856034D01*
X150099531Y-63856035D01*
X150093408Y-63856635D01*
X149961454Y-63896474D01*
X149900593Y-63914848D01*
X149900590Y-63914849D01*
X149894685Y-63916632D01*
X149889240Y-63919527D01*
X149889238Y-63919528D01*
X149716847Y-64011191D01*
X149716845Y-64011192D01*
X149711401Y-64014087D01*
X149698089Y-64024944D01*
X149555311Y-64141390D01*
X149555308Y-64141393D01*
X149550536Y-64145285D01*
X149546608Y-64150033D01*
X149546607Y-64150034D01*
X149478480Y-64232385D01*
X149418217Y-64305230D01*
X149415288Y-64310647D01*
X149415286Y-64310650D01*
X149322416Y-64482410D01*
X149322414Y-64482415D01*
X149319486Y-64487830D01*
X149258102Y-64686129D01*
X149257458Y-64692254D01*
X149257458Y-64692255D01*
X149255926Y-64706836D01*
X149236404Y-64892575D01*
X146762245Y-64892575D01*
X146744782Y-64700697D01*
X146742298Y-64692255D01*
X146687912Y-64507469D01*
X146686173Y-64501560D01*
X146590001Y-64317600D01*
X146459929Y-64155823D01*
X146447371Y-64145285D01*
X146305629Y-64026350D01*
X146300911Y-64022391D01*
X146295519Y-64019427D01*
X146295515Y-64019424D01*
X146124402Y-63925354D01*
X146119005Y-63922387D01*
X145921139Y-63859621D01*
X145915022Y-63858935D01*
X145915018Y-63858934D01*
X145838402Y-63850341D01*
X145759587Y-63841500D01*
X145647763Y-63841500D01*
X145644707Y-63841800D01*
X145644700Y-63841800D01*
X145499534Y-63856034D01*
X145499531Y-63856035D01*
X145493408Y-63856635D01*
X145361454Y-63896474D01*
X145300593Y-63914848D01*
X145300590Y-63914849D01*
X145294685Y-63916632D01*
X145289240Y-63919527D01*
X145289238Y-63919528D01*
X145116847Y-64011191D01*
X145116845Y-64011192D01*
X145111401Y-64014087D01*
X145098089Y-64024944D01*
X144955311Y-64141390D01*
X144955308Y-64141393D01*
X144950536Y-64145285D01*
X144946608Y-64150033D01*
X144946607Y-64150034D01*
X144878480Y-64232385D01*
X144818217Y-64305230D01*
X144815288Y-64310647D01*
X144815286Y-64310650D01*
X144722416Y-64482410D01*
X144722414Y-64482415D01*
X144719486Y-64487830D01*
X144658102Y-64686129D01*
X144657458Y-64692254D01*
X144657458Y-64692255D01*
X144655926Y-64706836D01*
X144636404Y-64892575D01*
X123188480Y-64892575D01*
X122923790Y-64627885D01*
X140842000Y-64627885D01*
X140846475Y-64643124D01*
X140847865Y-64644329D01*
X140855548Y-64646000D01*
X142027885Y-64646000D01*
X142043124Y-64641525D01*
X142044329Y-64640135D01*
X142046000Y-64632452D01*
X142046000Y-64627885D01*
X142554000Y-64627885D01*
X142558475Y-64643124D01*
X142559865Y-64644329D01*
X142567548Y-64646000D01*
X143739885Y-64646000D01*
X143755124Y-64641525D01*
X143756329Y-64640135D01*
X143758000Y-64632452D01*
X143758000Y-64041810D01*
X143757788Y-64036637D01*
X143743776Y-63866206D01*
X143742093Y-63856044D01*
X143686204Y-63633539D01*
X143682883Y-63623784D01*
X143591409Y-63413410D01*
X143586531Y-63404312D01*
X143461925Y-63211699D01*
X143455641Y-63203539D01*
X143301237Y-63033851D01*
X143293707Y-63026830D01*
X143113668Y-62884644D01*
X143105081Y-62878939D01*
X142904250Y-62768074D01*
X142894838Y-62763844D01*
X142678584Y-62687264D01*
X142668634Y-62684635D01*
X142571836Y-62667393D01*
X142558540Y-62668852D01*
X142554000Y-62683408D01*
X142554000Y-64627885D01*
X142046000Y-64627885D01*
X142046000Y-62681933D01*
X142042082Y-62668589D01*
X142027806Y-62666602D01*
X141966067Y-62676050D01*
X141956039Y-62678439D01*
X141737984Y-62749710D01*
X141728475Y-62753707D01*
X141524993Y-62859633D01*
X141516268Y-62865127D01*
X141332813Y-63002869D01*
X141325106Y-63009712D01*
X141166609Y-63175569D01*
X141160126Y-63183575D01*
X141030845Y-63373094D01*
X141025756Y-63382053D01*
X140929163Y-63590145D01*
X140925606Y-63599813D01*
X140864299Y-63820879D01*
X140862368Y-63830999D01*
X140842356Y-64018252D01*
X140842000Y-64024944D01*
X140842000Y-64627885D01*
X122923790Y-64627885D01*
X122718253Y-64422348D01*
X122684227Y-64360036D01*
X122689292Y-64289221D01*
X122731839Y-64232385D01*
X122792763Y-64208500D01*
X122795487Y-64208500D01*
X122982288Y-64168794D01*
X122988319Y-64166109D01*
X123150722Y-64093803D01*
X123150724Y-64093802D01*
X123156752Y-64091118D01*
X123311253Y-63978866D01*
X123315675Y-63973955D01*
X123434621Y-63841852D01*
X123434622Y-63841851D01*
X123439040Y-63836944D01*
X123534527Y-63671556D01*
X123593542Y-63489928D01*
X123602541Y-63404312D01*
X123612814Y-63306565D01*
X123613504Y-63300000D01*
X123603366Y-63203539D01*
X123594232Y-63116635D01*
X123594232Y-63116633D01*
X123593542Y-63110072D01*
X123534527Y-62928444D01*
X123439040Y-62763056D01*
X123365863Y-62681785D01*
X123335147Y-62617779D01*
X123333500Y-62597476D01*
X123333500Y-57302524D01*
X123353502Y-57234403D01*
X123365858Y-57218221D01*
X123439040Y-57136944D01*
X123534527Y-56971556D01*
X123593542Y-56789928D01*
X123613504Y-56600000D01*
X123593542Y-56410072D01*
X123534527Y-56228444D01*
X123439040Y-56063056D01*
X123418137Y-56039841D01*
X123387420Y-55975833D01*
X123396183Y-55905380D01*
X123418134Y-55871224D01*
X123539040Y-55736944D01*
X123634527Y-55571556D01*
X123693542Y-55389928D01*
X123713504Y-55200000D01*
X123693542Y-55010072D01*
X123634527Y-54828444D01*
X123539040Y-54663056D01*
X123411253Y-54521134D01*
X123385439Y-54502379D01*
X123342085Y-54446157D01*
X123333500Y-54400443D01*
X123333500Y-52202524D01*
X123353502Y-52134403D01*
X123365858Y-52118221D01*
X123439040Y-52036944D01*
X123534527Y-51871556D01*
X123593542Y-51689928D01*
X123613504Y-51500000D01*
X123593542Y-51310072D01*
X123534527Y-51128444D01*
X123439040Y-50963056D01*
X123311253Y-50821134D01*
X123156752Y-50708882D01*
X123150724Y-50706198D01*
X123150722Y-50706197D01*
X122988319Y-50633891D01*
X122988318Y-50633891D01*
X122982288Y-50631206D01*
X122888887Y-50611353D01*
X122801944Y-50592872D01*
X122801939Y-50592872D01*
X122795487Y-50591500D01*
X122604513Y-50591500D01*
X122598061Y-50592872D01*
X122598056Y-50592872D01*
X122511113Y-50611353D01*
X122417712Y-50631206D01*
X122411682Y-50633891D01*
X122411681Y-50633891D01*
X122249278Y-50706197D01*
X122249276Y-50706198D01*
X122243248Y-50708882D01*
X122088747Y-50821134D01*
X121960960Y-50963056D01*
X121865473Y-51128444D01*
X121806458Y-51310072D01*
X121786496Y-51500000D01*
X121806458Y-51689928D01*
X121865473Y-51871556D01*
X121960960Y-52036944D01*
X122034137Y-52118215D01*
X122064853Y-52182221D01*
X122066500Y-52202524D01*
X122066500Y-54619699D01*
X122049619Y-54682699D01*
X121965473Y-54828444D01*
X121906458Y-55010072D01*
X121886496Y-55200000D01*
X121906458Y-55389928D01*
X121965473Y-55571556D01*
X122060960Y-55736944D01*
X122065375Y-55741847D01*
X122065379Y-55741852D01*
X122081863Y-55760159D01*
X122112580Y-55824167D01*
X122103817Y-55894620D01*
X122081866Y-55928776D01*
X121960960Y-56063056D01*
X121865473Y-56228444D01*
X121806458Y-56410072D01*
X121786496Y-56600000D01*
X121806458Y-56789928D01*
X121865473Y-56971556D01*
X121960960Y-57136944D01*
X122034137Y-57218215D01*
X122064853Y-57282221D01*
X122066500Y-57302524D01*
X122066500Y-62597476D01*
X122046498Y-62665597D01*
X122034142Y-62681779D01*
X121960960Y-62763056D01*
X121865473Y-62928444D01*
X121806458Y-63110072D01*
X121805768Y-63116633D01*
X121805768Y-63116635D01*
X121795982Y-63209747D01*
X121768969Y-63275404D01*
X121710747Y-63316034D01*
X121639802Y-63318737D01*
X121581577Y-63285672D01*
X120770405Y-62474500D01*
X120736379Y-62412188D01*
X120733500Y-62385405D01*
X120733500Y-58402524D01*
X120753502Y-58334403D01*
X120765858Y-58318221D01*
X120839040Y-58236944D01*
X120934527Y-58071556D01*
X120993542Y-57889928D01*
X121013504Y-57700000D01*
X120993542Y-57510072D01*
X120934527Y-57328444D01*
X120839040Y-57163056D01*
X120819944Y-57141847D01*
X120715675Y-57026045D01*
X120715674Y-57026044D01*
X120711253Y-57021134D01*
X120556752Y-56908882D01*
X120550724Y-56906198D01*
X120550722Y-56906197D01*
X120388319Y-56833891D01*
X120388318Y-56833891D01*
X120382288Y-56831206D01*
X120288887Y-56811353D01*
X120201944Y-56792872D01*
X120201939Y-56792872D01*
X120195487Y-56791500D01*
X120004513Y-56791500D01*
X119998061Y-56792872D01*
X119998056Y-56792872D01*
X119843373Y-56825752D01*
X119817712Y-56831206D01*
X119817507Y-56830242D01*
X119752464Y-56832097D01*
X119691667Y-56795432D01*
X119660345Y-56731719D01*
X119658500Y-56710238D01*
X119658500Y-54836999D01*
X119675381Y-54773999D01*
X119731223Y-54677279D01*
X119731224Y-54677278D01*
X119734527Y-54671556D01*
X119793542Y-54489928D01*
X119798143Y-54446157D01*
X119812814Y-54306565D01*
X119813504Y-54300000D01*
X119793542Y-54110072D01*
X119734527Y-53928444D01*
X119639040Y-53763056D01*
X119511253Y-53621134D01*
X119356752Y-53508882D01*
X119350724Y-53506198D01*
X119350722Y-53506197D01*
X119188319Y-53433891D01*
X119188318Y-53433891D01*
X119182288Y-53431206D01*
X119088887Y-53411353D01*
X119001944Y-53392872D01*
X119001939Y-53392872D01*
X118995487Y-53391500D01*
X118804513Y-53391500D01*
X118798061Y-53392872D01*
X118798056Y-53392872D01*
X118711112Y-53411353D01*
X118617712Y-53431206D01*
X118611682Y-53433891D01*
X118611681Y-53433891D01*
X118449278Y-53506197D01*
X118449276Y-53506198D01*
X118443248Y-53508882D01*
X118288747Y-53621134D01*
X118160960Y-53763056D01*
X118065473Y-53928444D01*
X118006458Y-54110072D01*
X117986496Y-54300000D01*
X117987186Y-54306565D01*
X118001858Y-54446157D01*
X118006458Y-54489928D01*
X118065473Y-54671556D01*
X118068776Y-54677278D01*
X118068777Y-54677279D01*
X118124619Y-54773999D01*
X118141500Y-54836999D01*
X118141500Y-64863001D01*
X118124619Y-64926000D01*
X118065473Y-65028444D01*
X118006458Y-65210072D01*
X118005768Y-65216633D01*
X118005768Y-65216635D01*
X117987186Y-65393435D01*
X117986496Y-65400000D01*
X100738536Y-65400000D01*
X100738536Y-48216987D01*
X101519037Y-48216987D01*
X101519113Y-48218057D01*
X101522297Y-48222890D01*
X101802584Y-48437962D01*
X101808214Y-48441817D01*
X102113171Y-48627234D01*
X102119173Y-48630452D01*
X102442381Y-48781853D01*
X102448686Y-48784401D01*
X102786359Y-48900013D01*
X102792910Y-48901866D01*
X103141080Y-48980329D01*
X103147799Y-48981466D01*
X103502416Y-49021870D01*
X103509206Y-49022273D01*
X103866107Y-49024141D01*
X103872908Y-49023809D01*
X104227928Y-48987122D01*
X104234656Y-48986056D01*
X104583644Y-48911239D01*
X104590192Y-48909460D01*
X104929062Y-48797389D01*
X104935404Y-48794903D01*
X105260163Y-48646902D01*
X105266217Y-48643737D01*
X105573081Y-48461535D01*
X105578762Y-48457732D01*
X105864160Y-48243449D01*
X105869387Y-48239063D01*
X105882230Y-48227045D01*
X105888163Y-48216987D01*
X158519037Y-48216987D01*
X158519113Y-48218057D01*
X158522297Y-48222890D01*
X158802584Y-48437962D01*
X158808214Y-48441817D01*
X159113171Y-48627234D01*
X159119173Y-48630452D01*
X159442381Y-48781853D01*
X159448686Y-48784401D01*
X159786359Y-48900013D01*
X159792910Y-48901866D01*
X160141080Y-48980329D01*
X160147799Y-48981466D01*
X160502416Y-49021870D01*
X160509206Y-49022273D01*
X160866107Y-49024141D01*
X160872908Y-49023809D01*
X161227928Y-48987122D01*
X161234656Y-48986056D01*
X161583644Y-48911239D01*
X161590192Y-48909460D01*
X161929062Y-48797389D01*
X161935404Y-48794903D01*
X162260163Y-48646902D01*
X162266217Y-48643737D01*
X162573081Y-48461535D01*
X162578762Y-48457732D01*
X162864160Y-48243449D01*
X162869387Y-48239063D01*
X162882230Y-48227045D01*
X162890299Y-48213365D01*
X162890271Y-48212640D01*
X162885129Y-48204339D01*
X160718054Y-46037264D01*
X160704110Y-46029650D01*
X160702277Y-46029781D01*
X160695662Y-46034032D01*
X158526651Y-48203043D01*
X158519037Y-48216987D01*
X105888163Y-48216987D01*
X105890299Y-48213365D01*
X105890271Y-48212640D01*
X105885129Y-48204339D01*
X103718054Y-46037264D01*
X103704110Y-46029650D01*
X103702277Y-46029781D01*
X103695662Y-46034032D01*
X101526651Y-48203043D01*
X101519037Y-48216987D01*
X100738536Y-48216987D01*
X100738536Y-47684427D01*
X100758538Y-47616306D01*
X100812194Y-47569813D01*
X100882468Y-47559709D01*
X100947048Y-47589203D01*
X100969118Y-47614151D01*
X101017582Y-47686273D01*
X101021684Y-47691717D01*
X101146184Y-47839564D01*
X101158922Y-47848006D01*
X101169366Y-47841908D01*
X103333220Y-45678054D01*
X103339598Y-45666374D01*
X104069650Y-45666374D01*
X104069781Y-45668207D01*
X104074032Y-45674822D01*
X106239705Y-47840495D01*
X106253302Y-47847920D01*
X106262911Y-47841223D01*
X106367439Y-47719699D01*
X106371588Y-47714311D01*
X106573745Y-47420171D01*
X106577292Y-47414360D01*
X106746492Y-47100121D01*
X106749399Y-47093943D01*
X106883677Y-46763258D01*
X106885891Y-46756828D01*
X106983669Y-46413573D01*
X106985176Y-46406943D01*
X107045315Y-46055115D01*
X107046095Y-46048375D01*
X107067982Y-45690517D01*
X107068098Y-45686915D01*
X107068168Y-45667062D01*
X107068076Y-45663435D01*
X107067722Y-45656899D01*
X157342502Y-45656899D01*
X157360560Y-46013369D01*
X157361270Y-46020125D01*
X157417720Y-46372547D01*
X157419159Y-46379202D01*
X157513336Y-46723457D01*
X157515485Y-46729918D01*
X157646295Y-47061998D01*
X157649126Y-47068181D01*
X157815034Y-47384191D01*
X157818517Y-47390033D01*
X158017582Y-47686273D01*
X158021684Y-47691717D01*
X158146184Y-47839564D01*
X158158922Y-47848006D01*
X158169366Y-47841908D01*
X160333220Y-45678054D01*
X160340834Y-45664110D01*
X160340703Y-45662277D01*
X160336452Y-45655662D01*
X158170769Y-43489979D01*
X158157232Y-43482587D01*
X158147531Y-43489374D01*
X158035891Y-43620089D01*
X158031757Y-43625497D01*
X157830636Y-43920328D01*
X157827101Y-43926165D01*
X157658996Y-44240999D01*
X157656120Y-44247168D01*
X157522996Y-44578323D01*
X157520803Y-44584763D01*
X157424221Y-44928363D01*
X157422738Y-44934998D01*
X157363831Y-45287015D01*
X157363072Y-45293787D01*
X157342526Y-45650104D01*
X157342502Y-45656899D01*
X107067722Y-45656899D01*
X107048688Y-45305450D01*
X107047953Y-45298684D01*
X106990276Y-44946475D01*
X106988809Y-44939803D01*
X106893436Y-44595897D01*
X106891262Y-44589434D01*
X106759295Y-44257817D01*
X106756439Y-44251637D01*
X106589436Y-43936223D01*
X106585924Y-43930379D01*
X106385830Y-43634840D01*
X106381709Y-43629412D01*
X106264283Y-43490946D01*
X106251457Y-43482509D01*
X106241132Y-43488562D01*
X104077264Y-45652430D01*
X104069650Y-45666374D01*
X103339598Y-45666374D01*
X103340834Y-45664110D01*
X103340703Y-45662277D01*
X103336452Y-45655662D01*
X101170769Y-43489979D01*
X101157232Y-43482587D01*
X101147531Y-43489374D01*
X101035891Y-43620089D01*
X101031763Y-43625489D01*
X100968624Y-43718047D01*
X100913713Y-43763049D01*
X100843188Y-43771220D01*
X100779441Y-43739966D01*
X100742711Y-43679209D01*
X100738536Y-43647042D01*
X100738536Y-42799742D01*
X100758538Y-42731621D01*
X100812194Y-42685128D01*
X100864536Y-42673742D01*
X101718309Y-42673742D01*
X101786430Y-42693744D01*
G37*
%TD.AperFunction*%
%TD*%
M02*
