M48
; DRILL file {KiCad (6.0.6)} date Tue Sep  6 17:14:17 2022
; FORMAT={-:-/ absolute / metric / decimal}
; #@! TF.CreationDate,2022-09-06T17:14:17+09:00
; #@! TF.GenerationSoftware,Kicad,Pcbnew,(6.0.6)
; #@! TF.FileFunction,MixedPlating,1,2
FMAT,2
METRIC
; #@! TA.AperFunction,Plated,PTH,ViaDrill
T1C0.400
; #@! TA.AperFunction,Plated,PTH,ComponentDrill
T2C0.750
; #@! TA.AperFunction,Plated,PTH,ComponentDrill
T3C0.800
; #@! TA.AperFunction,Plated,PTH,ComponentDrill
T4C0.900
; #@! TA.AperFunction,Plated,PTH,ComponentDrill
T5C1.000
; #@! TA.AperFunction,Plated,PTH,ComponentDrill
T6C1.200
; #@! TA.AperFunction,Plated,PTH,ComponentDrill
T7C3.200
; #@! TA.AperFunction,NonPlated,NPTH,ComponentDrill
T8C1.100
%
G90
G05
T1
X101.6Y-83.3
X103.0Y-93.0
X105.1Y-89.5
X106.4Y-64.8
X109.0Y-101.0
X110.0Y-97.0
X111.2Y-72.6
X112.0Y-103.0
X113.0Y-59.0
X113.0Y-63.0
X115.2Y-83.2
X118.6Y-65.3
X118.624Y-60.624
X119.3Y-55.6
X120.0Y-91.0
X120.0Y-93.0
X120.1Y-57.7
X121.0Y-96.0
X122.0Y-98.0
X122.1Y-66.4
X122.7Y-51.6
X122.7Y-54.8
X124.6Y-72.6
X127.0Y-91.0
X128.0Y-87.0
X128.1Y-60.3
X129.0Y-91.0
X129.0Y-97.0
X129.1Y-99.2
X129.6Y-56.6
X129.6Y-58.9
X131.0Y-93.0
X131.0Y-95.0
X131.5Y-57.4
X137.0Y-93.0
X138.0Y-96.0
X138.2Y-66.4
X138.6Y-72.4
X139.2Y-92.7
X143.7Y-72.6
X147.0Y-96.0
X149.0Y-93.0
X152.0Y-77.1
X156.0Y-96.0
T2
X112.0Y-78.795
X112.0Y-86.415
X125.2Y-78.78
X125.2Y-86.4
X138.2Y-78.795
X138.2Y-86.415
X150.0Y-78.595
X150.0Y-86.215
T3
X107.8Y-78.22
X107.8Y-88.38
X120.3Y-78.005
X120.3Y-88.165
X134.0Y-77.82
X134.0Y-87.98
X145.5Y-78.22
X145.5Y-88.38
T5
X127.25Y-109.9
X129.75Y-109.9
X132.25Y-109.9
X134.75Y-109.9
X137.25Y-109.9
X139.75Y-109.9
T6
X159.1Y-74.9
X159.1Y-80.0
X159.1Y-84.9
X159.2Y-90.1
T7
X103.705Y-45.665
X103.955Y-111.165
X160.705Y-45.665
X160.705Y-111.165
T8
X145.7Y-64.9
X150.3Y-64.9
T4
G00X142.3Y-65.7
M15
G01X142.3Y-64.1
M16
G05
G00X153.7Y-65.7
M15
G01X153.7Y-64.1
M16
G05
T0
M30
