%TF.GenerationSoftware,KiCad,Pcbnew,(6.0.6)*%
%TF.CreationDate,2022-09-12T12:50:46+09:00*%
%TF.ProjectId,mouse,6d6f7573-652e-46b6-9963-61645f706362,rev?*%
%TF.SameCoordinates,Original*%
%TF.FileFunction,Copper,L1,Top*%
%TF.FilePolarity,Positive*%
%FSLAX46Y46*%
G04 Gerber Fmt 4.6, Leading zero omitted, Abs format (unit mm)*
G04 Created by KiCad (PCBNEW (6.0.6)) date 2022-09-12 12:50:46*
%MOMM*%
%LPD*%
G01*
G04 APERTURE LIST*
G04 Aperture macros list*
%AMRoundRect*
0 Rectangle with rounded corners*
0 $1 Rounding radius*
0 $2 $3 $4 $5 $6 $7 $8 $9 X,Y pos of 4 corners*
0 Add a 4 corners polygon primitive as box body*
4,1,4,$2,$3,$4,$5,$6,$7,$8,$9,$2,$3,0*
0 Add four circle primitives for the rounded corners*
1,1,$1+$1,$2,$3*
1,1,$1+$1,$4,$5*
1,1,$1+$1,$6,$7*
1,1,$1+$1,$8,$9*
0 Add four rect primitives between the rounded corners*
20,1,$1+$1,$2,$3,$4,$5,0*
20,1,$1+$1,$4,$5,$6,$7,0*
20,1,$1+$1,$6,$7,$8,$9,0*
20,1,$1+$1,$8,$9,$2,$3,0*%
G04 Aperture macros list end*
%TA.AperFunction,ComponentPad*%
%ADD10C,2.400000*%
%TD*%
%TA.AperFunction,ComponentPad*%
%ADD11R,1.500000X1.500000*%
%TD*%
%TA.AperFunction,ComponentPad*%
%ADD12O,1.500000X1.500000*%
%TD*%
%TA.AperFunction,SMDPad,CuDef*%
%ADD13RoundRect,0.150000X-0.875000X-0.150000X0.875000X-0.150000X0.875000X0.150000X-0.875000X0.150000X0*%
%TD*%
%TA.AperFunction,ComponentPad*%
%ADD14C,1.600000*%
%TD*%
%TA.AperFunction,ComponentPad*%
%ADD15O,1.600000X1.600000*%
%TD*%
%TA.AperFunction,ComponentPad*%
%ADD16C,5.700000*%
%TD*%
%TA.AperFunction,SMDPad,CuDef*%
%ADD17R,2.200000X1.600000*%
%TD*%
%TA.AperFunction,SMDPad,CuDef*%
%ADD18RoundRect,0.200000X0.200000X0.275000X-0.200000X0.275000X-0.200000X-0.275000X0.200000X-0.275000X0*%
%TD*%
%TA.AperFunction,SMDPad,CuDef*%
%ADD19R,1.100000X2.500000*%
%TD*%
%TA.AperFunction,ComponentPad*%
%ADD20O,1.900000X3.500000*%
%TD*%
%TA.AperFunction,ComponentPad*%
%ADD21C,1.524000*%
%TD*%
%TA.AperFunction,ViaPad*%
%ADD22C,0.800000*%
%TD*%
%TA.AperFunction,Conductor*%
%ADD23C,0.250000*%
%TD*%
%TA.AperFunction,Conductor*%
%ADD24C,0.500000*%
%TD*%
G04 APERTURE END LIST*
D10*
%TO.P,CP1,1,Pin_1*%
%TO.N,Net-(CP1-Pad1)*%
X159200000Y-90100000D03*
%TD*%
D11*
%TO.P,D4,1,K*%
%TO.N,VCC*%
X145400000Y-74985000D03*
D12*
%TO.P,D4,2,A*%
%TO.N,Net-(C4-Pad1)*%
X145400000Y-82605000D03*
%TD*%
D13*
%TO.P,U4,1,S*%
%TO.N,VCC*%
X107350000Y-54305000D03*
%TO.P,U4,2,I0a*%
%TO.N,Net-(U2-Pad13)*%
X107350000Y-55575000D03*
%TO.P,U4,3,I1a*%
%TO.N,Net-(J1-Pad3)*%
X107350000Y-56845000D03*
%TO.P,U4,4,Za*%
%TO.N,Net-(CP1-Pad1)*%
X107350000Y-58115000D03*
%TO.P,U4,5,I0b*%
%TO.N,Net-(U2-Pad5)*%
X107350000Y-59385000D03*
%TO.P,U4,6,I1b*%
%TO.N,Net-(U1-Pad3)*%
X107350000Y-60655000D03*
%TO.P,U4,7,Zb*%
%TO.N,Net-(CP2-Pad1)*%
X107350000Y-61925000D03*
%TO.P,U4,8,GND*%
%TO.N,GND*%
X107350000Y-63195000D03*
%TO.P,U4,9,Zc*%
%TO.N,Net-(Cp3-Pad1)*%
X116650000Y-63195000D03*
%TO.P,U4,10,I1c*%
%TO.N,Net-(U1-Pad5)*%
X116650000Y-61925000D03*
%TO.P,U4,11,I0c*%
%TO.N,Net-(U3-Pad13)*%
X116650000Y-60655000D03*
%TO.P,U4,12,Zd*%
%TO.N,Net-(CP4-Pad1)*%
X116650000Y-59385000D03*
%TO.P,U4,13,I1d*%
%TO.N,Net-(U1-Pad9)*%
X116650000Y-58115000D03*
%TO.P,U4,14,I0d*%
%TO.N,Net-(U3-Pad5)*%
X116650000Y-56845000D03*
%TO.P,U4,15,E*%
%TO.N,GND*%
X116650000Y-55575000D03*
%TO.P,U4,16,VCC*%
%TO.N,VCC*%
X116650000Y-54305000D03*
%TD*%
D14*
%TO.P,R3,1*%
%TO.N,VCC*%
X138200000Y-72820000D03*
D15*
%TO.P,R3,2*%
%TO.N,Net-(C3-Pad1)*%
X138200000Y-82980000D03*
%TD*%
D10*
%TO.P,Cp3,1,Pin_1*%
%TO.N,Net-(Cp3-Pad1)*%
X159100000Y-80000000D03*
%TD*%
D14*
%TO.P,R1,1*%
%TO.N,VCC*%
X113017500Y-72417500D03*
D15*
%TO.P,R1,2*%
%TO.N,Net-(C1-Pad1)*%
X113017500Y-82577500D03*
%TD*%
D16*
%TO.P,REF1,1*%
%TO.N,GND*%
X103955242Y-111165242D03*
%TD*%
D17*
%TO.P,C3,1,+*%
%TO.N,Net-(C3-Pad1)*%
X136600000Y-86200000D03*
%TO.P,C3,2,-*%
%TO.N,GND*%
X133600000Y-86200000D03*
%TD*%
D18*
%TO.P,R5,1*%
%TO.N,Net-(R5-Pad1)*%
X130825000Y-67000000D03*
%TO.P,R5,2*%
%TO.N,Net-(R5-Pad2)*%
X129175000Y-67000000D03*
%TD*%
D13*
%TO.P,U3,1,A*%
%TO.N,Net-(U1-Pad6)*%
X141850000Y-90555000D03*
%TO.P,U3,2,B*%
%TO.N,VCC*%
X141850000Y-91825000D03*
%TO.P,U3,3,Clr*%
X141850000Y-93095000D03*
%TO.P,U3,4,~{Q}*%
%TO.N,unconnected-(U3-Pad4)*%
X141850000Y-94365000D03*
%TO.P,U3,5,Q*%
%TO.N,Net-(U3-Pad5)*%
X141850000Y-95635000D03*
%TO.P,U3,6,Cext*%
%TO.N,GND*%
X141850000Y-96905000D03*
%TO.P,U3,7,RCext*%
%TO.N,Net-(C4-Pad1)*%
X141850000Y-98175000D03*
%TO.P,U3,8*%
%TO.N,N/C*%
X141850000Y-99445000D03*
%TO.P,U3,9,A*%
%TO.N,Net-(U1-Pad8)*%
X151150000Y-99445000D03*
%TO.P,U3,10,B*%
%TO.N,VCC*%
X151150000Y-98175000D03*
%TO.P,U3,11,Clr*%
X151150000Y-96905000D03*
%TO.P,U3,12,~{Q}*%
%TO.N,unconnected-(U3-Pad12)*%
X151150000Y-95635000D03*
%TO.P,U3,13,Q*%
%TO.N,Net-(U3-Pad13)*%
X151150000Y-94365000D03*
%TO.P,U3,14,Cext*%
%TO.N,GND*%
X151150000Y-93095000D03*
%TO.P,U3,15,RCext*%
%TO.N,Net-(C3-Pad1)*%
X151150000Y-91825000D03*
%TO.P,U3,16*%
%TO.N,N/C*%
X151150000Y-90555000D03*
%TD*%
D17*
%TO.P,C2,1,+*%
%TO.N,Net-(C2-Pad1)*%
X123700000Y-86085000D03*
%TO.P,C2,2,-*%
%TO.N,GND*%
X120700000Y-86085000D03*
%TD*%
D13*
%TO.P,U2,1,A*%
%TO.N,Net-(U1-Pad2)*%
X124350000Y-90555000D03*
%TO.P,U2,2,B*%
%TO.N,VCC*%
X124350000Y-91825000D03*
%TO.P,U2,3,Clr*%
X124350000Y-93095000D03*
%TO.P,U2,4,~{Q}*%
%TO.N,unconnected-(U2-Pad4)*%
X124350000Y-94365000D03*
%TO.P,U2,5,Q*%
%TO.N,Net-(U2-Pad5)*%
X124350000Y-95635000D03*
%TO.P,U2,6,Cext*%
%TO.N,GND*%
X124350000Y-96905000D03*
%TO.P,U2,7,RCext*%
%TO.N,Net-(C2-Pad1)*%
X124350000Y-98175000D03*
%TO.P,U2,8*%
%TO.N,N/C*%
X124350000Y-99445000D03*
%TO.P,U2,9,A*%
%TO.N,Net-(U1-Pad4)*%
X133650000Y-99445000D03*
%TO.P,U2,10,B*%
%TO.N,VCC*%
X133650000Y-98175000D03*
%TO.P,U2,11,Clr*%
X133650000Y-96905000D03*
%TO.P,U2,12,~{Q}*%
%TO.N,unconnected-(U2-Pad12)*%
X133650000Y-95635000D03*
%TO.P,U2,13,Q*%
%TO.N,Net-(U2-Pad13)*%
X133650000Y-94365000D03*
%TO.P,U2,14,Cext*%
%TO.N,GND*%
X133650000Y-93095000D03*
%TO.P,U2,15,RCext*%
%TO.N,Net-(C1-Pad1)*%
X133650000Y-91825000D03*
%TO.P,U2,16*%
%TO.N,N/C*%
X133650000Y-90555000D03*
%TD*%
D14*
%TO.P,R2,1*%
%TO.N,VCC*%
X125000000Y-72520000D03*
D15*
%TO.P,R2,2*%
%TO.N,Net-(C2-Pad1)*%
X125000000Y-82680000D03*
%TD*%
D11*
%TO.P,D3,1,K*%
%TO.N,VCC*%
X134000000Y-74385000D03*
D12*
%TO.P,D3,2,A*%
%TO.N,Net-(C3-Pad1)*%
X134000000Y-82005000D03*
%TD*%
D14*
%TO.P,R4,1*%
%TO.N,VCC*%
X149900000Y-72820000D03*
D15*
%TO.P,R4,2*%
%TO.N,Net-(C4-Pad1)*%
X149900000Y-82980000D03*
%TD*%
D10*
%TO.P,CP2,1,Pin_1*%
%TO.N,Net-(CP2-Pad1)*%
X159100000Y-84900000D03*
%TD*%
D16*
%TO.P,REF2,1*%
%TO.N,GND*%
X103705242Y-45665242D03*
%TD*%
%TO.P,REF3,1*%
%TO.N,GND*%
X160705242Y-111165242D03*
%TD*%
D10*
%TO.P,CP4,1,Pin_1*%
%TO.N,Net-(CP4-Pad1)*%
X159100000Y-74900000D03*
%TD*%
D19*
%TO.P,USB-A1,1,VBUS*%
%TO.N,VCC*%
X144500000Y-67650000D03*
%TO.P,USB-A1,2,D-*%
%TO.N,Net-(R5-Pad1)*%
X147000000Y-67650000D03*
%TO.P,USB-A1,3,D+*%
%TO.N,Net-(U5-Pad13)*%
X149000000Y-67650000D03*
%TO.P,USB-A1,4,GND*%
%TO.N,GND*%
X151500000Y-67650000D03*
D20*
%TO.P,USB-A1,5,Shield*%
X153700000Y-64900000D03*
X142300000Y-64900000D03*
%TD*%
D17*
%TO.P,C1,1,+*%
%TO.N,Net-(C1-Pad1)*%
X111917500Y-86197500D03*
%TO.P,C1,2,-*%
%TO.N,GND*%
X108917500Y-86197500D03*
%TD*%
D13*
%TO.P,U5,1,P0.0*%
%TO.N,Net-(CP1-Pad1)*%
X125350000Y-53920000D03*
%TO.P,U5,2,P0.1*%
%TO.N,Net-(CP2-Pad1)*%
X125350000Y-55190000D03*
%TO.P,U5,3,P0.2*%
%TO.N,Net-(Cp3-Pad1)*%
X125350000Y-56460000D03*
%TO.P,U5,4,P0.3*%
%TO.N,Net-(CP4-Pad1)*%
X125350000Y-57730000D03*
%TO.P,U5,5,P0.5*%
%TO.N,unconnected-(U5-Pad5)*%
X125350000Y-59000000D03*
%TO.P,U5,6,GND*%
%TO.N,GND*%
X125350000Y-60270000D03*
%TO.P,U5,7,Vpp*%
X125350000Y-61540000D03*
%TO.P,U5,8,VRG*%
%TO.N,Net-(R5-Pad2)*%
X125350000Y-62810000D03*
%TO.P,U5,9,XTALIN*%
%TO.N,unconnected-(U5-Pad9)*%
X125350000Y-64080000D03*
%TO.P,U5,10,XTALOUT*%
%TO.N,unconnected-(U5-Pad10)*%
X134650000Y-64080000D03*
%TO.P,U5,11,VCC*%
%TO.N,VCC*%
X134650000Y-62810000D03*
%TO.P,U5,12,D-*%
%TO.N,Net-(R5-Pad1)*%
X134650000Y-61540000D03*
%TO.P,U5,13,D+*%
%TO.N,Net-(U5-Pad13)*%
X134650000Y-60270000D03*
%TO.P,U5,14,P1.1*%
%TO.N,unconnected-(U5-Pad14)*%
X134650000Y-59000000D03*
%TO.P,U5,15,P0.7*%
%TO.N,GND*%
X134650000Y-57730000D03*
%TO.P,U5,16,P0.6*%
%TO.N,unconnected-(U5-Pad16)*%
X134650000Y-56460000D03*
%TO.P,U5,17,P0.5*%
%TO.N,unconnected-(U5-Pad17)*%
X134650000Y-55190000D03*
%TO.P,U5,18,P0.4*%
%TO.N,unconnected-(U5-Pad18)*%
X134650000Y-53920000D03*
%TD*%
D11*
%TO.P,D2,1,K*%
%TO.N,VCC*%
X120100000Y-74285000D03*
D12*
%TO.P,D2,2,A*%
%TO.N,Net-(C2-Pad1)*%
X120100000Y-81905000D03*
%TD*%
D16*
%TO.P,REF4,1*%
%TO.N,GND*%
X160705242Y-45665242D03*
%TD*%
D13*
%TO.P,U1,1*%
%TO.N,Net-(J1-Pad3)*%
X107350000Y-91190000D03*
%TO.P,U1,2*%
%TO.N,Net-(U1-Pad2)*%
X107350000Y-92460000D03*
%TO.P,U1,3*%
%TO.N,Net-(U1-Pad3)*%
X107350000Y-93730000D03*
%TO.P,U1,4*%
%TO.N,Net-(U1-Pad4)*%
X107350000Y-95000000D03*
%TO.P,U1,5*%
%TO.N,Net-(U1-Pad5)*%
X107350000Y-96270000D03*
%TO.P,U1,6*%
%TO.N,Net-(U1-Pad6)*%
X107350000Y-97540000D03*
%TO.P,U1,7*%
%TO.N,N/C*%
X107350000Y-98810000D03*
%TO.P,U1,8*%
%TO.N,Net-(U1-Pad8)*%
X116650000Y-98810000D03*
%TO.P,U1,9*%
%TO.N,Net-(U1-Pad9)*%
X116650000Y-97540000D03*
%TO.P,U1,10*%
%TO.N,N/C*%
X116650000Y-96270000D03*
%TO.P,U1,11*%
X116650000Y-95000000D03*
%TO.P,U1,12*%
X116650000Y-93730000D03*
%TO.P,U1,13*%
X116650000Y-92460000D03*
%TO.P,U1,14*%
X116650000Y-91190000D03*
%TD*%
D21*
%TO.P,J1,1,Pin_1*%
%TO.N,unconnected-(J1-Pad1)*%
X127250000Y-109900000D03*
%TO.P,J1,2,Pin_2*%
%TO.N,unconnected-(J1-Pad2)*%
X129750000Y-109900000D03*
%TO.P,J1,3,Pin_3*%
%TO.N,Net-(J1-Pad3)*%
X132250000Y-109900000D03*
%TO.P,J1,4,Pin_4*%
%TO.N,Net-(U1-Pad3)*%
X134750000Y-109900000D03*
%TO.P,J1,5,Pin_5*%
%TO.N,Net-(U1-Pad5)*%
X137250000Y-109900000D03*
%TO.P,J1,6,Pin_6*%
%TO.N,Net-(U1-Pad9)*%
X139750000Y-109900000D03*
%TD*%
D17*
%TO.P,C4,1,+*%
%TO.N,Net-(C4-Pad1)*%
X147600000Y-86400000D03*
%TO.P,C4,2,-*%
%TO.N,GND*%
X144600000Y-86400000D03*
%TD*%
D11*
%TO.P,D1,1,K*%
%TO.N,VCC*%
X108817500Y-74382500D03*
D12*
%TO.P,D1,2,A*%
%TO.N,Net-(C1-Pad1)*%
X108817500Y-82002500D03*
%TD*%
D22*
%TO.N,VCC*%
X118900000Y-65400000D03*
X153000000Y-96900000D03*
X118900000Y-54300000D03*
%TO.N,Net-(C2-Pad1)*%
X127800000Y-85930000D03*
X127800000Y-95000000D03*
%TO.N,Net-(C3-Pad1)*%
X141500000Y-89200000D03*
X148000000Y-89200000D03*
%TO.N,GND*%
X120700000Y-88085000D03*
X138000000Y-96000000D03*
X126500000Y-96900000D03*
X149000000Y-93000000D03*
X131600000Y-58900000D03*
X144500000Y-88400000D03*
X131000000Y-93000000D03*
X106400000Y-64800000D03*
X114100000Y-55600000D03*
X133600000Y-88400000D03*
X109617500Y-88197500D03*
X128100000Y-60300000D03*
%TO.N,Net-(U1-Pad4)*%
X129100000Y-99200000D03*
X112000000Y-103000000D03*
%TO.N,Net-(U1-Pad6)*%
X130800000Y-95200000D03*
X109000000Y-101000000D03*
%TO.N,Net-(U1-Pad2)*%
X119200000Y-90900000D03*
X105100000Y-89500000D03*
%TO.N,Net-(U2-Pad5)*%
X103000000Y-93000000D03*
X119200000Y-93000000D03*
%TO.N,Net-(U3-Pad5)*%
X120100000Y-57700000D03*
X139500000Y-95600000D03*
%TO.N,Net-(CP2-Pad1)*%
X122800000Y-55200000D03*
X122700000Y-51500000D03*
%TO.N,Net-(Cp3-Pad1)*%
X122700000Y-63300000D03*
X122700000Y-56600000D03*
%TO.N,Net-(U1-Pad5)*%
X110000000Y-97000000D03*
X116900000Y-67000000D03*
%TO.N,Net-(U1-Pad9)*%
X112700000Y-67100000D03*
X119300000Y-96000000D03*
%TD*%
D23*
%TO.N,Net-(U1-Pad6)*%
X131010000Y-94990000D02*
X135404695Y-94990000D01*
X135404695Y-94990000D02*
X136300000Y-94094695D01*
X136300000Y-94094695D02*
X136300000Y-91400000D01*
X130800000Y-95200000D02*
X131010000Y-94990000D01*
X136300000Y-91400000D02*
X137145000Y-90555000D01*
X137145000Y-90555000D02*
X141850000Y-90555000D01*
D24*
%TO.N,VCC*%
X133630000Y-96925000D02*
X129525000Y-96925000D01*
X129525000Y-96925000D02*
X129100000Y-96500000D01*
X129100000Y-96500000D02*
X129100000Y-94600000D01*
X129100000Y-94600000D02*
X127595000Y-93095000D01*
X127595000Y-93095000D02*
X124350000Y-93095000D01*
X148505000Y-96905000D02*
X150723249Y-96905000D01*
X142600000Y-93095000D02*
X144695000Y-93095000D01*
D23*
X142595000Y-93100000D02*
X141855000Y-93100000D01*
X142600000Y-93095000D02*
X142595000Y-93100000D01*
D24*
X144695000Y-93095000D02*
X148505000Y-96905000D01*
D23*
X141855000Y-93100000D02*
X141850000Y-93095000D01*
D24*
X123900000Y-70300000D02*
X137266751Y-70300000D01*
X137266751Y-70300000D02*
X139916751Y-67650000D01*
X144730000Y-69330000D02*
X144730000Y-69530000D01*
X144730000Y-67650000D02*
X144730000Y-69330000D01*
X119000000Y-65400000D02*
X123900000Y-70300000D01*
D23*
X118900000Y-65400000D02*
X119000000Y-65400000D01*
D24*
X144730000Y-69530000D02*
X148020000Y-72820000D01*
X148020000Y-72820000D02*
X149900000Y-72820000D01*
D23*
X136590000Y-62810000D02*
X136600000Y-62800000D01*
D24*
X134650000Y-62810000D02*
X136590000Y-62810000D01*
X139916751Y-67650000D02*
X144500000Y-67650000D01*
X136600000Y-64333249D02*
X139916751Y-67650000D01*
X136600000Y-62800000D02*
X136600000Y-64333249D01*
D23*
%TO.N,Net-(R5-Pad1)*%
X130825000Y-62475000D02*
X131760000Y-61540000D01*
X130825000Y-67000000D02*
X130825000Y-62475000D01*
X131760000Y-61540000D02*
X134650000Y-61540000D01*
%TO.N,VCC*%
X141850000Y-91825000D02*
X141850000Y-93095000D01*
X118232500Y-72417500D02*
X120100000Y-74285000D01*
X113017500Y-72417500D02*
X110782500Y-72417500D01*
D24*
X138255000Y-93095000D02*
X141850000Y-93095000D01*
D23*
X120100000Y-74285000D02*
X123235000Y-74285000D01*
X152995000Y-96905000D02*
X153000000Y-96900000D01*
X147735000Y-74985000D02*
X149900000Y-72820000D01*
X118895000Y-54305000D02*
X118900000Y-54300000D01*
X113017500Y-72417500D02*
X118232500Y-72417500D01*
X143235000Y-72820000D02*
X145400000Y-74985000D01*
X144500000Y-67650000D02*
X144730000Y-67650000D01*
X138200000Y-72820000D02*
X135565000Y-72820000D01*
X135565000Y-72820000D02*
X134000000Y-74385000D01*
X133650000Y-96905000D02*
X133630000Y-96925000D01*
D24*
X124350000Y-91825000D02*
X124350000Y-93095000D01*
X116650000Y-54305000D02*
X118895000Y-54305000D01*
D23*
X138200000Y-72820000D02*
X143235000Y-72820000D01*
D24*
X151150000Y-96905000D02*
X152995000Y-96905000D01*
D23*
X110782500Y-72417500D02*
X108817500Y-74382500D01*
X125000000Y-72520000D02*
X132135000Y-72520000D01*
X151150000Y-98175000D02*
X151150000Y-96905000D01*
D24*
X134445000Y-96905000D02*
X138255000Y-93095000D01*
D23*
X132135000Y-72520000D02*
X134000000Y-74385000D01*
X145400000Y-74985000D02*
X147735000Y-74985000D01*
D24*
X107350000Y-54305000D02*
X116650000Y-54305000D01*
D23*
X133650000Y-96905000D02*
X133650000Y-98175000D01*
X123235000Y-74285000D02*
X125000000Y-72520000D01*
X133650000Y-96905000D02*
X134445000Y-96905000D01*
X150723249Y-96905000D02*
X151150000Y-96905000D01*
%TO.N,Net-(C2-Pad1)*%
X125000000Y-82680000D02*
X123700000Y-83980000D01*
X127800000Y-95000000D02*
X127800000Y-96700000D01*
X120100000Y-81905000D02*
X124225000Y-81905000D01*
X124225000Y-81905000D02*
X125000000Y-82680000D01*
X127800000Y-96700000D02*
X126325000Y-98175000D01*
X126325000Y-98175000D02*
X124350000Y-98175000D01*
X127800000Y-85930000D02*
X127645000Y-86085000D01*
X123700000Y-83980000D02*
X123700000Y-86085000D01*
X127645000Y-86085000D02*
X123700000Y-86085000D01*
%TO.N,Net-(C3-Pad1)*%
X138500000Y-86200000D02*
X136600000Y-86200000D01*
X137225000Y-82005000D02*
X138200000Y-82980000D01*
X150625000Y-91825000D02*
X148000000Y-89200000D01*
X136600000Y-86200000D02*
X136600000Y-84580000D01*
X136600000Y-84580000D02*
X138200000Y-82980000D01*
X134000000Y-82005000D02*
X137225000Y-82005000D01*
X141500000Y-89200000D02*
X138500000Y-86200000D01*
X151150000Y-91825000D02*
X150625000Y-91825000D01*
%TO.N,Net-(C4-Pad1)*%
X147600000Y-86400000D02*
X151400000Y-86400000D01*
X153180000Y-98820000D02*
X142495000Y-98820000D01*
X154100000Y-89100000D02*
X154100000Y-97900000D01*
X149900000Y-82980000D02*
X149900000Y-83100000D01*
X154100000Y-97900000D02*
X153180000Y-98820000D01*
X145400000Y-82605000D02*
X149525000Y-82605000D01*
X142495000Y-98820000D02*
X141850000Y-98175000D01*
X147600000Y-85400000D02*
X147600000Y-86400000D01*
X149525000Y-82605000D02*
X149900000Y-82980000D01*
X149900000Y-83100000D02*
X147600000Y-85400000D01*
X147600000Y-85480000D02*
X147600000Y-86400000D01*
X150000000Y-83080000D02*
X147600000Y-85480000D01*
X151400000Y-86400000D02*
X154100000Y-89100000D01*
%TO.N,Net-(C1-Pad1)*%
X130930000Y-89930000D02*
X115650000Y-89930000D01*
X112917500Y-82397500D02*
X109212500Y-82397500D01*
X111917500Y-86197500D02*
X112917500Y-85197500D01*
X133650000Y-91825000D02*
X132825000Y-91825000D01*
X109212500Y-82397500D02*
X108817500Y-82002500D01*
X115650000Y-89930000D02*
X111917500Y-86197500D01*
X132825000Y-91825000D02*
X130930000Y-89930000D01*
X112917500Y-85197500D02*
X112917500Y-82397500D01*
%TO.N,GND*%
X149000000Y-93000000D02*
X151055000Y-93000000D01*
X138000000Y-96000000D02*
X138905000Y-96905000D01*
X131600000Y-58900000D02*
X132800000Y-57700000D01*
X133555000Y-93000000D02*
X133650000Y-93095000D01*
X151500000Y-67650000D02*
X153700000Y-65450000D01*
X109617500Y-88197500D02*
X109617500Y-86697500D01*
X131000000Y-93000000D02*
X133555000Y-93000000D01*
X116650000Y-55575000D02*
X114125000Y-55575000D01*
X126495000Y-96905000D02*
X126500000Y-96900000D01*
X151055000Y-93000000D02*
X151150000Y-93095000D01*
X153700000Y-65450000D02*
X153700000Y-64900000D01*
X114125000Y-55575000D02*
X114100000Y-55600000D01*
X128100000Y-60300000D02*
X125380000Y-60300000D01*
X106400000Y-64145000D02*
X107350000Y-63195000D01*
X106400000Y-64800000D02*
X106400000Y-64145000D01*
X125380000Y-60300000D02*
X125350000Y-60270000D01*
X125350000Y-60270000D02*
X125350000Y-61540000D01*
X133400000Y-86000000D02*
X133600000Y-86200000D01*
X138905000Y-96905000D02*
X141850000Y-96905000D01*
X144500000Y-88400000D02*
X144500000Y-86500000D01*
X134620000Y-57700000D02*
X134650000Y-57730000D01*
X120700000Y-88085000D02*
X120700000Y-86085000D01*
X132800000Y-57700000D02*
X134620000Y-57700000D01*
X124350000Y-96905000D02*
X126495000Y-96905000D01*
X133600000Y-85900000D02*
X133600000Y-88400000D01*
X144500000Y-86500000D02*
X144600000Y-86400000D01*
%TO.N,Net-(U1-Pad4)*%
X106000000Y-99156751D02*
X109843249Y-103000000D01*
X133650000Y-99445000D02*
X129445000Y-99445000D01*
X107350000Y-95000000D02*
X106923249Y-95000000D01*
X106000000Y-95923249D02*
X106000000Y-99156751D01*
X106923249Y-95000000D02*
X106000000Y-95923249D01*
X109843249Y-103000000D02*
X112000000Y-103000000D01*
%TO.N,Net-(U1-Pad6)*%
X107350000Y-97540000D02*
X107776751Y-97540000D01*
X109000000Y-98763249D02*
X109000000Y-101000000D01*
X107776751Y-97540000D02*
X109000000Y-98763249D01*
%TO.N,Net-(U1-Pad8)*%
X116650000Y-98810000D02*
X117910000Y-100070000D01*
X117910000Y-100070000D02*
X150525000Y-100070000D01*
X150525000Y-100070000D02*
X151150000Y-99445000D01*
%TO.N,Net-(J1-Pad3)*%
X110100000Y-61074695D02*
X110125000Y-61099695D01*
X107776751Y-91190000D02*
X114550000Y-97963249D01*
X110100000Y-61725305D02*
X110100000Y-64700000D01*
X110125000Y-61099695D02*
X110125000Y-61700305D01*
X107000000Y-90840000D02*
X107350000Y-91190000D01*
X107776751Y-56845000D02*
X110100000Y-59168249D01*
X131163000Y-110987000D02*
X132250000Y-109900000D01*
X107350000Y-91190000D02*
X107776751Y-91190000D01*
X110125000Y-61700305D02*
X110100000Y-61725305D01*
X107350000Y-56845000D02*
X107776751Y-56845000D01*
X125987000Y-110987000D02*
X131163000Y-110987000D01*
X105200000Y-87000000D02*
X107000000Y-88800000D01*
X114550000Y-99550000D02*
X125987000Y-110987000D01*
X114550000Y-97963249D02*
X114550000Y-99550000D01*
X105200000Y-69600000D02*
X105200000Y-87000000D01*
X110100000Y-59168249D02*
X110100000Y-61074695D01*
X107000000Y-88753833D02*
X107000000Y-90840000D01*
X110100000Y-64700000D02*
X105200000Y-69600000D01*
%TO.N,Net-(U1-Pad2)*%
X106278249Y-91815000D02*
X105100000Y-90636751D01*
X107350000Y-92460000D02*
X106705000Y-91815000D01*
X119300000Y-91000000D02*
X123905000Y-91000000D01*
X119200000Y-90900000D02*
X119300000Y-91000000D01*
X106705000Y-91815000D02*
X106278249Y-91815000D01*
X105100000Y-90636751D02*
X105100000Y-89500000D01*
X123905000Y-91000000D02*
X124350000Y-90555000D01*
%TO.N,Net-(U2-Pad5)*%
X105615000Y-59385000D02*
X107350000Y-59385000D01*
X103000000Y-62000000D02*
X105615000Y-59385000D01*
X122635000Y-95635000D02*
X124350000Y-95635000D01*
X103000000Y-93000000D02*
X103000000Y-62000000D01*
X120000000Y-93000000D02*
X122635000Y-95635000D01*
X119200000Y-93000000D02*
X120000000Y-93000000D01*
%TO.N,Net-(U2-Pad13)*%
X106400000Y-70400000D02*
X106400000Y-78400000D01*
X135095000Y-93346751D02*
X134076751Y-94365000D01*
X107700000Y-79700000D02*
X126850000Y-79700000D01*
X131116396Y-83966396D02*
X131116396Y-89480000D01*
X131116396Y-89480000D02*
X131136396Y-89500000D01*
X106400000Y-78400000D02*
X107700000Y-79700000D01*
X134291751Y-89500000D02*
X135095000Y-90303249D01*
X107776751Y-55575000D02*
X111000000Y-58798249D01*
X126850000Y-79700000D02*
X131116396Y-83966396D01*
X107350000Y-55575000D02*
X107776751Y-55575000D01*
X111000000Y-65800000D02*
X106400000Y-70400000D01*
X135095000Y-90303249D02*
X135095000Y-93346751D01*
X134076751Y-94365000D02*
X133650000Y-94365000D01*
X131136396Y-89500000D02*
X134291751Y-89500000D01*
X111000000Y-58798249D02*
X111000000Y-65800000D01*
%TO.N,Net-(U3-Pad5)*%
X139600000Y-95600000D02*
X139635000Y-95635000D01*
X139500000Y-95600000D02*
X139600000Y-95600000D01*
X120100000Y-57700000D02*
X118700000Y-57700000D01*
X117845000Y-56845000D02*
X116650000Y-56845000D01*
X118700000Y-57700000D02*
X117845000Y-56845000D01*
X139635000Y-95635000D02*
X141850000Y-95635000D01*
%TO.N,Net-(U3-Pad13)*%
X113900000Y-68500000D02*
X113900000Y-68700000D01*
X113100000Y-69500000D02*
X109600000Y-69500000D01*
X108100000Y-78300000D02*
X139300000Y-78300000D01*
X146025000Y-85025000D02*
X146025000Y-91050305D01*
X146025000Y-91050305D02*
X149339695Y-94365000D01*
X107100000Y-77300000D02*
X108100000Y-78300000D01*
X113900000Y-61400000D02*
X113900000Y-68300000D01*
X116650000Y-60655000D02*
X114645000Y-60655000D01*
X107100000Y-72000000D02*
X107100000Y-77300000D01*
X149339695Y-94365000D02*
X151150000Y-94365000D01*
X113900000Y-68700000D02*
X113100000Y-69500000D01*
X109600000Y-69500000D02*
X107100000Y-72000000D01*
X114645000Y-60655000D02*
X113900000Y-61400000D01*
X139300000Y-78300000D02*
X146025000Y-85025000D01*
%TO.N,Net-(CP1-Pad1)*%
X125350000Y-53920000D02*
X125975000Y-53295000D01*
X161750000Y-87550000D02*
X159200000Y-90100000D01*
X162650000Y-60650000D02*
X162650000Y-86650000D01*
X162650000Y-86650000D02*
X161800000Y-87500000D01*
X155295000Y-53295000D02*
X162650000Y-60650000D01*
X125975000Y-53295000D02*
X155295000Y-53295000D01*
X124220000Y-53920000D02*
X125350000Y-53920000D01*
X122800000Y-52500000D02*
X124220000Y-53920000D01*
X106000000Y-53958249D02*
X107458249Y-52500000D01*
X106923249Y-58115000D02*
X106000000Y-57191751D01*
X107458249Y-52500000D02*
X122800000Y-52500000D01*
X107350000Y-58115000D02*
X106923249Y-58115000D01*
X106000000Y-57191751D02*
X106000000Y-53958249D01*
%TO.N,Net-(CP2-Pad1)*%
X122800000Y-55200000D02*
X122810000Y-55190000D01*
X105550000Y-53750000D02*
X105550000Y-58011751D01*
X125975000Y-54565000D02*
X154701396Y-54565000D01*
X108401751Y-58740000D02*
X108700000Y-59038249D01*
X106278249Y-58740000D02*
X108401751Y-58740000D01*
X122700000Y-51500000D02*
X107800000Y-51500000D01*
X108700000Y-59038249D02*
X108700000Y-61001751D01*
X105550000Y-58011751D02*
X106278249Y-58740000D01*
X161400000Y-82600000D02*
X159100000Y-84900000D01*
X122810000Y-55190000D02*
X125350000Y-55190000D01*
X161400000Y-61263604D02*
X161400000Y-82600000D01*
X154701396Y-54565000D02*
X161400000Y-61263604D01*
X125350000Y-55190000D02*
X125975000Y-54565000D01*
X108700000Y-61001751D02*
X107776751Y-61925000D01*
X107800000Y-51500000D02*
X105550000Y-53750000D01*
X107776751Y-61925000D02*
X107350000Y-61925000D01*
%TO.N,Net-(Cp3-Pad1)*%
X160700000Y-78400000D02*
X159100000Y-80000000D01*
X125350000Y-56460000D02*
X125975000Y-55835000D01*
X125975000Y-55835000D02*
X154271396Y-55835000D01*
X122700000Y-56600000D02*
X125210000Y-56600000D01*
X125210000Y-56600000D02*
X125350000Y-56460000D01*
X122595000Y-63195000D02*
X122700000Y-63300000D01*
X154271396Y-55835000D02*
X160700000Y-62263604D01*
X116650000Y-63195000D02*
X122595000Y-63195000D01*
X160700000Y-62263604D02*
X160700000Y-78400000D01*
%TO.N,Net-(CP4-Pad1)*%
X159100000Y-74900000D02*
X159000000Y-74800000D01*
X124923249Y-57730000D02*
X125350000Y-57730000D01*
X121215000Y-59385000D02*
X122870000Y-57730000D01*
X122870000Y-57730000D02*
X124923249Y-57730000D01*
X125548249Y-57105000D02*
X124923249Y-57730000D01*
X159000000Y-74800000D02*
X159000000Y-62400000D01*
X116650000Y-59385000D02*
X121215000Y-59385000D01*
X159000000Y-62400000D02*
X153705000Y-57105000D01*
X153705000Y-57105000D02*
X125548249Y-57105000D01*
%TO.N,Net-(R5-Pad1)*%
X134650000Y-61540000D02*
X142540000Y-61540000D01*
X144774999Y-65424999D02*
X147000000Y-67650000D01*
X144774999Y-63774999D02*
X144774999Y-65424999D01*
X142540000Y-61540000D02*
X144774999Y-63774999D01*
%TO.N,Net-(U5-Pad13)*%
X134650000Y-60270000D02*
X143686297Y-60270000D01*
X143686297Y-60270000D02*
X149000000Y-65583703D01*
X149000000Y-65583703D02*
X149000000Y-67650000D01*
%TO.N,Net-(R5-Pad2)*%
X129175000Y-66208249D02*
X125776751Y-62810000D01*
X129175000Y-67000000D02*
X129175000Y-66208249D01*
X125776751Y-62810000D02*
X125350000Y-62810000D01*
%TO.N,Net-(U1-Pad3)*%
X104000000Y-90806751D02*
X104000000Y-63000000D01*
X106923249Y-93730000D02*
X104000000Y-90806751D01*
X107350000Y-93730000D02*
X106923249Y-93730000D01*
X132696751Y-111953249D02*
X134750000Y-109900000D01*
X107350000Y-93730000D02*
X107776751Y-93730000D01*
X107776751Y-93730000D02*
X126000000Y-111953249D01*
X104000000Y-63000000D02*
X106345000Y-60655000D01*
X126000000Y-111953249D02*
X132696751Y-111953249D01*
X106345000Y-60655000D02*
X107350000Y-60655000D01*
%TO.N,Net-(U1-Pad5)*%
X114900000Y-61925000D02*
X116650000Y-61925000D01*
X124506751Y-113000000D02*
X134415242Y-113000000D01*
X107350000Y-96270000D02*
X109270000Y-96270000D01*
X114900000Y-65200000D02*
X114900000Y-61925000D01*
X116900000Y-67000000D02*
X116700000Y-67000000D01*
X107776751Y-96270000D02*
X124506751Y-113000000D01*
X109270000Y-96270000D02*
X110000000Y-97000000D01*
X134415242Y-113000000D02*
X137300000Y-110115242D01*
X116700000Y-67000000D02*
X114900000Y-65200000D01*
X107350000Y-96270000D02*
X107776751Y-96270000D01*
%TO.N,Net-(U1-Pad9)*%
X114085000Y-58115000D02*
X116650000Y-58115000D01*
X124000000Y-108000000D02*
X129100000Y-108000000D01*
X112800000Y-59400000D02*
X114085000Y-58115000D01*
X112800000Y-67000000D02*
X112800000Y-59400000D01*
X115460000Y-97540000D02*
X115000000Y-98000000D01*
X115000000Y-98000000D02*
X115000000Y-99000000D01*
X118616751Y-96000000D02*
X117076751Y-97540000D01*
X116650000Y-97540000D02*
X115460000Y-97540000D01*
X117076751Y-97540000D02*
X116650000Y-97540000D01*
X115000000Y-99000000D02*
X124000000Y-108000000D01*
X119300000Y-96000000D02*
X118616751Y-96000000D01*
X112700000Y-67100000D02*
X112800000Y-67000000D01*
X138094758Y-108000000D02*
X139800000Y-109705242D01*
X129094758Y-108000000D02*
X138094758Y-108000000D01*
%TD*%
M02*
